<?xml version="1.0" encoding="utf-8"?>
<!-- Generator: Adobe Illustrator 17.1.0, SVG Export Plug-In . SVG Version: 6.00 Build 0)  -->
<!DOCTYPE svg PUBLIC "-//W3C//DTD SVG 1.1//EN" "http://www.w3.org/Graphics/SVG/1.1/DTD/svg11.dtd">
<svg version="1.1" id="Layer_1" xmlns="http://www.w3.org/2000/svg" xmlns:xlink="http://www.w3.org/1999/xlink" x="0px" y="0px"
	 viewBox="-475.7 -308.7 1051.4 717.5" enable-background="new -475.7 -308.7 1051.4 717.5" xml:space="preserve">
<path fill="#FFFFFF" d="M367,30.7c-6.7,4.4-13.1,8.6-19.5,12.8c-0.3,0.2-0.5,0.4-0.8,0.5c-6.6,1.7-7,6.2-6.8,12.3
	c2.1,78-22.5,146.4-75.3,204c-41.6,45.4-93,74-153.4,86.3c-41.9,8.6-83.7,7.5-125.3-2.7c-0.9-0.2-1.9-0.6-3.4-1
	c65.9-42.9,125.7-92.5,182.9-146c11.9,25.6,23.6,50.9,35.3,76.1c0.2-0.1,0.4-0.1,0.6-0.2c0.5-6.3,0.8-12.6,1.4-18.9
	c1.9-20.8,3.2-41.7,6.2-62.4c2.6-18.5,8.4-36.4,14.2-54.1c9.1-28.1,21.9-54.7,34.4-81.4c1.2-2.6,2.5-5.3,4-8.7
	c-1.7,0.7-2.7,1.1-3.7,1.5c-24.3,10.9-48.4,22.4-73.6,31.1c-24.7,8.5-49.6,15.9-75.6,19.2c-11.9,1.5-23.9,2-35.9,2.8
	c-12,0.8-24,1.4-36,2.1c-0.7,0-1.3,0.2-2.8,0.5c25.5,12.2,50.4,24.1,75.2,35.9c0.3,0.4,0.7,0.8,1,1.2c-1,0.5-2.2,0.8-2.9,1.5
	c-31.2,29-63.3,56.8-96.8,83c-33.2,26.1-67.7,50.4-104.8,70.7c-1,0.5-2.1,0.9-2.9,1.6c-6.1,5-11.3,3.6-16.8-1.4
	c-6.6-5.9-13.8-11.1-21.1-16.9c-7.4,16.7-16,32.8-16.2,51.9c5.8,0.9,11.1-0.2,16.2-1.5c14.9-3.6,28.8-10,42.3-17
	c33.6-17.4,64.6-38.7,94.8-61.2C45.2,220.2,86,185,125.2,147.9c3.9-3.7,7.3-7.8,11.1-11.8c-13.2-6.3-26.7-12.9-40.9-19.7
	c47.1-4.6,90.8-18.7,133.8-37.3c-18.8,42.7-34.1,85.9-39.6,132.2c-6.3-13.5-12.6-27-19-40.7c-0.9,0.8-1.6,1.4-2.3,2
	c-25.2,22.8-49.9,46-75.6,68.1C54.2,273.9,13.9,304.9-29.2,332c-25,15.7-50.6,30.3-78.5,40.2c-14.2,5-28.6,8.5-43.8,8.1
	c-27.4-0.7-47.1-20.5-47.6-47.9c-0.3-16.8,3.8-32.7,10.2-47.9c5.5-13,12-25.5,18.3-38.2c0.9-1.9,0.9-3.1-0.4-4.8
	c-34.3-44.4-54.1-94.6-58.7-150.5c-1.2-14-0.4-28.2-0.6-42.4c0-1.2-0.6-2.9-1.5-3.3c-11.5-5.8-22.2-12.9-32-21.2
	c-0.1-0.1-0.4-0.1-1-0.2c0,1.1,0,2.2,0,3.2c0.1,112.9,0.3,225.9,0.3,338.8c0,4.9-0.9,10.2-2.8,14.7c-4.5,10.8-12.9,16-24.9,15.5
	c-10.9-0.5-18-6.3-21.9-15.9c-1.8-4.7-2.6-10-2.7-15c-0.2-65.3-0.1-130.5-0.1-195.8c0-1.3,0-2.6,0-4.1c-7.5,0-14.7,0-22.2,0
	c0,1.5,0,2.7,0,4c0,65.5,0,130.9,0,196.4c0,7-1.6,13.5-5.3,19.6c-9,14.5-32.9,14.6-41.9-0.1c-2.7-4.5-4.6-9.2-5-14.4
	c-0.2-2.4-0.2-4.8-0.2-7.3c0-117.7,0-235.4,0-353.1c0-1.3,0-2.5,0-3.8c-0.3-0.1-0.7-0.2-1-0.3c-2.9,5.4-6.2,10.6-8.7,16.1
	c-5.4,12.2-9,25-10.3,38.4c-1.9,19.7-1,39.1,8,57.3c5.5,11.2,0.7,24.8-10.5,30.5c-11,5.6-24.5,1.5-30.6-9.5
	c-6.9-12.4-10.7-25.9-12.5-39.9c-4.1-32.7-0.4-64.5,13.3-94.7c15.2-33.4,39.1-58.5,73.1-72.8c8.3-3.5,17.8-4.4,26.9-5.1
	c10.3-0.9,20.8-0.3,31.2-0.2c8.9,0.1,17,2.9,24.6,7.5c12,7.4,21.5,17.2,30.1,28.2c9.5,12.1,19.4,23.8,32.2,32.7c1,0.7,2,1.3,3,2
	c24.9-87.7,77.3-152.2,160.3-190.4c58.8-27.1,120.2-31.7,183.4-17.3C55.9-168.4-3-118.4-60.3-65.5c-11.7-25.7-23.4-51.2-35.1-76.7
	c-0.2,0-0.4,0.1-0.6,0.1c-0.2,1.4-0.3,2.9-0.5,4.3c-1.5,20-2.8,40.1-4.5,60.1c-1.5,17.5-5.7,34.6-10.5,51.5
	c-9.2,32.7-22.4,63.7-37.2,94.2c-2.4,4.9-4.6,9.9-7.3,15.7c2.3-1,3.9-1.7,5.5-2.4c20.7-8.9,41.1-18.3,62-26.5
	c26.1-10.3,53-18,80.7-22c12.9-1.8,25.9-2.3,38.9-3.2c12.2-0.9,24.4-1.5,36.6-2.2c1-0.1,1.9-0.2,3-0.9c-25-11.9-50-23.8-75.3-35.8
	c5-4.7,9.7-9.1,14.4-13.4c33.9-30.8,68.9-60.1,105.5-87.7c22.2-16.7,45.2-32.3,69.1-46.4c8.2-4.8,16.7-9,25-13.6
	c1.9-1,3.2-0.8,4.9,0.5c8.2,6.3,16.4,12.4,24.7,18.6c0.5,0.4,1.1,0.8,2.3,1.8c3.8-9.3,7.9-18.1,10.9-27.2c2.2-6.5,3.3-13.5,4.4-20.3
	c0.6-3.8,0.1-3.9-3.7-3.8c-11.7,0.2-22.4,4.2-33,8.5c-22.3,9.1-43,21.4-63.2,34.4c-43.8,28-84.7,60-123.8,94.2
	C11.8-45.6-8.7-26.2-29.5-7.3c-0.6,0.5-1.3,1-2.5,1.9C-17.8,1.4-4.3,7.9,9.3,14.4c-46.5,4.9-90.1,19.3-133.4,37.8
	c9.9-21.6,18.2-43.1,24.9-65.1c6.7-22.1,12-44.5,14.8-67.7C-78-67-71.7-53.3-65.2-39.2c1.4-1.4,2.6-2.4,3.7-3.5
	c44-42.2,89.9-82.1,138.9-118.5c32.1-23.9,65.2-46.3,101-64.5c18.6-9.5,37.6-17.7,58.3-21.5c10.7-2,21.5-2.7,32.2,0
	c21.6,5.4,35.2,23,35.8,46.1c0.4,13.6-2.7,26.6-7,39.4c-5.3,15.7-12.5,30.6-20.4,45.2c-0.8,1.4-1.3,2.4,0,4
	C301.8-82,319.2-47.7,329.9-9.9c0.1,0.4,0.3,0.7,0.6,1.7c3.4-2.9,6.8-5.2,9.5-8.2c7.4-8,14.7-16.1,21.5-24.5
	C373.3-55.3,381-63,399.1-72.8c0-2.6-0.1-5.2,0-7.8c0.1-3.2,1.9-5.1,5.1-5.1c19.4,0,38.8,0,58.2,0c3.2,0,5,1.9,5.2,5.1
	c0.1,2,0,4,0,5.8c17.2,6,32.2,15.1,45.8,26.7c13.8,11.8,25,25.7,32.9,42.1c10,20.7,14.1,42.5,12.4,65.4c-0.4,5.5-1.3,11-2.1,16.5
	c-0.3,2-0.6,4.3-3.4,4.7c-0.5,0.1-1,1.5-1.3,2.4c-5.5,21.4-15.5,40.4-29.2,57.7c-6.7,8.5-14.7,13-26.1,10.7c0.2,3.1,0.6,5.8,0.5,8.6
	c-0.2,8.2-0.8,16.5-0.8,24.7c-0.1,60.2,0,120.4-0.2,180.6c0,5-0.9,10.4-2.7,15c-4.5,10.9-12.9,16.3-25,15.7c-9.8-0.4-18.3-6-22-16.2
	c-1.7-4.6-2.5-9.8-2.5-14.8c-0.2-65.3-0.1-130.5-0.1-195.8c0-1.3,0-2.6,0-4.1c-6.9,0-13.5,0-20.5,0c0,1.4,0,2.7,0,4
	c0,65.4,0,130.7,0,196.1c0,6.2-0.9,12.1-4,17.5c-4.7,8.4-11.6,13-21.5,13.2c-10.5,0.2-18-4.2-23.1-13.2c-3-5.3-4-11.2-4-17.2
	c-0.3-82.1-0.5-164.3-0.8-246.4c0-2,0.2-3.8-2-5.2c-0.9-0.5-1-2.7-1-4.1c0-25.2,0-50.5,0-75.7C367,33.1,367,32,367,30.7z M-53.6-132
	c0.9,0.5,1.7,0.9,2.5,1.4c-0.9,3,0.1,4.1,4.1,4.7c0.1-0.6,0.3-1.2,0.6-2.6c0.2,0.2-0.2-0.2-0.6-0.6c0.8-0.3,1.5-0.6,2.2-0.9
	c0-0.3,0-0.6,0-0.9c-2.4-0.9-4.9-1.7-7.3-2.6c0.9-1,1.8-1.9,2.8-3c2.1,7.3,6.3,1,9.4,1.7c0.4-1.1,0.8-2,1.2-3
	c-1.6-0.2-3.1-0.4-4.9-0.6c0.6-1,1.1-1.6,1.5-2.3c0.1,0.3,0.2,0.7,0.3,1c2-0.2,4.1-0.3,6-0.8c0.6-0.1,0.9-1.3,1.5-2.1
	c-1.4-0.5-2.4-0.9-4.2-1.5c1.1-1.1,1.8-2.1,2.7-2.8c0.4-0.3,1.7-0.1,1.8-0.4c0.4-1.3,0.6-2.6,0.7-3.9c0-0.7-0.3-1.5-0.5-2.4
	c-0.9-0.1-2.1-0.1-3.4-0.2c1.2-4.1,3.9-5.1,9.2-3.3c0.6-1.2,1.2-2.5,1.8-3.8c-1.5-1-4.4,1.3-4.3-2.4c0.8,0.2,1.5,0.4,2.1,0.6
	c0.4-0.4,0.7-0.8,1.1-1.3c-1.4-0.5-2.8-1-4.2-1.5c0.3-0.4,0.6-0.7,0.9-1.1c0.8,0.2,1.5,0.5,2.6,0.8c2.5-5.4,5-10.7,10.7-13.7
	c-0.2-0.2-0.3-0.4-0.5-0.6c-1-0.1-2.1-0.1-3.1-0.2c2.6-0.6,5.4,0.1,7.3-2.7c-1.2-0.1-2.2-0.2-2.2-0.2c4.1-1.8,8.7-3.8,13.8-6
	c-3.9-3.5-7.6-2.6-11.2-1.4c-3.6,1.3-6.9,3-10.4,4.5c-1.3,0.5-2.8,0.8-4.2,1.2c0-0.1-0.1-0.2-0.1-0.3c2.6-1.7,5.2-3.3,7.8-5
	c-0.2-0.4-0.3-0.7-0.5-1.1c-1.1,0.2-2.4,0.1-3.3,0.7c-4.1,2.4-4.5,2.6-8.4,2.7c1.3-0.6,2.6-1.1,3.9-1.7c-0.1-0.3-0.2-0.6-0.3-0.9
	c-3.9,0.8-7.8,1.5-12.3,2.4c8.1-4.2,17.5-2.1,24.8-7.6c-2.1-0.2-4.2-0.4-6.3-0.6c0-0.2,0.1-0.6,0.3-1.3c-4.8,1-9.3,1.8-13.7,3.1
	c-4.4,1.3-8.7,3-13,4.7c-4.4,1.8-9.3,3-12.9,5.9c-3.6,2.9-8.1,2.6-11.7,5.3c-3.7,2.7-8.1,4.6-12,6.9c-4,2.4-7.9,4.8-11.8,7.4
	c-4,2.6-7.9,5.3-11.7,8.1c-3.7,2.7-7.4,5.6-11,8.5c-3.5,2.9-6.9,5.9-10.3,8.8c3.9,0.3,7.4-3.7,10.4,0c-0.8,3.5-1.6,6.7-2.3,9.8
	c-0.7,2.7-0.9,5.6-2.1,8c-1.2,2.6-3.3,4.9-4.9,7.3c-0.4,0.6-0.6,1.5-0.8,2.2c0.9-0.4,1.8-0.6,2.6-1.1c1-0.5,1.9-1.3,2.8-1.9
	c0.2,0.3,0.3,0.5,0.5,0.8c-0.7,1-1.5,1.9-1.7,2.2c0.4,2.3,0.8,4.1,1,5.4c-2-0.7-3.5-1.4-5-1.7c-0.5-0.1-1.5,0.7-1.6,1.2
	c-0.1,0.5,0.5,1.5,1,1.8c1.6,0.8,3.3,1.3,5.2,2c-2.4,3.9-4.2,8.4-9.3,10.2c0.2,0.2,0.4,0.5,0.6,0.7c0.8-0.4,1.6-0.8,2.4-1.2
	c-0.1,0.8-0.1,1.5-0.2,2.3c-0.6,0.1-1.2,0.2-1.8,0.1c-2.5-0.1-7,4.7-6,6.8c0.8,1.6,0,2.1-0.6,2.9c-1,1.3-2,2-1.5,4.3
	c0.6,2.7-0.4,5.8-0.7,9c1.5-1,2.7-1.8,3.8-2.6c0.2,0.2,0.4,0.4,0.6,0.6c-1.4,1.6-2.8,3.1-3.8,4.2c-0.3,1.8-1.1,3.4-0.6,4.2
	c1.8,2.8,1.3,6.1,1,8.8c-0.3,3,2.4,2.9,2.8,4.7c1-0.3,2-0.6,3-0.9c0.7-0.2,1.3-0.5,2.4-1c-0.4,1.6-0.6,2.7-0.9,4.1
	c1.7,0.8,3.5,1.7,5.2,2.6c0.7-1.8,1.2-3.3,1.8-4.6c1.1-2.1,2.3-4,3.4-6c1-1.9,2-3.8,0.7-6.1c4.3,0.8,3.6-2.8,4.8-4.8
	c1.2-0.7,2.4-1.4,2.9-2.4c0.4-0.8-0.2-2.1-0.4-3.4c1.8-0.5,4.5-0.9,1.5-4.3c1.3-0.1,2.3-0.2,3.4-0.3c0.2-1.9,0.4-3.5,0.5-5.2
	c0.4-6.4,0.8-12.9,1.3-19.3c0.7-9.6,1.5-19.3,2.3-28.9c0.5-5.5,0.9-11,1.6-16.5c0.5-4.3,3.2-6.6,7.4-7.2c3.8-0.6,7,0.7,9.2,3.9
	c1.1,1.6,1.8,3.6,2.7,5.4c4.5,9.8,9,19.6,13.5,29.4c2,4.3,4,8.5,6.2,13.2c5.3-3.7,10.1-7.1,15.7-11c-4.9,0-8.9,0-12.7,0
	c-0.1-0.2-0.4-0.7-0.5-0.9c1.5-0.4,3.7-0.4,4.8-1.6c0.9-1,0.6-3.2,0.9-5.4c-1.4-0.2-2.7-0.1-3.8-0.5c-0.8-0.3-1.4-1.4-2-2.1
	c0.2-0.2,0.4-0.3,0.7-0.5c0.7,0.7,1.5,2,2.2,1.9c3.8-0.4,4.7,2.3,5.9,5c0.7,1.5,1.7,3.1,3.9,1.9c0.7-0.3,1.7-0.1,3.4-0.1
	c-0.4-2.3-1.2-4.6-1-6.7c0.2-1.9,0.3-3.4-1.4-4.3c-1.5-0.8-3.2-1.4-4.6-2c0.2-0.2,0.9-0.8,2.1-2c-2.3,0-3.7,0-5.2,0
	c1-0.7,2.1-0.8,2.9-1.3C-54.1-130.4-53.9-131.3-53.6-132z M127.3,66.7L127.3,66.7c-0.4,1.4-0.8,2.9-1.2,4.7c1.4,0,2.2,0,3.2,0
	c-0.2,0.6-0.5,1-0.4,1.4c0.5,1.7,2,3.7-1.2,4.5c-0.1,0,0.1,1.5,0.2,1.5c3.6,0.6,2.7,4.4,4.9,6.5c27.9-6,54.9-15.7,81.2-26.8
	c-1.9-2.8-3.9-5.1-5.2-7.8c-1.3-2.6-1.1-5.9-4.2-7.7c-0.3-0.2-0.2-1.3-0.3-1.9c-0.2-4.1,3.3-5.6,5.6-8c0.8-0.9,2-1.4,3-2.2
	c2.5-1.8,4.8-4.1,8.2-1.8c0,0,0.2-0.1,0.2-0.1c2.9-0.6,3.7,0,3.7,3.1c0,1.8,0,3.6,0,5.2c-4.5-1.5-5.7-0.6-5.1,4.4
	c-1.1,0.1-2.1,0.3-2.8,0.4c1.4,2.1,2.8,3.9,3.9,5.9c1.4,2.7,6.2,4.7,8.9,3.4c8.7-4,17.4-7.9,26.2-11.8c4.1-1.8,8.2-1.9,11.6,1.3
	c3.2,3,3.5,7,1.8,10.9c-2.8,6.5-5.9,12.8-8.8,19.2c-7,15.6-14,31.2-20.9,46.9c-1.5,3.4-2.5,6.9-3.7,10.4c2.7,1.2,4.7,1.5,7-0.4
	c2.6-2.2,3.7-1.5,4.6,2c0.4,1.5,0.5,3,2.7,2.9c6-0.4,12.1,1.7,18.1-0.5c2.4-0.9,5-1.1,7.4-1.6c2.3,4.3,4.1,8.9,10.3,9.7
	c-1.4,0.9-2.5,1.6-3.9,2.6c1.5,1.7,3,3.4,5.1,5.9c1.6-3.2,2.8-5.5,4-7.9c0.5,7.8,0.1,15.6,0.6,23.3c0.5,7.7,2,15.4,3,23
	c1.4-1,2-2,2.7-3c3.8-5.1,5.8-10.9,6.6-17.1c0.5-3.8,1.4-7.2,4.3-9.9c0.4-0.3,0.8-0.7,1-1.1c3.3-6.4,6.6-12.8,9.9-19.1
	c0.3-0.6,0.9-1,1.3-1.6c0.7-0.9,1.8-1.6,2-2.6c1.5-6.6,2.8-13.2,4-19.8c2.6-13.6,3.8-27.3,3.9-41.1c0.1-9.5-0.2-19-1.1-28.4
	c-1.2-12.1-2.6-24.2-5.1-36.1c-6.6-31.3-18.9-60.5-35.9-87.6c-13.8-22-30.2-41.9-49.8-59.1c-0.9-0.8-1.9-1.5-3-2.4
	c-0.5,5.6,4.8,7,6.9,10.3c-3.3-2.6-6.8-0.5-10.1-1c2.8,3.3,4.5,7,8.7,9.2c4.8,2.5,7.8,7.5,10.7,12.2c0.4,0.6,0.3,1.5,0.5,2.4
	c-1.6-1.7-3.2-2.9-4-4.5c-1.9-3.7-3.8-7-8.1-8.2c-0.1,0-0.1-0.2-0.2-0.2c-1.7-1.1-3.3-2.3-5-3.3c-0.6-0.4-1.6-0.2-2.4-0.2
	c-0.1,0.3-0.2,0.5-0.3,0.8c1.1,0.6,2.1,1.2,3.2,1.7c-0.3,0.4-0.6,0.8-1,1.1c-1.2-0.6-2.4-1.2-3.7-1.9c0.7,4.7,5.6,4.3,7.9,6.8
	c-7.5-0.1-9.8-6.3-13.1-11.3c0.2,1.6,1.1,3,0.9,4.3c-0.3,2.5,0.3,4.3,2.2,5.9c1.6,1.4,3.1,3.1,4.3,4.9c1.5,2.4,2.4,5.2,3.9,7.7
	c0.4,0.7,1.9,0.9,2.9,1c1.2,0.2,2.4,0,3.7,0c-3.6,2.8-3.5,3.1-0.7,6.4c0.8,1,1.2,2.6,1.3,4c0.1,2.6-0.2,5.3-0.4,8.4
	c-3.9-1.6-7.1-2.9-10.4-4.3c0.1-0.3,0.3-0.7,0.4-1c2.1,0.8,4.2,1.6,6.8,2.5c0-2.6,0.4-5.1-0.1-7.5c-0.4-2.1-1.6-4.2-2.8-6.1
	c-1.6-2.5-3.7-4.7-5.3-7.2c-2-3-3.4-6.5-5.8-9.1c-1.8-1.9-3.1-3.8-3.6-6.3c-0.9-3.9-3.5-6.1-7.5-6.7c-1-0.2-2.1-0.3-3-0.4
	c0.8,3.2,3,7,2,9.3c-2,4.5,2.5,5.4,3,8.2c0.2,0.9,0.5,1.9,0.9,2.8c0.4,0.8,0.8,1.7,1.4,2.2c1.9,1.5,3.8,3.3,6,4.2
	c2.6,1.1,2.2,3,2.5,5.1c-7.5-5.7-14.8-11-24.4-12c-1.3,3.5,2.9,4.2,3.3,6.5c-0.9,1.1-1.6,2-2.6,3.3c-0.3-0.5-0.8-1.1-1.2-1.8
	c-0.5-0.8-0.8-1.7-0.9-1.8c-2.9,0.4-5.2,0.7-7.6,1.1c-0.7,0.1-1.3,0.5-1.9,0.8c-1.4,0.7-2.9,1.4-3.7,1.8c-0.8-2.1-1.3-3.4-1.8-4.7
	c-0.3,0.1-0.6,0.2-1,0.3c-0.1,0.5-0.2,1.1-0.2,1.6c-0.6-0.1-1.2-0.2-1.9-0.4c0.3,0.9,0.5,1.4,0.8,2.5c-2.3-2.1-4-1.7-6,0.4
	c-1.5,1.6-3.4,2.9-4.5,3.8c-0.7,1.9-0.7,3.9-1.7,4.6c-2.1,1.4-5-0.4-7.8-4.5c1.3-0.7,2.5-1.5,3.8-2.2c-2.1-5.1-6.9-4.2-11-5.1
	c3.1,1.7,4,4.4,3.8,7.7c0,0.7,0.3,1.9,0.8,2.1c3.1,1.4,2.3,3.8,1.9,6.6c-2.2-0.7-4.1-1.4-6-2c-1.3,1.1-2.5,2.1-3.7,3.2
	c-2.7,2.5-2.7,3.6-0.6,6.5c0.5,0.7,0.4,1.9,0.6,2.9c-1-0.1-2.1,0.2-3-0.2c-3-1.3-5.8-2.8-8.8-4.2c-0.8,3.7,0,4.8,3.7,5.7
	c0.8,0.2,1.3,1.6,1.9,2.5c-0.8,0.4-1.9,1.3-2.4,1.1c-2.6-1.1-5.2-2.4-7.7-3.7c-0.3-0.2-0.5-0.6-0.7-0.9c-1-2-2-4-3.1-6.1
	c1.7-2,1.4-3.8-1.6-4.6c-2.9-0.8-4.4-3-6.6-4.6c-0.5-0.4-0.6-1.2-1-1.9c3.8,1.7,7.1,3.3,10.6,4.6c1.7,0.6,3.7,0.4,5.2,1.1
	c3.2,1.5,6.3,1.2,9.4,0.4c2.3-0.6,4.2-6.3,2.5-7.6c-2.8-2.3-5.7-4.3-8.7-6.3c-1.8-1.2-3.8-2.1-5.7-3.1c-1.7-0.9-3.3-2-4.9-2.9
	c-2.5-1.3-4.7-1-7,0.7c-4.9,3.8-10.1,7.4-15.1,11.2c-4.4,3.3-8.7,6.8-13.2,10.2c0.7,0.4,1.1,0.7,1.5,0.9c0.5,0.3,1.1,0.4,1.7,0.7
	c1.6,0.7,2.1,3.2,0.9,4.5c-1.5,1.6-2.9,3.2-4.3,4.9c-1.7,2.1-3,4.9-5.2,6.3c-1.9,1.3-2.4,2.7-2.1,4.3c0.8,4.3,1.9,8.5,2.7,11.8
	c2.4,1.4,4.7,2.3,6.3,3.9c1.3,1.3,2.2,1.4,3.8,0.8c3.7-1.2,7.5-2.1,11.3-3c1.8-0.4,3.6-0.3,5.8-0.5c-0.7,3.8,4.4,1.2,5,3.3
	c-2.1,1-4.9,1.4-5.8,3c-1.2,2.1-2.5,1.5-4,1.4c-2.8-0.2-5.6-0.9-8.3-0.5c-1.6,0.2-4.3,0.2-4.6,3c-0.2,2.8,1.3,5,3.8,5.4
	c0,1.3,0.2,2.6-0.1,3.9c-0.2,1.3-0.9,2.5-1.3,3.7c-0.9-0.6-2.1-1-2.6-1.9c-1.4-2.2-3.1-2.7-5.3-1.5c-1.1,0.6-2.4,7-2.1,8.3
	c0.6,2.4,0.9,4.8,1.3,7.4c-1.7,0-2.7-0.1-3.7,0.1c-0.5,0.1-1.4,1-1.3,1.2c0.9,2.1-1.3,2.3-2,2.3c-1.2-0.1-2.3-1-3.5-1.6
	c-0.7-0.4-1.7-1.4-2.1-1.3C81.2-14,77-11.8,72.7-9.9c-0.9,0.4-2.2,0.7-3,0.3c-0.9-0.4-1.5-1.6-2.4-2.6c0.1-0.3,0.4-0.9,0.7-1.8
	c-3.5,1.3-6.6,2.4-10.2,3.7c0.2-1.1,0.3-1.6,0.4-2.3c-3.7,1.3-4.9-1.6-6.3-3.9c-0.5-0.8-0.2-2.5,0.3-3.3c1.3-1.7,3.1-3.1,4.9-4.9
	c-3.6-0.7-3.5-2.8-1.9-5.5c0.2-0.4-0.3-1.3-0.6-2.5c-2.8,1.8-5.2,3.4-7.6,5c0.1,0.2,0.3,0.3,0.4,0.5c1.4-0.6,2.9-1.1,4.3-1.7
	c0.2,0.4,0.3,0.8,0.5,1.2c-1.8,0.8-3.5,1.7-5.4,2.6c0,1.5,0,3.4,0,5.7c3.8,3.4,3.9,11.2-0.4,12.7c-0.5-2.4-1.9-2.1-3.6-1.2
	c-0.7,0.4-1.5,0.5-2.3,0.8c-2.8,1.2-5.6,2.5-8.8,4c1.1,0.8,1.4,1.1,1.7,1.2c13.8,6.5,27.5,13.1,41.3,19.5c3.8,1.8,6.5,5.7,6.2,9.6
	c-0.4,4.7-2.8,7.7-7.7,8.3c-9.1,1-18.3,1.5-27.4,2.1c-10.6,0.7-21.1,1.3-31.7,1.9c-2.5,0.1-4,0.6-3.2,3.6c0.3,1.2-0.2,2.6-0.5,3.8
	c-0.6,2.9-2.2,3.8-4.9,3.1c-2-0.5-4.1-0.7-6.1-0.8c-4.2-0.2-8.8,0.8-12.6-0.5c-4.6-1.6-5.6,3.1-8,3c0.3,3,0.6,5.4,0.9,7.9
	c0.5,4.4,0,8.6-2.6,12.4c-1,1.5-1,3.1,0.5,4.1c2,1.4,1.6,3.2,1.5,5c0,0.9-0.2,1.7-0.3,3.2c2.1-0.1,4-0.2,5.9-0.3
	c1.8-0.1,3.4,0.1,4.2,2.1c0.4,1,1.1,2.1,1.9,2.6c0.7,0.4,2.2,0.6,2.7,0.1c2.6-2.2,5.4-3.1,8.8-2.8c4.8,0.4,9.2-2.4,11.4-6.7
	c0.7-1.4,1.7-2.6,2.8-4.2c-3.6-2.2-1.5-4.7,0.3-7.1c0.1-0.1,0.1-0.2,0.2-0.3c2.1-2.2,3.1-5.4,7.1-5.8c1.5-0.1,3.9-1.8,3.4-4.6
	c-0.2-1.1,0.1-2.4,0.2-3.5c0.2-4.2,5.3-5.8,9.6-3c1.6,1,3.1,2.1,4.9,0.6c2.7-2.1,5.3-4.3,8-6.5c0.4-0.3,1-0.6,1.4-0.4
	c2.3,1.1,4.6,1.6,6.2,4.2c3.6,5.9,7.6,11.8,15.1,13.5c0.5,0.1,0.9,0.8,1.3,1.2c2,1.7,3.9,3.8,6.2,4.9c1.5,0.7,1.9,1.5,2.5,2.9
	c1.1,2.5,0.9,4.8-0.3,7.1c-0.3,0.5,0,1.3,0.1,2c0.6-0.2,1.5-0.3,1.8-0.7c1.3-1.9,2.4-3.8,3.5-5.8c0.2-0.4-0.1-1.6-0.5-1.9
	c-3.3-2-1.2-3.7,0.2-6.1c1.8,1.1,3.5,2.1,5.5,3.3c0-1,0.3-2.2,0-2.4c-3.3-2.3-6.8-4.5-10.4-6.8c0-0.1,0.2-0.8,0.5-1.9
	c-4.9,1-7.3-1.9-9.5-5.2c-1.4-2-2.7-4.5-4.7-5.6c-2.9-1.7-3.5-4.1-2.8-6.7c0.3-1.3,2.4-2.1,3.6-3.2c0.5,0.8,1.1,1.6,1.6,2.5
	c0.4,0.8,0.8,1.8,1.3,3c0.9-1.3,1.4-2.1,2.2-3.2c1,1.1,1.7,2.1,2.7,2.9c1.9,1.6,1.6,4.7,4.2,6c2.3,1.2,4.4,2.8,6.6,4.3
	c0.3,0.2,0.5,0.3,0.8,0.4c1.5,0.8,3.1,1.3,4.4,2.3c2.9,2.2,4.6,5,3.9,8.9c-0.2,1.1,0,2.5,0.6,3.4c1.9,2.7,4.1,5,6,7.7
	c1.3,1.8,2.6,2.7,4.9,2.5c1.2-0.1,2.5,0.6,3.7,1c-1,0.5-1.7,0.2-2.5,0.2c-1.3,0-2.7,0.3-4,0.4c0.5,0.9,1,1.9,1.5,2.8
	c0.1,0.3,0.5,0.5,0.6,0.7c0.3,4.3,3.4,3.2,6.2,3.3c-0.5-1.2-0.9-2.1-1.3-3c0.8,0,1.4,0,2.3,0c-0.6-0.9-1.1-1.6-2-3
	c1.7,0.3,2.7,0.5,3.7,0.7c1.2-4.9,1.2-4.9-3-6.3c0.1,0.5,0.2,0.9,0.2,1.4c-2.6-1.2-2.7-1.6-0.7-4c-3.2-4.3-3.2-4.3-1.7-6.4
	c2.3,2.8,2.3,2.8,4.3-0.4c0.6-0.9,2-1.6,3.1-1.8C122.5,63.1,125.7,63,127.3,66.7z M548.2,69.6c0.2-1.1,0.5-1.7,0.5-2.4
	c0.2-9.3,1-18.5,0.5-27.8c-1.1-19.6-7.7-37.6-18.3-54.1c-10.9-16.9-25.7-29.8-42.6-40.5c-12.5-7.9-25.8-12.2-40.4-12.4
	c-10.1-0.2-20.2-0.1-30.3,0c-2.5,0-5,0.4-7.5,0.9c-10,2.1-18.2,7.8-25.5,14.5c-6.9,6.4-13,13.8-19.1,21
	c-9.5,11.4-19.1,22.7-31.3,31.4c-0.7,0.5-1.1,2.1-0.9,3c1.4,8.1,2.9,16.1,4.3,24.1c0.6,3.2,0.8,6.5,1.4,10.5c5-3.2,9.6-5.9,13.9-8.9
	c4.2-3,8.1-6.3,12.2-9.5c2.4-1.9,5-2.6,7.9-1.2c2.7,1.3,3.2,3.7,3.2,6.4c0,0.7,0,1.4,0,2.1c0,25.3,0,50.5,0,75.8c0,1.2,0,2.3,0,3.4
	c38.6,0,76.8,0,115,0c0-1.4,0-2.6,0-3.8c0-30.6,0-61.2,0-91.8c0-1.7,0.2-3.4,0.7-5.1c0.6-2.4,2.3-4,4.8-4.4c2.6-0.4,4.6,0.7,5.9,2.8
	c5.9,9.4,10.6,19.4,12.1,30.4c1.2,8.5,1.3,17.2,2,26.4C526.6,63.4,537.2,66.4,548.2,69.6z M-54.4,185.3c0.8,1.7,2.4,3.5,2.5,5.3
	c0.2,2.8,1.4,5.8,3.9,6.9c0.8,0.4,1.5,1.2,2.2,1.9c2,1.9,4,3.8,6,5.6c1.8,1.6,3.5,2.8,4,5.6c0.5,2.4,2.7,4.7,4.7,6.3
	c3.5,2.8,7.3,5.2,11.2,7.5c3.6,2.1,7.1,5.1,11.7,2.9c2.5-1.2,5.1-2.5,7.3-4.1c31-23.6,60.4-49.1,89.4-75.1c1.7-1.5,3.5-2.8,5.7-4.6
	c-7.5-3.5-13.8-6.5-20.1-9.5c-12.1-5.8-24.2-11.6-36.3-17.5c-2.8-1.4-5.7-2.6-8.5-4c-3.5-1.9-5.3-5.6-4.7-9.1c0.7-4,2.6-7.1,7-7.6
	c6-0.7,12-1.1,18-1.6c4.1-0.3,8.2-0.6,12.9-0.9c-1.3-1.4-2-2.3-2.7-3c0.8-1.6,1.4-2.9,2.1-4.2c-0.2-0.1-0.4-0.2-0.6-0.3
	c-0.7,0.4-1.5,0.9-2.3,1.4c-0.7-1.1-1.2-2-1.8-2.8c-1.1,0.1-2.1-0.2-2.9,0.2c-2.7,1.5-5.4,2.3-8.5,1.2c-1.2-0.5-3.2-0.9-4-0.3
	c-2.8,2.3-5.8,0.8-8.7,1c-4.6,0.3-9.2,1.5-13.7,2.6c-1.7,0.4-3.2,1.6-4.8,2.4c-1.5,0.8-3.1,1.3-4.4,2.3c-1.9,1.5-3.8,1.5-5.9,0.8
	c-0.8-0.3-1.7-0.3-2.6-0.5c-2.6-0.6-5.6,1.6-7.9-1.4c-0.4-0.6-1.4-0.8-2.1-1.2c-0.4,0.7-0.9,1.4-1.2,2.2c-1.2,3.7-2.6,7.2-6.8,8.7
	c-1.6,0.6-3,1.6-4.4,2.7c-3,2.3-2.5,6.5-4.7,9.3c-0.2,0.2,0.3,0.8,0.3,1.1c0,2.4,1.3,5-1.5,6.8c-0.5,0.4-0.7,1.3-1.2,1.7
	c-2.2,1.6-4.2,3.8-6.7,4.6c-2.6,0.8-4.1,2.3-5.2,4.5c-0.2,0.5-0.4,1.4-0.8,1.5c-3.3,0.9-4,3.8-5.3,6.4c-1.6,3.1-3.6,6-5.4,9.1
	c-0.8,1.4-1.4,2.9-2.3,4.2c-1.6,2.4-1.2,4.8,1,6.7c0.6,0.5,0.8,1.7,0.9,2.7c0.1,0.9-0.5,1.9-0.2,2.6
	C-48.5,173.2-51.8,179.1-54.4,185.3z M162.6,212.6c-13.5,12-26.7,24-40.2,35.6c-16,13.7-32.4,26.9-48.6,40.4
	c-2.5,2.1-5.2,4.2-7.2,6.7c-2.3,3-1.4,6.1,1,8.9c2.4,2.7,4.3,5.8,6.4,8.7c0.2,0.3,0.2,0.8,0.3,1.1c0.8,3.2,1.5,6.3,2.4,9.4
	c0.2,0.7,0.9,1.3,1.5,1.7c3.3,2.2,6.3,4.6,5.9,9.3c0,0.5,1.1,1.5,1.8,1.7c1.5,0.3,3.2,0.5,4.7,0.3c3.3-0.4,6.6-1,9.8-1.6
	c5-1,10.3-1.3,14.9-3.3c6.6-2.9,12.7-7,18.8-10.8c1.3-0.8,2.7-2.3,2.9-3.7c0.6-3.2,3.1-4,5.5-4.6c5.7-1.4,7.5-4.2,6.8-10.3
	c-0.1-0.9,0.7-2.4,1.5-2.9c5.8-3.6,11.8-6.8,17.6-10.5c2.2-1.4,4.5-3.6,5.4-5.9c1.4-3.5,1.6-7.4,2.3-11.3c-2.9-2-3.5-5.9-1.2-10.3
	c-2.2-1.2-1.9-2.8-0.7-4.5c1.3-1.8,2.8-3.4,3.9-5.3c0.6-1,1-2.6,0.6-3.5c-1.8-4.4-3.9-8.6-5.9-12.9
	C169.5,227.6,166,220.1,162.6,212.6z M-149.7,228c0.2-1.5,1-3.6,0.5-3.9c-1.3-0.9-3.1-1.3-4.8-1.6c-0.6-0.1-1.4,0.3-2.1,0.5
	c0.2-0.9,0.1-2,0.6-2.6c1.6-1.7,1.7-3.1,0.1-5c-1.4-1.6-2.1-3.6-3.4-5.3c-2.1-2.8-4.5-5.5-6.7-8.2c-3.1-3.8-9.1-3.2-11.7-7.9
	c-0.9-1.6-2-3.1-3.2-4.5c-1.4-1.6-3.2-2.9-4.6-4.5c-2.4-2.8-2.5-8.1-8.2-7.2c-0.3,0-0.7-0.4-0.9-0.7c-1.7-1.9-4.8-2.5-5.4-5.5
	c-0.1-0.2-0.7-0.4-1.5-0.7c0.3,1,0.4,1.4,0.6,1.9c4.7,9.6,9.2,19.3,14.1,28.7c10.5,20.1,24.2,37.9,39.7,54.3
	c9.1,9.6,19.5,18.1,29.3,27.1c1.9,1.7,4.2,3.2,6.4,4.5c1.4,0.8,2.8,1.4,3.1-1.5c0.5-4.7-0.3-9-2.1-13.2c-0.7-1.5-1.2-3.1-1.7-4.4
	c1-0.5,2.3-0.9,2.3-1.3c-0.2-2.9,2.4-3.9,3.7-5.8c0.7-1.1,1.6-2.7,1.4-3.8c-0.5-2.3-1.6-4.6-2.8-6.6c-0.7-1.2-2-2.1-3.2-2.9
	c-1.2-0.8-2.9-1.2-3.9-2.2c-4.9-4.9-10.6-8.5-17.3-10.3c-1.6-0.4-3.2-1.1-4.8-1.7c-2.4-4.2-7-5.7-10.6-8.1
	C-148,226.6-149,227.4-149.7,228z M-189-48.7c-1.3,0.5-2.3,1.3-3,1.1c-3.8-1.3-3.8,1.7-4.6,3.8c-1.6,4.4-3,8.8-4.6,13.2
	c-0.7,2-2.4,3.9-2.3,5.8c0.4,7.3-1.6,13.6-6.5,18.9c-0.6,0.7-1.1,1.7-1.3,2.6c-0.7,3.7-1,7.4-1.7,11c-0.3,1.5-1.2,2.9-1.9,4.4
	c-0.5,1.1-1.5,2.1-1.7,3.2c-1.1,6.6-2,13.3-3,20c-2.3,15.3-1.8,30.8-1.7,46.2c0,1.7,0.4,3.4,0.6,5.1c0.3,0,0.7,0,1,0
	c0.3-1.6,0.5-3.3,0.9-4.9c0.8-3.2-1.6-6.5,1.2-10c1.7-2.1,1.9-5.7,2.1-8.6c0.2-2.6,0.9-4.2,3.5-5c1.1-0.3,2-1.1,3-1.7
	c-1.2-3.2-0.4-7.8,2-10.1c1.6-1.6,3.7-2.7,5.1-4.4c1.3-1.6,3.8-2.8,5.9-2c-4.2,1.4-5.8,4.8-3.6,8.1c1.9-2,2.6-5.3,5.8-5.8
	c3-0.5,3.1-4.7,6.4-4.9c0.2,0,0.5-1,0.4-1.5c-0.2-1-0.7-2-1-2.9c-2.3,1-1.3,6.8-5.7,4.7c-4-1.9-3-5.9-2-9.1
	c-0.9-0.5-1.7-0.8-2.8-1.4c0.8-0.2,1-0.3,1.1-0.4c1-0.7,2.3-1.2,3-2.2c0.4-0.5,0-2.4-0.5-2.6c-1-0.3-2.4-0.2-3.3,0.2
	c-1.7,0.9-3.2,2.2-5.4,3.7c0.8-1.4,1.1-2.3,1.7-3c1.5-2.1,2.9-4.2,4.6-6c0.8-0.9,2.2-1.5,3.4-1.6c2.1-0.2,4.2,0.3,6.2,0.2
	c1.6-0.1,3.6-0.3,4.7-1.3c2.5-2.4,4.4-5.3,8.1-6.4c2.7-0.8,3.2-3.5,3.1-6.4c0-1.9,2.4-4.3-1.6-4.7c0.1-0.7,0.1-1.6,0.2-3
	c-1.6,0.7-2.7,1.2-3.8,1.6c-0.1-0.2-0.2-0.4-0.4-0.6c1.4-0.9,2.8-1.8,4.7-3c-1.4-0.7-2.3-1.2-3.3-1.6c-2.5-1.2-2.3-4.2-3.6-6.1
	c-0.5-0.7,0.2-2.2,0.5-3.3c0.2-0.7,0.9-1.4,0.9-2.1c0-2.8-0.3-5.6-0.3-8.4c-0.1-3.4,0-6.8,0-10.3c-2.8,4.9-4.7,10.3-9.6,13.6
	c-1.9-4.3-1-8.3,0.8-12.1c1-2.1,1-3.4-1.2-3.8C-188.7-44.8-188.8-46.7-189-48.7z M-436.4,18.8c-3.5,9.8-6.1,19.4-7.7,29.4
	c-3.2,19.6-3.1,39.1,0.8,58.6c1.9,9.4,5,18.5,9.9,26.8c2.4,4,6.9,5.8,11.5,4.7c4.1-1,6.8-3.8,7.9-8c1-3.7-0.8-6.8-2.2-10
	c-4.8-10.8-7.2-22.2-8.2-33.9c-0.9-11.2-0.7-22.4,1.4-33.4c1.4-7.4,3.5-14.7,5.2-22.1c0.2-0.9,0-2.5-0.5-2.7
	C-424.2,24.9-430.2,21.9-436.4,18.8z M77.4-22.9c0.5-4.6,1.5-9,1.2-13.3c-0.2-3.2,1.4-4,3.4-5.3c0.7-0.4,1.1-1.5,1.5-2.3
	c0.3-0.5,0.3-1.2,0.6-1.5c2.4-2,1.2-3.5-0.6-4.8c-1.5-1.2-4.3-1.9-4.6-3.3c-0.6-3.4-1-7.3,0.1-10.4c1-2.7,4.1-4.7,6.4-6.9
	c1.1-1.1,2.9-1.7,3.7-2.9c1.1-1.6,3-3.3,1.1-6C72.8-65.5,55.7-51.2,38.5-35.9c5.6,1.8,9.1,0.6,11.4-3.7c0.2-0.4,0.7-0.8,1.1-1
	c1.9-0.8,4.6-0.9,2.9-4.2c-0.2-0.4,0.5-1.3,0.7-1.6c0.8,1.3,2.2,2.7,2.3,4.1c0.1,2.7,0.7,4.8,2.9,6.4c-0.9,4.7,2.2,7.4,4.1,9.5
	c0.6,3.1,1.1,5.2,1.5,7.5c1.6-0.3,3-0.5,4.3-0.7C70.4-22.9,71.9-23.6,77.4-22.9z M220.2,180.4c0.3,0.2,0.6,0.3,0.9,0.5
	c0.6-0.3,1.3-0.5,1.9-0.8c3.4-1.5,7.3-2.4,8.7-6.6c0.2-0.7,1.6-1,2.4-1.5c2.5-1.8,6.8-1,7.4-5.4c0.1-0.4,1.3-0.7,2-1
	c0.6-0.3,1.3-0.5,1.7-1c1.3-1.5,2.6-3.2,3.9-4.8c0.8-1.8,1.5-3.9,2.5-5.7c1.3-2.2,3-4.1,4.2-6.4c1.1-2.1-2.2-6.8-4.7-6.8
	c-3.3-0.1-5-1.6-5.2-5c-0.1-1.5-0.2-3-0.4-5.2c-2.1,2.9-3.9,4.9-5.2,7.3c-1.3,2.3-2.8,3.6-5.5,3.2c-2.4-0.4-3.6,0.8-4.1,3
	c-0.3,1.3-0.8,2.5-1.1,3.8C226.4,158.6,223.3,169.5,220.2,180.4z M-158.8-105c-0.2-0.2-0.4-0.3-0.6-0.5c-1.6,1.2-3.5,2.1-4.7,3.6
	c-2.6,3.2-4.9,6.6-7.4,9.9c-1.7,2.2-2.3,4.5-1.4,7.3c0.5,1.4,0.8,3.3,0.3,4.6c-0.5,1.4-2.2,2.3-3.1,3.6c-1.9,2.4-4.2,4.7-5.2,7.5
	c-0.9,2.6-2.7,3.7-4.7,4.4c-2.2,0.7-4.3,3.3-3.9,6.1c1.7-0.9,3.4-1.8,5.8-3.1c-0.2,2.7-0.4,4.6-0.6,6.5c0,0.5,0,1.1,0.3,1.4
	c1.8,1.9,3.7,3.7,5.5,5.5c0.4-0.2,0.9-0.4,1.3-0.5c-0.5-3.2-1-6.3-1.5-9.5c0.2-0.1,0.3-0.2,0.5-0.3c1.3,1.5,2.6,2.9,3.8,4.3
	c5.5-5.3,2.4-12,2.6-18.2c0.3,0.2,0.6,0.3,0.9,0.5c0.8-1.2,1.5-2.4,2.7-4.2c0.6,3.3,1.1,5.9,1.6,8.7c2.4-3.3,4.2-6.2,6.5-8.7
	c2.9-3.2,3.1-3.1-0.4-5.1c-0.2-0.1-0.3-0.2-0.6-0.3c0.3-0.7,0.6-1.4,0.7-1.6c-1.5-1.8-2.7-3.4-4-5c2-2,3.7-3.6,5.4-5.4
	c-0.5-0.2-1.1-0.4-1.9-0.7c2.9-2,2.9-2,3.3-6.9c-0.9-0.3-1.8-0.6-2.4-0.8C-159.5-103-159.2-104-158.8-105z M500.5,20.1
	c0,23.2,0,46.4,0,69.6c0.3,0.1,0.5,0.1,0.8,0.2c2-5.8,4-11.5,5.9-17.3c0.7-2.3,1.9-4.7-0.6-6.9c-0.5-0.5-0.4-1.9-0.3-2.9
	c0.2-5.7,0.7-11.5,0.7-17.2C506.8,36.7,504.5,28.2,500.5,20.1z M200.1,284.1c-1.9-1-3.2-1.8-4.5-2.4c-0.7-0.3-1.6-0.7-2.2-0.5
	c-2.6,1.1-5.3,2-7.4,3.7c-1.7,1.3-3.6,3.7-3.6,5.6c0,2.5-1,3.9-2.5,5.4c-2.2,2.2-4.9,4-4.8,7.8c0.1,2.2,0.9,3.7,2.9,2.8
	c3-1.3,6.2-2.6,8.4-4.9c4-4.1,7.4-8.8,10.9-13.3C198.3,287,199.1,285.6,200.1,284.1z M191.7-116.1c0.2-0.2,0.5-0.5,0.7-0.7
	c-0.6-0.8-1.1-1.7-1.8-2.3c-1-0.9-2.2-1.4-3.1-2.3c-4.4-4.3-8.3-8.8-6.2-15.8c0.6-2-0.1-4.3-0.2-6.4c-5.9,1.8-8.2,5.8-8.9,11.2
	c2.9,2.1,2.9,3.2-0.2,4.6c0.9,2.4,1.2,5.1,5.2,4.1c1-0.3,3.3,1.3,3.6,2.4c0.5,2,1.6,2.4,3.2,2.9
	C186.6-117.8,189.2-116.9,191.7-116.1z M-176.4,16.4c-0.1-0.1-0.2-0.2-0.3-0.4c1.6-2.7,3.1-5.4,4.7-8c-0.3-0.2-0.6-0.3-0.8-0.5
	c-6.1,5.4-7.2,13.6-11.9,20.2c3.9,0,7.1,0,10.8,0c-1.3,1.5-2.1,2.5-2.9,3.5c0.3,0.2,0.5,0.4,0.8,0.6c2.5-3.1,4.9-6.1,7.8-9.7
	c-1.3,0.5-1.9,0.7-3.2,1.2c0.9-1.9,1.5-3.2,2.2-4.5c-2.2,0-4,0-6.1,0c0.5-1.3,0.9-2.1,1.3-2.9c-0.4-0.2-0.6-0.3-0.7-0.3
	C-175.5,15.8-176,16.1-176.4,16.4z M215.2,213.1c0.3,0.1,0.6,0.1,0.9,0.2c3.6-7.1,9.9-13,9.6-22.7c-3.3,3.3-9.1,2.5-8.9,9
	C217,204,215.8,208.5,215.2,213.1z M51.6-173c2-1.5,4-2.5,5.1-4c0.7-0.9,0.6-3.1-0.1-4.1c-1-1.6-2-0.1-2.7,0.8
	c-0.1,0.1-0.5,0.1-1.1,0.1c0.2-0.9,0.4-1.6,0.6-2.4c-1.8,0.2-3.6,0.1-5.1,0.7c-0.8,0.3-1.3,1.7-1.9,2.6c0.7,0.5,1.5,0.9,1.5,0.9
	C49.3-176.1,50.4-174.6,51.6-173z M55.4,73.1c0.1-1,0.4-2.4,0.4-3.8c-0.1-1.9,0-4.1-0.9-5.7c-1.7-3-3.5,0.9-5.4,0.5
	c0,0-0.1,0.2-0.4,0.6c2.9,2.9-0.6,7.6,2.7,10.6C53,74.6,54,73.9,55.4,73.1z M81.3,79.3c-3.9,0.1-7.2,0.2-10.6,0.4
	c-0.8,0.1-1.6,0.7-2.5,1.1c0.6,0.6,1.2,1.5,1.9,1.9c2.2,1.3,4.5,2.5,6.8,3.6c0.8,0.4,1.7,0.4,2.5,0.6c0.1-0.9,0.2-1.8,0.3-2.7
	c0.1-0.8,0.3-1.7,0.5-2.5C80.7,80.8,81.1,79.9,81.3,79.3z M-203.9,148.4c-3.8-6.1-3.8-6.2-7.1-6.5c0.8,2.3,1.5,4.6,2.1,6.5
	C-206.9,148.4-205.5,148.4-203.9,148.4z M302.5,181.3c-0.3-0.1-0.7-0.1-1-0.2c-0.9,3.4-1.8,6.8-3,11
	C302.8,189.5,303.7,186.5,302.5,181.3z M-128.4-100.5c-2-1.4-1.8-4.7-4.8-3.3c-1.4,0.6-1.4,4.4,0.1,6.1
	C-131.8-98.5-130.3-99.4-128.4-100.5z M53,61.2c2-2.6,1.7-5.3,0.9-8C49.8,55.6,49.6,57.5,53,61.2z M176.8-109.4
	c-2.1-0.2-3.8-0.3-5.5-0.4c0.6,1.4,0.8,3.6,1.8,4.2C175.4-104.5,176-106.6,176.8-109.4z M61.4-15.9c0.9-2.2,1.6-3.4,1.8-4.8
	c0.1-0.5-1-1.3-1.5-1.9c-0.3,0.6-0.7,1.2-1.1,2c-0.4-0.1-1.2-0.3-2-0.5c-0.2,0.2-0.5,0.4-0.7,0.7C59-19.2,59.9-18,61.4-15.9z
	 M196.7-116.4c0,3.4,4,6.3,7.1,5.4C201.5-112.9,199.3-114.5,196.7-116.4z M-168.6,28.4c-2.8-1.8-2.9-1.7-4.2,2.8
	c0.7,0.5,1.5,1,2.5,1.8C-169.7,31.2-169.1,29.8-168.6,28.4z M63.5-182c-1.9-0.8-3.2-1.4-5.2-2.3c0.3,2.1,0.5,3.7,0.8,5.7
	C60.7-179.8,61.8-180.7,63.5-182z M-53.9-84c-1.1-1.1-1.9-2-2.9-3c-1.1,4.3-1.1,4.3,0.3,5.7C-55.7-82.2-54.9-83-53.9-84z M87.8-33.4
	c-0.5-0.2-0.9-0.3-1.4-0.5c-0.5,1.2-1,2.4-1.4,3.7c0,0.1,1.1,0.5,1.6,0.8C87-30.8,87.4-32.1,87.8-33.4z M52.8-17.7
	c1.3,0.4,2.6,0.7,4.3,1.3C55.9-19.9,55.4-20.1,52.8-17.7z"/>
<path fill="#FFFFFF" d="M487.2-145.4c0,29.8-24,53.7-53.9,53.6c-29.5,0-53.5-24.1-53.5-53.7c0-29.7,24.2-53.7,53.9-53.6
	C463.3-199.1,487.2-175,487.2-145.4z"/>
<path fill="#FFFFFF" d="M-328.5-193.7c-29.5,0.1-53.5,24.2-53.3,53.8c0.1,29.8,24.1,53.6,54,53.5c29.5-0.1,53.5-24.3,53.4-53.8
	C-274.6-169.9-298.8-193.8-328.5-193.7z M-328.1-98.6c-22.3,0.7-41.8-18.7-41.7-41.3c0.1-23,18.7-41.7,41.8-41.7
	c22.8,0,41.4,18.8,41.4,41.8C-286.7-116.1-307.2-97.8-328.1-98.6z"/>
<path fill="#FFFFFF" d="M130.8,53.8c1.9-3.9,5.1-7.7,3.7-13.4c3.1,1.8,3.5,0.6,3.5-1.5c0-0.8,0.6-1.7,1.1-2.4c0.6-0.9,1.7-1.6,2-2.6
	c0.8-2.6,2.7-2.9,5-2.9c-0.4,5.5,5.5,1.7,7,4.8c-1,0.8-2,1.6-3.6,2.9c2.9,0.3,4.8,0.9,4.2,3.7c0,0.1,1.8,1,2.3,0.7
	c2.6-1.4,4.9-3.4,8.1-3.2c0.4,0,0.9-1.2,1.6-2.1c-2.7,0.3-5,1.1-6.9,0.5c-1.9-0.6-3.3-2.6-4.9-4c6.5-2.4,13-4.8,19.6-7.3
	c0.1,0.3,0.3,0.6,0.4,0.9c-1.2,1.6-2.3,3.3-3.5,4.9c-0.4-0.1-0.9-0.3-1.3-0.4c0.7,0.5,1.4,0.9,2,1.3c-0.8,1.5-1.5,3-2.3,4.7
	c-0.4,0-1.1,0-2.6,0c1.5,1.6,2.4,3,3.6,3.9c2.5,1.8,5.1,3.3,7.7,5c2.3,1.5,4.8,2.9,7,4.5c2.1,1.6,3.4,5.8,2.3,7.6
	c-1.4,2.3-3.6,3.2-6.5,2.8c-2.7-0.3-5.5,0.2-8.1-0.3c-2.4-0.5-4.5-1.8-6.9-2.7c-1.3-0.7-2.5-1.8-3.8-1.9c-2.4-0.2-5-0.4-7.3,0.3
	c-2.6,0.8-5.9,1-7.3,4.2c-0.1,0.2-0.5,0.5-0.7,0.4c-4.1-0.7-8.8,0.7-12.2-2.4C132.5,58.5,132,56.2,130.8,53.8z"/>
<path fill="#FFFFFF" d="M127.3,66.7c2.2-1.3,4.3-2.8,6.7-3.7c1-0.4,2.5,0.4,3.8,0.6c-0.3,1.1-0.6,2.2-0.8,3
	C133.5,66.7,130.4,66.7,127.3,66.7C127.3,66.7,127.3,66.7,127.3,66.7z"/>
<path fill="#FFFFFF" d="M249.3-96.7c-1.3-1.7-2.7-3.3-4-5c0.3-0.2,0.5-0.4,0.8-0.6c1.4,1.7,2.8,3.3,4.3,5
	C250-97.1,249.6-96.9,249.3-96.7z"/>
</svg>
