<?xml version="1.0" encoding="utf-8"?>
<!-- Generator: Adobe Illustrator 17.1.0, SVG Export Plug-In . SVG Version: 6.00 Build 0)  -->
<!DOCTYPE svg PUBLIC "-//W3C//DTD SVG 1.1//EN" "http://www.w3.org/Graphics/SVG/1.1/DTD/svg11.dtd">
<svg version="1.1" xmlns="http://www.w3.org/2000/svg" xmlns:xlink="http://www.w3.org/1999/xlink" x="0px" y="0px"
	 viewBox="-336.9 -628 1051.4 717.5" enable-background="new -336.9 -628 1051.4 717.5" xml:space="preserve">
<g id="Layer_4">
	<g>
		<path fill="#FFFFFF" d="M-15.3-514.2c-8.9-19.5-28.5-33.2-51.4-33.2c-23.1,0-42.9,13.9-51.7,33.8l-92.1,23.4v21.7H73.6v-21.7v0
			L-15.3-514.2z"/>
		<g>
			<g>
				<path fill="#FFFFFF" d="M-80.1-94c0,0.4,0.1,0.7,0.1,1.1l0,0l0,0c0.1,5.3-1.7,10.1-5.1,13.5c-0.1,0.1-0.2,0.2-0.3,0.3
					c3.9,1.2,7.1,3.7,9.3,7.1l0-23C-77.4-94.5-78.7-94.2-80.1-94z"/>
			</g>
			<g>
				<path fill="#FFFFFF" d="M-99.7,2.8c1.8-0.7,3.7-1,5.6-1c4.2,0,8.2,1.6,11.1,4.6l6.8,6.8l0-61.2c-2.2,3.4-5.4,5.9-9.3,7.1
					c0.1,0.1,0.2,0.2,0.3,0.3c3.3,3.3,5.1,8.1,5.1,13.5l0,0l0,0c-0.2,10.7-7.8,19.8-18.2,21.7c-1.7,0.3-3.4,0.6-5.1,0.9
					c0.1,0.1,0.2,0.3,0.3,0.4C-101.4-2.1-100.2,0.3-99.7,2.8z"/>
			</g>
			<g>
				<path fill="#FFFFFF" d="M-86.1,41.4c-4.2,0-8.2-1.6-11.1-4.6l-8-8c-1.4-1.4-2.5-3-3.3-4.8c-3,2.3-6.5,3.9-10.4,4.5l-0.1,0
					l-0.1,0c-1.8,0.3-3.5,0.5-5.3,0.8c2,3.1,2.6,7,1.7,10.9l-0.3,1.4l-0.9,1.2c-4.5,6-11.4,10.2-21,12.8
					c1.9,13.4,16.5,23.9,34.3,23.9c19.1,0,34.5-12,34.5-26.8l0-14.9C-78.9,40.1-82.4,41.4-86.1,41.4z"/>
			</g>
			<g>
				<path fill="#FFFFFF" d="M71.5-319.3c0-26.1-12.6-51.8-34.4-66.5v-73.8h-14H23v57.7h0.2v19.7c-3.6,4.8-15.2,18.9-32.9,30.7
					v-108.2h-24.1h-93.3v109.2c-17.7-11.8-29.2-26-32.9-30.7v-78.4h-14v74.8c-20.7,14-33.1,38-34.3,62.8c-0.5,3.2-0.8,6.4-0.8,9.7
					v133.8c3-0.1,6-0.2,8.9-0.2c2.5,0,4.8,0,6.9,0.1c1.8,0,3.4,0,5,0c1.5,0,3.1,0,4.9,0c2.1,0,4.5-0.1,7-0.1
					c5.1,0,10.5,0.1,15.9,0.6v-130.3h15.4l0,120.2c0.4-0.4,0.7-0.9,1.2-1.3l8-8c3-3,6.9-4.6,11.2-4.6c4.2,0,8.2,1.6,11.2,4.6
					c3,3,4.6,6.9,4.6,11.2c0,4.2-1.6,8.2-4.6,11.1l-8,8c-1.1,1.1-2.4,2.1-3.7,2.8c0.5,0.6,1,1.2,1.5,1.8l0.9,1.2l0.3,1.4
					c0.9,3.9,0.3,7.8-1.7,10.9c1.8,0.2,3.5,0.5,5.3,0.8l0.1,0l0.1,0c9.8,1.6,17.6,9.3,19.4,19.1l0,0.1l0,0.1c0.2,1.7,0.2,3.3,0,4.9
					c2-0.9,4.1-1.3,6.3-1.3l11.4,0h0h0c2,0,3.9,0.4,5.7,1.1l0-21.5h15.4l-0.1,198.6c0,14.8,15.4,26.8,34.5,26.8s34.5-12,34.5-26.8
					l0.2-361.2h15.1v62.9l0.3-0.8l7,0.6l4.6,0.4c12.6,1,24.7,4,36.1,8.7v-74.9c0-0.8,0-1.6,0-2.5h0V-319.3z M-23.2-343.7
					c-3.4,1.7-6.9,3.2-10.6,4.5v0c-9.7,3.5-20.5,6-32.5,6.6c-18,1-33.8-3.5-47.3-10.1v-80.2c10.2,15,27.4,24.9,46.9,24.9
					c17.5,0,32.9-8.1,43.3-20.6v16.6h0.2V-343.7z"/>
			</g>
		</g>
	</g>
	<g>
		<path fill="#FFFFFF" d="M-99.4-103.5c1.6,1.6,3.8,2.6,6.2,2.6c0,0,0,0,0,0l11.4,0c0,0,0,0,0,0c4.8,0,8.8-3.9,8.8-8.8
			c0-4.8-3.9-8.8-8.8-8.8l-11.4,0c0,0,0,0,0,0c-4.8,0-8.8,3.9-8.8,8.8C-102-107.3-101-105.1-99.4-103.5z"/>
		<path fill="#FFFFFF" d="M-274.9-64c1.6,1.6,3.8,2.6,6.2,2.6c0,0,0,0,0,0l11.4,0c0,0,0,0,0,0c4.8,0,8.8-3.9,8.8-8.8
			c0-4.8-3.9-8.8-8.8-8.8l-11.4,0c0,0,0,0,0,0c-4.8,0-8.8,3.9-8.8,8.8C-277.4-67.8-276.5-65.6-274.9-64z"/>
		<path fill="#FFFFFF" d="M-87.9,11.4c-1.7-1.7-4-2.6-6.2-2.6c-2.2,0-4.5,0.9-6.2,2.6c-1.7,1.7-2.6,4-2.6,6.2s0.9,4.5,2.6,6.2l8,8
			c1.7,1.7,4,2.6,6.2,2.6c2.2,0,4.5-0.9,6.2-2.6c3.4-3.4,3.4-9,0-12.4L-87.9,11.4z"/>
		<path fill="#FFFFFF" d="M-173.6-124.1c-4.8,0-8.8,3.9-8.8,8.8l0,11.4c0,4.8,3.9,8.8,8.8,8.8c0,0,0,0,0,0c0,0,0,0,0,0
			c2.4,0,4.6-1,6.2-2.6c1.6-1.6,2.6-3.8,2.6-6.2l0-11.4C-164.8-120.2-168.8-124.1-173.6-124.1z"/>
		<path fill="#FFFFFF" d="M-199.5-2.8c-1.7-1.7-4-2.6-6.2-2.6c-2.2,0-4.5,0.9-6.2,2.6c-3.4,3.4-3.4,9,0,12.4l8,8
			c1.7,1.7,4,2.6,6.2,2.6c2.2,0,4.5-0.9,6.2-2.6c1.7-1.7,2.6-4,2.6-6.2s-0.9-4.5-2.6-6.2L-199.5-2.8z"/>
		<path fill="#FFFFFF" d="M-124.7-195.2c-2.2,0-4.5,0.9-6.2,2.6l-8,8c-3.4,3.4-3.4,9,0,12.4c1.7,1.7,4,2.6,6.2,2.6
			c2.2,0,4.5-0.9,6.2-2.6l8-8c3.4-3.4,3.4-9,0-12.4C-120.2-194.4-122.5-195.2-124.7-195.2z"/>
	</g>
	<g>
		<path fill="#FFFFFF" d="M-199.6,51.8c4.3,0,8.2-0.1,11.4-0.1c0,0,0,0,0,0c3.2,0,7.1,0.1,11.3,0.1c16.4,0,38.4-1.2,47.4-13.2
			c1.1-4.6-1.7-8.5-6.4-8.5c-0.4,0-0.8,0-1.2,0.1c-16.5,2.1-33.9,3.1-51.3,3.1c-17.4,0-34.7-1-51.2-3.1c-0.4-0.1-0.8-0.1-1.1-0.1
			c-4.6,0-7.4,3.8-6.4,8.5C-238,50.6-216,51.8-199.6,51.8z"/>
		<path fill="#FFFFFF" d="M-89.9-72.9c-32.4-2.6-65.4-3.9-98.4-3.9c-18.1,0-36.2,0.4-54.3,1.2c0.6,1.7,1,3.5,1,5.4
			c0,8.7-7.1,15.8-15.8,15.8l-11.4,0c-4.2,0-8.2-1.6-11.1-4.6c-3-3-4.6-7-4.6-11.2c0-1,0.1-1.9,0.3-2.9c-0.8,0.1-1.6,0.1-2.4,0.2
			c-6.8,0.6-10,6.4-10,12.9c0,6.5,3.2,12.3,10,12.9c32.5,2.6,65.5,3.9,98.5,3.9c32.9,0,65.8-1.3,98.3-3.9c6.8-0.6,10-6.4,10-12.9
			C-79.8-66.5-83-72.3-89.9-72.9z"/>
		<path fill="#FFFFFF" d="M-106.5-128.1c-1.4-7.5-7.4-12.4-13.6-13.4c-22.3-3.4-45.3-5-68.2-5s-45.8,1.7-68.1,5
			c-6.2,1-12.3,6-13.6,13.4c-0.8,5.9,2.6,10.3,8.4,10.3c0.6,0,1.2,0,1.8-0.1c23.6-3.1,47.6-4.7,71.6-4.7c0.2,0,0.4,0,0.6,0
			c2.6-5.1,7.9-8.5,14-8.5h0h0c6.4,0,11.9,3.8,14.4,9.3c14.3,0.7,28.5,2,42.6,3.9c0.6,0.1,1.2,0.1,1.8,0.1
			C-109.1-117.8-105.6-122.2-106.5-128.1z"/>
		<path fill="#FFFFFF" d="M-97.2-38.4c-0.4,0-0.9,0-1.3,0.1c-29.5,2.8-59.6,4.2-89.7,4.2c-30.1,0-60.2-1.4-89.8-4.2
			c-0.5,0-0.9-0.1-1.3-0.1c-6.4,0-10.2,4.8-10.1,11.2c0.1,8.1,5.9,13.8,12.4,15c18.3,3.3,37.2,5.6,56.3,6.8c0,0,0.7,0.1,1.9,0.1
			c0.6-0.9,1.2-1.7,2-2.4c3-3,6.9-4.6,11.1-4.6c4.2,0,8.2,1.6,11.1,4.6l3.3,3.3c1,0,2.1,0,3.1,0c30,0,60.1-2.6,88.6-7.8
			c6.5-1.2,12.3-6.9,12.4-15C-87-33.6-90.8-38.4-97.2-38.4z"/>
		<path fill="#FFFFFF" d="M-114.9-2.1c-0.6,0-1.2,0-1.8,0.1c-22.4,3-45.2,4.5-67.9,4.6c1.8,2.6,2.7,5.6,2.7,8.8
			c0,4.2-1.7,8.2-4.6,11.1c-1.8,1.9-4.1,3.2-6.5,3.9c1.6,0,3.2,0,4.8,0c22.9,0,45.8-1.7,68.1-5c3.9-0.7,7.7-2.8,10.4-6.2
			c0.4-2.8,1.5-5.4,3.3-7.6C-105.8,2-109.2-2.1-114.9-2.1z"/>
		<path fill="#FFFFFF" d="M-133.5-162.7c-3.9-0.2-7.6-1.8-10.4-4.6c-0.3-0.3-0.6-0.7-0.9-1c-9.8-3-21.7-3.5-31.6-3.5
			c-4.5,0-8.6,0.1-11.9,0.1c0,0,0,0,0,0c-3.3,0-7.4-0.1-11.8-0.1c-16.3,0-38.1,1.3-46.9,13.3c-1.1,4.6,1.7,8.5,6.4,8.5
			c0.4,0,0.8,0,1.1-0.1c16.5-2.1,33.9-3.1,51.3-3.1c17.4,0,34.7,1,51.2,3.1c0.4,0.1,0.8,0.1,1.2,0.1c4.6,0,7.4-3.8,6.4-8.5
			C-130.6-160.1-132-161.5-133.5-162.7z"/>
		<path fill="#FFFFFF" d="M-93.2-93.9c-4.2,0-8.2-1.6-11.1-4.6c-2.9-2.9-4.5-6.8-4.6-10.8c-16-2.6-32.4-4.3-48.9-5.3l0,10.6
			c0,4.2-1.6,8.2-4.6,11.2c-3,3-6.9,4.6-11.2,4.6c-4.2,0-8.2-1.6-11.2-4.6c-3-3-4.6-6.9-4.6-11.1l0-11.4c0-0.1,0-0.1,0-0.2
			c-29.7,0.1-59.4,2.7-87.6,7.8c-6.5,1.2-12.3,6.9-12.4,15c-0.1,6.4,3.6,11.1,9.9,11.2c2.9-2.8,6.8-4.4,10.9-4.4l11.4,0h0h0
			c2.8,0,5.5,0.8,7.8,2.1c20.3-1.3,40.7-1.9,61.1-1.9c13.5,0,27,0.3,40.5,0.8c0,0,40.2,2.5,49.4,3.3c0.5,0,0.9,0.1,1.3,0.1
			c6.4,0,10.2-4.8,10.1-11.2c0-0.4,0-0.7-0.1-1.1L-93.2-93.9z"/>
		<path fill="#FFFFFF" d="M-208.8,22.6l-8-8c-3.6-3.6-5.1-8.5-4.5-13.2c-14.2-1-31.2-2.4-38.6-3.4c-0.6-0.1-1.2-0.1-1.8-0.1
			c-5.8,0-9.3,4.4-8.4,10.3c1.4,7.5,7.4,12.4,13.6,13.4c17.6,2.6,35.5,4.2,53.5,4.8C-205.1,25.6-207.1,24.3-208.8,22.6z"/>
	</g>
</g>
<g id="Layer_3">
	<g>
		<path fill="#FFFFFF" d="M256.2-186.6l0.1-4.6l-4.3-1.6c-6.6-2.5-13.5-4.1-20.6-4.8c-2.7-0.3-5.5-0.4-8.2-0.4
			c-16.5,0-32.8,5-46.6,14.4c-21.2,14.5-34.4,38.2-35.7,63.9c-1.8,1.8-3.4,3.7-5.1,5.5c2.2-23.1-2.7-46.6-14.8-67.1
			c-18.2-30.8-50.6-51.2-86.5-54.1l-4.6-0.4l-1.9,4.2c-14.8,32.8-12.7,70.9,5.6,101.9c15.9,26.9,42.7,45.8,73.1,52.1
			c0,5.6-1.1,11.2-3.4,17.4c-1.5,4.1-8.9,26-11.8,54.2c-1.6,16.3-12,63.1-15.3,77.9h31.4c-0.7-14.4-3.5-83.2,0.8-103.2
			c0.1-0.4,2-8.5,2.4-9.8c0-0.1,15.8-38.3,15.8-38.3c0,0,13.5-20.8,22.1-29.8c5.5,1.7,11.1,3,16.9,3.5c0,0,0,0,0,0
			c2.7,0.3,5.5,0.4,8.2,0.4c5.6,0,11.1-0.6,16.6-1.7c-0.1,2.8,0.1,7,2.3,12.2c-7.9-0.1-14-0.3-20.7,2.8
			c-14.6,6.8-24.4,20.2-24.4,38.2c0,18.5,10.4,34.6,25.6,42.8c6.8,3.7,14.7,0.9,23,0.9c8.5,0,16.4,2.7,23.4-1.1
			c12.8-7,22.1-19.7,24.6-34.6c-5.5-1.1-10.7-3.8-15.4-8.1c-8.1-7.3-12-15.5-11.6-24.4c0.2-4.4,1.4-8.9,3.7-13.5
			c-0.5-0.2-1-0.5-1.5-0.7c-5.8-2.5-13.5-2.4-20.8-2.3c-2.2-3.7-3.1-9.1-3.3-13.3c8.9-2.4,17.4-6.3,25.1-11.6
			C242.4-134.8,255.8-159.8,256.2-186.6z M174.9-73.6c-7.5,9.3-10.4,19.8-13.4,19.8c-3,0-0.9-12.6,2.5-19.8c1.3-2.7,2.4-5.4,5.4-5.4
			C172.4-79.1,176.8-76,174.9-73.6z"/>
	</g>
	<path fill="#FFFFFF" d="M335.3,71.8c24.2,0,48.5,0,72.7,0c26.3,0,52.5,0,78.8-0.1c8.9,0,16.4-2,22.3-5.7
		c-3.5-6.5-5.1-14.7-5.1-25.8l-1.6-36.6c-4.2-1.6-9.1-2.4-14.4-2.6c-6.7-0.2-13.3-0.2-20-0.2c-10.9,0-21.7,0.1-32.6,0.1
		c-3.6,0-7.9,0-12.6,0c-17.6,0-39.3-0.2-39.9-1.7c20.4-18.1,38.2-41.9,60.2-57.9c23.5-17.1,30.8-38.6,25.4-65.1
		c-10.9-53.5-28.8-103.8-66.1-145.8c-15.7-17.7-32.3-30.1-54.3-30.1c-5.4,0-11,0.7-17.1,2.3c-14.9,3.9-25.5,11.7-28.4,26.6
		c-1.6,8.4-2.3,17.7-1,26.4c0.5,9.5,0.4,19.3-1.2,28.6c-8.1,46.5-34.1,83.7-63.9,118.6c-12,14.1-12.7,25.1-1,35.8
		c4.4,4,9.1,6,14.1,6c6.6,0,13.6-3.7,20.3-11.4c11.5-13.1,23-26.5,32.7-41c18.1-26.7,31.3-55.3,38.2-86c14.8,27.5,21.1,67.1,23.2,77
		c2.9,14.1,8,25.5-7,36.4c-11.9,8.6-22.6,19.8-31.1,31.8c-12.7,18-25.3,36.7-33.7,56.9C278.6,40.9,300.8,71.8,335.3,71.8z"/>
	
		<ellipse transform="matrix(0.7322 -0.6811 0.6811 0.7322 305.2975 85.9374)" fill="#FFFFFF" cx="261.9" cy="-345.3" rx="57.9" ry="60"/>
</g>
<g id="Layer_2">
	<g>
		<path fill="#FFFFFF" d="M619.5-452.1c3.1-11.6,4.5-26.9-1.7-43.3c-1.5-3.9-2.9-9-4.1-13.4c-2.3,1.9-4.7,3.7-7.2,5.3
			c-15.4,9.7-45.8,18-54.7,20.4l-13,3.4l4-10.9c-4.3,4.5-8.4,10.8-10.3,19.5c-1.5,6.7-0.1,13.5,1.4,18l1.9,5.9
			c9.9,10.8,24.1,17.6,39.9,17.6C593.6-429.7,609.6-438.5,619.5-452.1z"/>
		<path fill="#FFFFFF" d="M647.9-505.3c-2.9-12.3-9.5-21.9-14-27.3c-2.3,3.8-7.2,11.3-14.4,18.5c1.2,4.9,3.1,11.7,4.8,16.3
			c11.3,29.8-0.4,56.7-5.1,65.6C629.4-436.8,659.7-455.1,647.9-505.3z"/>
		<path fill="#FFFFFF" d="M629-538c-2.9-3.4-18.9-20.3-48.1-20.3c-8.4,0-17.4,1.4-26.5,4.2c-27.4,8.4-43.8,28.6-43.9,54.3
			c-0.1,23.6,10.4,40.7,16.7,48.8c-1.7-5.4-3.3-13.4-1.5-21.6c5.7-25.8,28.2-33.9,28.5-34l2.4-0.8l-6.5,17.5
			c8.4-2.2,38.2-10.4,52.7-19.5C617.7-518.8,627-534.5,629-538z"/>
		<g>
			<path fill="#FFFFFF" d="M521.6-446.7c-6.4-8.3-16.9-25.2-18.1-48.5c-0.8,4.8-1.3,10.2-1.3,16.4c0,30.2,19.5,42.6,31.2,47.4
				L521.6-446.7z"/>
		</g>
	</g>
	<path fill="#FFFFFF" d="M674.6-167.9c12.7-0.7,12.7-11.1,12-23.8l-2-199.1c0-0.1,0-0.1,0-0.2c0-0.1,0-0.1,0-0.2
		c0-14.4-11.7-25.9-26.1-25.9h-39.1h-86.1h-37.8c-13.5,0-24.5,10.2-25.8,23.3c-0.2,1-0.4,1.9-0.5,3l-3.6,199.1
		c-0.8,12.7-0.9,23,11.8,23.9c0.5,0,1,0,1.4,0c11.4,0,12.6-10,13.4-22.2l17.6-151.8c2.2,21,4.1,45.1,4.1,63.8
		c0,39-8.4,56.4-9.5,80.9h0v2.5c0,0.9-0.1,1.7-0.1,2.7c0,1.2,0.1,2.3,0.1,3.4v2.3c0,0.4-0.2,0.7-0.2,1.1l0.1,2.6l-5.7,127.2h11.1
		l4.1,95.6c0,17,4.1,30.8,21.1,30.8c17,0,21.1-13.8,21.1-30.8l8.2-95.6h24.2l8.2,95.6c0,17,4.1,30.8,21.1,30.8
		c17,0,21.1-13.8,21.1-30.8l4.1-95.6h12l-6.4-128.7l0-1.1c0-0.2,0-0.3-0.1-0.5l0-3.6c0-0.9-0.1-1.7-0.1-2.6c0-1-0.3-1.9-0.3-2.9
		v-2.3h0.3c-1-27.4-9.5-51.8-9.5-80.9c0-15,2.3-41.5,4.7-64.8L660-190.1c0.7,12.3,1.9,22.3,13.4,22.3
		C673.8-167.9,674.2-167.9,674.6-167.9z M576.4-331.7l-31.5-75.1h63.1L576.4-331.7z"/>
</g>
</svg>
