<?xml version="1.0" encoding="utf-8"?>
<!-- Generator: Adobe Illustrator 17.1.0, SVG Export Plug-In . SVG Version: 6.00 Build 0)  -->
<!DOCTYPE svg PUBLIC "-//W3C//DTD SVG 1.1//EN" "http://www.w3.org/Graphics/SVG/1.1/DTD/svg11.dtd">
<svg version="1.1" id="Layer_1" xmlns="http://www.w3.org/2000/svg" xmlns:xlink="http://www.w3.org/1999/xlink" x="0px" y="0px"
	 viewBox="6 196 600 400" enable-background="new 6 196 600 400" xml:space="preserve">
<g id="Layer_4">
	<g>
		<path fill="#FFFFFF" d="M183.7,261.1c-5-11-16-18.6-29-18.6s-24.2,7.9-29.2,19.1l-51.9,13.2v12.2h160.1v-12.2l0,0L183.7,261.1z"/>
		<g>
			<g>
				<path fill="#FFFFFF" d="M147.1,497.9c0,0.2,0.1,0.4,0.1,0.6l0,0l0,0c0.1,3-0.9,5.7-2.9,7.7c-0.1,0.1-0.1,0.1-0.2,0.2
					c2.2,0.7,4,2.1,5.2,4v-13C148.7,497.6,147.9,497.8,147.1,497.9z"/>
			</g>
			<g>
				<path fill="#FFFFFF" d="M136,552.4c0.9-0.4,2.2-0.6,3.2-0.6c2.3,0,4.7,0.8,6.4,2.6l3.9,3.9v-34.5c-1.3,2-3,3.3-5.2,4
					c0.1,0.1,0.1,0.1,0.2,0.2c1.9,1.9,2.9,4.6,2.9,7.7l0,0l0,0c-0.1,6-4.4,11.1-10.3,12.2c-0.9,0.2-2,0.3-2.9,0.5
					c0.1,0.1,0.1,0.2,0.2,0.2C135.1,549.7,135.7,551.1,136,552.4z"/>
			</g>
			<g>
				<path fill="#FFFFFF" d="M143.8,574.2c-2.3,0-4.7-0.8-6.4-2.6l-4.6-4.6c-0.7-0.7-1.5-1.7-1.9-2.7c-1.7,1.3-3.6,2.2-5.9,2.5H125
					h-0.1c-0.9,0.2-2,0.3-3,0.5c1.1,1.8,1.5,4,0.9,6.1l-0.1,0.7l-0.5,0.7c-2.5,3.4-6.5,5.7-11.9,7.3c1,7.6,9.3,13.5,19.3,13.5
					c10.8,0,19.4-6.8,19.4-15v-8.4C147.8,573.6,145.8,574.2,143.8,574.2z"/>
			</g>
			<g>
				<path fill="#FFFFFF" d="M232.5,371c0-14.8-7.1-29.3-19.3-37.5v-41.7h-7.9h-0.1v32.5h0.1v11.2c-2.1,2.7-8.5,10.7-18.5,17.3V292
					h-13.6h-52.5v61.6c-10-6.7-16.4-14.7-18.5-17.3v-44.2h-7.9v42.2c-11.7,7.9-18.6,21.4-19.3,35.4c-0.3,1.9-0.5,3.6-0.5,5.4v75.3
					c1.7-0.1,3.4-0.1,5-0.1c1.5,0,2.7,0,3.9,0.1c0.9,0,2,0,2.8,0s1.8,0,2.8,0c1.1,0,2.5-0.1,4-0.1c2.9,0,5.9,0.1,9.1,0.3v-73.4h8.7
					V445c0.2-0.2,0.4-0.5,0.7-0.7l4.6-4.6c1.7-1.7,3.9-2.6,6.4-2.6c2.3,0,4.7,0.8,6.4,2.6c1.7,1.7,2.6,3.9,2.6,6.4
					c0,2.3-0.8,4.7-2.6,6.4l-4.6,4.6c-0.6,0.6-1.4,1.1-2.2,1.6c0.3,0.3,0.6,0.7,0.8,0.9l0.5,0.7l0.2,0.7c0.5,2.2,0.2,4.4-0.9,6.1
					c0.9,0.1,2,0.3,3,0.5h0.1h0.1c5.5,0.8,9.9,5.2,10.9,10.8v0.1v0.1c0.1,0.9,0.1,1.9,0,2.8c1.1-0.5,2.3-0.7,3.6-0.7h6.5l0,0l0,0
					c1.1,0,2.2,0.2,3.2,0.6V469h8.7L158.2,581c0,8.3,8.7,15,19.4,15c10.8,0,19.4-6.8,19.4-15l0.1-203.5h8.5v35.4l0.2-0.5l4,0.3
					l2.6,0.2c7.1,0.6,14,2.2,20.3,5v-42.2c0-0.5,0-0.8,0-1.5l0,0v-3h-0.3V371L232.5,371z M179.2,357.3c-2,0.9-3.9,1.9-6,2.5l0,0
					c-5.4,2-11.6,3.4-18.2,3.6c-10.2,0.6-19.1-2-26.6-5.7v-45.1c5.7,8.4,15.3,14.1,26.4,14.1c9.9,0,18.5-4.6,24.4-11.7v9.4h0.1
					C179.2,324.4,179.2,357.3,179.2,357.3z"/>
			</g>
		</g>
	</g>
	<g>
		<path fill="#FFFFFF" d="M136.3,492.6c0.8,0.8,2.2,1.5,3.5,1.5l0,0h6.5l0,0c2.7,0,5-2.2,5-5c0-2.7-2.2-5-5-5h-6.5l0,0
			c-2.7,0-5,2.2-5,5C134.8,490.5,135.2,491.7,136.3,492.6z"/>
		<path fill="#FFFFFF" d="M37.4,514.9c0.8,0.8,2.2,1.5,3.5,1.5l0,0h6.5l0,0c2.7,0,5-2.2,5-5c0-2.7-2.2-5-5-5h-6.5l0,0
			c-2.7,0-5,2.2-5,5C36,512.7,36.5,513.9,37.4,514.9z"/>
		<path fill="#FFFFFF" d="M142.7,557.3c-0.9-0.9-2.2-1.5-3.5-1.5c-1.2,0-2.5,0.5-3.5,1.5c-0.9,0.9-1.5,2.2-1.5,3.5s0.5,2.5,1.5,3.5
			l4.6,4.6c0.9,0.9,2.2,1.5,3.5,1.5c1.2,0,2.5-0.5,3.5-1.5c2-2,2-5,0-7L142.7,557.3z"/>
		<path fill="#FFFFFF" d="M94.5,480.9c-2.7,0-5,2.2-5,5v6.5c0,2.7,2.2,5,5,5l0,0l0,0c1.4,0,2.6-0.6,3.5-1.5c0.8-0.8,1.5-2.2,1.5-3.5
			v-6.5C99.4,483.2,97.2,480.9,94.5,480.9z"/>
		<path fill="#FFFFFF" d="M79.8,549.4c-0.9-0.9-2.2-1.5-3.5-1.5s-2.5,0.5-3.5,1.5c-2,2-2,5,0,7l4.6,4.6c0.9,0.9,2.2,1.5,3.5,1.5
			c1.3,0,2.5-0.5,3.5-1.5c0.9-0.9,1.5-2.2,1.5-3.5s-0.5-2.5-1.5-3.5L79.8,549.4z"/>
		<path fill="#FFFFFF" d="M122.1,440.8c-1.3,0-2.5,0.5-3.5,1.5l-4.6,4.6c-2,2-2,5,0,7c0.9,0.9,2.2,1.5,3.5,1.5s2.5-0.5,3.5-1.5
			l4.6-4.6c2-2,2-5,0-7C124.6,441.4,123.2,440.8,122.1,440.8z"/>
	</g>
	<g>
		<path fill="#FFFFFF" d="M79.8,580.1c2.4,0,4.7-0.1,6.5-0.1l0,0c1.9,0,4,0.1,6.5,0.1c9.3,0,21.7-0.7,26.7-7.5
			c0.6-2.6-0.9-4.8-3.6-4.8c-0.2,0-0.5,0-0.7,0.1c-9.3,1.1-19.1,1.8-29,1.8s-19.5-0.6-28.9-1.8c-0.2-0.1-0.5-0.1-0.6-0.1
			c-2.6,0-4.2,2.2-3.6,4.8C58.1,579.4,70.5,580.1,79.8,580.1z"/>
		<path fill="#FFFFFF" d="M141.6,509.8c-18.2-1.5-36.9-2.2-55.4-2.2c-10.2,0-20.4,0.2-30.6,0.7c0.3,0.9,0.6,2,0.6,3c0,5-4,9-9,9
			h-6.5c-2.3,0-4.7-0.8-6.4-2.6c-1.7-1.7-2.6-4-2.6-6.4c0-0.6,0.1-1,0.2-1.7c-0.5,0.1-0.8,0.1-1.4,0.1c-3.9,0.3-5.6,3.6-5.6,7.3
			c0,3.6,1.9,7,5.6,7.3c18.2,1.5,36.9,2.2,55.4,2.2s37.1-0.7,55.3-2.2c3.9-0.3,5.6-3.6,5.6-7.3C147.3,513.4,145.4,510.1,141.6,509.8
			z"/>
		<path fill="#FFFFFF" d="M132.2,478.8c-0.7-4.3-4.2-7-7.7-7.6c-12.6-2-25.5-2.8-38.4-2.8s-25.8,0.9-38.3,2.8
			c-3.5,0.6-7,3.4-7.7,7.6c-0.5,3.3,1.5,5.8,4.8,5.8c0.3,0,0.7,0,0.9-0.1c13.3-1.8,26.8-2.6,40.4-2.6c0.1,0,0.2,0,0.3,0
			c1.5-2.9,4.5-4.8,7.9-4.8l0,0l0,0c3.6,0,6.7,2.1,8.1,5.2c8,0.4,16,1.1,24,2.2c0.3,0.1,0.7,0.1,0.9,0.1
			C130.7,484.6,132.7,482.1,132.2,478.8z"/>
		<path fill="#FFFFFF" d="M137.5,529.3c-0.2,0-0.5,0-0.7,0.1c-16.6,1.6-33.6,2.3-50.5,2.3s-33.9-0.7-50.6-2.3
			c-0.3,0-0.5-0.1-0.7-0.1c-3.6,0-5.7,2.7-5.7,6.4c0.1,4.6,3.3,7.8,7,8.4c10.4,1.9,20.9,3.2,31.8,3.9c0,0,0.4,0.1,1,0.1
			c0.3-0.5,0.7-0.9,1.1-1.4c1.7-1.7,3.9-2.6,6.4-2.6c2.3,0,4.7,0.8,6.4,2.6l1.9,1.9c0.6,0,1.1,0,1.8,0c16.9,0,33.9-1.5,49.9-4.4
			c3.6-0.7,7-3.9,7-8.4C143.2,532,141,529.3,137.5,529.3z"/>
		<path fill="#FFFFFF" d="M127.6,549.7c-0.3,0-0.7,0-0.9,0.1c-12.6,1.7-25.4,2.5-38.2,2.6c0.9,1.5,1.6,3.2,1.6,5
			c0,2.3-0.9,4.7-2.6,6.4c-0.9,1-2.3,1.9-3.6,2.2c0.8,0,1.9,0,2.7,0c12.9,0,25.8-0.9,38.3-2.8c2.2-0.4,4.4-1.6,5.9-3.5
			c0.2-1.6,0.8-3,1.9-4.3C132.6,552,130.7,549.7,127.6,549.7z"/>
		<path fill="#FFFFFF" d="M117,459.3c-2.2-0.1-4.3-0.9-5.9-2.6c-0.2-0.2-0.3-0.4-0.5-0.6c-5.5-1.7-12.2-2-17.8-2
			c-2.5,0-4.9,0.1-6.7,0.1l0,0c-1.9,0-4.2-0.1-6.7-0.1c-9.3,0-21.5,0.7-26.4,7.5c-0.6,2.6,0.9,4.8,3.6,4.8c0.2,0,0.5,0,0.6-0.1
			c9.3-1.1,19.1-1.8,29-1.8s19.5,0.6,28.9,1.8c0.2,0.1,0.5,0.1,0.7,0.1c2.6,0,4.2-2.2,3.6-4.8C118.6,460.7,117.9,459.9,117,459.3z"
			/>
		<path fill="#FFFFFF" d="M139.7,497.9c-2.3,0-4.7-0.8-6.4-2.6c-1.7-1.7-2.5-3.9-2.6-6.1c-9.1-1.5-18.2-2.4-27.6-3v6
			c0,2.3-0.8,4.7-2.6,6.4c-1.7,1.7-3.9,2.6-6.4,2.6c-2.3,0-4.7-0.8-6.4-2.6c-1.7-1.8-2.6-3.9-2.6-6.4v-6.5c0-0.1,0-0.1,0-0.1
			c-16.6,0.2-33.3,1.7-49.2,4.5c-3.6,0.7-7,3.9-7,8.4c-0.1,3.6,2.1,6.4,5.6,6.4c1.7-1.6,3.9-2.5,6.1-2.5h6.6l0,0l0,0
			c1.6,0,3.1,0.5,4.4,1.1c11.5-0.7,22.9-1,34.5-1c7.7,0,15.1,0.2,22.8,0.5c0,0,22.6,1.5,27.9,1.9c0.3,0,0.5,0.1,0.7,0.1
			c3.6,0,5.7-2.7,5.7-6.4c0-0.2,0-0.4-0.1-0.6L139.7,497.9L139.7,497.9z"/>
		<path fill="#FFFFFF" d="M74.6,563.7l-4.6-4.6c-2.1-2.1-2.9-4.8-2.5-7.5c-8-0.6-17.6-1.4-21.8-2c-0.3-0.1-0.7-0.1-0.9-0.1
			c-3.3,0-5.2,2.5-4.8,5.8c0.7,4.3,4.2,7,7.7,7.6c9.9,1.5,20,2.3,30.1,2.7C76.7,565.2,75.5,564.6,74.6,563.7z"/>
	</g>
</g>
<g id="Layer_3">
	<g>
		<path fill="#FFFFFF" d="M336.6,445.7l0.1-2.6l-2.4-0.8c-3.6-1.5-7.7-2.3-11.7-2.7c-1.6-0.2-3.1-0.2-4.7-0.2
			c-9.3,0-18.4,2.8-26.3,8.1c-12,8.1-19.3,21.5-20.1,36c-0.9,0.9-2,2.2-2.9,3.1c1.3-13-1.6-26.3-8.3-37.9
			c-10.3-17.3-28.5-28.9-48.7-30.5l-2.6-0.2l-1,2.3c-8.3,18.4-7.2,40,3.2,57.4c9.1,15.1,24.1,25.8,41.3,29.3c0,3.2-0.6,6.4-2,9.8
			c-0.8,2.3-5,14.7-6.7,30.5c-0.8,9.3-6.8,35.5-8.6,43.9H253c-0.4-8.1-2-46.8,0.5-58.1c0.1-0.2,1.1-4.8,1.4-5.5c0-0.1,9-21.6,9-21.6
			s7.7-11.8,12.5-16.7c3.1,0.9,6.4,1.7,9.5,2l0,0c1.6,0.2,3.1,0.2,4.7,0.2c3.2,0,6.4-0.3,9.4-0.9c-0.1,1.6,0.1,4,1.3,6.9
			c-4.5-0.1-7.9-0.2-11.7,1.6c-8.2,3.9-13.8,11.5-13.8,21.5c0,10.5,5.9,19.4,14.5,24.1c3.9,2.2,8.3,0.5,13,0.5
			c4.8,0,9.3,1.6,13.2-0.6c7.3-4,12.5-11.1,13.9-19.4c-3.1-0.6-6-2.2-8.7-4.6c-4.6-4.1-6.8-8.7-6.6-13.8c0.1-2.5,0.7-5,2.2-7.7
			c-0.3-0.1-0.6-0.3-0.8-0.4c-3.3-1.5-7.7-1.4-11.8-1.3c-1.3-2.2-1.8-5.1-1.9-7.5c5-1.4,9.8-3.6,14.2-6.6
			C328.8,475,336.3,460.8,336.6,445.7z M290.8,509.4c-4.3,5.2-5.9,11.1-7.6,11.1s-0.5-7.1,1.5-11.1c0.7-1.6,1.4-3,3-3
			C289.4,506.4,291.8,508,290.8,509.4z"/>
	</g>
	<path fill="#FFFFFF" d="M381.1,591.3c13.6,0,27.3,0,40.9,0c14.8,0,29.6,0,44.4-0.1c5,0,9.3-1.1,12.6-3.2c-2-3.6-2.9-8.3-2.9-14.6
		l-0.8-20.6c-2.3-0.8-5.1-1.4-8.1-1.5c-3.8-0.1-7.5-0.1-11.3-0.1c-6.1,0-12.2,0.1-18.3,0.1c-2.1,0-4.5,0-7.1,0
		c-9.9,0-22.1-0.1-22.4-0.9c11.6-10.2,21.5-23.6,33.9-32.6c13.3-9.7,17.3-21.8,14.4-36.7c-6.1-30.1-16.3-58.4-37.3-82.1
		c-8.9-10-18.1-16.9-30.6-16.9c-3,0-6.2,0.4-9.7,1.3c-8.4,2.2-14.4,6.6-15.9,15c-0.8,4.8-1.3,10-0.6,14.9c0.3,5.3,0.2,10.8-0.7,16
		c-4.6,26.3-19.2,47.1-36,66.8c-6.8,7.9-7.2,14.2-0.6,20.1c2.5,2.2,5.1,3.4,7.9,3.4c3.6,0,7.7-2.2,11.5-6.5
		c6.5-7.4,13-14.9,18.3-23.1c10.2-15,17.6-31.2,21.5-48.4c8.3,15.4,12,37.9,13.1,43.4c1.7,7.9,4.6,14.4-4,20.5
		c-6.7,4.9-12.8,11.1-17.5,17.8c-7.2,10.2-14.3,20.7-19,32.1C349.2,573.9,361.7,591.3,381.1,591.3z"/>
	
		<ellipse transform="matrix(0.7322 -0.6811 0.6811 0.7322 -151.7077 326.8225)" fill="#FFFFFF" cx="339.7" cy="356.3" rx="32.6" ry="33.8"/>
</g>
<g id="Layer_2">
	<g>
		<path fill="#FFFFFF" d="M541.2,296.2c1.8-6.6,2.5-15.1-0.9-24.4c-0.8-2.2-1.7-5-2.3-7.6c-1.3,1-2.6,2.2-4.1,3
			c-8.7,5.4-25.8,10.2-30.7,11.6l-7.4,2l2.2-6.1c-2.4,2.5-4.8,6.1-5.8,11c-0.8,3.8-0.1,7.7,0.7,10.2l1,3.3
			c5.6,6.1,13.6,9.9,22.4,9.9C526.7,308.8,535.7,303.8,541.2,296.2z"/>
		<path fill="#FFFFFF" d="M557.3,266.2c-1.7-7-5.3-12.3-7.9-15.3c-1.3,2.2-4.1,6.5-8.1,10.5c0.7,2.8,1.8,6.6,2.7,9.3
			c6.5,16.7-0.2,32-2.9,37C546.7,304.9,563.9,294.5,557.3,266.2z"/>
		<path fill="#FFFFFF" d="M546.6,247.9c-1.7-2-10.7-11.5-27.1-11.5c-4.8,0-9.8,0.7-14.9,2.3c-15.3,4.8-24.7,16-24.8,30.6
			c-0.1,13.3,5.9,22.9,9.4,27.5c-0.9-3-1.9-7.6-0.8-12.2c3.2-14.6,15.8-19.1,16-19.2l1.4-0.5l-3.6,9.9c4.8-1.3,21.5-5.9,29.7-11
			C540.3,258.5,545.4,249.8,546.6,247.9z"/>
		<g>
			<path fill="#FFFFFF" d="M486,299.2c-3.6-4.7-9.5-14.3-10.2-27.3c-0.5,2.7-0.7,5.7-0.7,9.3c0,17,11,24,17.6,26.7L486,299.2z"/>
		</g>
	</g>
	<path fill="#FFFFFF" d="M572.3,456.3c7.2-0.4,7.2-6.4,6.8-13.5L578,330.7c0-0.1,0-0.1,0-0.1c0-0.1,0-0.1,0-0.1
		c0-8.1-6.6-14.7-14.8-14.7h-22.1h-48.4h-21.3c-7.7,0-13.9,5.7-14.6,13.2c-0.1,0.6-0.2,1-0.3,1.7l-2,112.1c-0.5,7.2-0.5,13,6.7,13.5
		c0.3,0,0.6,0,0.7,0c6.5,0,7.1-5.6,7.6-12.5l9.9-85.5c1.3,11.9,2.3,25.4,2.3,35.9c0,22-4.8,31.8-5.3,45.5l0,0v1.5
		c0,0.5-0.1,0.9-0.1,1.6c0,0.7,0.1,1.3,0.1,2v1.3c0,0.2-0.1,0.4-0.1,0.6l0.1,1.5l-3.2,71.7h6.4l2.3,53.8c0,9.6,2.3,17.3,12,17.3
		c9.6,0,12-7.8,12-17.3l4.7-53.8H524l4.7,53.8c0,9.6,2.3,17.3,12,17.3c9.6,0,12-7.8,12-17.3l2.3-53.8h6.8l-3.6-72.5v-0.6
		c0-0.1,0-0.2-0.1-0.3v-2.1c0-0.5-0.1-0.9-0.1-1.5c0-0.6-0.2-1-0.2-1.7v-1.3h0.2c-0.6-15.3-5.3-29.3-5.3-45.5
		c0-8.4,1.3-23.4,2.6-36.5l9.3,86c0.4,7,1,12.6,7.6,12.6C571.7,456.3,572.1,456.3,572.3,456.3z M516.8,363.9l-17.7-42.3h35.5
		L516.8,363.9z"/>
</g>
</svg>
