<?xml version="1.0" encoding="utf-8"?>
<!-- Generator: Adobe Illustrator 17.1.0, SVG Export Plug-In . SVG Version: 6.00 Build 0)  -->
<!DOCTYPE svg PUBLIC "-//W3C//DTD SVG 1.1//EN" "http://www.w3.org/Graphics/SVG/1.1/DTD/svg11.dtd">
<svg version="1.1" id="Trees-Icon_xA0_Image_1_" xmlns="http://www.w3.org/2000/svg" xmlns:xlink="http://www.w3.org/1999/xlink"
	 x="0px" y="0px" viewBox="0 0 1581.602 1221.374" enable-background="new 0 0 1581.602 1221.374" xml:space="preserve">
<path d="M1581.602,461.195c-1.82-0.092-3.641-0.265-5.461-0.266c-106.326-0.013-212.651-0.012-318.977-0.012c-2.14,0-4.28,0-6.583,0
	c-1.194,6.801-2.095,13.22-3.467,19.537c-8.365,38.516-26.96,71.855-52.231,101.648c-37.531,44.248-84.325,75.638-137.429,98.146
	c-3.518,1.491-6.937,3.214-11.796,5.479c-20.326-22.573-41.074-45.615-62.763-69.701c7.131-4.979,12.932-10.027,19.569-13.459
	c14.338-7.413,29.337-13.549,43.649-21.007c34.752-18.107,64.967-41.772,87.728-74.128c8.977-12.762,16.009-26.51,20.022-41.68
	c0.335-1.268,0.563-2.565,1.045-4.789c-2.45,0-4.498-0.003-6.545,0c-52.493,0.077-104.986,0.108-157.478,0.334
	c-3.619,0.016-5.25-1.448-7.531-3.981c-8.214-9.119-17.048-17.676-25.548-26.541c-12.199-12.723-24.356-25.488-36.439-38.322
	c-4.986-5.296-9.732-10.818-15.176-16.894c55.101-46.863,119.077-73.355,187.892-88.917c0-5.477-0.346-10.618,0.066-15.697
	c1.161-14.331,7.473-26.454,16.754-37.175c35.054-40.493,109.978-49.586,153.398-18.225c6.631,4.789,12.011,11.409,17.542,17.567
	c1.905,2.121,3.212,2.949,6.139,2.531c26.91-3.839,53.187-1.873,78.333,9.3c9.383,4.169,17.95,9.605,24.882,17.257
	c11.417,12.603,15.249,26.689,7.76,42.78c-0.263,0.566-0.353,1.213-0.566,1.976c10.376,4.488,20.697,8.656,30.768,13.361
	c46.927,21.919,89.09,50.455,121.532,91.403c10.787,13.615,19.045,29.233,28.47,43.928c0.775,1.208,1.627,2.366,2.443,3.547
	C1581.602,459.861,1581.602,460.528,1581.602,461.195z"/>
<path d="M41.382,833.531c-48.357-34.593-49.784-90.918-27.523-126.523c18.626-29.791,67.015-59.071,121.787-33.003
	c12.205-26.77,32.5-44.446,61.038-52.766c-0.789-12.724,0.864-24.879,5.325-36.526c20.886-54.534,84.176-76.952,134.622-47.597
	c3.383,1.969,5.118,1.7,7.891-0.956c29.681-28.418,74.145-34.239,109.959-13.62c32.26,18.573,47.558,47.252,47.084,84.389
	c-0.034,2.63-0.526,5.254-0.798,7.81c41.374,19.974,43.299,21.8,63.274,60.076c23.527-15.977,49.286-21.161,76.878-14.173
	c22.25,5.635,40.23,18.186,53.489,37.006c22.95,32.577,25.789,88.019-18.286,124.323c5.591,8.042,12.042,15.571,16.556,24.123
	c18.887,35.774,11.289,80.54-18.178,108.284c-23.908,22.51-52.285,30.082-84.36,23.539c-3.881-0.792-5.81,0.155-8.319,3.07
	c-25.284,29.37-56.981,40.217-94.923,31.851c-3.926-0.866-5.909-0.09-8.205,3.056c-14.035,19.223-28.235,38.328-42.543,57.35
	c-2.146,2.853-2.545,5.345-1.472,8.679c8.358,25.964,16.653,51.948,24.804,77.977c4.364,13.937,8.406,27.975,12.582,41.933
	c-39.583,20.546-176.909,19.876-219.51-1.228c3.156-9.845,6.362-19.769,9.518-29.709c8.859-27.901,17.733-55.798,26.451-83.744
	c0.493-1.58,0.26-4.033-0.678-5.318c-15.407-21.098-30.981-42.073-46.53-63.067c-0.287-0.388-0.735-0.658-1.353-1.197
	c-11.517,5.618-23.739,9.229-36.651,10.006c-27.311,1.646-51.495-6.132-70.964-25.645c-6.594-6.609-12.232-9.403-22.335-8.393
	c-41.586,4.157-80.084-19.816-94.832-58.595C2.574,901.796,9.524,864.032,34.94,838.65
	C36.817,836.776,39.109,835.318,41.382,833.531z M337.112,980.365c-19.409-5.651-35.515-15.262-47.948-30.378
	c-3.479,10.271-6.745,19.914-10.146,29.956c16.893,11.951,34.16,24.167,52.023,36.805
	C333.13,1004.225,335.084,992.52,337.112,980.365z M387.478,1016.404c17.012-12.078,33.096-23.497,49.026-34.807
	c-4.653-7.711-8.911-14.769-13.341-22.112c-11.325,10.035-24.27,16.886-38.8,20.785c-0.876,0.235-2.106,1.854-1.992,2.663
	C383.9,993.78,385.639,1004.597,387.478,1016.404z"/>
<path d="M950.681,475.038c-47.177-12.096-93.676-26.455-139.829-42.588c65.594,110.082,141.796,211.716,232.797,302.207
	c-59.123-14.577-117.204-32.403-174.976-52.133c85.47,142.257,182.972,275.125,298.793,394.471
	c-129.943-34.08-258.035-73.332-380.441-132.224c0,2.661,0,4.733,0,6.804c0,80.996-0.049,161.992,0.118,242.987
	c0.01,4.987-1.327,7.246-6.216,8.781c-42.02,13.185-85.076,17.397-128.872,15.336c-28.904-1.36-57.307-5.802-85.079-14.171
	c-4.349-1.311-5.549-3.265-5.535-7.661c0.157-50.663,0.137-101.328,0.025-151.991c-0.008-3.81,1.229-5.461,4.637-7.511
	c10.359-6.235,20.117-13.462,30.223-20.131c1.755-1.159,4.071-2.127,6.112-2.097c49.9,0.725,90.137-17.848,116.687-60.887
	c18.705-30.322,23.793-63.583,13.867-98.313c-2.811-9.834-7.11-19.236-10.448-28.932c-0.505-1.466-0.013-3.821,0.906-5.151
	c14.852-21.479,22.389-45.581,21.981-71.325c-0.664-41.884-16.733-76.715-51.157-102.236
	c-26.058-19.319-55.327-26.986-87.232-24.936c-9.519,0.612-18.89,3.523-28.903,5.494c-9.775-15.168-23.933-26.035-39.461-35.428
	c-1.522-0.921-2.636-3.367-2.967-5.273c-3.092-17.799-6.994-35.476-17.303-50.578c-7.153-10.479-16.016-19.793-24.165-29.586
	c-0.616-0.74-1.63-1.148-2.477-1.722c15.786-24.826,31.182-49.038,46.578-73.25c-0.365-0.419-0.73-0.839-1.095-1.258
	c-45.746,16.841-92.235,31.222-139.42,43.298c-0.511-0.595-1.021-1.19-1.532-1.786c1.652-1.003,3.575-1.73,4.918-3.048
	c89.397-87.71,163.517-186.576,217.939-299.687c23.347-48.525,41.72-98.838,51.678-151.959C671.984,12.4,672.852,6.193,674.192,0
	c2.98,25.974,9.091,51.184,16.893,76.021c17.369,55.297,42.294,107.197,71.183,157.254c45.194,78.31,98.897,150.252,162.184,214.925
	c7.573,7.739,15.484,15.149,23.311,22.635c1.161,1.11,2.727,1.796,4.106,2.678C951.473,474.023,951.077,474.53,950.681,475.038z"/>
<path d="M1067.617,908.299c-41.73-51.956-80.041-105.567-115.771-161.727c6.074,1.689,12.15,3.372,18.223,5.067
	c16.48,4.601,32.937,9.284,49.455,13.743c2.964,0.8,3.67,2.211,3.961,5.128c1.914,19.211,4.088,38.396,6.228,57.584
	c0.194,1.737,0.748,3.433,1.348,6.096c1.263-2.188,2.092-3.553,2.854-4.955c20.556-37.85,49.507-66.235,90.911-80.529
	c16.834-5.812,34.227-8.615,51.996-8.92c24.668-0.423,49.318-0.95,73.666-5.532c14.614-2.75,28.961-6.402,42.256-13.313
	c3.329-1.73,6.464-3.833,9.688-5.764c-0.104-0.434-0.209-0.867-0.314-1.301c-54.104,0-108.207,0-163.307,0
	c1.729-3.491,2.838-6.027,4.194-8.422c15.925-28.133,40.047-47.339,68.22-61.902c8.998-4.651,18.64-8.043,27.848-12.312
	c2.342-1.086,4.81-2.934,6.092-5.1c6.72-11.352,16.321-19.399,28.223-24.499c26.077-11.173,52.14-10.832,77.871,1.356
	c3.142,1.488,6.656,2.99,8.873,5.485c7.579,8.526,17.708,9.832,28.048,11.798c13.671,2.599,26.542,4.652,40.835,0.538
	c16.135-4.644,32.504-0.56,46.575,9.369c10.892,7.686,17.255,17.843,15.58,31.923c-0.174,1.465,1.352,3.578,2.673,4.706
	c12.784,10.904,23.9,23.196,32.205,37.888c1.467,2.596,2.771,5.285,4.583,8.762c-2.554,0.113-4.439,0.27-6.325,0.27
	c-48.657,0.013-97.313,0.068-145.97-0.082c-4.618-0.014-6.755,0.958-8.199,5.897c-6.201,21.212-20.522,36.236-38.638,47.967
	c-23.271,15.071-49.337,22.817-76.401,26.341c-23.397,3.047-47.094,5.086-70.67,5.2c-47.511,0.232-80.703,21.836-100.621,64.171
	c-6.06,12.881-9.885,26.814-14.716,40.272C1068.599,904.87,1068.232,906.282,1067.617,908.299z"/>
<path d="M877.905,1023.477c12.935,4.64,25.552,9.218,38.205,13.693c15.18,5.369,30.303,10.919,45.608,15.911
	c24.622,8.031,49.378,15.653,74.067,23.481c10.757,3.411,21.441,7.063,32.262,10.25c2.833,0.834,3.574,2.057,3.735,4.767
	c1.514,25.446,3.16,50.883,4.763,76.324c0.566,8.979,0.735,18.004,1.805,26.922c0.751,6.268-1.755,10.252-7.064,12.216
	c-8.088,2.993-16.274,6.233-24.709,7.695c-51.536,8.931-103.104,9.193-154.482-1.31c-6.925-1.416-13.6-4.336-20.176-7.078
	c-4.583-1.911-6.144-5.642-5.77-10.944c3.919-55.507,7.59-111.032,11.333-166.552
	C877.593,1027.21,877.739,1025.569,877.905,1023.477z"/>
</svg>
