<?xml version="1.0" encoding="utf-8"?>
<!-- Generator: Adobe Illustrator 17.1.0, SVG Export Plug-In . SVG Version: 6.00 Build 0)  -->
<!DOCTYPE svg PUBLIC "-//W3C//DTD SVG 1.1//EN" "http://www.w3.org/Graphics/SVG/1.1/DTD/svg11.dtd">
<svg version="1.1" id="Trees-Icon_xA0_Image_1_" xmlns="http://www.w3.org/2000/svg" xmlns:xlink="http://www.w3.org/1999/xlink"
	 x="0px" y="0px" viewBox="0 0 2369.8 1438.2" enable-background="new 0 0 2369.8 1438.2" xml:space="preserve">
<g>
	<path fill="#FFFFFF" d="M1202.5,529.1c-58.6-9.9-118.4-14.9-178.8-14.9c-138.4,0-272.8,26.1-399.2,77.4
		c-122.1,49.6-231.8,120.7-326,211.1c-94.2,90.5-168.1,195.9-219.8,313.2c-45.2,102.7-71.6,211-78.7,322.4h72.7
		c6.9-102,31.4-201.2,72.8-295.3c48-109,116.7-206.9,204.3-291c87.5-84.1,189.5-150.1,303-196.2c117.5-47.7,242.3-71.9,371-71.9
		c43.2,0,86.1,2.8,128.5,8.3C1170,571.4,1186.8,550.3,1202.5,529.1z"/>
	<path fill="#FFFFFF" d="M878,791.3c0.2-0.6,0.4-1.2,0.7-1.8c9.5-24.9,26.1-45.9,47.8-60.6c21.1-14.3,45.7-21.8,71.1-21.8
		c16,0,32,3.1,47,9c8.7-6.1,18.2-11.1,28-14.8c-1.8-5.2-2.3-10.9-1.4-16.5c0.8-5,2.7-9.8,5.6-13.9c-17.6-1-35.3-1.6-53-1.6
		c-226.8,0-441.2,84.1-603.8,236.7c-152.1,142.8-242.7,330.5-258,532.2h113.2c6.6-75.8,25.5-149.6,56.4-219.8
		c37.8-85.9,92-163.1,161-229.4c69-66.3,149.3-118.3,238.8-154.6C778.8,815.1,827.8,800.7,878,791.3z"/>
	<path fill="#FFFFFF" d="M738,1222.8c-14.9-10.3-27.3-23.5-36.5-38.9c-73.2,69-119.8,158-133.7,254.4h73.3
		c13.8-80.7,54.3-152.2,112.3-206.4C748.1,1229.2,742.9,1226.2,738,1222.8z"/>
	<path fill="#FFFFFF" d="M702.6,1052.3c-3.5-4.3-6.7-8.8-9.6-13.5c-8.7-14.2-14.4-29.6-17-46c-1.8-11.3-2-22.9-0.7-34.4
		c-40.1,24-77.8,52.2-112.5,84.6c-113.9,106.2-183.3,245.2-198.2,395.2h113.5c5.9-49.7,19.2-98,39.5-144.3
		c27.7-62.8,67.3-119.2,117.7-167.7c17.1-16.4,35.1-31.6,54-45.6C692.5,1070.6,697,1061.1,702.6,1052.3z"/>
</g>
<g>
	<path fill="#FFFFFF" d="M1806.3,1218.1v56.9c23.1,6.5,46.3,12.8,69.6,18.9C1851.9,1269.2,1828.8,1243.9,1806.3,1218.1z"/>
	<path fill="#FFFFFF" d="M1806.3,1310.3v35.8l29.7-27.6C1825.8,1315.7,1816,1313,1806.3,1310.3z"/>
	<path fill="#FFFFFF" d="M2157.4,1340.5l-19-19c-4.7-4.9-8.2-10.9-8.2-18.5c0-12.5,10.1-22.6,22.6-22.6c2.2,0,4.3,0.3,6.2,0.9
		c-8.3-3.6-17.6-5.4-26.2-5.3c0,0-0.1,0-0.1,0c-57.5-0.1-97.3-46.1-97.6-101.7c-0.2-29.4-0.1-58.9,0-88.3h-100.9
		c-56.5,0-104.5,36.7-121.5,87.5c28.4,33.6,57.5,65.8,87.4,96.7c10.6,11,12.7,27.6,5,40.8c-6.2,10.6-17.5,16.9-29.4,16.9
		c-2.9,0-5.8-0.4-8.6-1.1c-10.3-2.7-20.4-5.4-30.3-8.1v81.6c0,20.9,17,37.9,37.9,37.9c20.9,0,37.9-17,37.9-37.9v-58.4
		c0.7-16.6,14.5-30,31.3-30c16.8,0,30.9,13.3,31.6,30v58.4c0,20.9,17,37.9,37.9,37.9c20.9,0,37.9-17,37.9-37.9l0-70.6l29.6,33.7
		l-10.1,10.1c-14.8,14.8-14.8,38.8,0,53.6c14.8,14.8,38.8,14.8,53.6,0l32.7-33C2172.2,1379.3,2172.2,1355.3,2157.4,1340.5z"/>
</g>
<path fill="#FFFFFF" d="M1577.1,899.4c57.8,19.7,115.9,37.6,175,52.1c-91-90.5-167.2-192.1-232.8-302.2
	c46.2,16.1,92.7,30.5,139.8,42.6c0.4-0.5,0.8-1,1.2-1.5c-1.4-0.9-2.9-1.6-4.1-2.7c-7.8-7.5-15.7-14.9-23.3-22.6
	c-63.3-64.7-117-136.6-162.2-214.9c-28.9-50.1-53.8-102-71.2-157.3c-7.8-24.8-13.9-50-16.9-76c-1.3,6.2-2.2,12.4-3.4,18.6
	c-10,53.1-28.3,103.4-51.7,152c-54.4,113.1-128.5,212-217.9,299.7c-1.3,1.3-3.3,2-4.9,3c0.5,0.6,1,1.2,1.5,1.8
	c47.2-12.1,93.7-26.5,139.4-43.3c0.4,0.4,0.7,0.8,1.1,1.3c-15.4,24.2-30.8,48.4-46.6,73.2c0.8,0.6,1.9,1,2.5,1.7
	c8.1,9.8,17,19.1,24.2,29.6c10.3,15.1,14.2,32.8,17.3,50.6c0.3,1.9,1.4,4.4,3,5.3c15.5,9.4,29.7,20.3,39.5,35.4
	c10-2,19.4-4.9,28.9-5.5c3.3-0.2,6.6-0.3,9.9-0.3c28.1,0,54,8,77.3,25.3c34.4,25.5,50.5,60.4,51.2,102.2c0.4,25.7-7.1,49.8-22,71.3
	c-0.9,1.3-1.4,3.7-0.9,5.2c3.3,9.7,7.6,19.1,10.4,28.9c9.9,34.7,4.8,68-13.9,98.3c-26.1,42.2-65.3,60.9-113.9,60.9
	c-0.9,0-1.9,0-2.8,0c0,0-0.1,0-0.1,0c-2,0-4.3,1-6,2.1c-10.1,6.7-19.9,13.9-30.2,20.1c-3.4,2.1-4.6,3.7-4.6,7.5
	c0.1,50.7,0.1,101.3,0,152c0,4.4,1.2,6.4,5.5,7.7c27.8,8.4,56.2,12.8,85.1,14.2c7,0.3,13.9,0.5,20.8,0.5c36.6,0,72.7-4.7,108.1-15.8
	c4.9-1.5,6.2-3.8,6.2-8.8c-0.2-81-0.1-162-0.1-243c0-2.1,0-4.1,0-6.8c122.4,58.9,250.5,98.1,380.4,132.2
	C1760.1,1174.5,1662.6,1041.6,1577.1,899.4z"/>
<path fill="#FFFFFF" d="M1382.9,1171.2c29.5-27.7,37.1-72.5,18.2-108.3c-4.5-8.6-11-16.1-16.6-24.1c44.1-36.3,41.2-91.7,18.3-124.3
	c-13.3-18.8-31.2-31.4-53.5-37c-8.1-2-15.9-3-23.7-3c-18.8,0-36.5,5.9-53.2,17.2c-20-38.3-21.9-40.1-63.3-60.1
	c0.3-2.6,0.8-5.2,0.8-7.8c0.5-37.1-14.8-65.8-47.1-84.4c-14.4-8.3-30.2-12.3-45.8-12.3c-23.3,0-46.4,8.9-64.1,25.9
	c-1.6,1.5-2.8,2.2-4.2,2.2c-1.1,0-2.2-0.4-3.7-1.3c-15.2-8.8-31.5-13-47.5-13c-37.2,0-72.5,22.4-87.1,60.6
	c-4.5,11.6-6.1,23.8-5.3,36.5c-28.5,8.3-48.8,26-61,52.8c-14.9-7.1-29.3-10.1-42.8-10.1c-36.1,0-65.4,21.4-79,43.1
	c-22.3,35.6-20.8,91.9,27.5,126.5c-2.3,1.8-4.6,3.2-6.4,5.1c-25.4,25.4-32.4,63.1-19.8,96.3c13.6,35.9,47.6,59.1,85.5,59.1
	c3.1,0,6.2-0.2,9.3-0.5c1.3-0.1,2.6-0.2,3.8-0.2c7.8,0,12.8,2.9,18.5,8.6c17.8,17.8,39.5,25.9,64,25.9c2.3,0,4.6-0.1,7-0.2
	c12.9-0.8,25.1-4.4,36.7-10c0.6,0.5,1.1,0.8,1.4,1.2c15.5,21,31.1,42,46.5,63.1c0.9,1.3,1.2,3.7,0.7,5.3
	c-8.7,27.9-17.6,55.8-26.5,83.7c-3.2,9.9-6.4,19.9-9.5,29.7c21.8,10.8,68.3,16.2,113.9,16.2c43.6,0,86.2-5,105.6-15
	c-4.2-14-8.2-28-12.6-41.9c-8.2-26-16.4-52-24.8-78c-1.1-3.3-0.7-5.8,1.5-8.7c14.3-19,28.5-38.1,42.5-57.3c1.7-2.4,3.3-3.4,5.6-3.4
	c0.8,0,1.6,0.1,2.6,0.3c8.3,1.8,16.3,2.7,24,2.7c27.5,0,51.2-11.6,70.9-34.6c1.9-2.3,3.5-3.3,6-3.3c0.7,0,1.5,0.1,2.3,0.3
	c7.4,1.5,14.6,2.3,21.6,2.3C1343.5,1197,1364.5,1188.6,1382.9,1171.2z M1039.5,1233.6c-17.9-12.6-35.1-24.9-52-36.8
	c3.4-10,6.7-19.7,10.1-30c12.4,15.1,28.5,24.7,47.9,30.4C1043.5,1209.4,1041.6,1221.1,1039.5,1233.6z M1095.9,1233.3
	c-1.8-11.8-3.6-22.6-5.1-33.5c-0.1-0.8,1.1-2.4,2-2.7c14.5-3.9,27.5-10.8,38.8-20.8c4.4,7.3,8.7,14.4,13.3,22.1
	C1129,1209.8,1112.9,1221.2,1095.9,1233.3z"/>
<g>
	<g>
		<path fill="#FFFFFF" d="M2290,678c-1.8-0.1-3.6-0.3-5.5-0.3c-106.3,0-212.7,0-319,0c-2.1,0-4.3,0-6.6,0
			c-1.2,6.8-2.1,13.2-3.5,19.5c-8.4,38.5-27,71.9-52.2,101.6c-37.5,44.2-84.3,75.6-137.4,98.1c-3.5,1.5-6.9,3.2-11.8,5.5
			c-20.3-22.6-41.1-45.6-62.8-69.7c7.1-5,12.9-10,19.6-13.5c14.3-7.4,29.3-13.5,43.6-21c34.8-18.1,65-41.8,87.7-74.1
			c9-12.8,16-26.5,20-41.7c0.3-1.3,0.6-2.6,1-4.8c-2.4,0-4.5,0-6.5,0c-52.5,0.1-105,0.1-157.5,0.3c-3.6,0-5.2-1.4-7.5-4
			c-8.2-9.1-17-17.7-25.5-26.5c-12.2-12.7-24.4-25.5-36.4-38.3c-5-5.3-9.7-10.8-15.2-16.9c55.1-46.9,119.1-73.4,187.9-88.9
			c0-5.5-0.3-10.6,0.1-15.7c1.2-14.3,7.5-26.5,16.8-37.2c35.1-40.5,110-49.6,153.4-18.2c6.6,4.8,12,11.4,17.5,17.6
			c1.9,2.1,3.2,2.9,6.1,2.5c26.9-3.8,53.2-1.9,78.3,9.3c9.4,4.2,18,9.6,24.9,17.3c11.4,12.6,15.2,26.7,7.8,42.8
			c-0.3,0.6-0.4,1.2-0.6,2c10.4,4.5,20.7,8.7,30.8,13.4c46.9,21.9,89.1,50.5,121.5,91.4c10.8,13.6,19,29.2,28.5,43.9
			c0.8,1.2,1.6,2.4,2.4,3.5C2290,676.7,2290,677.4,2290,678z"/>
	</g>
	<g>
		<path fill="#FFFFFF" d="M1776,1125.2c-41.7-52-80-105.6-115.8-161.7c6.1,1.7,12.2,3.4,18.2,5.1c16.5,4.6,32.9,9.3,49.5,13.7
			c3,0.8,3.7,2.2,4,5.1c1.9,19.2,4.1,38.4,6.2,57.6c0.2,1.7,0.7,3.4,1.3,6.1c1.3-2.2,2.1-3.6,2.9-5c20.6-37.8,49.5-66.2,90.9-80.5
			c16.8-5.8,34.2-8.6,52-8.9c24.7-0.4,49.3-1,73.7-5.5c14.6-2.8,29-6.4,42.3-13.3c3.3-1.7,6.5-3.8,9.7-5.8c-0.1-0.4-0.2-0.9-0.3-1.3
			c-54.1,0-108.2,0-163.3,0c1.7-3.5,2.8-6,4.2-8.4c15.9-28.1,40-47.3,68.2-61.9c9-4.7,18.6-8,27.8-12.3c2.3-1.1,4.8-2.9,6.1-5.1
			c6.7-11.4,16.3-19.4,28.2-24.5c26.1-11.2,52.1-10.8,77.9,1.4c3.1,1.5,6.7,3,8.9,5.5c7.6,8.5,17.7,9.8,28,11.8
			c13.7,2.6,26.5,4.7,40.8,0.5c16.1-4.6,32.5-0.6,46.6,9.4c10.9,7.7,17.3,17.8,15.6,31.9c-0.2,1.5,1.4,3.6,2.7,4.7
			c12.8,10.9,23.9,23.2,32.2,37.9c1.5,2.6,2.8,5.3,4.6,8.8c-2.6,0.1-4.4,0.3-6.3,0.3c-48.7,0-97.3,0.1-146-0.1c-4.6,0-6.8,1-8.2,5.9
			c-6.2,21.2-20.5,36.2-38.6,48c-23.3,15.1-49.3,22.8-76.4,26.3c-23.4,3-47.1,5.1-70.7,5.2c-47.5,0.2-80.7,21.8-100.6,64.2
			c-6.1,12.9-9.9,26.8-14.7,40.3C1777,1121.7,1776.7,1123.1,1776,1125.2z"/>
	</g>
	<g>
		<path fill="#FFFFFF" d="M1586.3,1240.3c12.9,4.6,25.6,9.2,38.2,13.7c15.2,5.4,30.3,10.9,45.6,15.9c24.6,8,49.4,15.7,74.1,23.5
			c10.8,3.4,21.4,7.1,32.3,10.2c2.8,0.8,3.6,2.1,3.7,4.8c1.5,25.4,3.2,50.9,4.8,76.3c0.6,9,0.7,18,1.8,26.9
			c0.8,6.3-1.8,10.3-7.1,12.2c-8.1,3-16.3,6.2-24.7,7.7c-51.5,8.9-103.1,9.2-154.5-1.3c-6.9-1.4-13.6-4.3-20.2-7.1
			c-4.6-1.9-6.1-5.6-5.8-10.9c3.9-55.5,7.6-111,11.3-166.6C1586,1244.1,1586.2,1242.4,1586.3,1240.3z"/>
	</g>
</g>
<g>
	<path fill="#FFFFFF" d="M213.2,466.5c0,13.8-11.5,25-25.6,25c-14.2,0-25.7-11.2-25.7-25c0-13.8,25.7-52.9,25.7-52.9
		S213.2,452.7,213.2,466.5"/>
	<path fill="#FFFFFF" d="M948.6,289.2c0,13.8-11.5,25-25.6,25c-14.2,0-25.7-11.2-25.7-25c0-13.8,25.7-52.9,25.7-52.9
		S948.6,275.4,948.6,289.2"/>
	<path fill="#FFFFFF" d="M1130.3,427.5c0,13.8-11.5,25-25.6,25c-14.2,0-25.7-11.2-25.7-25c0-13.8,25.7-52.9,25.7-52.9
		S1130.3,413.7,1130.3,427.5"/>
	<path fill="#FFFFFF" d="M1156,204.3c0,13.8-11.5,25-25.6,25c-14.2,0-25.7-11.2-25.7-25c0-13.8,25.7-52.9,25.7-52.9
		S1156,190.5,1156,204.3"/>
	<path fill="#FFFFFF" d="M626.9,367.2c0,13.8-11.5,25-25.6,25c-14.2,0-25.7-11.2-25.7-25c0-13.8,25.7-52.9,25.7-52.9
		S626.9,353.3,626.9,367.2"/>
	<path fill="#FFFFFF" d="M559.2,139.6c0,13.8-11.5,25-25.6,25c-14.2,0-25.7-11.2-25.7-25c0-13.8,25.7-52.9,25.7-52.9
		S559.2,125.8,559.2,139.6"/>
	<path fill="#FFFFFF" d="M136.3,165.3c0,13.8-11.5,25-25.6,25c-14.2,0-25.7-11.2-25.7-25c0-13.8,25.7-52.9,25.7-52.9
		S136.3,151.5,136.3,165.3"/>
	<path fill="#FFFFFF" d="M162,768.1c0,13.8-11.5,25-25.6,25c-14.2,0-25.7-11.2-25.7-25c0-13.8,25.7-52.9,25.7-52.9
		S162,754.2,162,768.1"/>
	<path fill="#FFFFFF" d="M338.9,243.3c0,13.8-11.5,25-25.6,25c-14.2,0-25.7-11.2-25.7-25c0-13.8,25.7-52.9,25.7-52.9
		S338.9,229.4,338.9,243.3"/>
	<path fill="#FFFFFF" d="M425,528.1c0,13.8-11.5,25-25.6,25c-14.2,0-25.7-11.2-25.7-25c0-13.8,25.7-52.9,25.7-52.9
		S425,514.2,425,528.1"/>
	<path fill="#FFFFFF" d="M804.7,152.8c0,13.8-11.5,25-25.6,25c-14.2,0-25.7-11.2-25.7-25c0-13.8,25.7-52.9,25.7-52.9
		S804.7,139,804.7,152.8"/>
</g>
<path fill="#FFFFFF" d="M2320.8,1314c-1.2,24.5-27.7,40.9-49.3,26.6c-12.9-8.5-14.4-22.2-14.4-36.1l0-98.8
	c0-70.7-57.8-128-128.5-128h-2.5h-70.4c0,24.4,0,48.9,0,73.3c0,18.9-0.7,37.3,7.3,55.1c13.9,30.8,44.9,49.4,78.2,49.4l0.1,0
	c16.4-0.1,34.4,5.4,46.8,16.2c13.2,11.4,18.4,26,19.7,41.6v0.7c0.4,9.1,1.7,17.8,5.1,27.2c12.9,36,50.2,58,87.8,52.4
	c40.4-5.9,67.1-40.1,68.9-79.7C2371.2,1282.6,2322.3,1282.6,2320.8,1314z M2200.3,1201.8c-9.1,0-16.4-7.4-16.4-16.4
	s7.4-16.4,16.4-16.4s16.4,7.4,16.4,16.4S2209.4,1201.8,2200.3,1201.8z"/>
</svg>
