<?xml version="1.0" encoding="utf-8"?>
<!-- Generator: Adobe Illustrator 17.1.0, SVG Export Plug-In . SVG Version: 6.00 Build 0)  -->
<!DOCTYPE svg PUBLIC "-//W3C//DTD SVG 1.1//EN" "http://www.w3.org/Graphics/SVG/1.1/DTD/svg11.dtd">
<svg version="1.1" id="Trees-Icon_xA0_Image_1_" xmlns="http://www.w3.org/2000/svg" xmlns:xlink="http://www.w3.org/1999/xlink"
	 x="0px" y="0px" viewBox="6 196 600 400" enable-background="new 6 196 600 400" xml:space="preserve">
<g>
	<path fill="#FFFFFF" d="M311.2,353.5c-14.8-2.6-29.9-4-45.1-4c-34.9,0-68.8,6.9-100.7,20.6c-30.8,13.2-58.4,32.2-82.2,56.3
		c-23.7,24.1-42.4,52.2-55.4,83.5c-11.4,27.4-18,56.2-19.8,85.9h18.3c1.8-27.2,7.9-53.6,18.4-78.7c12.1-29.1,29.4-55.2,51.5-77.6
		s47.8-40,76.4-52.3c29.6-12.7,61.1-19.2,93.5-19.2c10.9,0,21.7,0.7,32.4,2.2C303,364.7,307.2,359.1,311.2,353.5z"/>
	<path fill="#FFFFFF" d="M229.4,423.4c0.1-0.2,0.1-0.3,0.2-0.5c2.4-6.6,6.6-12.2,12-16.1c5.3-3.8,11.5-5.8,17.9-5.8
		c4,0,8.1,0.8,11.8,2.4c2.2-1.6,4.6-3,7.1-4c-0.5-1.4-0.6-2.9-0.4-4.4c0.2-1.3,0.7-2.6,1.4-3.7c-4.4-0.3-8.9-0.4-13.4-0.4
		c-57.2,0-111.2,22.4-152.2,63.1c-38.3,38.1-61.2,88.1-65,141.9h28.5c1.7-20.2,6.4-39.9,14.2-58.6c9.5-22.9,23.2-43.5,40.6-61.1
		c17.4-17.7,37.7-31.5,60.2-41.2C204.4,429.7,216.7,425.9,229.4,423.4z"/>
	<path fill="#FFFFFF" d="M194.1,538.4c-3.8-2.7-6.9-6.3-9.2-10.4c-18.5,18.4-30.2,42.1-33.7,67.8h18.5c3.5-21.5,13.7-40.6,28.3-55
		C196.6,540.1,195.3,539.3,194.1,538.4z"/>
	<path fill="#FFFFFF" d="M185.1,492.9c-0.9-1.1-1.7-2.3-2.4-3.6c-2.2-3.8-3.6-7.9-4.3-12.3c-0.5-3-0.5-6.1-0.2-9.2
		c-10.1,6.4-19.6,13.9-28.4,22.5c-28.7,28.3-46.2,65.4-50,105.4h28.6c1.5-13.2,4.8-26.1,10-38.5c7-16.7,17-31.8,29.7-44.7
		c4.3-4.4,8.9-8.4,13.6-12.2C182.6,497.8,183.7,495.3,185.1,492.9z"/>
</g>
<g>
	<path fill="#FFFFFF" d="M463.4,537.1v15.2c5.8,1.7,11.7,3.4,17.5,5C474.9,550.7,469.1,544,463.4,537.1z"/>
	<path fill="#FFFFFF" d="M463.4,561.7v9.5l7.5-7.4C468.3,563.1,465.8,562.4,463.4,561.7z"/>
	<path fill="#FFFFFF" d="M551.9,569.8l-4.8-5.1c-1.2-1.3-2.1-2.9-2.1-4.9c0-3.3,2.6-6,5.7-6c0.5,0,1.1,0.1,1.6,0.2
		c-2.1-1-4.4-1.4-6.6-1.4l0,0c-14.5,0-24.5-12.3-24.6-27.1c0-7.8,0-15.7,0-23.5h-25.4c-14.3,0-26.4,9.8-30.6,23.3
		c7.2,9,14.5,17.5,22,25.8c2.7,2.9,3.2,7.4,1.3,10.9c-1.6,2.8-4.4,4.5-7.4,4.5c-0.7,0-1.5-0.1-2.2-0.3c-2.6-0.7-5.1-1.4-7.6-2.1
		v21.6c0,5.6,4.3,10.1,9.6,10.1c5.3,0,9.6-4.5,9.6-10.1v-15.6c0.2-4.4,3.6-8,7.9-8c4.2,0,7.8,3.6,8,8v15.6c0,5.6,4.3,10.1,9.6,10.1
		c5.3,0,9.6-4.5,9.6-10.1v-18.8l7.5,9l-2.5,2.7c-3.7,4-3.7,10.3,0,14.3c3.7,3.9,9.8,3.9,13.5,0l8.2-8.8
		C555.7,580.1,555.7,573.7,551.9,569.8z"/>
</g>
<path fill="#FFFFFF" d="M405.6,452.2c14.6,5.3,29.2,10,44.1,13.9c-22.9-24.1-42.2-51.2-58.7-80.6c11.6,4.3,23.4,8.1,35.3,11.4
	c0.1-0.1,0.2-0.3,0.3-0.4c-0.3-0.2-0.7-0.4-1-0.7c-2-2-4-4-5.9-6c-16-17.2-29.5-36.4-40.9-57.3c-7.3-13.3-13.6-27.2-17.9-41.9
	c-2-6.6-3.5-13.3-4.3-20.3c-0.3,1.7-0.6,3.3-0.8,4.9c-2.5,14.2-7.1,27.6-13,40.5c-13.7,30.2-32.4,56.5-54.9,79.9
	c-0.3,0.4-0.8,0.5-1.2,0.8c0.1,0.2,0.3,0.3,0.4,0.5c11.9-3.2,23.6-7.1,35.2-11.5c0.1,0.1,0.2,0.2,0.3,0.3
	c-3.9,6.5-7.8,12.9-11.7,19.5c0.2,0.2,0.5,0.3,0.6,0.5c2.1,2.6,4.3,5.1,6.1,7.9c2.6,4,3.6,8.7,4.4,13.5c0.1,0.5,0.4,1.2,0.7,1.4
	c3.9,2.5,7.5,5.4,9.9,9.4c2.5-0.5,4.9-1.3,7.3-1.5c0.8-0.1,1.7-0.1,2.5-0.1c7.1,0,13.6,2.1,19.5,6.7c8.7,6.8,12.7,16.1,12.9,27.3
	c0.1,6.9-1.8,13.3-5.5,19c-0.2,0.4-0.4,1-0.2,1.4c0.8,2.6,1.9,5.1,2.6,7.7c2.5,9.3,1.2,18.1-3.5,26.2c-6.6,11.3-16.5,16.2-28.7,16.2
	c-0.2,0-0.5,0-0.7,0l0,0c-0.5,0-1.1,0.3-1.5,0.6c-2.5,1.8-5,3.7-7.6,5.4c-0.9,0.5-1.2,1-1.2,2c0,13.5,0,27,0,40.5
	c0,1.2,0.3,1.7,1.4,2c7,2.2,14.2,3.4,21.5,3.8c1.8,0.1,3.5,0.1,5.2,0.1c9.2,0,18.3-1.3,27.2-4.2c1.2-0.4,1.6-1,1.6-2.3
	c0-21.6,0-43.2,0-64.8c0-0.6,0-1.1,0-1.8c30.9,15.7,63.2,26.2,95.9,35.2C451.8,525.5,427.2,490.1,405.6,452.2z"/>
<path fill="#FFFFFF" d="M356.7,524.6c7.4-7.4,9.3-19.3,4.6-28.9c-1.1-2.3-2.8-4.3-4.2-6.4c11.1-9.7,10.4-24.5,4.6-33.1
	c-3.3-5-7.9-8.4-13.5-9.9c-2-0.5-4-0.8-6-0.8c-4.7,0-9.2,1.6-13.4,4.6c-5-10.2-5.5-10.7-16-16c0.1-0.7,0.2-1.4,0.2-2.1
	c0.1-9.9-3.7-17.5-11.9-22.5c-3.6-2.2-7.6-3.3-11.6-3.3c-5.9,0-11.7,2.4-16.2,6.9c-0.4,0.4-0.7,0.6-1.1,0.6c-0.3,0-0.6-0.1-0.9-0.3
	c-3.8-2.4-7.9-3.5-12-3.5c-9.4,0-18.3,6-22,16.1c-1.1,3.1-1.5,6.3-1.3,9.7c-7.2,2.2-12.3,6.9-15.4,14.1c-3.8-1.9-7.4-2.7-10.8-2.7
	c-9.1,0-16.5,5.7-19.9,11.5c-5.6,9.5-5.3,24.5,6.9,33.7c-0.6,0.5-1.2,0.9-1.6,1.4c-6.4,6.8-8.2,16.8-5,25.7
	c3.4,9.6,12,15.7,21.6,15.7c0.8,0,1.6,0,2.4-0.1c0.3,0,0.7-0.1,1-0.1c2,0,3.2,0.8,4.7,2.3c4.5,4.8,10,6.9,16.1,6.9
	c0.6,0,1.2,0,1.8-0.1c3.3-0.2,6.3-1.2,9.2-2.7c0.2,0.1,0.3,0.2,0.3,0.3c3.9,5.6,7.8,11.2,11.7,16.8c0.2,0.3,0.3,1,0.2,1.4
	c-2.2,7.4-4.4,14.9-6.7,22.3c-0.8,2.6-1.6,5.3-2.4,7.9c5.5,2.9,17.2,4.3,28.7,4.3c11,0,21.7-1.3,26.6-4c-1.1-3.7-2.1-7.5-3.2-11.2
	c-2.1-6.9-4.1-13.9-6.3-20.8c-0.3-0.9-0.2-1.6,0.4-2.3c3.6-5.1,7.2-10.2,10.7-15.3c0.4-0.6,0.8-0.9,1.4-0.9c0.2,0,0.4,0,0.7,0.1
	c2.1,0.5,4.1,0.7,6,0.7c6.9,0,12.9-3.1,17.9-9.2c0.5-0.6,0.9-0.9,1.5-0.9c0.2,0,0.4,0,0.6,0.1c1.9,0.4,3.7,0.6,5.4,0.6
	C346.7,531.5,352,529.3,356.7,524.6z M270.1,541.3c-4.5-3.4-8.9-6.6-13.1-9.8c0.9-2.7,1.7-5.2,2.6-8c3.1,4,7.2,6.6,12.1,8.1
	C271.1,534.8,270.6,537.9,270.1,541.3z M284.3,541.2c-0.5-3.1-0.9-6-1.3-8.9c0-0.2,0.3-0.6,0.5-0.7c3.7-1,6.9-2.9,9.8-5.5
	c1.1,2,2.2,3.8,3.4,5.9C292.6,534.9,288.6,538,284.3,541.2z"/>
<g>
	<g>
		<path fill="#FFFFFF" d="M585.4,393.2c-0.5,0-0.9-0.1-1.4-0.1c-26.8,0-53.6,0-80.4,0c-0.5,0-1.1,0-1.7,0c-0.3,1.8-0.5,3.5-0.9,5.2
			c-2.1,10.3-6.8,19.2-13.2,27.1c-9.5,11.8-21.3,20.2-34.6,26.2c-0.9,0.4-1.7,0.9-3,1.5c-5.1-6-10.4-12.2-15.8-18.6
			c1.8-1.3,3.3-2.7,4.9-3.6c3.6-2,7.4-3.6,11-5.6c8.8-4.8,16.4-11.1,22.1-19.8c2.3-3.4,4-7.1,5-11.1c0.1-0.3,0.1-0.7,0.3-1.3
			c-0.6,0-1.1,0-1.7,0c-13.2,0-26.5,0-39.7,0.1c-0.9,0-1.3-0.4-1.9-1.1c-2.1-2.4-4.3-4.7-6.4-7.1c-3.1-3.4-6.1-6.8-9.2-10.2
			c-1.3-1.4-2.5-2.9-3.8-4.5c13.9-12.5,30-19.6,47.4-23.7c0-1.5-0.1-2.8,0-4.2c0.3-3.8,1.9-7.1,4.2-9.9c8.8-10.8,27.7-13.2,38.7-4.9
			c1.7,1.3,3,3,4.4,4.7c0.5,0.6,0.8,0.8,1.5,0.7c6.8-1,13.4-0.5,19.7,2.5c2.4,1.1,4.5,2.6,6.3,4.6c2.9,3.4,3.8,7.1,2,11.4
			c-0.1,0.2-0.1,0.3-0.1,0.5c2.6,1.2,5.2,2.3,7.8,3.6c11.8,5.8,22.5,13.4,30.6,24.4c2.7,3.6,4.8,7.8,7.2,11.7
			c0.2,0.3,0.4,0.6,0.6,0.9C585.4,392.8,585.4,393,585.4,393.2z"/>
	</g>
	<g>
		<path fill="#FFFFFF" d="M455.8,512.4c-10.5-13.8-20.2-28.1-29.2-43.1c1.5,0.5,3.1,0.9,4.6,1.4c4.2,1.2,8.3,2.5,12.5,3.7
			c0.7,0.2,0.9,0.6,1,1.4c0.5,5.1,1,10.2,1.6,15.4c0,0.5,0.2,0.9,0.3,1.6c0.3-0.6,0.5-0.9,0.7-1.3c5.2-10.1,12.5-17.7,22.9-21.5
			c4.2-1.5,8.6-2.3,13.1-2.4c6.2-0.1,12.4-0.3,18.6-1.5c3.7-0.7,7.3-1.7,10.7-3.5c0.8-0.5,1.6-1,2.4-1.5c0-0.1-0.1-0.2-0.1-0.3
			c-13.6,0-27.3,0-41.2,0c0.4-0.9,0.7-1.6,1.1-2.2c4-7.5,10.1-12.6,17.2-16.5c2.3-1.2,4.7-2.1,7-3.3c0.6-0.3,1.2-0.8,1.5-1.4
			c1.7-3,4.1-5.2,7.1-6.5c6.6-3,13.1-2.9,19.6,0.4c0.8,0.4,1.7,0.8,2.2,1.5c1.9,2.3,4.5,2.6,7.1,3.1c3.4,0.7,6.7,1.2,10.3,0.1
			c4.1-1.2,8.2-0.1,11.7,2.5c2.7,2,4.4,4.8,3.9,8.5c0,0.4,0.3,1,0.7,1.3c3.2,2.9,6,6.2,8.1,10.1c0.4,0.7,0.7,1.4,1.2,2.3
			c-0.6,0-1.1,0.1-1.6,0.1c-12.3,0-24.5,0-36.8,0c-1.2,0-1.7,0.3-2.1,1.6c-1.6,5.7-5.2,9.7-9.7,12.8c-5.9,4-12.4,6.1-19.3,7
			c-5.9,0.8-11.9,1.4-17.8,1.4c-12,0.1-20.3,5.8-25.4,17.1c-1.5,3.4-2.5,7.1-3.7,10.7C456,511.4,455.9,511.8,455.8,512.4z"/>
	</g>
	<g>
		<path fill="#FFFFFF" d="M407.9,543.1c3.3,1.2,6.4,2.5,9.6,3.7c3.8,1.4,7.6,2.9,11.5,4.2c6.2,2.1,12.4,4.2,18.7,6.3
			c2.7,0.9,5.4,1.9,8.1,2.7c0.7,0.2,0.9,0.5,0.9,1.3c0.4,6.8,0.8,13.6,1.2,20.3c0.1,2.4,0.2,4.8,0.5,7.2c0.2,1.7-0.4,2.7-1.8,3.3
			c-2,0.8-4.1,1.7-6.2,2.1c-13,2.4-26,2.5-38.9-0.3c-1.7-0.4-3.4-1.2-5.1-1.9c-1.2-0.5-1.5-1.5-1.5-2.9c1-14.8,1.9-29.6,2.9-44.4
			C407.9,544.1,407.9,543.6,407.9,543.1z"/>
	</g>
</g>
<path fill="#FFFFFF" d="M61.8,336.8c0,3.7-2.9,6.7-6.4,6.7c-3.6,0-6.5-3-6.5-6.7s6.5-14.1,6.5-14.1S61.8,333.1,61.8,336.8"/>
<path fill="#FFFFFF" d="M247.2,289.5c0,3.7-2.9,6.7-6.4,6.7c-3.6,0-6.5-3-6.5-6.7s6.5-14.1,6.5-14.1S247.2,285.8,247.2,289.5"/>
<path fill="#FFFFFF" d="M293,326.4c0,3.7-2.9,6.7-6.4,6.7c-3.6,0-6.5-3-6.5-6.7s6.5-14.1,6.5-14.1S293,322.7,293,326.4"/>
<path fill="#FFFFFF" d="M299.4,266.9c0,3.7-2.9,6.7-6.4,6.7c-3.6,0-6.5-3-6.5-6.7s6.5-14.1,6.5-14.1S299.4,263.2,299.4,266.9"/>
<path fill="#FFFFFF" d="M166,310.3c0,3.7-2.9,6.7-6.4,6.7c-3.6,0-6.5-3-6.5-6.7c0-3.7,6.5-14.1,6.5-14.1S166,306.6,166,310.3"/>
<path fill="#FFFFFF" d="M48.8,417.2c0,3.7-2.9,6.7-6.4,6.7c-3.6,0-6.5-3-6.5-6.7c0-3.7,6.5-14.1,6.5-14.1S48.8,413.5,48.8,417.2"/>
<path fill="#FFFFFF" d="M93.5,277.3c0,3.7-2.9,6.7-6.4,6.7c-3.6,0-6.5-3-6.5-6.7s6.5-14.1,6.5-14.1S93.5,273.6,93.5,277.3"/>
<path fill="#FFFFFF" d="M115.1,353.2c0,3.7-2.9,6.7-6.4,6.7c-3.6,0-6.5-3-6.5-6.7s6.5-14.1,6.5-14.1S115.1,349.5,115.1,353.2"/>
<path fill="#FFFFFF" d="M210.9,253.2c0,3.7-2.9,6.7-6.4,6.7c-3.6,0-6.5-3-6.5-6.7c0-3.7,6.5-14.1,6.5-14.1S210.9,249.5,210.9,253.2"
	/>
<path fill="#FFFFFF" d="M593.1,562.7c-0.3,6.5-7,10.9-12.4,7.1c-3.3-2.3-3.6-5.9-3.6-9.6v-26.3c0-18.8-14.6-34.1-32.4-34.1H544
	h-17.8c0,6.5,0,13,0,19.5c0,5-0.2,9.9,1.8,14.7c3.5,8.2,11.3,13.2,19.7,13.2l0,0c4.1,0,8.7,1.4,11.8,4.3c3.3,3,4.6,6.9,5,11.1v0.2
	c0.1,2.4,0.4,4.7,1.3,7.3c3.2,9.6,12.7,15.4,22.1,14c10.2-1.6,16.9-10.7,17.4-21.2C605.8,554.3,593.5,554.3,593.1,562.7z
	 M562.7,532.8c-2.3,0-4.1-2-4.1-4.4c0-2.4,1.9-4.4,4.1-4.4c2.3,0,4.1,2,4.1,4.4C566.8,530.8,565,532.8,562.7,532.8z"/>
</svg>
