<?xml version="1.0" encoding="utf-8"?>
<!DOCTYPE svg PUBLIC "-//W3C//DTD SVG 1.1//EN" "http://www.w3.org/Graphics/SVG/1.1/DTD/svg11.dtd">
<svg version="1.1" id="livingroom" xmlns="http://www.w3.org/2000/svg" xmlns:xlink="http://www.w3.org/1999/xlink" x="0px" y="0px" viewBox="0 576.3 612 84.4" enable-background="new 0 576.3 612 84.4" xml:space="preserve">
<defs>
	<pattern id="paper" patternUnits="userSpaceOnUse" width="140" height="140">
		<image xlink:href="../pattern/paper.jpg" width="140" height="140"/>
	</pattern>
</defs>
<g id="paper">
	<path fill="url(#paper)" style="filter:url(#dropshadow)" d="M608,595.9c-0.1,0-0.1,0-0.2,0c-0.3,0-0.6,0-0.8-0.4c-0.3-0.7-0.7-1.4-1-2.2c0,0.5-0.1,1-0.3,1.5
		c-0.5,1.5-1,2.9-2,4.2c-0.3,0.3-0.6,0.7-1.1,0.8c-0.3-0.9-0.6-1.7-0.9-2.7c-0.2,0.7-0.5,1.5-0.5,2.2c0,1.1-0.3,2.1-0.6,3.2
		c-0.1,0.4-0.4,0.7-0.8,0.8c-0.5,0-1.1,0-1.5-0.2c-1.2-0.7-2.5-1.2-3.5-2.2c-0.2-0.2-0.4-0.4-0.6-0.6c-0.4,0.4-0.7,0.8-1.1,1.1
		c-0.5,0.4-1.1,0.8-1.7,1.3c-0.5,0.4-1.1,0.7-1.8,0.6c-0.3,0-0.5,0-0.8,0.2c-1.2,1-2.7,1.6-4.2,1.6c-1.3,0.1-2.4-0.4-3.3-1.4
		c-0.4-0.5-0.8-1.1-1.2-1.7c-0.5,0.2-0.8,0.6-1.2,1c-0.8,0.9-1.6,1.8-2.9,1.6c-0.1,0.1-0.1,0.1-0.2,0.2c0,0.1-0.1,0.2-0.1,0.3
		c-0.3,1-1,1.8-1.7,2.7c-0.9,0.9-1.9,1.5-3,2c-0.7,0.3-1.5,0.3-2.3,0.4c-0.1,0-0.2-0.1-0.4-0.2c-0.4,0.5-0.7,1.1-1.1,1.6
		c-0.5,0.5-1,1-1.5,1.4c-0.1,0.1-0.4,0.1-0.6,0.2c-0.3-1.2-0.7-2.4-1-3.6v4.2c0,0,0,0-0.1,0c-0.8-0.1-1.5-0.3-2.1-0.7
		c-0.5-0.3-1-0.7-1.5-1c-0.9-0.4-1.4-1.1-1.6-2.1c-1.3,0.9-2.8,1-4.3,0.8c0-0.2,0-0.4,0-0.6c-0.8,0-1.4-0.5-2-0.8
		c-0.4,0.8-0.7,1.7-1.2,2.4c-0.9,1.2-1.9,2.6-3.2,3.3c-0.4,0.2-0.8,0.4-1.3,0.4c0-0.9,0-1.8,0-2.7c-0.5,0.6-0.9,1.2-1.2,1.9
		c-0.4,1-0.9,1.9-1.6,2.8c-0.3,0.3-0.7,0.5-1,0.5c-0.5-0.1-1-0.3-1.3-0.7c-0.9-1-2-1.9-2.7-3.2c-0.1-0.3-0.3-0.5-0.3-0.7
		c-0.5,0.2-0.9,0.5-1.4,0.7c-0.7,0.2-1.3,0.4-2,0.7c-0.6,0.2-1.3,0.3-1.9,0c-0.3-0.1-0.5-0.1-0.8,0c-1.5,0.5-3,0.7-4.5,0.2
		c-0.2,0-0.3-0.1-0.5-0.2l-0.1,0.7c-1.2,0.3-2.3,0.2-3.5-0.2c0-0.2,0-0.4,0-0.6c-0.8-0.2-1.3-0.7-1.8-1.1c-0.5,0.7-0.9,1.6-1.5,2.2
		c-1.1,1.1-2.2,2.2-3.7,2.8c-0.4,0.2-0.8,0.3-1.3,0.2c0.2-0.9,0.3-1.8,0.4-2.7c-0.5,0.5-1.1,1.1-1.4,1.7c-0.5,1-1.2,1.8-2,2.7
		c-0.3,0.3-0.7,0.4-1,0.3c-0.5-0.2-1-0.5-1.2-0.9c-0.7-1.2-1.7-2.2-2.1-3.6c0-0.1,0-0.1-0.1-0.2c-0.2,0.1-0.4,0.2-0.7,0.3
		c-0.2,0.1-0.4,0-0.7,0c0-0.2,0-0.3,0-0.5c-0.1,0-0.2,0.1-0.4,0.1c-0.7,0.2-1.4,0.2-2.1,0.4c-0.7,0.1-1.3,0.1-1.9-0.3
		c-0.3-0.2-0.5-0.2-0.8-0.1c-1.5,0.3-3.1,0.2-4.5-0.5c-1.2-0.6-2-1.5-2.3-2.7c-0.2-0.6-0.2-1.3-0.3-2c-0.5-0.1-1,0.2-1.5,0.4
		c-1.1,0.4-2.2,0.9-3.3,0.1c-0.1,0-0.2,0.1-0.2,0.1c-0.1,0.1-0.2,0.1-0.2,0.2c-0.8,0.8-1.7,1.2-2.7,1.5c-1.2,0.4-2.4,0.5-3.6,0.4
		c-0.8,0-1.5-0.4-2.2-0.7c-0.1,0-0.1-0.2-0.2-0.4c-0.6,0.3-1.1,0.7-1.7,0.9c-0.7,0.2-1.3,0.4-2,0.6c-0.2,0-0.4,0-0.7-0.1
		c0.3-1.6,0.6-3.1,0.9-4.6c-1,0.2-2,0-2.9-0.3c-0.5-0.2-0.5-0.3-0.5-0.9c0-0.5,0.2-0.9,0.3-1.4c-0.2,0.2-0.3,0.3-0.4,0.4
		c-0.7,0.7-1.5,1.2-2.5,1.3c-0.3,0-0.6,0-0.8-0.2c-0.7-0.5-1.4-1.1-2.2-1.7c-0.2,0.2-0.4,0.4-0.6,0.6c-0.3,0.3-0.6,0.6-0.9,0.7
		c-1,0.3-2,0.5-2.9,0.7c-0.3,0.1-0.7-0.1-1-0.2c-0.3-0.1-0.5-0.3-0.8-0.4c-1.1-0.5-2-1.2-2.6-2.3c-0.1-0.2-0.1-0.3-0.2-0.5
		c-1.6,0.5-3.1,1-4.8,0.5c-1.5,1.9-3.6,2.2-5.8,1.8c-0.3-0.8,0.1-1.3,0.6-1.7c0.1-0.1,0.1-0.1,0.2-0.2c0.3-0.4,0.7-0.9,1-1.3
		c-1.1,0.1-2.1,0.2-3.1,0.2c-1.2,0-2.3-0.2-3.4-0.3c-0.1,0-0.3-0.1-0.3-0.2c0-0.4-0.2-0.8,0.1-1.2c0.3-0.3,0.5-0.7,0.8-1
		c-0.5,0.2-1.1,0.5-1.4,0.9c-0.7,0.8-1.4,1.7-2.1,2.7c-0.3,0.5-0.7,0.5-1.2,0.4c-0.3-0.9-0.5-1.7-0.8-2.7c-0.3-0.7-0.4-1.5-0.3-2.2
		c0-0.4,0.1-0.9,0.1-1.4c-0.2,0.1-0.4,0.1-0.5,0.2c-0.8,0.7-1.2,1.7-1.4,2.7c-0.1,0.3-0.2,0.7-0.2,1.1c-0.1,0.4-0.4,0.5-0.7,0.5
		c-0.3,0.1-0.5-0.1-0.7-0.4c-0.4-0.8-0.8-1.5-1.1-2.3c-0.5-1.1-0.8-2.3-0.5-3.5c0-0.1,0-0.3-0.1-0.5c-0.5,0.2-0.9,0.4-1.2,0.7
		c-0.6,0.4-1.3,0.5-2,0.6c-0.4,0-0.7,0-1.1,0c-0.2,0-0.4,0.1-0.4,0.2c-0.1,0.5-0.6,0.6-1,0.9c-0.8,0.6-1.7,0.8-2.7,0.8
		c-0.3,0-0.5,0-0.8,0c-1,0.5-2,0.5-3,0.1c-1.1,0.7-2.1,1.4-3.2,2c-0.5,0.3-0.8,0.2-1-0.4c-0.2-0.7-0.5-1.4-0.7-2.1
		c-0.3,0.3-0.5,0.6-0.7,0.9c-0.9,1.1-1.9,2.1-3.2,2.8c-0.5,0.3-1,0.8-1.6,1c-0.4,0.2-0.7,0.7-1.3,0.5c-0.1-0.4-0.2-0.8-0.4-1.2
		c-0.2-0.4-0.3-0.8-0.5-1.2c-0.1,0.4-0.2,0.8-0.3,1.2c-0.1,0.4-0.5,0.5-0.8,0.7c-1.3-0.3-2.2-0.9-2.5-2.3c-0.2,0.8-0.6,1.4-1.1,1.9
		c-0.3,0.3-0.7,0.6-1,0.9c-0.2,0.2-0.4,0.2-0.6-0.1c-0.2-0.4-0.4-0.7-0.6-1.1c0,0-0.1,0-0.1,0.1c-0.5,1.2-1.5,1.8-2.7,2.3
		c-0.3,0.1-0.6,0.3-0.9,0.4c-0.3,0.1-0.5,0.1-0.9,0.2c0-0.2,0.1-0.3,0.1-0.3c-0.3-0.6,0-1.1,0-1.7c-0.3,0-0.7,0-1.1,0.1
		c-0.5,0.1-0.7-0.2-0.8-0.6c0.7-0.8,0.9-0.9,2.1-1c0.1,0,0.3,0,0.3-0.1c0.2-0.5,0.7-0.4,1.1-0.5c0.6-0.2,1.2-0.3,1.8-0.4
		c0.5-0.1,1-0.2,1.5-0.1c0.1,0,0.2,0,0.3,0c0.3-0.1,0.7-0.2,1-0.2c0.8-0.1,1.6-0.4,2.3-0.7c0.6-0.3,1.3-0.5,1.9-0.7
		c-0.7-1.1-1-2.3-0.9-3.5c0-0.2,0-0.4,0-0.6c-0.5,0.5-1,1.1-1.4,1.7c-0.5,0.9-1.1,1-1.9,0.3c-0.1-0.1-0.2-0.1-0.2-0.2
		c-0.1,0-0.1-0.1-0.2-0.2c-0.8,0.3-1.7,0.6-2.5,0.8c-1.1,0.2-2.1,0.5-3.1,0.8c-0.3,0.1-0.6,0.1-0.9-0.1c-0.4-0.8-0.5-2,0.1-3.2
		c0.2-0.3,0.3-0.5,0.6-0.7c0.4-0.2,0.8-0.4,1.2-0.6c0.6-0.3,1.2-0.8,1.9-1.1l0,0c-0.2-0.6-0.3-1.3-0.5-2.1c-0.5,0.5-0.8,1-1.2,1.4
		c-1.1,0.8-2.2,1.4-3.4,2.1c-0.7,0.4-1.5,0.6-2.3,0.7c-0.3,0-0.6,0-0.8-0.4c-0.4-0.8-0.9-1.6-1.1-2.5c-0.3-1.1-0.4-2.2-0.6-3.3h-0.1
		c-1.4,1.6-3.4,2.1-5.3,2.7c-0.2,0.1-0.5,0-0.6-0.2c-0.1-0.3-0.2-0.6-0.2-0.8c0.2-1,0.3-2,0.6-3.1c0.1-0.5,0.2-0.9,0.4-1.5
		c-0.6,0.1-1.2,0.2-1.7,0.2c-0.9,0-1.7-0.2-2.7-0.3c0,0.1,0,0.3,0,0.4c0.2,0.8,0.4,1.5,0.5,2.3c0.3,1.5-0.1,2.2-1.9,2.1
		c-0.9,0-1.7-0.5-2.3-1.3c-0.2-0.3-0.5-0.7-0.7-1c-0.1,0.2-0.1,0.3-0.2,0.4c-0.2,0.9-1.4,1.4-2.2,0.6c-0.2-0.2-0.5-0.5-0.6-0.8
		c-0.5-0.9-1-1.9-1-3.1c-0.7,0.4-1.3,0.6-2,0.2c-0.1-0.1-0.2,0-0.3,0c-0.6,0-0.8-0.2-1-0.8c-0.2-0.7-0.4-1.4-0.6-2.2
		c-0.3-1.2-0.2-2.4,0.6-3.5c0.1-0.2,0.3-0.3,0.4-0.5c-1.2-0.4-2.3-0.7-3-1.8c-0.5,0.5-0.9,1.1-1.4,1.6c-0.8,0.8-1.5,1.6-2.3,2.3
		c-1,0.8-2.1,1.3-3.3,1.9c-0.8,0.4-1.6,0.5-2.6,0.4c-0.7-0.1-1.3-0.3-1.7-0.9c-0.8-1.1-1-2.3-1-3.6c0-0.6,0.1-1.1,0.1-1.8
		c-0.2,0.1-0.3,0.2-0.5,0.2c-0.7,0.3-1.4,0.6-2.1,0.8c-0.8,0.3-1.5,0.1-2.2-0.4c-0.3-0.2-0.6-0.4-0.8-0.6c-0.4,0.3-0.7,0.7-1,0.8
		c-0.9,0.4-1.9,0.7-2.8,1c-0.4,0.1-0.9-0.3-1-0.7c0-0.1-0.1-0.2-0.1-0.4c-0.5,0.7-0.8,1.4-1.3,2.1c-0.5,0.7-1.1,1.2-1.7,1.8
		c-0.1,0.1-0.2,0.2-0.3,0.3c-0.4,0.5-0.9,1-1.5,1.2c-0.5,0.2-0.7,0.1-0.9-0.4s-0.2-1-0.3-1.5c-0.1-0.4-0.1-0.9-0.1-1.3
		c0-0.6-0.1-1.1-0.1-1.7c-0.1,0-0.2,0-0.3,0c-0.8,0.1-1.5,0-2.2-0.3c-0.6-0.2-1.1-0.5-1.7-0.7c-0.9-0.3-1.5-0.8-2-1.8
		c-1.2,1.1-2.7,1.5-4.1,1.5c0-0.2-0.1-0.4-0.2-0.6c-0.8,0.1-1.5-0.2-2.1-0.5c-0.2,0.9-0.3,1.8-0.7,2.7c-0.7,1.4-1.4,2.8-2.7,3.8
		c-0.3,0.3-0.7,0.6-1.2,0.6c-0.2-0.9-0.3-1.8-0.4-2.7c-0.3,0.7-0.7,1.4-0.8,2.1c-0.2,1.1-0.6,2.1-1.1,3.1c-0.2,0.4-0.5,0.7-0.9,0.6
		c-0.5,0-1.1-0.1-1.4-0.4c-1.1-0.9-2.3-1.6-3.1-2.7c-0.2-0.2-0.3-0.5-0.5-0.7c-0.4,0.3-0.8,0.6-1.2,0.9c-0.6,0.4-1.2,0.7-1.8,1
		s-1.2,0.5-1.9,0.3c-0.3-0.1-0.5,0-0.8,0.1c-1.4,0.8-2.8,1.2-4.4,1c-1.3-0.2-2.3-0.8-3-1.9c-0.4-0.6-0.6-1.2-0.9-1.8
		c-0.5,0.1-0.9,0.5-1.3,0.8c-0.9,0.7-1.8,1.5-3.1,1.1c-0.1,0.1-0.2,0.1-0.2,0.2c-0.1,0.1-0.1,0.2-0.2,0.2c-0.5,1-1.3,1.7-2.1,2.3
		c-1,0.8-2.1,1.2-3.3,1.5c-0.7,0.2-1.5,0.1-2.3,0c-0.1,0-0.2-0.2-0.3-0.3c-0.5,0.5-0.9,1-1.4,1.4s-1.1,0.8-1.7,1.2
		c-0.2,0.1-0.4,0.1-0.7,0.1c-0.2-1.6-0.4-3.1-0.6-4.7c-0.9,0.5-1.8,0.7-2.8,0.6c-0.5,0-0.6-0.1-0.8-0.6c-0.2-0.4,0-0.9-0.2-1.4
		c-0.1,0.2-0.2,0.3-0.3,0.5c-0.5,0.9-1,1.7-2,2c-0.2,0.1-0.5,0.2-0.8,0.1c-0.9-0.3-1.7-0.6-2.7-1c-0.1,0.3-0.2,0.5-0.4,0.8
		c-0.2,0.3-0.3,0.7-0.6,1c-0.8,0.6-1.7,1.1-2.7,1.6c-0.3,0.2-0.7,0.1-1,0.1s-0.6-0.1-0.9-0.1c-1.2-0.1-2.3-0.5-3.1-1.4
		c-0.1-0.1-0.2-0.3-0.3-0.4c-1.3,1-2.7,1.9-4.4,2c-0.9,2.3-2.8,3.2-5,3.6c-0.6-0.7-0.3-1.2,0-1.8c0-0.1,0.1-0.2,0.1-0.3
		c0.2-0.5,0.4-1,0.5-1.5c-1,0.4-1.9,0.9-2.9,1.2c-1.1,0.3-2.2,0.5-3.4,0.7c-0.1,0-0.3,0-0.3-0.1c-0.1-0.4-0.5-0.7-0.3-1.1
		s0.3-0.8,0.5-1.2c-0.4,0.4-0.9,0.8-1.1,1.3c-0.5,1-0.9,2.1-1.2,3.1c-0.2,0.5-0.5,0.7-1,0.8c-0.5-0.7-1-1.5-1.5-2.2
		c-0.5-0.6-0.8-1.3-1-2.1c-0.1-0.4-0.2-0.8-0.3-1.4c-0.2,0.2-0.4,0.3-0.4,0.4c-0.5,1-0.6,2-0.5,3c0,0.4,0,0.7,0.1,1.1
		c0.1,0.4-0.2,0.6-0.5,0.7c-0.3,0.2-0.5,0-0.8-0.2c-0.6-0.6-1.2-1.2-1.8-1.8c-0.8-0.9-1.5-1.9-1.6-3.2c0-0.1-0.1-0.2-0.2-0.4
		c-0.4,0.4-0.7,0.7-1,1c-0.5,0.5-1.1,0.9-1.7,1.2c-0.3,0.1-0.7,0.2-1,0.3c-0.1,0-0.4,0.2-0.3,0.3c0.1,0.5-0.4,0.7-0.6,1.1
		c-0.6,0.8-1.4,1.2-2.2,1.6c-0.9,0.4-1.9,0.6-2.8,0.2c-0.5-0.2-0.9-0.5-1.4-0.9c-0.2,0.5-0.3,1-0.5,1.5c-0.3,0.7-0.4,1.5-1.5,1.6
		c-1-1.2-2.7-1.9-3.2-3.7c-0.1,0.3-0.3,0.5-0.4,0.7c-0.2,0.4-0.4,0.9-0.6,1.3c-0.3,0.8-0.9,1.2-1.7,1.5c-0.3,0.1-0.7,0.2-1.1,0.2
		c-0.7,0.1-1.5,0.1-2.2,0.1c-0.1,0-0.2-0.1-0.3-0.1c-0.4-0.3-1-0.9-1.4-1.5c-0.9,0.2-1.9,0.3-2.8,0c-0.1,0-0.2,0-0.4,0
		c0-0.1,0-0.1,0-0.2c-0.1,0-0.1-0.1-0.2-0.1c0.2,1.4-0.4,2.5-0.9,3.7c-0.2,0.3-0.4,0.7-0.7,0.9c-1.2,0.8-2.4,1-3.7,0.5
		c-1.1,0.7-2.1,1.4-3.2,2c-0.5,0.3-0.8,0.2-1-0.4c-0.2-0.7-0.5-1.4-0.7-2.1c-0.3,0.3-0.5,0.6-0.7,0.9c-0.9,1.1-1.9,2.1-3.2,2.8
		c-0.5,0.3-1,0.8-1.6,1c-0.4,0.2-0.7,0.7-1.3,0.5c0-0.1,0-0.1,0-0.2c0,0.1-0.1,0.1-0.2,0.1c-0.7,0.1-1.4,0.3-2.2,0.4
		c-0.4,0.1-0.8,0.1-1.2,0c-0.8-0.1-1.5-0.4-2-1c-0.3-0.4-0.6-0.8-0.9-1.1c-0.2-0.2-0.3-0.4-0.5-0.6c-0.1,1.9-1.6,2.9-2.3,4.4
		c-1,0.2-1.4-0.7-1.8-1.2c-0.3-0.4-0.6-0.9-0.9-1.4c-0.4,0.4-0.7,0.9-1.2,1.2c-0.9,0.6-1.8,0.6-2.8,0.4c-0.9-0.1-1.8-0.4-2.5-1
		c-0.3-0.3-0.8-0.4-0.9-0.9c0-0.1-0.3-0.2-0.4-0.2c-0.4,0-0.7,0-1.1,0c-0.7-0.1-1.4-0.3-2-0.7c-0.3-0.3-0.7-0.5-1.2-0.8
		c-0.1,0.2-0.1,0.3-0.1,0.5c0.2,1.3-0.2,2.4-0.8,3.5c-0.4,0.8-0.9,1.5-1.3,2.2c-0.2,0.3-0.4,0.5-0.7,0.4s-0.6-0.2-0.7-0.6
		c0-0.4-0.1-0.7-0.2-1.1c-0.2-1-0.5-2-1.2-2.8c-0.1-0.1-0.3-0.2-0.5-0.3c0,0.5,0,1,0,1.4c0,0.8-0.1,1.5-0.5,2.2
		c-0.4,0.8-0.7,1.7-1,2.6c-0.5,0-0.9-0.1-1.2-0.5c-0.6-0.9-1.2-1.9-1.9-2.7c-0.3-0.4-0.9-0.8-1.4-1c0.2,0.3,0.5,0.7,0.7,1
		c0.3,0.4,0,0.8,0,1.2c0,0-0.2,0.1-0.3,0.2c-1.2,0-2.3,0.1-3.5,0.1c-1-0.1-2-0.3-3.1-0.4c0.3,0.4,0.6,0.9,0.9,1.3
		c0.1,0.1,0.1,0.2,0.2,0.2c0.5,0.5,0.9,1,0.5,1.7c-2.2,0.1-4.3-0.3-5.7-2.3c-1.8,0.3-3.2-0.3-4.8-0.9c-0.1,0.1-0.1,0.3-0.2,0.5
		c-0.6,1.1-1.5,1.7-2.7,2.1c-0.3,0.1-0.5,0.2-0.8,0.3s-0.7,0.2-1,0.1c-1-0.3-1.9-0.6-2.9-1c-0.3-0.1-0.6-0.5-0.9-0.8
		c-0.2-0.2-0.4-0.4-0.5-0.7c-0.8,0.5-1.5,1.1-2.3,1.6c-0.2,0.1-0.5,0.1-0.8,0.1c-1-0.1-1.8-0.7-2.4-1.5c-0.1-0.1-0.2-0.2-0.4-0.4
		c0,0.5,0.2,0.9,0.2,1.4c-0.1,0.5-0.1,0.6-0.6,0.8c-0.9,0.3-1.9,0.3-2.9,0.1c0.2,1.6,0.4,3.1,0.6,4.7c-0.3,0-0.5,0.1-0.7,0
		c-0.7-0.2-1.3-0.4-2-0.7c-0.6-0.3-1.1-0.7-1.7-1c-0.1,0.2-0.2,0.3-0.3,0.3c-0.6,0.2-1.2,0.4-1.7,0.5v0.6h-0.1
		c-1,0.4-1.9,0.1-2.8-0.3c-0.8-0.3-1.6-0.8-2.1-1.5c-0.6-0.3-1.2-0.7-1.6-1.3c-0.1-0.1-0.1-0.1-0.2-0.2c-0.1,0-0.1-0.1-0.2-0.1
		c-1.2,0.7-2.3,0.2-3.3-0.4c-0.3,0.6-0.7,1.1-1.1,1.6c-0.6,0.6-1.2,1.2-1.8,1.8c-0.2,0.2-0.5,0.4-0.8,0.2c-0.2-0.2-0.6-0.3-0.5-0.7
		c0.1-0.3,0.1-0.7,0.1-1.1c0.1-1,0-2.1-0.5-3c-0.1-0.1-0.2-0.2-0.4-0.4c-0.1,0.5-0.3,0.9-0.4,1.4c-0.2,0.8-0.5,1.4-1,2
		c-0.6,0.7-1,1.4-1.6,2.2c-0.5-0.1-0.8-0.3-1-0.8c-0.3-1-0.7-2.1-1.2-3.1c-0.2-0.5-0.6-0.9-1.1-1.3c0.2,0.4,0.3,0.8,0.5,1.2
		s-0.2,0.7-0.3,1.1c0,0-0.2,0.1-0.3,0.1c-1.1-0.2-2.3-0.4-3.4-0.8c-1-0.3-1.9-0.8-2.9-1.2c0.2,0.5,0.3,1,0.5,1.5
		c0,0.1,0.1,0.2,0.1,0.3c0.3,0.6,0.6,1.1,0,1.8c-2.2-0.4-4.1-1.4-4.9-3.6c-1.8-0.1-3.1-1.1-4.4-2.1c-0.1,0.1-0.2,0.3-0.3,0.4
		c-0.8,0.9-1.9,1.3-3.1,1.4c-0.3,0-0.6,0.1-0.9,0.1s-0.7,0-1-0.2c-0.9-0.5-1.7-1-2.7-1.7c-0.3-0.2-0.4-0.6-0.6-1
		c-0.1-0.2-0.2-0.5-0.4-0.8c-0.9,0.3-1.8,0.7-2.7,0.9c-0.2,0.1-0.5,0-0.8-0.1c-1-0.3-1.5-1.2-2-2c-0.1-0.1-0.2-0.3-0.3-0.5
		c-0.2,0.5,0,1-0.2,1.4c-0.2,0.5-0.2,0.6-0.8,0.6c-1,0.1-1.9-0.1-2.8-0.6c-0.2,1.6-0.4,3.1-0.6,4.7c-0.3,0-0.5,0-0.6-0.1
		c-0.6-0.4-1.2-0.7-1.7-1.2c-0.5-0.4-0.9-0.9-1.4-1.4c-0.2,0.1-0.2,0.3-0.3,0.3c-0.8,0-1.6,0.2-2.3-0.1c-1.1-0.3-2.3-0.8-3.2-1.6
		c-0.9-0.7-1.6-1.4-2.1-2.4c0-0.1-0.1-0.2-0.2-0.2c0-0.1-0.1-0.1-0.2-0.2c-1.3,0.4-2.2-0.4-3.1-1.2c-0.4-0.3-0.8-0.7-1.3-0.8
		c-0.3,0.6-0.6,1.3-1,1.8c-0.7,1.1-1.7,1.7-3.1,1.8c-1.6,0.2-3.1-0.2-4.4-1c-0.3-0.2-0.5-0.2-0.8-0.1c-0.7,0.2-1.3,0-1.9-0.3
		c-0.6-0.3-1.2-0.7-1.8-1c-0.4-0.3-0.8-0.6-1.2-0.9c-0.1,0.2-0.3,0.4-0.5,0.7c-0.8,1.2-2,1.9-3.1,2.7c-0.4,0.3-0.9,0.4-1.4,0.4
		c-0.3,0-0.7-0.2-0.9-0.6c-0.5-1-0.9-2-1.1-3.1c-0.1-0.7-0.5-1.4-0.8-2.1c-0.2,0.9-0.3,1.8-0.5,2.7c-0.5,0-0.9-0.3-1.2-0.6
		c-1.2-1.1-1.9-2.5-2.7-3.8c-0.4-0.8-0.5-1.7-0.7-2.7c-0.6,0.3-1.3,0.6-2.1,0.5c0,0.2-0.1,0.4-0.2,0.6c-1.2,0-2.4-0.3-3.4-1l0.4-2.3
		c-0.5,0.4-1,0.7-1.6,1c-0.9,0.4-1.9,0.6-2.8,0.2c-0.5-0.2-0.9-0.5-1.4-0.9c-0.2,0.5-0.3,1-0.5,1.5c-0.3,0.7-0.4,1.5-1.5,1.6
		c-1-1.2-2.7-1.9-3.2-3.7c-0.1,0.3-0.3,0.5-0.4,0.7c-0.2,0.4-0.4,0.9-0.6,1.3c-0.1,0.2-0.2,0.4-0.3,0.6v64.6h612v-64.8H608z
		 M320.4,602.6c-0.4,0.3-0.8,0.5-1.3,0.5s-1,0.1-1.5,0.2c-0.1,0.9-0.3,1.7-0.7,2.5c-0.2,0.4-0.4,0.9-0.5,1.3
		c-0.1,0.5-0.4,0.7-0.7,0.9c-0.3,0.2-0.5,0.2-0.7-0.1c-0.4-0.4-0.8-0.8-1.1-1.3c-0.3-0.5-0.7-1-1-1.5c-1.1,1.2-2.3,2.1-3.7,2.8
		c-0.4,0.2-0.9,0.5-1.3,0.8c-0.2,0.1-0.5,0.3-0.9,0.2c0-0.2,0-0.4-0.1-0.7c-1.8,2.1-3.8,3.6-6.2,4.8c-0.2-0.5-0.3-1-0.4-1.4
		c-0.1-0.5-0.1-1-0.2-1.5s-0.1-1-0.2-1.5c-0.1,0-0.1,0.1-0.2,0.2c-0.9,1-2,1.9-3.1,2.7c-0.4,0.3-0.7,0.6-1.1,0.8
		c-0.3,0.2-0.5,0.2-0.7-0.1c-0.4-0.7-0.7-1.4-0.9-2.2c-0.1-0.6-0.1-1.2-0.2-1.8c-0.2,0.1-0.3,0.2-0.5,0.3s-0.4,0.2-0.6,0.3
		c-0.2-0.5-0.3-0.9-0.3-1.4c0-0.6,0-1.2,0-1.8c0.1-0.8,0.5-1.4,1-2.1c-0.7-0.1-1.5,0.1-2.2-0.2c0-0.2,0.2-0.5-0.2-0.5
		c0,0,0-0.1,0-0.2c0.6-0.5,1.1-1,1.7-1.5c0.9-0.7,1.9-1,2.9-1.3c0.4-0.1,0.8-0.1,1.2-0.2l0.1-0.1c-0.1-1,0.5-1.8,1.1-2.6
		c1.5-1.6,3.4-2.7,5.5-3.4c0.9-0.3,1.9-0.6,2.9-0.8c0.4-0.1,0.8-0.1,1.2-0.1c1,0,1.9-0.1,2.8,0.1c0.1,0,0.2,0,0.4,0
		c0.1-0.5,0.3-0.8,0.7-1.1c0.2-0.1,0.3-0.3,0.4-0.4c0.3-0.3,0.6-0.6,0.4-1c0.6-0.4,0.6-0.4,1,0c0.5,0.5,0.9,1.1,0.8,1.9
		c0,0.4,0,0.8,0,1.2c0,0.3,0.4,0.7,0.7,0.6c0.5-0.2,0.9,0,1.4,0.2s1.1,0.4,1.6,0.6c0.1,0.1,0.3,0.2,0.4,0.3c0.2,0.2,0.3,0.5,0.5,0.7
		c0.1,0.1,0.2,0.2,0.4,0.3c0.5,0.1,0.9,0.4,1.2,0.9c0.5,1,0.8,2,0.8,3.1c0.1,0.9,0.1,1.5,0.1,2.1
		C320.9,602.1,320.8,602.4,320.4,602.6z M321.9,593.3c-0.2,0.2-0.5,0.3-0.8,0.4c-0.1,0-0.2,0.1-0.3,0.1c-1-0.1-2,0-2.8-0.7
		c-0.1-0.1-0.3-0.2-0.5-0.2c-0.2-0.1-0.3-0.2-0.2-0.4c0-0.1-0.1-0.2-0.1-0.3c0.3-0.5,0.8-0.7,1.2-1c-0.1-0.1-0.3-0.2-0.4-0.3
		c-0.2-0.1-0.5-0.2-0.7-0.3c-0.4-0.2-0.4-0.4-0.3-0.9c-0.1-0.3-0.5-0.4-0.4-0.7c0.3-0.2,0.6-0.5,0.9-0.8s0.8-0.3,1.2-0.2
		c0.3,0,0.7,0.2,1.1,0.3c0.2-0.5,0.7-0.6,1.1-0.9c0.6,0,1.2,0,1.8,0c0.1,0.2,0.2,0.3,0.3,0.5c0.2,0.4,0.3,0.8,0.1,1.2
		c-0.1,0.1-0.1,0.3-0.1,0.5c0.3-0.1,0.6-0.3,0.9-0.4c0.6-0.2,0.9,0,1,0.6c0.1,0.3,0.1,0.7,0.1,1.1c0,0.8-0.3,1.5-1,1.9
		c-0.3,0.2-0.6,0.2-0.9,0.4C322.5,593.3,322.2,593,321.9,593.3z M334.8,612.7c-0.9,0.8-1.9,1.6-3.1,2c-0.7,0.3-0.8,0.2-1.3-0.4
		c-1.3,0.6-2.4,1.4-3.6,2.2c-0.1,0-0.2,0-0.3,0c-0.4-0.8-0.4-1.3,0.2-2.5c-0.2,0-0.3,0-0.4,0.1c-0.3,0.2-0.6,0.3-0.9,0.5
		c-0.2,0.1-0.4,0.2-0.6,0.3c-0.3-0.3-0.3-0.7-0.2-1c0.2-0.5,0.4-1,0.6-1.6c-0.4,0-0.8,0-1.1,0c-0.3,0-0.6-0.1-0.9-0.2
		c-0.4-0.3-0.5-0.7-0.2-1.1c0.1-0.2,0.3-0.3,0.5-0.5c1.1-0.7,2.2-1.2,3.5-1.2c0.6,0,1.1-0.1,1.7-0.3c0.2-0.1,0.5-0.1,0.8,0
		c0.6,0.2,1.3,0.4,1.8,0.7c0.4,0.2,0.8,0.4,1.2,0.3c0.9-0.1,1.6,0.3,2.3,0.9C335.5,611.4,335.5,612.2,334.8,612.7z M338.4,607.6
		c-0.5,0.3-1,0.5-1.5,0.7c-0.6,0.2-0.9,0.1-1.2-0.4c-0.2-0.3-0.3-0.6-0.4-0.9c-0.8,0.6-1.7,0.9-2.7,1.2c-0.3,0.1-0.8,0-1.2,0
		c-0.3-0.7-0.2-1.2,0.1-1.8c-0.3-0.2-0.6-0.4-0.9-0.5c-1.2-0.4-1.6-1.4-2-2.4c-0.1-0.3,0-0.5,0.2-0.7c0.3-0.2,0.6-0.4,0.9-0.4
		s0.5,0,0.9,0c-0.2-0.8-0.3-1.6-0.1-2.4c0.2-0.7,0.3-0.7,0.9-1c1,0.3,1.7,1,2.1,1.8c0.4-0.2,0.7-0.4,1.1-0.5c1-0.2,2.3,0.7,2.7,1.7
		c0.2,0.5,0.3,0.9-0.1,1.4c-0.2,0.2-0.2,0.6-0.2,0.8c-0.2,0.8,0.4,1.3,0.9,1.8c0.3,0.3,0.7,0.5,1.1,0.8
		C339,607.1,338.7,607.4,338.4,607.6z"/>
	<path fill="#EAE8D6" d="M401.9,598.4c0.3-0.1,0.5-0.2,0.8-0.3c0,0,0.1-0.1,0.2-0.2c0-0.1-0.1-0.3-0.2-0.4c-0.3-0.2-0.5-0.6-0.8-0.9
		c-0.3-0.4-0.6-0.7-0.7-1.2c0-0.1-0.1-0.3-0.2-0.3c-0.3,0-0.3-0.3-0.4-0.5s-0.1-0.4-0.2-0.7c-0.3-0.1-0.4-0.2-0.6-0.2
		c-0.4,0.1-0.2,0.5-0.5,0.6c0,0.1,0,0.2,0.1,0.2C399.8,595.9,400.5,597.3,401.9,598.4z"/>
</g>
<g id="drawing">
	<path id="figure" d="M263.2,631.1c0.4-0.4,0.9-0.8,1.4-1.1c0.2-0.2,0.6-0.2,0.8-0.2c0.4,0.1,0.7,0,1-0.1c0.4-0.2,0.8-0.3,1.3-0.5
		c0.4-1,0.7-2.2,0.9-3.4c0.2-1.3,0.4-2.7,0.5-3.8c0.1-1,0.2-2,0.3-3c0.3-2.1,0.6-4.2,1.3-6.2c0.4-1.2,1-2.2,2.2-2.8
		c0.3-0.1,0.5-0.5,0.7-0.8c-0.1-0.1-0.2-0.2-0.2-0.3c-0.6-0.4-1.2-1-1.5-1.7c-0.5-1.1-1.1-2.2-1.3-3.5c-0.3-1.7,0.1-3.3,0.5-5
		c0.1-0.3,0.2-0.5,0.2-0.8c0.3-1.4,1.1-2.4,2.4-2.9c0.3,0,0.6,0,0.9,0c0.3,0.2,0.7,0.4,1,0.6v0.1c-0.2,0-0.4,0.1-0.6,0
		c-1.1-0.3-1.7,0.3-2.3,1.1c-0.6,0.9-0.8,2-1,3.1c-0.1,0.7-0.2,1.4-0.1,2.1c0.2,2.7,1.2,4.9,3.4,6.5c0.4,0.3,0.8,0.5,1.4,0.4
		c0.1,0,0.2,0,0.2,0c1.1,0.5,1.6-0.3,2.2-1c0.1-0.2,0.3-0.3,0.4-0.5c0.1,0,0.1,0,0.2,0c0,0.2,0,0.4,0,0.6c-0.5,1.2-1.5,1.8-2.7,1.9
		c-0.8,0.1-2,1.1-2,1.8c0,0.3,0.1,0.7,0.1,1.1c0.1,0.6,0.2,1.2,0.3,1.9c0.1,0.9,0.1,1.8,0.2,2.7c0.1,1.3,0.3,2.7,0.4,3.8
		c0,0.9,0.5,1.9,0.1,2.8c0,0.1,0,0.2,0,0.3c0.3,1.1,0.6,2.1,1,3.2c0.1,0.3,0.5,0.4,0.9,0.4c1.4-0.2,2.8-0.2,4.2,0.1
		c0.4,0.1,0.7,0.2,0.8,0.7c0.1,0.3,0.2,0.5,0.3,0.8c0.4,1.7,0.9,3.3,1.3,5c0.2,1,0.2,2.1,0.3,3.1c0.2,1.5,0.2,3.1,0.5,4.6
		c0.1,0.7,0.3,1.5,0.1,2.2c-0.1,0.2-0.1,0.4-0.2,0.4c-0.4,0.2-0.4,0.6-0.4,0.9c0,0.4,0,0.8,0,1.2c0,0.3-0.2,0.5-0.3,0.8
		c0.9,0.7,1.6,1.7,2.8,2.1c0,1.1-0.5,1.5-1.5,1.5c-0.7,0-1.4-0.1-2-0.1c-0.3,0-0.5-0.2-0.6-0.5c-0.1-0.4-0.4-0.6-0.7-0.9
		c-0.4-0.3-0.8-0.5-1.2-0.7c-1.4-0.6-1.4-2.9-0.1-3.7c0.3-0.2,0.5-0.4,0.8-0.6c-0.3-0.2-0.5-0.3-0.8-0.5c0.4-0.8,0.6-1.5,0.2-2.3
		c-0.1-0.2,0-0.5,0-0.8c0.1-0.6,0.2-1.2-0.1-1.7c-0.1-0.3-0.1-0.6-0.2-0.9c-0.2-1.1-0.5-2.1-0.8-3.2c-0.2-0.8-0.6-1.6-0.6-2.5
		c0-1.1-0.3-1.4-1.4-1.7c-0.2-0.1-0.4-0.3-0.7-0.6c-1,0.1-1.9-0.5-2.7-1.2c-0.5-0.5-0.8-1-0.8-1.8c0-0.3-0.1-0.6-0.2-0.9
		c-0.5-1.5-0.7-3-1-4.5c-0.3-2.2-0.2-4.4-0.3-6.7c-0.2,1-0.4,1.8-0.5,2.7c-0.2,1.4-0.4,2.8-0.6,4.2c-0.1,0.9-0.4,1.7-0.5,2.7
		c-0.2,0.8-0.2,1.7-0.4,2.5c-0.1,0.6-0.2,1.1-0.3,1.7c0,0.1-0.1,0.3,0,0.3c0.3,0.5,0.1,0.9,0,1.4s-0.4,0.7-0.8,0.8
		c-0.8,0.1-1.6,0.2-2.4,0.2c-0.1,0-0.3-0.2-0.5-0.3c-0.3,0.1-0.5,0.4-0.9,0c-0.1-0.1-0.3,0-0.5,0.1c-0.4,0.1-0.8,0.3-1.3,0.5
		c-0.1-0.3,0.2-0.7-0.2-0.8C263.2,631.2,263.2,631.2,263.2,631.1z M285.1,631.9c0.6,0.1,1,0.4,1.3,1c0.3,0.7,0.6,1.4,1,2
		c0.9,1.4,1,3.1,1.2,4.7c0.1,0.4,0.1,0.9,0.2,1.3c0.1,0.3,0.1,0.5,0.1,0.8c0,1.2,0.3,2.4,0,3.6c0,0.3,0,0.5,0.1,0.8
		c0,0.2,0.1,0.4,0,0.6c-0.2,0.4-0.1,0.8,0.1,1.2c0.2,0.5,0.4,1.1,0.7,1.6c0.4,0.8,1.2,1.1,2,0.9c0.1,0,0.3-0.1,0.4,0
		c0.6,0.2,1.2,0.3,1.8,0.6c0.5,0.3,1,0.2,1.4-0.1s0.8-0.5,1-0.9c0.2-0.3,0.5-0.6,0.3-1c-1,0.4-3-0.3-3.6-1.3c-0.1-0.1,0-0.3,0.1-0.6
		c-0.1-0.1-0.2-0.3-0.4-0.5c0.6-0.3,0.6-0.7,0.4-1.2c-0.3-0.9-0.6-1.7-0.8-2.7c-0.3-1.5-0.6-3-0.9-4.5s-0.7-3.1-1.2-4.6
		c-0.2-0.7-0.2-1.5-1.1-1.7v-0.1c-0.1-0.6-0.6-0.9-1-1.3c-0.9-0.8-1.7-1.5-2.9-1.6c-0.4,0-0.9,0.1-1,0.4c-0.1,0.6-0.4,1.3-0.1,1.9
		c0.1,0.3,0.2,0.6,0.2,0.9C284.8,631.9,284.9,631.9,285.1,631.9z M293.1,630.1c-0.1,0-0.3-0.1-0.4,0c-0.5,0.4-0.8-0.1-1.1-0.4
		c-0.2-0.2-0.3-0.5-0.5-0.5c-0.8-0.2-1-1-1.4-1.6c-0.5-0.9-1-1.9-1.7-2.7c-0.4-0.5-0.8-1-1.1-1.6c-1.3-2.4-2.7-4.8-3.9-7.1
		c-0.1-0.2-0.2-0.4-0.3-0.5c-0.7-0.2-1.1-0.6-1.4-1.2c-0.5,0.1-0.7,0.3-0.5,0.8c0.2,0.3,0.2,0.7,0.4,1.1c1,2.2,2,4.4,3.2,6.5
		c0.7,1.2,2.4,3.2,2.4,3.1c0.9,1.5,1.8,2.7,3.1,3.9c0.3,0.3,1.3,0.9,1.4,1c0.8,0.8,1.9,0.8,2.8,1.3c0.2,0.1,0.4,0.1,0.6,0
		c0.5-0.2,1-0.3,1.5-0.5C295.3,631,294.2,630.7,293.1,630.1z M275.7,602.9c0.4-0.9-0.1-1.5-0.4-2.2
		C275.1,601.5,275.3,602.2,275.7,602.9z M278.7,601.6c0.1-0.6,0-1.1-0.6-1.5c0.1,0.5,0.3,1,0.4,1.5
		C278.6,601.6,278.7,601.6,278.7,601.6z"/>
	<path id="couch-shadow" fill="#BABABA" d="M281.1,642.4C281.1,642.5,281.1,642.5,281.1,642.4C281.1,642.5,281.1,642.5,281.1,642.4z
		 M281.2,642.8L281.2,642.8L281.2,642.8z M281.2,642.9L281.2,642.9L281.2,642.9z M281.2,642.6L281.2,642.6L281.2,642.6z M281,644
		C281,643.9,281,643.9,281,644C281,643.9,281,643.9,281,644z M289.1,642.5c0,0.6,0.1,1.2,0.1,1.7C289.2,643.5,289.1,643,289.1,642.5
		z M254.4,643.4L254.4,643.4c-0.6-0.1-1.2,0-1.9,0.1l0,0c-0.1,0-0.1,0-0.2,0v0.1c0,0,0,0,0,0.1C252.8,643.5,253.5,643.3,254.4,643.4
		z M289.1,642.4C289.1,642.3,289.1,642.3,289.1,642.4C289,642.3,289,642.3,289.1,642.4z M289,642L289,642L289,642z M281.2,642.6
		C281.2,642.6,281.2,642.7,281.2,642.6C281.2,642.7,281.2,642.6,281.2,642.6z M281.1,643.6C281.1,643.7,281.1,643.7,281.1,643.6
		C281.1,643.7,281.1,643.7,281.1,643.6z M281.2,643.4L281.2,643.4L281.2,643.4z M281.2,643.5C281.2,643.5,281.1,643.5,281.2,643.5
		L281.2,643.5z M281.1,642.4C281.1,642.3,281.1,642.3,281.1,642.4C281.1,642.3,281.1,642.3,281.1,642.4z M281.1,643.8L281.1,643.8
		L281.1,643.8z M281.2,643.2C281.2,643.2,281.2,643.3,281.2,643.2C281.2,643.3,281.2,643.2,281.2,643.2z M292.3,650.2
		c-0.1,0-0.3,0-0.4,0c-0.9,0.2-1.6-0.1-2-0.9c-0.3-0.5-0.5-1-0.7-1.6c-0.2-0.4-0.2-0.8-0.1-1.2c0.1-0.2,0-0.4,0-0.6
		c0-0.3-0.1-0.5-0.1-0.8c0.1-0.3,0.1-0.7,0.1-1c-1.3,0-2.5,0-3.8,0c0,0.1,0,0.3,0,0.4c0,0.5-0.3,0.7-0.7,0.9c-0.1,0.4,0,0.7,0.3,1.1
		c0.6,0.8,1.2,1.6,1.3,2.7c0,0.2,0.1,0.4,0,0.5c0.2,0.1,0.4,0.2,0.6,0.2c0,1.1-0.5,1.5-1.5,1.5c-0.7,0-1.4-0.1-2-0.1
		c-0.3,0-0.5-0.2-0.6-0.5c-0.1-0.4-0.4-0.6-0.7-0.9c-0.4-0.3-0.8-0.5-1.2-0.7c-1.4-0.6-1.4-2.9-0.1-3.7c0.3-0.2,0.5-0.4,0.8-0.6
		c-0.3-0.2-0.5-0.3-0.8-0.5c0.1-0.1,0.1-0.2,0.2-0.4v0.1c-7.7,0-15.2,0-22.8,0c-0.5,0-1-0.1-1.4-0.2c-0.1,0-0.3,0-0.4-0.1
		c-0.1,0.9-0.4,1.6-1.2,1.9c-0.2-0.1-0.3-0.2-0.4-0.2c-0.4,0.2-0.7,0.1-0.9-0.3c0-0.1-0.2-0.1-0.3-0.1c-0.5,0.2-0.6-0.2-0.7-0.6
		c-0.1-0.2-0.2-0.4-0.2-0.7c-0.2,0-0.4-0.1-0.6-0.2c-0.1,0-0.2,0.1-0.3,0.1c-0.9,0-1.4,0.5-1.8,1.2c0.5,0.3,0.8,0.8,0.9,1.4
		c0,0.2,0.2,0.5,0.5,0.5c0.5,0,0.9,0.1,1.4,0.2c1.6,0.1,3.2,0.2,4.7,0.3c0.4,0,0.8,0.1,1.1,0c0.5-0.1,1-0.2,1.6-0.1
		c0.3,0,0.6,0,0.9,0c1.3,0,2.7-0.2,4-0.1c0.9,0,1.7-0.1,2.7-0.3s1.9-0.4,3-0.2c0.5,0.1,1,0,1.5,0s1-0.2,1.5-0.2
		c1.3,0.1,2.6,0.5,3.7,1.1c0.3,0.1,0.6,0.3,0.6,0.7c-0.6,0.7-1.2,1.5-0.9,2.5c0.6,0.3,1.1,0.5,1.6,0.8c0.3,0.2,0.5,0.8,1,0.7
		c0.2,0.5,0.5,0.5,1,0.4c1,0,2,0.1,3.1,0.2c0.2,0,0.5,0.1,0.7,0s0.3-0.2,0.5-0.4c0,0.1,0.1,0.2,0.1,0.3c0.3-0.1,0.6-0.2,0.8-0.3
		c0.2-0.1,0.3-0.1,0.5-0.2c0.4-0.2,0.7-0.6,1.2-0.4c0.1,0,0.2-0.1,0.3-0.2c0.4-0.3,0.8-0.3,1.3-0.3c0.7,0,1.6,0.2,2.2-0.5
		c0,0,0.1,0,0.1-0.1c0.1,0.1,0.2,0.2,0.3,0.3c0.6-0.1,0.5-0.1,1-0.5c0.1-0.1,0.3-0.2,0.4-0.2c0.2,0,0.4,0,0.6-0.1
		C293.2,650.4,292.8,650.3,292.3,650.2z M249.7,642L249.7,642L249.7,642L249.7,642z M281.2,643C281.2,643.1,281.2,643.1,281.2,643
		C281.2,643.1,281.2,643.1,281.2,643z M319,646.1c-0.7,0.1-1.4-0.3-1.6-0.9c-0.1-0.2-0.2-0.5-0.2-0.8s-0.2-0.5-0.5-0.5
		c-0.5,0-1,0-1.5,0c-4.1,0-8.2,0-12.4,0c-0.9,0-1.7,0-2.7,0.1c-1.1,0.2-2.2,0.2-3.4,0.2c-0.9,0-1.7,0-2.7,0v0.1
		c0.1,0.7,0.2,1.5,0.3,2.2c0,0.2,0.1,0.4,0.2,0.5c0.2,0,0.3,0.1,0.4,0.2c1,0.1,1.9,0.2,2.9,0.1c1.6,0,3.2-0.2,4.8-0.2
		c1.2,0,2.5-0.2,3.7-0.1c0.9,0.1,1.8,0.1,2.8,0.1c0.6,0,1.2,0.2,1.7-0.3c0.3,0.2,0.5,0.4,0.8,0.5c0.4,0.1,0.9,0.1,1.2,0
		c1.1-0.3,2.2,0.1,3.3,0c0.5,0,1,0,1.5-0.1c0.3-0.1,0.6-0.2,0.9-0.1c0.8,0.1,1.2-0.3,1.6-0.8c0.1-0.1,0.2-0.3,0.3-0.4
		c0.5-0.6,0.5-0.8,0.2-1.3C320.7,645.4,320.1,645.8,319,646.1z"/>
	<path id="couch" fill="#AE6364" d="M273,606.4c0-0.1-0.1-0.1-0.1-0.2c0.2,0.3,0.4,0.6,0.6,0.8C273.3,606.8,273.2,606.6,273,606.4z
		 M284.4,631L284.4,631c-0.1,0.1-0.1,0.2-0.2,0.3c0.1,0,0.2,0,0.3,0C284.5,631.2,284.5,631.1,284.4,631z M323.6,627.9
		c0-1.2-0.4-2.4-0.6-3.6c-0.2-1-0.7-2-1.2-2.9c-0.5-0.8-1.2-1.4-2.3-1.5c-0.1,0-0.2,0-0.3,0l0,0c-0.2-1.3-0.5-2.5-0.7-3.8
		c-0.1-0.6-0.3-1.3-0.5-1.9c-0.2-0.5-0.5-0.9-0.7-1.3c-0.3-0.9-1.1-1.4-1.7-2.1c-0.9-1-1.9-1.7-3.1-2.2c-1-0.4-2-0.7-3-1
		c-0.2,0.1-0.3,0.2-0.5,0.3c-0.4,0.2-0.9,0.5-1.3,0.8c-0.2,0.1-0.5,0.3-0.9,0.2c0-0.2,0-0.4-0.1-0.7c-1.8,2.1-3.8,3.6-6.2,4.8
		c-0.2-0.5-0.3-1-0.4-1.4c-0.1-0.5-0.1-1-0.2-1.5s-0.1-1-0.2-1.5c-0.1,0-0.1,0.1-0.2,0.2c-0.9,1-2,1.9-3.1,2.7
		c-0.4,0.3-0.7,0.6-1.1,0.8c-0.3,0.2-0.5,0.2-0.7-0.1c-0.4-0.7-0.7-1.4-0.9-2.2c-0.1-0.6-0.1-1.2-0.2-1.8c-0.2,0.1-0.3,0.2-0.5,0.3
		s-0.4,0.2-0.6,0.3c-0.2-0.5-0.3-0.9-0.3-1.4c0-0.6,0-1.2,0-1.8s0.3-1.1,0.6-1.6c-0.2,0-0.5-0.1-0.7-0.1c-0.8-0.1-1.6-0.1-2.5-0.2
		c-0.2,0-0.4-0.1-0.6-0.1c-0.7,0-1.4,0-2.1,0c-0.1,0-0.1,0.1-0.2,0.1c-0.7,0.1-1.5,0.1-2.3,0.2c-1.1,0.1-2.3,0-3.4,0.2
		c-0.5,0.1-1,0.2-1.5,0.3c0,0.4-0.1,0.7-0.2,1.1c-0.2,0.7-0.2,1.4-0.3,2.2c0,0.1,0,0.1,0,0.2c0,0.2,0,0.3,0,0.4
		c-0.2,0.5-0.5,0.8-0.8,1.1c0.1,0.1,0.2,0.2,0.4,0.2c0.4,0.1,0.8,0.2,1.2,0.3c0.5,0.1,0.9,0.3,1.2,0.9c0.5,0.9,1,1.7,1.6,2.5
		c0.4,0.6,0.8,1.2,1,1.9c0.2,0.5,0.3,1,0.7,1.3c0.1,0.1,0.2,0.3,0.3,0.5c0.5,1.3,1.2,2.5,1.9,3.6c0.4,0.6,0.7,1.2,1,1.9
		c0,0.1,0.1,0.2,0.1,0.3c0.5,0.7,0.9,1.5,1.4,2.2c0.1,0.2,0.3,0.3,0.4,0.5c0.4,1,1.1,1.8,1.7,2.7c0.4,0.6,1,0.9,1.6,1s1,0.3,1.4,0.8
		c0.1,0.1,0.2,0.2,0.3,0.3c-0.2-0.9,0.1-1.2,1-0.9c0.3,0.1,0.6,0.1,0.9,0.1c0.9,0,1.9,0,2.8,0.1c0.2,0,0.5,0,0.7,0
		c0.9,0.1,1.8,0.1,2.7,0.2c1.2,0.2,2.5,0.2,3.7,0c0.9-0.1,1.8,0,2.7,0c0.8,0.1,1.6,0.2,2.6,0.6c-0.3,0.1-0.5,0.1-0.7,0.2
		c-0.2,0-0.5,0-0.7,0.1c-0.5,0.1-0.9,0.3-1.3,0.3c-0.6,0.1-1.2,0.1-1.7,0.1c-0.9,0-1.7-0.1-2.5-0.3c-0.9-0.2-1.9-0.2-2.8-0.1
		c-0.8,0-1.6,0.2-2.6,0.3c-0.8,0.1-1.5,0.1-2.3,0.2c-0.1,0-0.3,0-0.4-0.1c-0.3-0.5-0.8-0.3-1.3-0.3c0.1,0.2,0.2,0.3,0.3,0.4
		c0.2,0.2,0.3,0.4,0.2,0.6c0.1,0.1,0.3,0.2,0.4,0.3c-0.6,0.2-1,0.4-1.5,0.5c-0.2,0-0.4,0-0.6,0c-0.9-0.5-2-0.5-2.8-1.3
		c0,0-0.1-0.1-0.2-0.1c-0.2,0-0.3,0-0.5,0c0.2,0.5,0.4,0.9,0.7,1.4c0.4,0.7,0.6,1.5,0.8,2.3c0.1,0.5,0.3,1,0.4,1.5
		c0,0.1,0,0.2,0.1,0.3c0.8,0.7,0.7,1.8,0.8,2.7c0.2,1.3,0.3,2.5,0.5,3.8c0.1,0.4,0.2,0.8,0.3,1.2c0.9,0,1.8,0,2.7,0
		c1.1,0,2.2,0,3.4-0.2c0.9-0.1,1.7-0.1,2.7-0.1c4.1,0,8.2,0,12.4,0c0.5,0,1,0,1.5,0c0.3,0,0.5,0.1,0.5,0.5c0,0.3,0.1,0.5,0.2,0.8
		c0.3,0.7,0.9,1,1.6,0.9c1-0.2,1.7-0.7,1.9-1.8c0-0.2,0.1-0.4,0.2-0.6c-0.4,0-0.8,0-1.3,0c0.4-0.3,0.9-0.3,1.3-0.4
		c0.2,0,0.3,0.1,0.4,0.3c0.3,0,0.5-0.1,0.8-0.3c0.1-0.1,0.2-0.3,0.2-0.5c0-0.4-0.1-0.8-0.1-1.3c0.6-0.2,0.8-0.7,0.7-1.3
		c-0.1-0.7-0.1-1.4-0.1-2.1c0-0.7,0.1-1.4,0.2-2.1c0.1-0.7,0.2-1.3,0.3-2c0.1-1.2,0.1-2.4,0.2-3.6c0-0.3,0.1-0.5,0.1-0.8
		c0-0.4,0-0.9,0-1.3C323.7,628.1,323.6,628,323.6,627.9z M307,637c-1.7,0-3.5,0-5.2,0c-0.6,0-1.3-0.1-1.9-0.1
		c-0.5,0-0.9,0.1-1.4,0.1v-0.1c0.4,0,0.7-0.1,1.1-0.1c2.4,0,4.8,0,7.3,0c0.3,0,0.6-0.1,0.9,0.2C307.4,636.9,307.2,637,307,637z
		 M310.9,626c-0.1,0.2-0.2,0.4-0.3,0.6c0,0.1-0.1,0.1-0.1,0.2c-0.3-0.4-0.2-0.8-0.2-1.2c0.2-1.3,0.8-2.3,1.6-3.2
		c0.9-1,1.9-1.8,3.2-2.4c0.2-0.1,0.3-0.2,0.5-0.2c0.1,0,0.3,0.1,0.4,0.2c0,0,0,0.2-0.1,0.3c-0.2,0.2-0.5,0.5-0.8,0.6
		C313,622,311.7,623.7,310.9,626z M313.7,639.4c-0.5-0.4-0.5-0.9-0.6-1.4c-0.2-0.9-0.3-1.7-0.4-2.7c0-0.2,0-0.4-0.1-0.7
		C313.3,635.9,313.9,638.2,313.7,639.4z M316.9,639.3c-0.1-0.2-0.2-0.3-0.3-0.5c-0.1-0.5-0.1-1-0.2-1.5c0-0.4-0.1-0.7-0.2-1.1
		c-0.4-1-0.8-2-1.2-2.9c-0.4-0.9-0.7-1.7-0.6-2.7c0-0.4,0.1-0.7,0.2-1.1c0.3,1.4,0.7,2.7,1.4,4c0.6,1,0.9,2.1,1.1,3.2
		C317.2,637.5,317.3,638.4,316.9,639.3z M322.7,633.2c0,1-0.8,2.7-0.9,3.6c-0.1,0.8-0.3,1.6-0.4,2.4c0,0.2-0.1,0.4-0.2,0.5
		c0,0-0.3-0.5-0.3-0.7c-0.1-0.8,0.1-1.5,0.2-2.2c0.3-1.6,1.1-3.3,1-5c-0.1-1.2-0.1-2.3-0.3-3.5c-0.1-1-0.4-1.9-0.7-2.8
		c-0.2-0.5-0.6-1-0.9-1.5c-0.8-1-2.5-1-3.4-0.4c-0.7,0.5-1.4,0.9-1.9,1.7c-0.1,0.2-0.3,0.3-0.6,0.5c0.4-0.7,0.8-1.4,1.4-1.9
		c0.1-0.1,0.2-0.1,0.2-0.2c0.7-0.7,1.6-0.9,2.7-0.9c0.8,0,1.4,0.3,1.9,0.8c0.7,0.6,1.2,1.4,1.4,2.3c0.3,1.2,0.5,2.4,0.6,3.6
		C322.7,631.1,322.7,631.9,322.7,633.2z M287.3,628.3c0.1,0,0.2,0.1,0.3,0.2c0.4,0.3,0.8,0.4,1.2,0.3c-0.7-0.8-1.3-1.7-1.9-2.7
		c0,0.1-1.7-1.9-2.4-3.1c-1.2-2.1-2.2-4.3-3.2-6.5l0,0c0,0.4,0.1,1.1,0.2,1.5c0.1,0.3,0.2,1.4,0.3,1.5c-0.1,0.1,0.2,1.9,0.4,2.7
		c0.2,1.4,0.4,2.8,0.6,4.3c0.1,0.4,0.3,0.7,0.6,0.9c0.7,0.3,1.4,0.7,2.1,0.7C286.1,628,286.7,628.1,287.3,628.3z M288.9,640.9
		c-0.1-0.4-0.1-0.9-0.2-1.3c-0.3-1.6-0.4-3.3-1.2-4.7c-0.4-0.6-0.7-1.4-1-2c-0.3-0.5-0.7-0.9-1.3-1c-0.2,0-0.4,0-0.6,0
		c0-0.1,0-0.2-0.1-0.4c-0.1,0-0.1,0-0.2,0c0.3,1.2,0.6,2.3,0.8,3.5c0.1,0.7,0.3,1.3,0.2,2c0,0.5,0.1,1,0.1,1.5
		c-0.1,1.9-0.1,3.8-0.1,5.7c1.3,0,2.7,0,3.9,0c0-0.8-0.1-1.7-0.1-2.5C289,641.4,289,641.2,288.9,640.9z M281,641.4
		c0.1-0.6,0.2-1.2-0.1-1.7c-0.1-0.3-0.1-0.6-0.2-0.9c-0.2-1.1-0.5-2.1-0.8-3.2c-0.2-0.8-0.6-1.6-0.6-2.5c0-1-0.2-1.3-0.9-1.6
		c-0.6-0.1-1.3-0.2-1.9-0.3c-1-0.1-2.1-0.2-3.1-0.3c-0.5-0.1-1.1-0.1-1.6-0.2c0.9,0,1.8-0.4,2.8-0.1c0.3,0.1,0.7,0.1,1.1,0
		c0,0,0.1,0,0.2,0c-0.5-0.2-0.9-0.6-1.3-0.9c-0.5-0.5-0.8-1-0.8-1.8c0-0.3-0.1-0.6-0.2-0.9c-0.5-1.5-0.7-3-1-4.5
		c-0.2-1.5-0.2-3.1-0.3-4.7c0,0.4,0,0.9-0.1,1.3c-0.1,0.6-0.2,1.2-0.2,1.7c0,1.7-0.3,3.3-0.7,4.9c-0.2,1.1-0.5,2.3-0.7,3.4
		c-0.1,0.5-0.2,1-0.3,1.5c0.2,0,0.3,0.1,0.5,0.2c-0.1,0-0.2,0.1-0.2,0.1c-0.2,0-0.4,0-0.6,0.3c-0.3,0.3-0.7,0.5-1,0.8
		c0-0.1,0-0.1-0.1-0.2c0,0,0,0-0.1,0c-0.8,0.1-1.6,0.2-2.4,0.2c-0.1,0-0.3-0.2-0.5-0.3c-0.3,0.1-0.5,0.4-0.9,0
		c-0.1-0.1-0.3,0-0.5,0.1c-0.4,0.1-0.8,0.3-1.3,0.5c-0.1-0.3,0.2-0.7-0.2-0.8c0,0,0-0.1,0-0.2c0.4-0.4,0.9-0.8,1.4-1.1
		c0.2-0.2,0.6-0.2,0.8-0.2c0.4,0.1,0.7,0,1-0.1c0.4-0.2,0.8-0.3,1.3-0.5c0.4-1,0.7-2.2,0.9-3.4c0.2-1.3,0.4-2.7,0.5-3.8
		c0.1-1,0.2-2,0.3-3c0.3-2.1,0.6-4.2,1.3-6.2c0.4-1.2,1-2.2,2.2-2.8c0.3-0.1,0.5-0.5,0.7-0.8c-0.1-0.1-0.2-0.2-0.2-0.3
		c-0.6-0.4-1.2-1-1.5-1.7c-0.2-0.5-0.5-1.1-0.7-1.6c-0.2,0-0.4,0.1-0.5,0.1c-1.3,0.3-2.7,0.5-3.9,1c-1.5,0.6-3,1.2-4.5,1.7
		s-3,1.2-4.2,2.3c-0.4,0.3-0.8,0.7-1.1,1.2c-0.6,1-1,2-1.5,3c-0.3,0.6-0.6,1.2-1,1.8c-0.1,0.2-0.4,0.4-0.5,0.7c0,0.3-0.2,0.7-0.3,1
		c-0.1,0.3-0.1,0.7-0.1,1c0,0.4-0.1,0.6-0.6,0.6c-0.4,0-0.7,0.2-0.9,0.4c-0.8,0.7-1.6,1.3-2,2.3s-0.9,1.9-1.1,2.9
		c-0.2,0.9-0.3,1.7-0.4,2.7c0,0.2-0.1,0.4-0.2,0.6c0,0.6,0,1.2,0,1.8c0.1,0.5,0.2,1,0.3,1.5c0.2,1.1,0.3,2.2,0.5,3.3
		c0.1,0.7,0.3,1.5,0.2,2.2c0,0.4,0,0.7,0,1.1c0,0.7,0,1.4,0,2.1c0,0.3,0.1,0.6,0.2,0.8c0,0.1,0,0.2,0,0.2c0,0.3,0.1,0.7,0.1,1
		c0.4,0,0.7,0,1,0c0,0.2,0,0.4,0.3,0.4c0.5,0,1,0.1,1.5,0.2l0,0c0.6-0.1,1.3-0.2,2-0.1c-0.6,0.3-1.3,0.4-1.9,0.4
		c0.1,0.2,0.2,0.5,0.2,0.7c0.1,0.3,0.2,0.7,0.7,0.6c0.1,0,0.2,0,0.3,0.1c0.2,0.4,0.5,0.5,0.9,0.3c0.1,0,0.2,0.1,0.4,0.2
		c0.8-0.3,1.2-1,1.2-1.9c0.2,0,0.3,0.1,0.4,0.1c0.5,0.1,1,0.2,1.4,0.2c7.6,0,15.2,0,22.8,0c0.3-0.7,0.4-1.3,0-2
		C280.9,641.9,281,641.6,281,641.4z M252.4,623.1c-0.7,0.6-1.1,1.4-1.4,2.2c-0.2,0.6-0.4,1.3-0.5,2c-0.2,1.3,0,2.7,0.5,3.8
		c0.4,0.9,0.8,1.7,1,2.7c0.1,1,0.4,2.1,0.3,3.2c-0.1,0.7,0,1.5-0.1,2.2c0,0.3-0.2,0.7-0.2,1c-0.1,0-0.1,0-0.2,0
		c-0.3-0.6-0.5-1.3-0.4-2c0.1-0.6,0.2-1.2,0.2-1.7c0-0.6-0.1-1.2-0.2-1.7c-0.2-1.3-0.6-2.4-1.1-3.6c-0.6-1.6-0.8-3.3-0.2-5
		c0.3-0.7,0.5-1.4,0.9-2.1c0.4-0.7,1.1-1.3,1.9-1.7c0.2-0.1,0.3-0.1,0.6-0.1C253.1,622.6,252.7,622.9,252.4,623.1z M262.4,631.7
		c-0.6,0.4-1.3,0.6-2.2,0.5c-0.1-0.3,0-0.5,0.3-0.5C261.1,631.7,261.7,631.7,262.4,631.7z M257.9,630.2c0,0.8-0.2,1.6-0.3,2.4
		c-0.2,1-0.4,2-0.6,3s-0.3,1.9-0.5,3c-0.4-0.1-0.4-0.4-0.5-0.7c-0.2-0.7-0.1-1.4,0-2.1c0.3-1.9,0.7-3.8,0.9-5.8
		c0.2-1.4,0.2-2.9-0.1-4.4c-0.2-1.2-0.8-2.1-1.6-2.8c0,0,0-0.1,0.1-0.1c0.3,0.2,0.6,0.3,0.8,0.5c0.8,0.8,1.2,1.7,1.5,2.8
		C257.9,627.3,257.9,628.7,257.9,630.2z M257.6,620.3c-0.3-0.2-0.7-0.4-1.1-0.6c-0.2-0.1-0.5-0.2-0.8-0.5c1.3-0.1,2.4,0.3,3.3,1.1
		c1.3,1,2.2,2.4,2.7,4c0.1,0.4,0.1,0.8-0.2,1.2c-0.2-0.4-0.4-0.8-0.6-1.2C260.2,622.7,259.1,621.4,257.6,620.3z M258.6,639.6
		c-0.3-1.1-0.1-3.5,0.4-4.4C259.3,636.9,259.1,639,258.6,639.6z M268.3,637c-1.7,0-3.5,0-5.2,0c-0.6,0-1.3-0.1-1.9-0.1
		c-0.5,0-0.9,0.1-1.4,0.1v-0.1c0.4,0,0.7-0.1,1.1-0.1c2.4,0,4.8,0,7.3,0c0.3,0,0.6-0.1,0.9,0.2C268.6,636.9,268.5,637,268.3,637z
		 M273.4,637.2c0.2-0.1,0.3-0.2,0.4-0.2c1.5,0,3.1,0,4.6,0C277.9,637.3,274.7,637.3,273.4,637.2z"/>
	<path id="table-shadow" fill="#BABABA" d="M372.3,644.7c0.1-0.4-0.1-0.6-0.3-0.8c-0.4,0.1-0.7,0.1-1,0.2c0,0.2,0,0.4,0,0.6
		c0,0.3,0,0.5-0.3,0.7c-0.5,0.4-1.1,0.3-1.7,0.2c-0.2,0-0.5-0.1-0.7-0.1c-0.3,0-0.7,0.2-0.9,0c-0.2-0.2-0.2-0.6-0.3-0.9
		c0-0.1,0-0.3,0-0.4c0-0.1,0-0.3,0-0.4c-0.3,0-0.6,0-0.8,0c-1,0.1-1.9,0.2-2.9,0.2c-0.5,0-0.9-0.1-1.4-0.1c-0.8,0-1.7,0-2.6,0
		c-0.2,0-0.5,0-0.6-0.2c-0.3-0.2-0.5-0.2-0.8-0.2c-1.3,0.1-2.7,0.2-4,0.2c-1.1,0-2.2,0.1-3.4,0.1c-1.3,0-2.7,0.1-3.9,0.1
		c-1.3-0.1-2.7,0-4,0c-0.3,0-0.7,0-0.9,0.2c-0.3,0.3-0.7,0.2-1,0.2c-0.4,0-0.8-0.1-1.3-0.1c0,0.2,0,0.4,0,0.6c0,0.8-0.6,1.2-1.3,1.1
		c-0.3,0-0.6-0.1-0.9,0c-0.7,0.1-1.4,0.1-1.9-0.4c0-0.5,0-1,0-1.5c-1-0.1-2.1-0.2-2.9,0.8c0.6,0.2-0.1,1.1,0.6,1.2
		c0,0.2,0,0.4,0.1,0.5c0.3,0.4,0.8,0.5,1.3,0.5c1.3,0,2.7-0.1,4,0.3c0.2,0,0.4,0,0.6-0.1c0.3-0.2,0.6-0.2,1-0.1
		c0.6,0.1,1.2,0.4,1.7-0.1c0.1-0.1,0.4-0.1,0.6-0.1c1.6,0,3.2,0,4.8,0v0.1c0.1,0.1,0.3,0.2,0.4,0.2c0.4,0,0.8-0.1,1.2-0.1
		c1.3-0.1,2.7-0.2,4-0.1c0.8,0,1.6,0.2,2.4,0.2c0.6,0,1.2,0,1.8-0.1c0.4-0.1,0.7-0.4,1.1-0.2c0.1,0.1,0.3,0,0.4,0c1,0,2-0.1,3-0.1
		c2.3-0.1,4.6-0.1,6.9-0.2c1.1,0,2.2-0.1,3.1-0.6c0.3-0.2,0.6-0.4,0.8-0.6C372.5,645.3,372.3,645,372.3,644.7L372.3,644.7z"/>
	<path id="table" fill="#6E6E6E" d="M330.8,637.8c0-0.2,0-0.4,0-0.6c0-0.5,0.1-0.9,0.1-1.4c0-0.9,0.2-1.1,1.1-1.1c1,0,2.1,0,3.1,0
		c0.2,0,0.3-0.1,0.5-0.1c0,0,0.1,0,0.2,0c0.9,0,1.9,0.1,2.8,0.1c0.3,0,0.7-0.1,1-0.1c12.1,0,24.2,0,36.3,0c0,0.2,0,0.3,0,0.4
		c0,0.2-0.1,0.3-0.1,0.5c0,1.3,0,2.7,0,4c-1.6,0-3.1,0-4.8,0c0,0.8,0,1.4,0,2.1c0,1,0,2,0,3c0,0.3,0,0.5-0.3,0.7
		c-0.5,0.4-1.1,0.3-1.7,0.2c-0.2,0-0.5-0.1-0.7-0.1c-0.3,0-0.7,0.2-0.9,0c-0.2-0.2-0.2-0.6-0.3-0.9c0-0.1,0-0.3,0-0.4
		c0-1.2,0-2.4,0-3.5c0-0.7,0-0.6,0.7-0.7c0.4,0,1,0.1,1.4-0.4c-0.3,0-0.4-0.1-0.6-0.1c-0.8,0-1.6,0.1-2.4,0.1c-8.6,0-17.1,0-25.7,0
		c-0.3,0-0.6,0-0.9,0c0,0.3,0,0.6,0,0.8c0,1.5,0,2.9,0,4.4c0,0.8-0.6,1.2-1.3,1.1c-0.3,0-0.6-0.1-0.9,0c-0.7,0.1-1.4,0.1-1.9-0.4
		c0-1.8-0.1-3.5-0.1-5.4c0.4,0,0.9-0.1,1.3-0.1c0.2,0,0.4,0,0.4-0.4c-2.1-0.1-4.1,0-6,0C331,638.9,330.9,638.3,330.8,637.8z"/>
	<path id="bowl" d="M350.6,632.5c0.2,0.7,0.6,1.3,0.9,2c5.1,0,10.2,0,15.3,0c0-0.1,0.1-0.2,0.1-0.2c0.2-0.5,0.3-1,0.5-1.5
		c0.3-0.9,0.7-1.7,1.5-2.2c0-0.1,0-0.2,0-0.3c-0.7,0-1.3-0.1-2-0.1c-5.5,0-11,0-16.4,0.1c-0.5,0-1,0-1.5-0.1c0,0.1,0,0.2,0,0.3
		c0.3,0.3,0.5,0.5,0.8,0.8C350.1,631.7,350.3,632,350.6,632.5z M362.5,631.9c0-0.3,0-0.5,0.1-0.9c0.4,0,0.9,0,1.4,0
		c0.2,0,0.4,0.1,0.5,0.3c0.2,0.2,0,0.4-0.2,0.5c0,0,0,0.1-0.1,0.1c0.1,0.4,0.3,0.8,0.4,1.2c-0.6,0.2-1.2,0.3-1.9,0
		c0.2-0.4,0.3-0.8,0-1.1C362.5,632,362.5,632,362.5,631.9z"/>
	<path id="stem" d="M355,591.6c-0.9-1.5-1.5-3.1-2.8-4.3l0,0c-0.3-0.5-0.5-1.1-1-1.4c-0.4-0.3-0.6-0.7-0.7-1.2
		c-0.2-0.6-0.5-1.2-0.8-1.8c-0.2-0.5-0.5-1.1-0.7-1.7c-0.2-0.6-0.5-1.2-0.7-1.8c0.4-0.3,0.9-0.5,1.3-0.9c0.3-0.2,0.5-0.2,0.7,0.1
		c0.1,0.1,0.3,0.2,0.3,0.4c0.2,0.7,0.8,1,1.3,1.4c0.6,0.5,0.9,1.1,1.1,1.8c0.1,0.4,0.2,0.7,0.4,1.2c0.4-0.8,0.5-1.5,0.5-2.2
		s0.1-1.3,0.2-2c0-0.2,0.2-0.3,0.4-0.5c0.2,0.8,0.3,1.4,0.5,2.1v0.1c-0.3,0.6,0,1.2,0.2,1.7c0.2,0.4,0.2,0.7,0.1,1.1
		c-0.1,0.7-0.2,1.4-0.2,2c0,0.1,0.1,0.2,0.2,0.3c0.2,0.3,0.4,0.6,0.5,0.9c0.2,0.4,0.4,0.9,0.6,1.3c0.3,0.9,0.6,1.7,1.3,2.4
		c0.1,0.1,0.2,0.2,0.2,0.4c0.2,0.6,0.5,0.9,1.1,1.1c0.3,0.1,0.5,0.3,0.5,0.6c0.1,0.3,0.2,0.6,0.4,1c0.1-0.1,0.2-0.2,0.2-0.2
		c-0.3-0.6-0.6-1.2-0.6-1.9c0-0.3-0.2-0.6-0.3-0.9c-0.4-0.6-0.5-1.2-0.5-1.9c0-1,0-2,0-3c0-0.5,0-0.9,0.2-1.4
		c0.1-0.3,0.4-0.6,0.7-0.7c0.9-0.4,1.7-0.7,2.8-0.8c0.2,1.6,0.3,3.2,0.9,4.9c0.5-1.4,0.9-2.8,1.3-4.1c0.3-0.9,0.7-1.7,1.1-2.6
		c0.2-0.4,0.5-0.8,0.7-1.2c0.2-0.5,0.5-0.7,0.9-0.9c0.3,0.4,0.3,0.7,0.1,1.2c-0.5,1.5-0.9,3-1.4,4.6s-1.1,3.3-1.6,4.9
		c-0.2,0.5-0.3,1.1-0.4,1.7c-0.1,0.7-0.1,1.4-0.2,2.1c-0.1,0.7-0.2,1.4-0.2,2.2c0,0.3,0,0.7,0,1c-0.1,0.6-0.1,1.3-0.2,1.9
		c0,0.4-0.1,0.8-0.1,1.2c0,0.8,0,1.5,0,2.3c0,0.5,0,1,0,1.5c0,1.4-0.2,2.8-0.4,4.1c-0.2,0.9-0.2,1.8-0.3,2.8c-0.3,2-0.3,4.1-0.3,6.1
		c0,1.1-0.3,2.3-0.4,3.4c-0.1,1.4-0.5,2.8-0.2,4.2c0.2,1,0.2,2,0.3,3c0.1,1-0.3,2.3-0.3,2.1c-0.5,0.1-2.1-0.1-2.6,0s-1-0.5-0.9-0.9
		c0-0.1,0.1-0.3,0-0.4c-0.4-0.8-0.2-1.6-0.1-2.4c0-1.6-0.1-3.2,0-4.8c0.1-1.9,0.2-3.8,0.5-5.7c0.2-1.3,0.4-2.7,0.5-3.9
		c0.1-1.4,0.2-2.9,0.3-4.3c0.1-1.3,0.4-2.5,0.5-3.8c0-0.4,0-0.8-0.1-1.2c-0.3-1.4-1-2.7-1.7-3.9c-0.5-1-0.8-2.2-1.3-3.2
		C356.3,593.7,355.7,592.7,355,591.6C355.1,591.7,355,591.7,355,591.6L355,591.6z M327,578.2c-0.1,0.1-0.2,0.2-0.3,0.2
		c-0.3,0.2-0.7,1.2-0.5,1.5c0.3,0.6,0.6,1.2,1,1.7c0.9,1.1,1.9,2.1,2.8,3.1c0.1,0.1,0.2,0.2,0.3,0.2c0.6,0.5,1.1,1,1.7,1.5
		c0.9,0.8,1.5,1.9,2.2,2.9c1.3,1.8,2.7,3.6,3.9,5.4c0.5,0.7,1,1.3,1.4,1.9c1,1.3,1.9,2.7,2.9,4c0.3,0.4,0.6,0.8,0.7,1.2
		c0.2,0.5,0.3,1.2,0.5,1.7c0.3,0.7,0.6,1.5,0.9,2.2c0.5,1.4,0.8,2.9,1.3,4.4c1,2.8,1.6,5.7,2.4,8.6c0.3,1.2,0.5,2.5,0.7,3.8
		c0.1,0.5,0.3,1,0.4,1.4c0.1,0.8,0.2,1.6,0.3,2.5c0.2,1,0.2,2,1,2.8c0.1,0.1,0.3,0.3,0.4,0.3c0.3,0.1,0.6,0,0.9,0
		c0.5,0,0.8,0,1.1-0.2c0.3-0.2,0.1-0.8,0.1-1c-0.4-1.9-0.8-3.9-1.3-5.8c-0.4-1.7-0.9-3.3-1.3-5c-0.2-1-0.4-2.1-0.6-3.1
		c-0.5-2.1-1.2-4.1-1.9-6c-0.1-0.2-0.1-0.4-0.2-0.5c-0.3-1-0.5-2.1-0.9-3.1c-0.4-1.3-1-2.5-1.5-3.8c-0.1-0.2-0.2-0.4-0.2-0.5
		c0.1-0.7-0.1-1.3-0.3-1.9c-0.2-0.8-0.5-1.6-0.7-2.4c-0.2-0.7-0.2-1.4-0.3-2.1c-0.2-1.7-0.5-3.4-0.7-5.1c-0.1-1.2,0.1-2.4,0.1-3.7
		c0-0.1,0-0.2,0.1-0.3c0.4-0.4,0.5-1,0.6-1.5c0.2-0.8,0.5-1.5,0.9-2.3c0.2-0.3,0.1-0.7-0.1-0.9c-0.1-0.1-0.5-0.2-0.7-0.1
		c-0.3,0.1-0.7,0.3-0.8,0.6c-0.2,0.7-0.7,1.2-1,1.7c-0.6,1-0.8,2.2-0.9,3.4c0,1.3,0,2.7,0.1,4c0.1,1.4,0.4,2.7,0.6,4
		c0.1,0.4,0.1,0.8,0.2,1.3c-0.4-0.5-0.8-1-1.2-1.4c-0.4-0.5-1-1-1.3-1.6c-0.6-0.9-1-1.8-1.7-2.7s-1.2-1.7-1.8-2.5
		c-0.7-0.8-1-1.8-1.3-2.7c0-0.1,0-0.2,0-0.3c0-0.7,0-1.4,0-2.1c0-0.9-0.1-1.8-0.1-2.7c0-0.4-0.3-0.9-0.7-0.9
		c-0.3-0.1-0.6,0.2-0.7,0.6c-0.3,1.1-0.2,2.2-0.1,3.3c0,0.4,0.1,0.8,0.1,1.2c-0.7-0.7-1.4-1.3-1.9-1.9c-0.8-0.9-1.5-1.9-2.2-2.8
		c-0.3-0.4-0.6-0.7-1.2-0.5c-0.3,0.1-0.8,0.3-1-0.2C327,578.2,327,578.2,327,578.2z M365.2,629.7c0.4-0.2,0.7-0.1,1.1-0.3
		c0.2-0.1,0.3-0.3,0.4-0.4c0.1-0.4,0.2-0.9,0.1-1.3c-0.2-0.6-0.2-1.2-0.1-1.8c0.1-0.8,0.2-1.6,0.5-2.3c0.8-2.1,1.9-4.1,3-6.1
		c0.9-1.6,2-3,3.2-4.3c0.9-0.9,1.9-1.8,2.9-2.7c1.2-1.2,2.6-2.4,4-3.4c0.7-0.5,1.5-1,2.3-1.4c1-0.5,2.1-0.8,3.1-1.3
		c0.5-0.2,1-0.2,1.5-0.2c0.6,0.1,1.2,0.2,1.8,0.2c0.8,0,1.6-0.2,2.4-0.3c0.5-0.1,1-0.1,1.6-0.3c1.5-0.4,3-0.8,4.5-1.2
		c0.7-0.2,1.4-0.3,2-0.5c1-0.3,2.1-0.3,3.1-0.8c0.1-0.1,0.3-0.1,0.5-0.1c0.5,0.1,0.9-0.2,1.2-0.4c0.3-0.2,0.5-0.5,0.7-0.8
		c-0.2,0-0.4,0-0.5-0.2c-0.4-0.5-1.2-0.1-1.6-0.8c0,0-0.2,0-0.3,0c-2,0.5-4,1.1-6,1.6c-0.7,0.2-1.3,0.4-2,0.5
		c-0.6,0.1-1.1,0.2-1.7,0.3c-0.5,0.1-1,0.1-1.4,0.1c-0.5,0-1-0.1-1.5-0.1c-0.4,0-0.8,0.1-1.3,0.1c0.9-0.8,1.8-1.5,2.7-2.3
		c0.2-0.2,0.6-0.5,0.5-0.7c0-0.4,0.3-0.5,0.5-0.7c0.1-0.1,0.3-0.2,0.4-0.3c0.3-0.2,0.3-0.5,0.2-0.8c-0.3-0.5-0.7-0.9-1.1-1.4
		c-0.3,0.3-0.6,0.5-0.8,0.8c-0.2,0.2-0.3,0.6-0.5,0.8c-1,0.7-1.7,1.6-2.9,2.1c-2.2,0.9-4.1,2.4-6.4,3.3c-0.4,0.2-0.7,0.5-1.1,0.7
		c-1.5,0.9-2.8,2-4.1,3.2c-0.7,0.7-1.3,1.4-2,2c-1.7,1.4-3.1,2.9-4.2,4.8c-0.4,0.6-0.7,1.3-1,1.9c-0.1,0.2-0.3,0.5-0.5,0.6
		c-0.5,0.2-0.7,0.5-0.9,0.9c-1.1,2.1-2.1,4.2-2.8,6.4c-0.3,1-0.5,2-0.7,3c-0.1,0.5-0.2,0.9-0.3,1.4c-0.2,1,0.2,1.6,1.1,2.1
		C364.8,629.7,365,629.7,365.2,629.7z M301.6,598.8c0.2,0,0.4,0,0.6-0.1c0.6-0.1,1.1-0.3,1.7-0.3c1.5-0.1,2.8,0.4,4.2,0.8
		c0.8,0.2,1.5,0.5,2.3,0.3c-0.1,0.2-0.3,0.3-0.4,0.4c-0.5,0.6-1,1.2-1.5,1.9c-0.2,0.2-0.2,0.5-0.3,0.8c0.7,0,1-0.5,1.2-0.9
		c0.6-0.8,1.2-1.5,2-2.1c1.1-0.9,2.5-1,3.8-1.3c1.2-0.2,2.4-0.4,3.6-0.8c0.8-0.2,1.6-0.7,2.4-0.9c0.6-0.2,1.3-0.3,2-0.3
		c0.3,0,0.6,0.1,0.9,0c0.8-0.2,1.5-0.4,2.3-0.6c0.7-0.1,1.4-0.3,2-0.2c1.2,0.3,2.4,0.7,3.5,1.1c0.6,0.2,1.2,0.6,1.8,0.9
		c1.5,0.7,2.9,1.4,4.4,2.1c0.4,0.2,0.9,0.4,1.3,0.6c0.5,0.2,1,0.5,1.3,1c0.6,0.7,1.2,1.4,1.8,2.1c0.1,0,0.1-0.1,0.2-0.1
		c-0.3-0.7-0.7-1.3-1.1-1.9c-0.7-1-1.4-1.9-2.1-2.8c-0.1-0.1-0.2-0.3-0.4-0.3c-1.4-0.8-2.7-1.6-4.1-2.4c-1.7-0.9-3.7-1.3-5.6-1.8
		c-0.6-0.1-1.3,0-1.9,0c-1.2,0-2.3,0.6-3.4,0.2c-0.7,0.2-1.4-0.2-2.1-0.3c-0.6-0.1-0.9-0.5-1.1-1.1c-0.1-0.3-0.1-0.5-0.2-0.8
		c-0.2-0.9-0.5-1.2-1.4-1v0.1c0.2,0.1,0.3,0.2,0.5,0.3c0.2,0.2,0.3,0.4,0.3,0.6c-0.1,1.2,0.5,2.2,1.4,3c-0.9,0.3-1.7,0.5-2.5,0.7
		c-0.9,0.2-1.7,0.4-2.5,0.9s-1.7,0.7-2.6,1.1c-1.4,0.5-2.8,1-4.4,0.9c-0.2,0-0.3,0.1-0.5,0.1c-0.3,0-0.7,0-1,0
		c-1.6-0.3-3.2-0.9-4.9-0.6C302.6,598.2,302,598.3,301.6,598.8C301.6,598.5,301.6,598.7,301.6,598.8z M363.1,629.3
		c0.1-1.1,0.1-2.9,0.2-4c0-1.1,0.4-2.2,0.2-3.3c-0.1-0.9,0.2-1.8,0.1-2.7c0-0.1,0-0.3,0.1-0.4c0.1-0.7,0.2-1.4,0.3-2.1
		c0.1-0.5,0.1-1.1,0.2-1.6c0.3-1.3,0.6-2.7,1.1-3.9c0.6-1.6,1.2-3.2,2-4.7c0.9-1.9,1.9-3.7,2.9-5.5c0.8-1.5,1.9-3,2.7-4.5
		c0.6-1.3,1.4-2.5,2.1-3.8c0.2-0.3,0.4-0.9,0.3-1.1c-0.3-0.7-0.9-1.2-1.4-1.8c-1.3,1.6-1.9,3.5-3.1,5.2c-0.5-2.7-0.3-5.3-1-7.9
		c-0.5,0.1-0.7,0.4-0.7,0.8c-0.1,1.2-0.3,2.3-0.1,3.5c0,0.3,0.1,0.6,0.1,0.9c0,1.5,0.2,2.9,0.6,4.3c0,0.2,0.1,0.4,0,0.6
		c-0.2,0.4-0.5,0.9-0.7,1.3c-0.4,0.6-0.9,1.2-1.3,1.9c-0.2,0.3-0.2,0.6-0.4,0.8c-0.2,0.4-0.5,0.7-0.7,1.1c-0.4,0.8-0.8,1.6-1.1,2.4
		c-0.7,1.6-1.7,3.1-1.7,5c0,0.8-0.3,1.5-0.3,2.3c0,0.2-0.1,0.4-0.1,0.6c-0.1,0.8-0.3,1.7-0.2,2.5c0.1,0.7,0,1.4-0.1,2.2
		c-0.1,0.9-0.3,1.8-0.1,2.7c0,0.2,0,0.4,0,0.6c-0.1,0.9-0.2,1.9-0.3,2.8c0,0.5-0.1,1.1-0.1,1.6c0,0.4-0.1,0.7,0,1.1
		c0.2,0.9,0,2.3-0.1,3.1c-0.1,0.4,0.1,0.3,0.6,0.5C363,629.4,363.1,629.6,363.1,629.3z M355,591.6c-0.3-0.2-0.6-0.3-0.7-0.7
		c0-0.3-0.3-0.5-0.7-0.3c0.1,1.3-0.1,2.7-0.3,4.1c-0.4-0.8-0.7-1.5-1-2.1s-0.6-1.2-0.9-1.8c-0.5-1.6-1.1-3.2-1.2-4.9
		c0-0.3,0-0.8-0.5-0.9c-0.1,0.2-0.2,0.3-0.2,0.5s0,0.4,0,0.7c-0.1,1,0.1,2,0.3,2.9c0.1,0.7,0.4,1.3,0.4,2s0.2,1.4,0.5,2.1
		c0.9,1.9,1.7,3.8,2.4,5.8c0.1,0.4,0.2,0.8,0.2,1.3c-0.1,2.7-0.1,5.4-0.1,8.1c0,1,0.1,1.9,0.1,2.9c0,1.4,0,2.8,0,4.3
		c0,1.4,0.1,2.8,0,4.2c-0.1,2.2-0.2,4.5,0.3,6.7c0.1,0.6,0.3,2.1,0.4,2.7c0,0.1,0.3,0.3,0.4,0.3c0.4-0.1,0.8,0.2,1.1-0.1
		c0.2-0.1,0.2-1.9,0.2-2.1c-0.1-1.9-0.2-3.8-0.4-5.7c-0.2-1.4-0.2-2.8-0.2-4.2c0-1.6,0-3.2,0-4.8c0-1.1-0.1-2.2-0.1-3.4
		c0-2.1,0.2-4.2,0.2-6.4c0-1.4-0.1-2.7,0-4.1c0.1-0.7,0.2-1.4,0.2-2.1c0-0.5,0-1.1-0.1-1.6c0-0.5-0.1-1-0.1-1.5c0-0.1,0.1-0.2,0-0.3
		C355.2,592.7,355.1,592.2,355,591.6L355,591.6z M369.5,612.5c0-0.2,0.1-0.3,0.2-0.4c0.2-0.3,0.5-0.6,0.7-1c0.4-0.8,0.8-1.6,1.2-2.4
		c0.2-0.3,0.4-0.7,0.5-1c0.3-1.1,0.6-2.2,0.8-3.3c0.1-0.5,0.2-1,0.7-1.3c0.2-0.1,0.3-0.3,0.4-0.4c0.9-1.4,2-2.7,3.4-3.7
		c1-0.7,1.9-1.4,3-1.9c1-0.5,2.2-0.8,3.3-1.2c0.1,0,0.2,0,0.3,0c1.4,0,2.7-0.6,4-1.1c0.9-0.3,1.5-1.1,2.3-1.7
		c0.3-0.2,0.4-0.5,0.1-0.9c-0.4,0.2-0.8,0.5-1.2,0.7c-1.5,0.8-3,1.5-4.7,1.7c-0.6,0.1-1.1,0.3-1.8,0.5c0.6-0.5,1.1-0.9,1.7-1.3
		c0.3-0.2,0.3-0.4,0.3-0.7c-0.1-0.5-0.2-1-0.3-1.6c-0.4,0-0.7,0.2-0.9,0.6c-0.3,0.5-0.8,0.8-1.3,1.1c-0.4,0.3-0.9,0.5-1.2,0.8
		c-0.6,0.6-1.2,1-1.9,1.4c-1.2,0.6-2.2,1.5-3.2,2.6c-0.4,0.4-0.7,0.7-1.2,1.2c0-0.2,0-0.3,0-0.4c0.2-1.3,0.5-2.7,0.7-3.9
		c0-0.2,0-0.5,0-0.7c-0.1,0-0.1,0-0.2-0.1c-0.2,0.2-0.4,0.3-0.6,0.6c-0.5,0.7-0.9,1.5-1.4,2.2c-0.9,1.3-1.3,2.8-1.8,4.3
		c-0.4,1.1-0.7,2.3-1,3.4c-0.1,0.3-0.3,0.6-0.3,0.9c-0.2,1-0.3,2.1-0.5,3.2c-0.2,1-0.2,2-0.7,2.9c-0.3,0.6-0.2,1.2,0,1.8
		C369.3,613.1,369.5,613,369.5,612.5z M346.9,582.6c0,0.3,0,0.7,0,1c0,1.2-0.1,2.5-0.2,3.7c-1.3-0.5-1.4-1.8-2.1-2.7
		c-0.7,0.3-0.8,0.5-0.7,1.1c0.1,0.2,0.1,0.5,0.3,0.7c0.7,1,1.4,2,1.8,3.2c0.2,0.7,0.7,1.4,0.7,2.1c0.1,1.6,0,3.1-0.1,4.7
		c0,1-0.1,2.1,0,3.2c0,0.6,0.2,1.1,0,1.7c0,0.1,0,0.3,0,0.4c0.1,0.3,0.2,0.6,0.3,1c0.3,1.1,0.6,2.1,0.9,3.2c0.1,0.4,0.2,0.7,0.3,1.1
		c0.1,0.3,0.3,0.5,0.4,0.8c0.2,0.7,0.2,1.3,0.3,2c0.3,1.1,0.1,2.3,1,3.3c0.1,0.1,0,0.2,0.1,0.3c0.2,0.9,0.5,1.7,0.7,2.7
		c0,0.2,0.2,0.3,0.3,0.4c0,0,0.1,0,0.1-0.1c0-0.4,0-0.8-0.1-1.2c-0.2-0.9-0.4-1.7-0.6-2.5c-0.3-1.5-0.6-3-0.7-4.6
		c0-0.5-0.1-1-0.1-1.5c0-0.6-0.2-1.2,0.2-1.8c0.1-0.1,0-0.3,0-0.5c-0.1-0.7-0.2-1.4-0.2-2.2c-0.1-1-0.1-2.1-0.2-3.1
		c0-0.1,0-0.2-0.1-0.3c-0.2-1-0.5-2-0.4-3.1c0-0.4,0.1-0.9,0.1-1.3c0-1,0-1.9,0-2.9c0-0.1,0-0.2,0-0.4c-0.1-0.8-0.3-1.6-0.3-2.4
		s-0.2-1.6-0.2-2.5c0-0.5,0.1-0.9,0.1-1.4s0.2-1.2,0.1-1.6c-0.3-0.8-0.8-1.6-1.2-2.4C347,581.4,346.9,582,346.9,582.6z M358.8,601.6
		c-0.2-0.8-0.3-1.5-0.5-2.3c0-0.2-0.2-0.6-0.3-0.6c-0.5,0-0.5-0.4-0.5-0.7c0-0.4-0.2-0.7-0.7-0.8c0,0.4-0.5,0.4-0.5,0.9
		c0,1.3-0.1,2.7-0.1,4c0,0.9-0.1,1.8-0.2,2.7c-0.2,1.7-0.4,3.5-0.5,5.2c-0.1,1.6-0.1,3.2-0.2,4.8c0,0.7,0.1,1.5,0.1,2.2
		c0.1,1.8,0.2,3.6,0.3,5.4c0,0.6,0.1,1.2,0.2,1.8c0.1,1.4,0.1,2.8,0.2,4.2c0,0.3,0,1,0.1,1.3c0.8-0.3,0.9,0.2,1-0.5
		c0-1,0.1-2.9,0.2-3.9s0.2-1.9,0.3-2.9c0-0.5-0.2-0.9-0.1-1.4c0.1-0.9-0.1-1.8,0.2-2.7c0.3-0.7,0-1.5,0.3-2.3c0.2-0.5,0.1-1,0.2-1.6
		c0.1-1.2,0.2-2.4,0.3-3.6c0.1-1.5,0.2-2.9,0.3-4.4c0.1-1.1,0.3-2.1,0.5-3.1c0.1-0.5,0.4-1.1,0-1.7c-0.1-0.1-0.3-0.2-0.4-0.3
		C358.9,601.5,358.8,601.5,358.8,601.6z M350.1,595.3c0,1.2,0,2.4,0,3.6c0,1.3,0.2,2.6,0.2,3.8c0,0.6,0,1.1,0.1,1.7
		c0,0.4,0.1,0.8,0.1,1.2c0,0.7-0.2,1.3-0.1,2c0,1.1,0.2,2.2,0.3,3.3c0,0.3,0.1,0.6,0.2,0.9c0.1,0.6,0.2,1.2,0.5,1.7
		c0.1,0.3,0.3,0.5,0.3,0.9c0,0.5,0,1,0,1.5c0.1,1.4,0.3,2.8,0.4,4.2c0.1,0.6,0.2,1.2,0.3,1.8c0,0.1,0.2,0.2,0.2,0.2
		c0.1,0,0.3-0.1,0.3-0.2c0.1-0.1,0-0.2,0-0.4c0-0.7,0-1.3,0-2c0-1-0.1-2-0.1-3c-0.1-1.8-0.1-3.6-0.2-5.3c0-0.8,0-1.6,0-2.4
		c0-0.6-0.1-1.1-0.1-1.7c0-0.6,0.1-1.2,0.1-1.8c0-1,0-1.9,0-2.9c0-0.9,0-1.9-0.2-2.8c-0.4-1.6-0.8-3.3-1.8-4.8
		C350.3,594.7,350.1,595,350.1,595.3z M342.8,612.2c-0.7-0.3-1.2-0.5-1.6-0.9c-0.6-0.6-1.3-0.8-2.1-0.7c-0.9,0.1-1.8,0.2-2.7,0.4
		c-1.3,0.3-2.7,0.3-4,0.1c-1.2-0.2-2.4-0.2-3.6-0.1c0.2,0.4,0.5,0.6,0.9,0.5c0.7,0,1.4,0.1,2.1,0.6c0.1,0.1,0.4,0.1,0.5,0.1
		c0.8,0,1.6,0,2.3,0c0.3,0,0.7,0.2,1,0.1c0.9-0.2,1.7-0.4,2.7-0.5c0.4,0,0.8-0.1,1.2,0.1c0.8,0.4,1.7,0.8,2.7,1.2
		c0.2,0.6,0.8,1,1.4,1.4c0.4,0.3,0.8,0.6,1.2,0.9c0.1,0.1,0.2,0.3,0.3,0.3c0.7,0.2,0.9,0.7,1.2,1.3c0.2,0.3,0.3,0.7,0.5,1.1
		c0.2,0.3,0.3,0.7,0.8,0.8c0-0.2,0.1-0.4,0.1-0.5c-0.1-0.5-0.2-1-0.3-1.5c-0.3-0.9-0.7-1.9-1.1-2.8c0-0.1-0.1-0.2-0.2-0.2
		c-0.7-0.3-1.3-0.7-1.7-1.4c-0.2-0.3-0.4-0.6-0.6-0.9c-0.5-1-1.3-1.9-1.5-3.1c-0.2-0.7-0.6-1.3-1.2-1.7c-1-0.6-2-1.2-3.2-1.3
		c-0.5,0-1-0.3-1.2-0.8c-0.3-0.7-0.6-1.3-1-1.9c-0.1-0.2-0.2-0.6-0.5-0.4c-0.3,0.1-0.2,0.4-0.1,0.7c0,0.1,0,0.2,0.1,0.3
		c0.2,0.5,0.4,1,0.7,1.5c-1.2-0.2-2.3-0.5-3.4,0c0.1,0.3,0.1,0.6,0.5,0.6c0.9,0,1.9,0.1,2.8,0.1c0.5,0,1,0.2,1.3,0.5
		c0.7,0.6,1.5,0.8,2.3,0.9c0.4,0,0.7,0.1,1.1,0.1C340.6,609.2,341.9,610.6,342.8,612.2z M368.2,597.8c0.6-0.6,0.7-1.3,0.5-1.9
		c-0.4-1.2-0.2-2.5-0.4-3.7c-0.2-1.2-0.1-2.3,0-3.5c0-0.5,0.2-1.1,0.3-1.6c0.2-0.5,0.4-1.1,0.6-1.6c0-0.1,0-0.2,0-0.2
		c-0.1-0.6-0.1-1.2-0.3-1.8c-0.3-0.8-0.3-1.4,0-2.2c0.2-0.5-0.1-0.9-0.3-1.3c-0.5,0.1-0.6,0.5-0.7,0.8c-0.5,1.5-1,3.1-1.5,4.6
		c-0.1,0.3-0.3,0.7-0.2,0.9c0.2,0.6-0.3,1.3,0.2,1.9c0.1,1.3,0.1,2.7,0.2,3.9c0,0.2,0,0.3,0,0.5c0.1,0.9,0.2,1.8,0.3,2.7
		c0,0.3,0,0.6,0,1c0.1,1,0.2,2,0.3,3C367.5,598.8,367.8,598.2,368.2,597.8z M364.3,622.8c0.1-0.7,0.2-1.3,0.4-2
		c0.3-1.1,0.7-2.2,1.2-3.3c0.3-0.7,0.7-1.4,1.1-2.1c0.1-0.1,0.3-0.3,0.5-0.3c0.4-0.1,0.5-0.3,0.5-0.7c0-0.2,0-0.4-0.1-0.6
		c0-0.5,0-1,0-1.4c0-0.5,0.2-1,0.3-1.5c0.3-1.1,0.3-2.2,0.5-3.3c0.2-0.9,0.3-1.8,0.5-2.8c0-0.2,0.1-0.5,0.2-0.7l-0.1-0.1
		c-0.1,0.1-0.2,0.2-0.3,0.3c-0.3,0.6-0.5,1.3-0.9,1.8s-0.6,1-0.8,1.6c-0.1,0.3-0.2,0.6-0.5,0.8c-0.2,0.1-0.3,0.3-0.3,0.5
		c-0.3,1.1-0.5,2.2-0.7,3.3c-0.3,1.3-0.7,2.7-1.1,3.9c-0.2,0.7-0.4,1.5-0.5,2.2s-0.1,1.4-0.2,2.1c-0.1,0.9-0.2,1.9-0.3,2.9
		C364.3,623.1,364.3,623.1,364.3,622.8z M336.1,580.4c0.2,1.2,0.6,2.4,0.6,3.7c0,0.2,0.1,0.5,0.2,0.7c0.5,1.2,1.1,2.4,1.6,3.6
		c0.2,0.3,0.3,0.7,0.6,0.9c0.3,0.4,0.6,0.8,0.7,1.3c0.1,0.3,0.2,0.7,0.4,0.9c0.3,0.2,0.4,0.5,0.5,0.9c0,0.1,0.2,0.2,0.2,0.3
		c0.5-0.1,0.7-0.4,0.6-0.8c0-0.2,0-0.3-0.1-0.5c-0.4-1.6-0.7-3.2-0.7-4.9c0-0.6,0-1.1,0-1.7c0-0.2,0-0.3,0-0.5
		c-0.7,0.3-1.7,0.3-1.8,1.4c-1.2-1.8-1.5-3.8-2.3-5.8C336.1,580,336,580.1,336.1,580.4z M366.4,600.1c0-1.5-0.1-2.9-0.3-4.4
		c-0.1-1.2-0.1-2.3-0.2-3.5c0-0.5,0-1-0.1-1.5c0-0.2-0.3-0.3-0.4-0.4c-0.1,0.1-0.2,0.3-0.3,0.4c0,0,0,0.1,0,0.2
		c0,2.1-0.6,4.2-0.7,6.3c0,0.7-0.1,1.4-0.1,2c0,0.4-0.1,0.8-0.2,1.2c0,0.4,0,0.7,0.1,1.1c0.1,0.3,0.1,0.6,0.1,0.9
		c-0.1,0.7-0.1,1.5-0.3,2.2c0,0.1,0,0.3,0.1,0.4c0.4,0.1,0.6-0.1,0.7-0.4c0.2-1.1,0.8-2.1,1.3-3.1c0.1-0.2,0.1-0.6,0.2-1
		C366.3,600.6,366.3,600.4,366.4,600.1z M376.2,593.2c0.1,0.5,0,0.8-0.1,1.3c-0.2,0.5-0.3,1.1-0.6,1.6c-0.1,0.3-0.1,0.5,0.1,0.6
		c0.3,0.2,0.5,0,0.6-0.2c0.3-0.5,0.8-0.8,1.4-0.9c0.4-0.1,0.8-0.4,1.2-0.7c0.7-0.5,1.3-1,1.9-1.5c0.3-0.2,0.5-0.5,0.7-0.7
		c0.1-0.1,0-0.4,0-0.6c-0.9,0.3-1.6,0.6-2.4,0.9c0-0.4,0.2-0.9-0.2-1c-0.5-0.1-0.3-0.7-0.8-0.8c-0.1,0-0.2,0-0.2,0.1
		c-0.1-0.3-0.2-0.5-0.2-0.8C376.7,590.8,375.9,592.2,376.2,593.2z M371.1,617c-0.2,0.2-0.4,0.3-0.5,0.5c-0.5,1-1,1.9-1.4,2.9
		c-0.5,1.1-0.8,2.3-1.4,3.4c-0.6,1.1-0.6,2.2-0.5,3.4c0,0.5,0.2,0.9,0.2,1.4c0,0.3,0.2,1.2,0.5,1.2s0.5-0.8,0.5-1.1s0.1-0.6,0.1-0.9
		c0-0.9,0.7-1.7,0.5-2.7c0.5-1.9,1-3.9,1.5-5.8c0.2-0.7,0.5-1.3,0.7-2C371.2,617.1,371.1,617,371.1,617z M379.4,598.5
		c-0.4,0.4-1,0.3-1.4,0.9c-0.6,0.8-1.2,1.5-1.7,2.4c-0.6,1.3-1.3,2.7-2,3.9c-0.2,0.5-0.5,1,0,1.6c0.2-0.1,0.4-0.2,0.5-0.3
		c0.6-0.9,1.4-1.6,1.7-2.7c0.4-1.4,1.1-2.7,1.9-3.8c0.4-0.6,0.7-1.2,1.1-1.8C379.4,598.6,379.4,598.6,379.4,598.5z M372.3,591.5
		c0.1-0.4,0.2-0.8,0.5-1.1c0.5-0.5,0.5-1.1,0.5-1.7c0-0.2,0-0.3-0.1-0.5s-0.2-0.3-0.3-0.5c-0.2-0.3-0.7,0-0.9-0.5h-0.1
		c-0.1,0-0.2,0.1-0.3,0.1c-0.9,0.4-1.2,1.2-1,2.2c0.1,0.5,0.2,1,0.2,1.5c0,0.3,0,0.6,0.1,0.9c0,0.1,0.3,0,0.5,0.1
		c0.1,0.1,0.2,0.2,0.2,0.4C372,592.2,372.2,591.9,372.3,591.5z M345.3,597.1c0.7-0.2,0.8-0.3,0.8-0.8c0-0.6-0.1-1.1,0-1.7
		c0.2-0.9-0.1-1.7-0.1-2.5c0-0.3-0.1-0.7-0.2-1c-0.3-0.7-0.6-1.4-1-2.2c0-0.1-0.1-0.2-0.2-0.2c-0.2,0.1-0.3,0.2-0.5,0.3
		C344.5,591.7,344.9,594.4,345.3,597.1z M358.1,588.1c0-0.7,0-1.4,0-2.1c0-0.7-0.3-1.2-0.9-1.4c-0.4-0.2-0.8,0-0.7,0.5
		c0.1,0.8-0.4,1.6,0.4,2.2c0,1,0.8,1.7,0.9,2.7c0,0.1,0.1,0.3,0.2,0.4c0.1,0.1,0.2,0,0.3,0.1C358.2,589.5,358.2,588.9,358.1,588.1z
		 M352.3,587.4c-0.2-0.2-0.3-0.3-0.5-0.4c-0.6,0.3-0.7,0.5-0.5,1.2c0.3,1.1,0.6,2.2,1,3.3c0,0.2,0.1,0.3,0.2,0.5
		c0.2-0.2,0.5-0.3,0.5-0.5c0-0.6,0.1-1.1,0-1.7C352.7,588.9,352.5,588.1,352.3,587.4L352.3,587.4z M383.3,590.4
		c0.4-0.6,0.8-1.2,1.1-1.9c0.2-0.4,0.1-0.5-0.4-0.5c-0.1,0-0.3,0-0.3,0c-0.2-0.5-0.8-0.5-1.2-0.8c-0.4,0.3-0.3,0.6-0.1,1
		c0.1,0.3,0.1,0.5,0.1,0.8c-0.1,0.6-0.2,1.3,0.1,2C383,590.8,383.2,590.6,383.3,590.4z M363.9,582.1c-0.1,0.2-0.2,0.4-0.3,0.4
		c-0.5,0.1-0.5,0.5-0.5,0.8c0,0.5,0,1.1,0,1.6c0,0.2,0.1,0.5,0.2,0.7c0.5,0,0.5-0.2,0.5-0.5c0.1-0.8,0.3-1.6,0.7-2.3
		c0.1-0.3,0.3-0.5,0.4-0.8c0.1-0.2,0-0.3,0-0.5C364.3,581.5,364.1,581.6,363.9,582.1z M346.4,581.5c-0.2,0.1-0.4,0.1-0.5,0.1
		c-0.2,0.1-0.5,0.2-0.6,0.4c-0.2,0.6-0.5,1.2-0.4,1.9c0.8-0.2,0.4,0.7,0.8,0.9c0.1,0,0.3-0.1,0.5-0.2
		C346.3,583.6,346.4,582.6,346.4,581.5z M352.4,579c-0.1,0-0.3,0.2-0.3,0.3s0,0.3,0.1,0.4c0.6,0.3,0.9,0.7,1,1.3
		c0,0.1,0.2,0.1,0.3,0.3c0.1-0.3,0.3-0.5,0.3-0.8c0-0.5-0.1-1.1-0.2-1.7C353.2,578.9,352.8,578.9,352.4,579z"/>
	<g id="room">
		<path id="outlet" fill="#BABABA" d="M242.9,637.3c-0.5,0-0.7-0.2-0.7-0.7c0-0.2,0-0.3,0-0.5c0.1-1.3,0.2-2.6,0.3-3.8
			c0-0.3,0.1-0.6,0.2-0.9c0,0,0.1,0,0.2,0c0.1,0.1,0.2,0.2,0.2,0.3c0,1.1,0,2.2-0.1,3.4c0,0.5-0.1,1-0.1,1.5c1,0,1.9,0.1,2.8,0.1
			c0.2-2,0.4-3.8,0.6-5.7c-1.3-0.4-2.7-0.1-3.7-0.8c0.3-0.1,0.4-0.1,1.5,0.1c0.5,0.1,1,0.1,1.5,0.2c0.5,0.1,1,0.2,1.5,0.4
			c-0.2,0.1-0.3,0.2-0.5,0.3l0,0c0.2,1.8,0,3.6-0.3,5.4c0.2,0.2,0.7,0,0.7,0.6c-0.2,0.1-0.5,0.2-0.8,0.2c-0.6,0-1.1,0-1.7,0
			C244.1,637.3,243.5,637.3,242.9,637.3z M243.5,634.7c0.1,0.2,0.2,0.5,0.2,0.7c0.3,0.8,0.7,0.9,1.4,0.4c0.4-0.3,0.4-0.8,0.3-1.2
			c0-0.2-0.1-0.3-0.2-0.5c-0.2-0.1-0.5-0.2-0.7-0.2c-0.3,0-0.6,0.1-0.8,0.2C243.3,634.1,243.2,634.4,243.5,634.7z M245,633.3
			c0.5-0.1,0.7-0.5,0.8-0.9c0.2-0.6-0.2-1-0.8-1c-0.5,0-1.1,0.4-1.2,0.9c-0.1,0.4,0,0.7,0.2,1C244.3,633.5,244.6,633.4,245,633.3z"
			/>
		<path id="wall-line" fill="#BABABA" d="M241.2,642c0.3,0,0.5,0.1,0.9,0.2c-0.7,0.1-1.2,0.2-1.7,0.3c-1.5,0-3.1-0.3-4.7,0.1
			c0.1-0.4,0.4-0.4,0.6-0.4c1,0,2,0,3,0C239.9,642.1,240.5,642,241.2,642z M246.3,642.1c-0.6,0-1.2,0-1.8-0.1
			c-0.9-0.1-1.5-0.1-2,0.2c1.7,0.1,3.4,0.1,5.2,0.2c0.1,0,0.1-0.1,0.3-0.2c-0.5-0.1-0.8-0.2-1.2-0.3
			C246.6,642,246.5,642.1,246.3,642.1z M335.5,642.2c-4.3,0-8.6-0.1-13-0.1c0,0.1,0,0.3,0,0.4c0.3,0,0.5,0,0.8,0c4,0.2,8,0.2,12,0.2
			C335.5,642.6,335.5,642.4,335.5,642.2z M401.4,642.2c-0.3,0-0.5,0-0.8,0c-9,0.1-18-0.2-26.9,0.1c-0.9,0-1.8,0-2.8,0
			c0,0.1,0,0.2,0,0.3c5,0,10,0,15-0.1c4.9-0.2,9.8,0,14.8,0c0.2,0,0.5,0,0.7,0C401.4,642.3,401.4,642.2,401.4,642.2z M367.1,642.3
			c-1.5,0-3,0-4.6,0c-5.5,0-11-0.1-16.5-0.1c-2.1,0-4.3,0-6.4,0.1c0,0.2,0,0.3,0,0.5c8.7,0,17.5,0,26.2-0.1c0.4,0,0.9,0,1.3,0
			C367.1,642.5,367.1,642.4,367.1,642.3z"/>
		<path id="window" fill="#BABABA" d="M339.4,596.7c0.5,0.6,0.9,1.3,1.4,1.9c0.1,0.5,0.1,1,0.2,1.5c-0.5-0.6-0.9-1.2-1.4-1.9
			c-0.1-0.1-0.2-0.3-0.4-0.3c-0.1,0-0.2-0.1-0.3-0.2c-0.1-0.7-0.2-1.3-0.3-2C338.9,596.1,339.1,596.4,339.4,596.7z M339.9,592.3
			L339.9,592.3c0-0.4-0.1-0.9-0.1-1.4c0-0.1-0.1-0.3-0.1-0.4c-0.1-0.5-0.3-0.9-0.7-1.3c-0.2-0.3-0.4-0.6-0.6-0.9
			c-0.2-0.5-0.4-0.9-0.6-1.4c0,0.8,0,1.5,0.1,2.2c0,0.1,0,0.1,0,0.2c0.1,0.1,0.2,0.2,0.3,0.3C338.9,590.5,339.3,591.4,339.9,592.3z
			 M335.9,598.9c0-0.1,0.1-0.2,0.1-0.3c-0.5-0.2-0.9-0.4-1.4-0.7c-0.2,0.6-0.3,1.2,0,1.9C335.3,599.7,335.7,599.5,335.9,598.9z
			 M335.7,595.9c0.4,0.2,0.8,0.4,1.1,0.6c0.1-0.4,0.3-0.7,0.4-1.1c0.1-0.3,0.3-0.7-0.1-1.1C336.5,594.7,336.1,595.3,335.7,595.9z
			 M329.3,593.8c0-0.7-0.1-1.4-0.1-2.1c-0.1-1.6-0.1-3.2-0.2-4.9c1,0,2.1,0,3.1,0c-0.1-0.1-0.2-0.2-0.3-0.3c-0.6-0.5-1.1-1-1.7-1.5
			c-0.1-0.1-0.2-0.2-0.3-0.2c-0.2-0.2-0.4-0.4-0.5-0.6c-0.2,0.1-0.3,0.3-0.4,0.5c-0.2-0.2-0.3-0.4-0.4-0.5c-0.7,0.3-1,1-1.1,1.6
			c-0.1,1.1,0,2.2,0,3.2c0.1,1.5,0.2,3,0.3,4.5c0,0.1,0,0.2,0,0.2l0,0C328.2,593.8,328.8,593.7,329.3,593.8z M332.4,599.1
			c0.8-0.2,1.2-0.7,1.5-1.3c0-0.1,0.1-0.1,0.1-0.2c-0.1,0-0.2-0.1-0.3-0.1c-0.4-0.2-0.7-0.4-1.1-0.6c0,0.1-0.1,0.2-0.1,0.3
			C332.3,597.8,332.3,598.5,332.4,599.1z M341.7,607.7c-0.1-0.8-0.1-1.7-0.2-2.7c0.3,0,0.5,0,0.8,0c0.6,0,1.2,0,1.8,0
			c-0.2-0.5-0.4-0.9-0.5-1.4c-0.2-0.5-0.3-1-0.4-1.5c-0.3,0-0.6,0-0.9,0c0.2,0.3,0.3,0.6,0.5,0.9c-0.1,0-0.1,0.1-0.2,0.1
			c-0.3-0.3-0.6-0.7-0.9-1c-0.1,0-0.3,0-0.4,0c0-0.2,0-0.4-0.1-0.6c-0.1-0.2-0.3-0.3-0.4-0.5c-0.4-0.5-0.8-0.8-1.3-1
			c-0.1,0-0.1-0.1-0.2-0.1c0.1,0.7,0.1,1.4,0.2,2.1c-0.3,0-0.5,0-0.8,0c-0.4,0-0.7,0-1.1,0c0.1,0.4,0.2,0.8-0.1,1.2
			c-0.2,0.2-0.2,0.6-0.2,0.8c-0.1,0.4,0,0.7,0.1,0.9c0.8,0,1.5,0,2.3,0c0,0.3,0.1,0.7,0.1,1c0.3,0.2,0.7,0.4,1,0.6
			C341.2,607,341.5,607.3,341.7,607.7z M343.5,585.2c0,0.5-0.1,1-0.1,1.5c0.3,0,0.7,0,1-0.1c0-0.1-0.1-0.1-0.1-0.2
			c-0.1-0.2-0.2-0.4-0.3-0.7c-0.2-0.6,0-0.8,0.7-1.1c0.4,0.5,0.6,1.2,1,1.7c0.2-0.1,0.5-0.1,0.7-0.2c0.2,0,0.3-0.1,0.5-0.1
			c0-0.6,0-1.2,0.1-1.7c-0.2-0.1-0.4-0.1-0.7-0.2c0,0.2,0,0.3,0,0.5c-0.2,0.1-0.3,0.1-0.5,0.2c-0.5-0.2,0-1.1-0.8-0.9v-0.1
			c-0.3,0-0.5,0-0.8,0c-0.1,0.4-0.2,0.8-0.5,1.1C343.5,585,343.5,585.2,343.5,585.2z M335,584.2c0,0.1,0,0.2,0,0.3
			c0.3,0.8,0.6,1.6,1,2.3c0.6,0,1.1,0,1.7,0c-0.3-0.7-0.6-1.4-0.9-2.1c-0.1-0.2-0.2-0.5-0.2-0.7c0-0.1,0-0.2,0-0.2c-0.5,0-1,0-1.6,0
			C335,584,335,584.1,335,584.2z M335,595.6c0.1-0.2,0.2-0.3,0.2-0.5c0.3-0.7,0.6-1.4,0.5-2.2c0-0.2,0-0.4-0.4-0.5
			c-0.3,0.4-0.7,0.7-1,1.1c0.3-0.9,0.8-1.8,0.7-2.8c-0.2-0.3-0.4-0.5-0.5-0.8c-0.1,0-0.2,0-0.3,0.1c0-0.1,0.1-0.2,0.1-0.3
			c-0.1-0.1-0.2-0.2-0.2-0.3c-0.3-0.4-0.5-0.8-0.8-1.2c-0.3,0.2-0.5,0.5-0.7,0.8c-0.7,1.2-1.4,2.4-2,3.6c-0.4,0.7-0.4,0.8,0.1,1.4
			v0.1C332.2,594.5,333.6,594.8,335,595.6z M342,611.9c0-0.2,0-0.3,0-0.5s0-0.4,0-0.7c-0.7-1.1-1.4-2.2-1.6-3.6c-0.1,0-0.3,0-0.4,0
			c0,0.9,0.1,1.8,0.2,2.7c0,0.3,0,0.5,0.1,0.8c0.4,0.1,0.7,0.3,1.1,0.7C341.4,611.5,341.7,611.7,342,611.9z M338.9,607.1
			c-0.2,0.2-0.3,0.3-0.5,0.4c0,0-0.1,0.1-0.2,0.1l-0.1,0.1c-0.2,0.2-0.4,0.5-0.6,0.7s-0.3,0.4-0.5,0.7c0.2-0.5,0.3-0.8,0.3-1
			c-0.2,0.1-0.3,0.2-0.5,0.2c-0.4,0.2-0.7,0.1-1-0.2c-0.2,0.2-0.4,0.5-0.7,0.8c0.3-1.2,0.3-1.2,0.2-1.7c-0.5,0.1-0.8,0.4-1,0.8
			c-0.4,0.6-0.8,1.3-1.2,1.9c0.6,0.1,1.1,0.4,1.6,0.9c0.1,0.1,0.2,0.2,0.3,0.4c0.4,0,0.8-0.1,1.2-0.2c0.6-0.1,1.1-0.2,1.7-0.3
			c0.3-0.6,0.5-1.3,0.8-1.9C339,608.3,339.2,607.8,338.9,607.1z M349.6,585.3C349.6,585.2,349.6,585.2,349.6,585.3
			c-0.2-0.2-0.5-0.2-0.8-0.3l0,0c0,0.2,0,0.4-0.1,0.6C349,585.4,349.3,585.3,349.6,585.3z M337.6,614.9c0.8-0.9,1.1-2,1.3-3.1
			C338.1,612.7,337.6,613.7,337.6,614.9z M341.1,618.3c0,0.2,0.1,0.4,0.4,0.4c0.4,0,1-0.6,1-1c0-0.6-0.1-1.2-0.1-1.7
			c-0.1-0.6-0.1-1.3-0.2-1.9c0-0.2,0-0.4-0.1-0.6c-0.1-0.1-0.1-0.2-0.2-0.3c-0.6-0.3-1.2-0.5-1.7-0.8c0.1,0.8,0.2,1.5,0.2,2.3
			C340.5,616,340.9,617.1,341.1,618.3z M352.1,620c0-0.1,0-0.2,0-0.4c-0.3-0.1-0.7-0.2-1-0.2c0.2,0.9,0.5,1.7,0.7,2.7
			c0.2-0.1,0.5-0.3,0.7-0.4C352.3,621.2,352.2,620.7,352.1,620z M344.7,612.7c-0.1,0.1-0.1,0.3-0.1,0.4c0.3,0.3,0.7,0.5,1,0.7
			c0,0,0,0,0-0.1c0.2-0.4,0.5-0.8,0.7-1.3c-0.2-0.6-0.4-1.2-0.6-1.8C345.5,611.2,345,611.9,344.7,612.7z M345.7,610.1
			c-0.3-0.7-0.5-1.4-0.7-2.2c-0.4,0.5-0.7,1-1,1.5c-0.5,0.7-0.6,1.5-0.2,2.3C344.4,611.6,345.1,610.9,345.7,610.1z M329.4,608.8
			c0.3,0.1,0.5,0.2,0.8,0.3c-0.1-0.7-0.2-1.5-0.4-2.2c-0.1-0.5-0.1-1.1-0.1-1.6c-0.5-0.5-0.8-1.2-1-1.9c-0.1-0.3,0-0.5,0.2-0.7
			s0.5-0.3,0.8-0.4c0-0.5-0.1-1-0.1-1.5c-0.1-1.5-0.1-3.1-0.2-4.6c0-0.2,0-0.3,0-0.5c-0.4-0.1-0.7-0.2-1.1-0.3c-0.2,0-0.5-0.1-0.7,0
			c0,1.3,0.1,2.7,0.1,3.9c0,0.7,0,1.5,0.2,2.2c0.1,0.4-0.1,0.9,0,1.3c0.1,0.5,0.1,1,0.1,1.5c0.1,0.8,0.1,1.6,0.2,2.3
			c0.1,0.8,0.1,1.5,0.2,2.3c0.1,0,0.2-0.1,0.3-0.1C328.9,608.8,329.2,608.8,329.4,608.8z M348.2,619.4c-1.6,0-3.3,0-4.9,0
			c-0.8,0-1.6,0.1-2.3-0.3c-0.1,0-0.2,0-0.4,0c-2,0-4,0.1-5.9,0.2c-0.1,0-0.2,0-0.4,0.1c-1.1,0.2-2.2,0.4-3.3,0.6
			c0.1-0.2,0.3-0.4,0.3-0.6c0-0.6-0.1-1.3-0.1-1.9c-0.1-0.9-0.2-1.8-0.3-2.7c0,0,0,0,0-0.1c-0.1-0.1-0.2-0.2-0.3-0.4
			c-0.7,0.3-1.3,0.7-1.9,1.1c0,0.5,0.1,1,0.1,1.5s0,1,0,1.5s0.2,1,0.3,1.5c0.1,0.5,0.3,1,0.5,1.5c0.2-0.1,0.4-0.2,0.5-0.2
			c0.3,0.2,0.5,0.4,0.7,0.5c0.5,0.1,1.1,0.3,1.6,0.3c2.4,0,4.8,0,7.1,0c0.5,0,1.1,0.1,1.6,0.2c0.3,0,0.5,0.1,0.8,0.1
			c2.2,0,4.5,0,6.8,0C348.5,621.4,348.4,620.5,348.2,619.4z M334.1,614.1c0,0.6,0.1,1.3,0.1,2.1c0.8-0.3,1.4-0.8,1.7-1.4
			c0.5-1,1-1.9,1.5-2.9c-0.6,0.1-1.3,0.2-1.9,0.4c-0.1,0-0.3,0-0.4,0c-0.1,0.1-0.2,0.3-0.3,0.4c-0.9,0.7-1.7,1.5-2.8,1.9
			c0.1,0.3,0.2,0.6,0.2,0.9C332.9,615.6,332.9,615.5,334.1,614.1z M347,602.7c0-0.2-0.1-0.3-0.2-0.5c-0.3,0-0.6,0-0.9,0
			c0.3,0.9,0.7,1.7,1,2.7c0,0.1,0.1,0.2,0.1,0.3c0.2,0,0.4,0,0.6,0C347.5,604.3,347.2,603.5,347,602.7z M349.7,602.6
			c0.1,0.6,0.1,1.2,0.2,1.7l0,0c0.2-0.1,0.4-0.3,0.5-0.4c0-0.2,0-0.5,0-0.7C350.2,603,349.9,602.8,349.7,602.6z M353,621.2
			L353,621.2L353,621.2L353,621.2z M338.9,585.5c0.1-1.1,1.1-1,1.8-1.4c0,0.2,0,0.3,0,0.5c0,0.6,0,1.1,0,1.7c0,0.2,0,0.3,0,0.4
			c0.3,0,0.6,0,0.9,0c0-0.3,0-0.5,0-0.8c0-0.7,0.1-1.5,0.3-2.2c-1.3,0-2.7,0-3.9,0C338.3,584.3,338.5,585,338.9,585.5z"/>
	</g>
</g>
</svg>
