<?xml version="1.0" encoding="utf-8"?>
<!-- Generator: Adobe Illustrator 17.1.0, SVG Export Plug-In . SVG Version: 6.00 Build 0)  -->
<!DOCTYPE svg PUBLIC "-//W3C//DTD SVG 1.1//EN" "http://www.w3.org/Graphics/SVG/1.1/DTD/svg11.dtd">
<svg version="1.1" id="Layer_1" xmlns="http://www.w3.org/2000/svg" xmlns:xlink="http://www.w3.org/1999/xlink" x="0px" y="0px"
	 viewBox="0 700 612 92" enable-background="new 0 700 612 92" xml:space="preserve">
<g id="Layer_22_xA0_Image_1_">
	<path fill="#DEDEDE" d="M612,723.564c-0.104,0.106-0.211,0.203-0.329,0.285c-1.088,0.759-2.24,1.426-3.367,2.129
		c-0.716,0.446-1.525,0.59-2.34,0.705c-0.333,0.047-0.614-0.017-0.774-0.388c-0.316-0.74-0.738-1.448-1-2.201
		c-0.038,0.528-0.093,1.055-0.252,1.547c-0.476,1.468-0.988,2.951-2.005,4.171c-0.283,0.34-0.584,0.667-1.079,0.756
		c-0.29-0.894-0.568-1.75-0.846-2.606c-0.239,0.731-0.486,1.458-0.498,2.188c-0.018,1.109-0.262,2.144-0.611,3.179
		c-0.141,0.418-0.442,0.727-0.791,0.763c-0.483,0.051-1.068,0.023-1.469-0.211c-1.186-0.693-2.488-1.222-3.465-2.24
		c-0.208-0.217-0.419-0.433-0.556-0.574c-0.39,0.383-0.722,0.756-1.103,1.07c-0.538,0.445-1.117,0.839-1.669,1.266
		c-0.539,0.416-1.142,0.681-1.821,0.601c-0.333-0.039-0.518,0.05-0.771,0.245c-1.242,0.958-2.622,1.569-4.227,1.635
		c-1.327,0.055-2.421-0.409-3.291-1.37c-0.447-0.493-0.794-1.079-1.211-1.655c-0.476,0.182-0.797,0.592-1.155,0.993
		c-0.787,0.88-1.576,1.814-2.938,1.599c-0.071,0.087-0.127,0.139-0.162,0.202c-0.046,0.084-0.082,0.175-0.113,0.266
		c-0.352,1.026-0.99,1.845-1.734,2.631c-0.854,0.904-1.9,1.503-2.98,2.003c-0.683,0.316-1.525,0.296-2.299,0.401
		c-0.1,0.014-0.221-0.123-0.387-0.224c-0.389,0.551-0.713,1.109-1.135,1.579c-0.465,0.517-1.01,0.967-1.545,1.417
		c-0.143,0.12-0.375,0.136-0.62,0.218c-0.339-1.22-0.664-2.385-0.99-3.557v4.208c-0.025-0.005-0.051-0.01-0.076-0.012
		c-0.762-0.071-1.477-0.294-2.135-0.68c-0.517-0.303-0.987-0.693-1.521-0.958c-0.857-0.426-1.39-1.079-1.628-2.065
		c-1.33,0.874-2.765,1.03-4.269,0.757c-0.017-0.191-0.038-0.42-0.053-0.6c-0.784-0.036-1.411-0.451-1.973-0.834
		c-0.38,0.807-0.649,1.717-1.18,2.433c-0.92,1.239-1.878,2.482-3.231,3.314c-0.377,0.232-0.766,0.446-1.263,0.372
		c0.01-0.94,0.02-1.84,0.029-2.74c-0.459,0.617-0.926,1.227-1.17,1.915c-0.371,1.045-0.932,1.949-1.594,2.818
		c-0.267,0.351-0.651,0.548-0.994,0.471c-0.474-0.106-1.019-0.319-1.325-0.669c-0.902-1.035-1.968-1.952-2.57-3.229
		c-0.128-0.272-0.259-0.544-0.344-0.721c-0.492,0.238-0.926,0.486-1.387,0.662c-0.652,0.25-1.326,0.439-1.986,0.667
		c-0.644,0.223-1.3,0.281-1.918-0.012c-0.303-0.143-0.507-0.118-0.809-0.014c-1.483,0.512-2.986,0.651-4.527,0.201
		c-0.164-0.048-0.322-0.103-0.474-0.165l-0.128,0.711c-1.171,0.328-2.341,0.214-3.515-0.185c0.011-0.192,0.025-0.421,0.036-0.601
		c-0.77-0.151-1.329-0.655-1.828-1.116c-0.495,0.742-0.896,1.602-1.527,2.232c-1.093,1.09-2.224,2.177-3.685,2.8
		c-0.407,0.173-0.824,0.328-1.305,0.182c0.149-0.928,0.292-1.817,0.434-2.706c-0.546,0.542-1.097,1.077-1.44,1.721
		c-0.521,0.979-1.21,1.789-1.993,2.551c-0.316,0.307-0.725,0.446-1.052,0.319c-0.453-0.175-0.961-0.466-1.211-0.857
		c-0.739-1.157-1.658-2.221-2.064-3.573c-0.019-0.062-0.037-0.123-0.056-0.184c-0.218,0.089-0.437,0.175-0.655,0.261
		c-0.174,0.068-0.399,0.01-0.657,0.009c0.009-0.166,0.018-0.33,0.026-0.493c-0.12,0.035-0.24,0.066-0.361,0.093
		c-0.682,0.151-1.376,0.238-2.063,0.366c-0.67,0.125-1.327,0.086-1.895-0.295c-0.279-0.186-0.484-0.192-0.798-0.133
		c-1.542,0.287-3.049,0.202-4.507-0.471c-1.206-0.556-1.969-1.467-2.306-2.719c-0.174-0.643-0.216-1.322-0.324-2.026
		c-0.507-0.055-0.979,0.164-1.481,0.358c-1.101,0.425-2.229,0.896-3.344,0.085c-0.103,0.045-0.176,0.066-0.236,0.106
		c-0.079,0.054-0.153,0.118-0.222,0.185c-0.781,0.753-1.722,1.191-2.742,1.552c-1.172,0.415-2.376,0.472-3.565,0.425
		c-0.752-0.03-1.492-0.432-2.23-0.69c-0.095-0.034-0.14-0.21-0.242-0.375c-0.597,0.313-1.14,0.662-1.73,0.888
		c-0.65,0.249-1.34,0.4-2.021,0.558c-0.182,0.042-0.396-0.05-0.652-0.088c0.326-1.594,0.633-3.097,0.949-4.641
		c-1.01,0.172-1.956,0.05-2.871-0.338c-0.508-0.216-0.486-0.3-0.535-0.848c-0.042-0.474,0.236-0.844,0.267-1.381
		c-0.189,0.162-0.312,0.262-0.429,0.368c-0.727,0.661-1.496,1.249-2.539,1.258c-0.254,0.002-0.565-0.018-0.753-0.158
		c-0.733-0.542-1.428-1.137-2.183-1.75c-0.198,0.202-0.384,0.417-0.596,0.601c-0.292,0.254-0.568,0.594-0.913,0.704
		c-0.965,0.306-1.955,0.543-2.949,0.738c-0.305,0.06-0.663-0.076-0.981-0.175c-0.273-0.086-0.52-0.252-0.782-0.374
		c-1.079-0.502-1.988-1.185-2.473-2.319c-0.07-0.165-0.113-0.341-0.158-0.478c-1.569,0.525-3.09,1.003-4.814,0.544
		c-1.542,1.875-3.632,2.163-5.849,1.835c-0.34-0.809,0.1-1.265,0.612-1.692c0.074-0.062,0.143-0.133,0.202-0.209
		c0.332-0.422,0.662-0.846,0.982-1.257c-1.095,0.071-2.126,0.215-3.152,0.184c-1.153-0.035-2.302-0.223-3.45-0.357
		c-0.101-0.012-0.276-0.119-0.272-0.17c0.03-0.385-0.213-0.795,0.082-1.155c0.268-0.327,0.544-0.648,0.817-0.972
		c-0.542,0.237-1.068,0.513-1.447,0.925c-0.75,0.811-1.449,1.675-2.106,2.564c-0.334,0.453-0.708,0.521-1.193,0.446
		c-0.259-0.875-0.457-1.753-0.783-2.58c-0.292-0.743-0.398-1.475-0.306-2.256c0.05-0.423,0.062-0.851,0.1-1.401
		c-0.242,0.107-0.432,0.138-0.545,0.248c-0.768,0.75-1.182,1.694-1.437,2.719c-0.088,0.352-0.189,0.703-0.242,1.061
		c-0.063,0.421-0.409,0.456-0.697,0.524c-0.329,0.077-0.536-0.123-0.68-0.422c-0.373-0.772-0.814-1.515-1.14-2.305
		c-0.465-1.126-0.786-2.291-0.471-3.534c0.029-0.116-0.038-0.256-0.075-0.464c-0.456,0.241-0.854,0.428-1.23,0.653
		c-0.623,0.373-1.299,0.547-2.013,0.573c-0.359,0.013-0.719-0.048-1.079-0.039c-0.149,0.004-0.408,0.079-0.424,0.16
		c-0.108,0.546-0.603,0.592-0.952,0.849c-0.783,0.577-1.67,0.757-2.588,0.818c-0.275,0.019-0.552,0.025-0.824,0.012
		c-0.976,0.453-1.997,0.531-2.998,0.096c-1.092,0.679-2.126,1.346-3.187,1.969c-0.546,0.32-0.764,0.217-0.98-0.386
		c-0.247-0.69-0.465-1.393-0.708-2.129c-0.257,0.3-0.514,0.573-0.739,0.87c-0.86,1.14-1.892,2.071-3.155,2.758
		c-0.55,0.299-1.016,0.753-1.568,1.045c-0.393,0.208-0.731,0.689-1.277,0.467c-0.132-0.427-0.212-0.834-0.379-1.203
		c-0.435-0.961-0.647-2.016-1.25-2.908c-0.798-1.179-1.191-2.478-1.092-3.913c0.013-0.201-0.018-0.406-0.029-0.608
		c-0.544,0.554-0.977,1.129-1.358,1.736c-0.533,0.848-1.136,0.975-1.886,0.357c-0.074-0.062-0.158-0.111-0.238-0.166
		c-1.455-1.018-2.241-2.502-2.792-4.121c-0.224-0.659-0.282-1.374-0.455-2.269c-0.458,0.52-0.766,1.033-1.214,1.345
		c-1.088,0.759-2.24,1.426-3.367,2.129c-0.716,0.446-1.525,0.59-2.34,0.705c-0.333,0.047-0.614-0.017-0.774-0.388
		c-0.359-0.841-0.855-1.639-1.098-2.51c-0.295-1.059-0.387-2.174-0.567-3.266c-0.003,0.001-0.069-0.008-0.094,0.02
		c-1.409,1.612-3.374,2.087-5.32,2.596c-0.245,0.065-0.522,0.05-0.625-0.235c-0.098-0.269-0.209-0.574-0.169-0.843
		c0.153-1.024,0.356-2.041,0.557-3.056c0.092-0.461,0.223-0.914,0.365-1.488c-0.629,0.077-1.158,0.215-1.677,0.187
		c-0.857-0.048-1.707-0.203-2.571-0.315c0,0.119-0.026,0.27,0.004,0.407c0.173,0.774,0.402,1.538,0.532,2.319
		c0.252,1.51-0.131,2.18-1.849,2.14c-0.914-0.021-1.722-0.468-2.277-1.26c-0.231-0.33-0.471-0.655-0.735-1.021
		c-0.077,0.175-0.139,0.275-0.166,0.383c-0.228,0.929-1.382,1.397-2.239,0.602c-0.246-0.229-0.478-0.495-0.635-0.788
		c-0.5-0.935-1.033-1.865-0.963-3.071c-0.684,0.38-1.301,0.626-1.958,0.17c-0.077-0.053-0.23,0.009-0.346,0.003
		c-0.599-0.028-0.806-0.172-0.989-0.754c-0.224-0.713-0.442-1.43-0.626-2.154c-0.319-1.253-0.211-2.446,0.583-3.519
		c0.126-0.171,0.272-0.328,0.445-0.535c-1.183-0.37-2.347-0.666-3.007-1.844c-0.476,0.553-0.895,1.089-1.366,1.575
		c-0.761,0.785-1.522,1.577-2.346,2.293c-0.961,0.833-2.148,1.306-3.277,1.867c-0.785,0.389-1.617,0.509-2.479,0.428
		c-0.672-0.062-1.26-0.334-1.662-0.89c-0.768-1.061-0.972-2.302-1.025-3.569c-0.024-0.57,0.06-1.145,0.098-1.77
		c-0.188,0.079-0.339,0.144-0.492,0.205c-0.695,0.275-1.384,0.568-2.087,0.82c-0.781,0.279-1.501,0.126-2.156-0.382
		c-0.28-0.218-0.58-0.408-0.825-0.578c-0.37,0.304-0.646,0.646-1.003,0.801c-0.926,0.401-1.878,0.748-2.839,1.055
		c-0.437,0.14-0.904-0.254-0.998-0.725c-0.024-0.123-0.056-0.244-0.089-0.387c-0.456,0.73-0.831,1.442-1.313,2.072
		c-0.501,0.655-1.108,1.229-1.665,1.843c-0.096,0.107-0.166,0.237-0.258,0.349c-0.418,0.51-0.856,0.988-1.524,1.184
		c-0.521,0.153-0.726,0.1-0.873-0.408c-0.147-0.506-0.222-1.034-0.302-1.557c-0.065-0.43-0.098-0.865-0.133-1.299
		c-0.046-0.565-0.08-1.131-0.122-1.728c-0.099-0.008-0.22-0.035-0.337-0.026c-0.763,0.06-1.506-0.037-2.219-0.304
		c-0.561-0.21-1.091-0.514-1.662-0.684c-0.917-0.273-1.554-0.825-1.958-1.756c-1.161,1.089-2.548,1.488-4.076,1.477
		c-0.05-0.186-0.109-0.408-0.155-0.582c-0.778,0.099-1.467-0.203-2.087-0.483c-0.236,0.861-0.346,1.803-0.746,2.599
		c-0.694,1.378-1.425,2.767-2.616,3.818c-0.332,0.293-0.678,0.571-1.181,0.583c-0.151-0.928-0.296-1.816-0.44-2.705
		c-0.347,0.687-0.702,1.368-0.825,2.087c-0.187,1.093-0.585,2.08-1.088,3.049c-0.203,0.391-0.547,0.651-0.898,0.634
		c-0.485-0.023-1.059-0.14-1.42-0.432c-1.066-0.866-2.273-1.586-3.085-2.741c-0.173-0.246-0.348-0.491-0.462-0.651
		c-0.444,0.319-0.829,0.637-1.253,0.89c-0.6,0.358-1.231,0.659-1.842,0.997c-0.597,0.33-1.232,0.5-1.891,0.317
		c-0.323-0.089-0.519-0.029-0.799,0.125c-1.374,0.758-2.83,1.152-4.426,0.973c-1.319-0.148-2.33-0.772-3.045-1.855
		c-0.367-0.556-0.621-1.187-0.945-1.82c-0.498,0.108-0.877,0.464-1.293,0.806c-0.911,0.75-1.833,1.553-3.146,1.134
		c-0.084,0.075-0.146,0.118-0.191,0.175c-0.058,0.076-0.108,0.16-0.152,0.246c-0.504,0.961-1.259,1.673-2.114,2.337
		c-0.981,0.763-2.107,1.196-3.25,1.527c-0.723,0.209-1.552,0.06-2.333,0.047c-0.101-0.002-0.199-0.155-0.348-0.28
		c-0.468,0.485-0.873,0.988-1.362,1.388c-0.538,0.441-1.145,0.802-1.742,1.166c-0.16,0.097-0.391,0.078-0.646,0.122
		c-0.193-1.616-0.375-3.139-0.561-4.704c-0.905,0.482-1.841,0.663-2.831,0.584c-0.55-0.045-0.556-0.132-0.775-0.636
		c-0.189-0.437-0.041-0.875-0.182-1.395c-0.128,0.213-0.214,0.346-0.291,0.485c-0.481,0.857-1.026,1.657-2.013,1.993
		c-0.241,0.082-0.542,0.16-0.765,0.087c-0.866-0.284-1.713-0.629-2.623-0.973c-0.124,0.254-0.233,0.517-0.377,0.758
		c-0.197,0.333-0.352,0.743-0.644,0.955c-0.819,0.594-1.685,1.131-2.566,1.63c-0.271,0.153-0.653,0.137-0.986,0.143
		c-0.286,0.005-0.573-0.075-0.86-0.109c-1.182-0.136-2.26-0.498-3.077-1.422c-0.119-0.135-0.215-0.288-0.3-0.404
		c-1.324,0.992-2.617,1.925-4.398,2.033c-0.873,2.265-2.766,3.198-4.973,3.584c-0.578-0.661-0.303-1.232,0.048-1.798
		c0.051-0.082,0.093-0.171,0.126-0.262c0.183-0.505,0.361-1.012,0.536-1.503c-1.016,0.412-1.95,0.874-2.934,1.168
		c-1.105,0.33-2.255,0.513-3.387,0.748c-0.099,0.02-0.299-0.026-0.312-0.076c-0.093-0.375-0.453-0.688-0.286-1.122
		c0.151-0.395,0.313-0.786,0.47-1.18c-0.439,0.396-0.852,0.823-1.082,1.333c-0.456,1.006-0.848,2.047-1.191,3.097
		c-0.174,0.535-0.508,0.718-0.992,0.799c-0.522-0.749-0.987-1.52-1.556-2.202c-0.511-0.613-0.843-1.274-1.001-2.045
		c-0.086-0.418-0.209-0.827-0.347-1.361c-0.196,0.178-0.366,0.267-0.438,0.407c-0.493,0.954-0.588,1.98-0.507,3.033
		c0.027,0.361,0.042,0.726,0.104,1.083c0.073,0.419-0.244,0.562-0.496,0.717c-0.288,0.177-0.547,0.052-0.779-0.186
		c-0.597-0.616-1.25-1.181-1.808-1.829c-0.796-0.922-1.468-1.927-1.561-3.205c-0.009-0.119-0.117-0.23-0.217-0.417
		c-0.357,0.372-0.676,0.675-0.962,1.007c-0.473,0.55-1.06,0.928-1.73,1.179c-0.336,0.126-0.698,0.181-1.036,0.303
		c-0.14,0.05-0.362,0.204-0.352,0.286c0.069,0.553-0.386,0.752-0.636,1.106c-0.561,0.794-1.347,1.245-2.198,1.592
		c-0.907,0.37-1.867,0.611-2.826,0.235c-0.479-0.188-0.893-0.538-1.393-0.85c-0.161,0.511-0.28,1.052-0.5,1.548
		c-0.298,0.674-0.424,1.532-1.465,1.628c-1.026-1.232-2.698-1.931-3.237-3.731c-0.144,0.273-0.273,0.496-0.382,0.729
		c-0.206,0.438-0.41,0.876-0.596,1.322c-0.323,0.777-0.949,1.216-1.694,1.493c-0.357,0.133-0.752,0.186-1.135,0.22
		c-0.73,0.066-1.464,0.096-2.197,0.128c-0.083,0.003-0.177-0.068-0.253-0.123c-0.439-0.317-0.976-0.888-1.346-1.528
		c-0.908,0.192-1.857,0.32-2.781-0.035c-0.121,0.01-0.242,0.019-0.364,0.027c0-0.063,0-0.127,0-0.192
		c-0.064-0.034-0.128-0.07-0.191-0.11c0.19,1.395-0.425,2.544-0.934,3.714c-0.151,0.346-0.362,0.739-0.661,0.934
		c-1.171,0.763-2.435,1.004-3.668,0.469c-1.092,0.679-2.126,1.346-3.187,1.969c-0.546,0.32-0.764,0.217-0.98-0.386
		c-0.247-0.69-0.465-1.393-0.708-2.129c-0.257,0.3-0.514,0.573-0.739,0.87c-0.86,1.14-1.892,2.071-3.155,2.758
		c-0.55,0.299-1.016,0.753-1.568,1.045c-0.393,0.208-0.73,0.689-1.277,0.467c-0.018-0.06-0.034-0.118-0.051-0.176
		c-0.053,0.06-0.113,0.12-0.178,0.133c-0.72,0.141-1.44,0.283-2.166,0.39c-0.38,0.057-0.777,0.097-1.155,0.052
		c-0.789-0.095-1.501-0.375-1.997-1.055c-0.285-0.39-0.586-0.768-0.889-1.146c-0.161-0.201-0.339-0.387-0.542-0.619
		c-0.101,1.877-1.563,2.948-2.272,4.386c-1.035,0.151-1.358-0.654-1.806-1.239c-0.33-0.431-0.573-0.929-0.849-1.388
		c-0.412,0.42-0.733,0.858-1.155,1.152c-0.844,0.591-1.834,0.582-2.802,0.434c-0.909-0.138-1.778-0.392-2.51-1.032
		c-0.326-0.286-0.815-0.373-0.877-0.926c-0.009-0.082-0.261-0.179-0.409-0.195c-0.357-0.039-0.722-0.008-1.078-0.052
		c-0.71-0.086-1.369-0.316-1.958-0.74c-0.356-0.256-0.737-0.476-1.171-0.754c-0.054,0.205-0.133,0.339-0.114,0.456
		c0.209,1.265-0.208,2.399-0.766,3.482c-0.392,0.76-0.893,1.463-1.329,2.202c-0.169,0.286-0.392,0.468-0.713,0.363
		c-0.281-0.091-0.623-0.156-0.65-0.58c-0.024-0.362-0.094-0.72-0.153-1.078c-0.168-1.043-0.501-2.018-1.204-2.83
		c-0.103-0.119-0.289-0.167-0.522-0.293c-0.009,0.552-0.032,0.978-0.018,1.404c0.027,0.786-0.141,1.507-0.494,2.223
		c-0.393,0.796-0.664,1.654-0.996,2.505c-0.49,0.034-0.857-0.066-1.152-0.545c-0.58-0.941-1.205-1.86-1.884-2.732
		c-0.344-0.442-0.845-0.761-1.365-1.043c0.245,0.346,0.493,0.688,0.733,1.037c0.264,0.384-0.012,0.772-0.015,1.158
		c0,0.052-0.184,0.143-0.285,0.147c-1.156,0.037-2.316,0.128-3.468,0.066c-1.025-0.056-2.041-0.285-3.126-0.448
		c0.285,0.437,0.577,0.887,0.873,1.335c0.053,0.081,0.115,0.157,0.184,0.225c0.474,0.469,0.874,0.959,0.468,1.737
		c-2.237,0.142-4.296-0.321-5.675-2.318c-1.757,0.312-3.232-0.291-4.752-0.946c-0.056,0.133-0.113,0.305-0.197,0.463
		c-0.578,1.089-1.541,1.693-2.658,2.103c-0.271,0.1-0.531,0.245-0.81,0.307c-0.325,0.072-0.693,0.177-0.992,0.092
		c-0.974-0.278-1.941-0.597-2.877-0.983c-0.334-0.138-0.581-0.5-0.85-0.778c-0.196-0.201-0.363-0.431-0.544-0.649
		c-0.804,0.547-1.546,1.082-2.322,1.561c-0.2,0.123-0.511,0.118-0.764,0.094c-1.039-0.096-1.756-0.746-2.424-1.466
		c-0.108-0.116-0.222-0.226-0.397-0.403c-0.015,0.538,0.232,0.93,0.15,1.399c-0.095,0.542-0.08,0.628-0.604,0.8
		c-0.944,0.309-1.897,0.352-2.889,0.096c0.185,1.565,0.366,3.089,0.557,4.705c-0.258,0.017-0.478,0.09-0.657,0.033
		c-0.666-0.214-1.34-0.423-1.967-0.725c-0.569-0.275-1.08-0.668-1.649-1.03c-0.116,0.156-0.175,0.328-0.273,0.354
		c-0.576,0.149-1.16,0.38-1.738,0.468l0.039,0.579c-0.037,0.016-0.073,0.033-0.111,0.047c-0.963,0.368-1.92,0.117-2.823-0.262
		c-0.819-0.343-1.574-0.785-2.123-1.536c-0.61-0.344-1.168-0.752-1.643-1.294c-0.063-0.073-0.131-0.143-0.206-0.203
		c-0.056-0.045-0.127-0.072-0.226-0.126c-1.179,0.715-2.263,0.15-3.325-0.365c-0.007-0.003-0.014-0.007-0.021-0.01
		c-0.292,0.579-0.692,1.102-1.131,1.599c-0.565,0.642-1.223,1.201-1.826,1.811c-0.234,0.236-0.494,0.358-0.78,0.179
		c-0.251-0.157-0.566-0.303-0.489-0.721c0.065-0.357,0.084-0.721,0.115-1.082c0.091-1.052,0.006-2.08-0.477-3.038
		c-0.071-0.141-0.24-0.232-0.435-0.412c-0.143,0.533-0.27,0.941-0.36,1.358c-0.166,0.769-0.504,1.427-1.021,2.035
		c-0.576,0.676-1.048,1.442-1.577,2.186c-0.483-0.086-0.815-0.272-0.984-0.809c-0.333-1.054-0.715-2.098-1.161-3.109
		c-0.225-0.512-0.634-0.944-1.069-1.344c0.153,0.395,0.311,0.788,0.458,1.184c0.162,0.436-0.2,0.746-0.297,1.119
		c-0.013,0.05-0.214,0.094-0.313,0.073c-1.13-0.246-2.278-0.44-3.38-0.781c-0.981-0.304-1.91-0.774-2.922-1.196
		c0.17,0.493,0.344,1.001,0.521,1.508c0.032,0.091,0.074,0.181,0.124,0.263c0.345,0.57,0.614,1.143,0.03,1.799
		c-2.204-0.408-4.088-1.359-4.938-3.632c-1.78-0.125-3.063-1.071-4.378-2.076c-0.086,0.115-0.184,0.268-0.304,0.401
		c-0.826,0.915-1.907,1.267-3.091,1.391c-0.287,0.031-0.575,0.108-0.861,0.101c-0.332-0.009-0.715,0.003-0.984-0.153
		c-0.877-0.507-1.737-1.052-2.55-1.654c-0.29-0.215-0.441-0.627-0.635-0.962c-0.141-0.243-0.247-0.507-0.369-0.762
		c-0.913,0.334-1.763,0.672-2.633,0.947c-0.224,0.071-0.524-0.011-0.764-0.095c-0.984-0.346-1.521-1.152-1.994-2.013
		c-0.076-0.139-0.16-0.273-0.287-0.487c-0.145,0.519-0.002,0.959-0.195,1.393c-0.224,0.503-0.231,0.59-0.781,0.629
		c-0.991,0.07-1.926-0.121-2.825-0.611c-0.202,1.563-0.399,3.084-0.607,4.698c-0.254-0.046-0.486-0.029-0.645-0.128
		c-0.593-0.37-1.197-0.737-1.731-1.183c-0.485-0.405-0.885-0.911-1.348-1.401c-0.15,0.123-0.25,0.276-0.351,0.277
		c-0.781,0.006-1.612,0.146-2.333-0.07c-1.14-0.341-2.261-0.785-3.235-1.558c-0.848-0.672-1.596-1.391-2.091-2.357
		c-0.044-0.086-0.092-0.171-0.15-0.247c-0.044-0.057-0.106-0.101-0.189-0.177c-1.317,0.406-2.231-0.406-3.135-1.165
		c-0.412-0.346-0.788-0.706-1.285-0.819c-0.33,0.63-0.59,1.259-0.963,1.811c-0.725,1.075-1.742,1.69-3.063,1.825
		c-1.597,0.163-3.05-0.245-4.416-1.016c-0.278-0.157-0.474-0.219-0.798-0.133c-0.661,0.176-1.295,0-1.888-0.335
		c-0.608-0.344-1.237-0.652-1.833-1.015c-0.422-0.256-0.803-0.578-1.244-0.902c-0.115,0.159-0.293,0.402-0.468,0.647
		c-0.822,1.147-2.036,1.856-3.111,2.711c-0.364,0.289-0.939,0.4-1.424,0.418c-0.351,0.014-0.693-0.25-0.892-0.643
		c-0.493-0.975-0.882-1.965-1.058-3.06c-0.116-0.721-0.464-1.405-0.805-2.095c-0.153,0.887-0.307,1.774-0.467,2.7
		c-0.502-0.017-0.847-0.299-1.175-0.595c-1.18-1.063-1.898-2.458-2.578-3.843c-0.392-0.8-0.493-1.743-0.721-2.606
		c-0.622,0.274-1.314,0.57-2.091,0.463c-0.048,0.174-0.109,0.396-0.161,0.581c-1.24-0.003-2.384-0.275-3.385-0.965l0.357-2.328
		c-0.478,0.43-1.043,0.728-1.641,0.972c-0.907,0.37-1.867,0.611-2.826,0.235c-0.479-0.188-0.893-0.538-1.392-0.85
		c-0.161,0.511-0.28,1.052-0.5,1.548c-0.298,0.674-0.424,1.532-1.465,1.628c-1.026-1.232-2.698-1.93-3.237-3.731
		c-0.144,0.273-0.273,0.496-0.382,0.729c-0.206,0.438-0.41,0.876-0.596,1.322c-0.088,0.212-0.2,0.397-0.33,0.562V792h612
		L612,723.564L612,723.564z M318.748,733.402c-0.414,0.261-0.818,0.471-1.337,0.476c-0.5,0.004-1,0.123-1.531,0.195
		c-0.084,0.851-0.355,1.667-0.705,2.463c-0.184,0.419-0.375,0.846-0.472,1.289c-0.1,0.454-0.362,0.716-0.737,0.926
		c-0.292,0.163-0.48,0.172-0.717-0.059c-0.401-0.389-0.803-0.774-1.093-1.271c-0.301-0.517-0.684-0.988-1.043-1.495
		c-1.066,1.201-2.325,2.071-3.694,2.803c-0.447,0.239-0.855,0.553-1.297,0.804c-0.241,0.136-0.492,0.335-0.847,0.152
		c-0.017-0.197-0.035-0.408-0.063-0.729c-1.782,2.044-3.832,3.594-6.166,4.794c-0.149-0.51-0.314-0.951-0.403-1.408
		c-0.097-0.497-0.121-1.007-0.18-1.511c-0.056-0.483-0.115-0.966-0.179-1.494c-0.069,0.051-0.142,0.09-0.196,0.148
		c-0.935,1.001-1.962,1.895-3.097,2.665c-0.381,0.258-0.733,0.56-1.116,0.817c-0.356,0.238-0.526,0.225-0.712-0.124
		c-0.363-0.682-0.719-1.377-0.847-2.15c-0.095-0.571-0.144-1.15-0.22-1.776c-0.183,0.11-0.353,0.227-0.537,0.32
		c-0.189,0.094-0.389,0.163-0.619,0.257c-0.164-0.479-0.285-0.911-0.272-1.375c0.017-0.613-0.001-1.226,0.04-1.837
		c0.053-0.808,0.525-1.439,1.004-2.092c-0.735-0.109-1.463,0.112-2.155-0.236c-0.049-0.168,0.195-0.473-0.187-0.532
		c0-0.049,0-0.098,0-0.147c0.581-0.507,1.143-1.04,1.747-1.517c0.85-0.671,1.846-1.045,2.896-1.271
		c0.378-0.081,0.768-0.111,1.149-0.163c0.027-0.046,0.076-0.088,0.073-0.127c-0.081-1.02,0.449-1.792,1.093-2.467
		c1.521-1.595,3.372-2.7,5.452-3.403c0.935-0.316,1.898-0.556,2.858-0.792c0.372-0.092,0.771-0.1,1.157-0.106
		c0.95-0.017,1.905-0.098,2.844,0.138c0.112,0.028,0.237,0.003,0.375,0.003c0.078-0.479,0.321-0.829,0.662-1.123
		c0.148-0.127,0.272-0.283,0.418-0.412c0.329-0.291,0.576-0.613,0.417-1.055c0.564-0.435,0.588-0.446,0.993-0.038
		c0.514,0.517,0.865,1.109,0.805,1.883c-0.03,0.39-0.018,0.785-0.001,1.176c0.016,0.348,0.37,0.686,0.688,0.576
		c0.512-0.178,0.943,0.016,1.389,0.161c0.548,0.179,1.089,0.385,1.623,0.602c0.144,0.059,0.279,0.182,0.374,0.309
		c0.176,0.232,0.302,0.501,0.481,0.73c0.094,0.12,0.245,0.239,0.389,0.269c0.537,0.112,0.904,0.418,1.166,0.887
		c0.543,0.972,0.833,2.003,0.799,3.124c-0.019,0.612-0.017,1.225,0.001,1.838C319.237,732.901,319.094,733.184,318.748,733.402z
		 M320.293,724.062c-0.209,0.203-0.547,0.274-0.828,0.404c-0.087,0.041-0.177,0.129-0.259,0.121
		c-0.972-0.094-1.997,0.037-2.826-0.68c-0.133-0.115-0.343-0.148-0.523-0.201c-0.229-0.067-0.313-0.166-0.191-0.41
		c0.033-0.066-0.083-0.205-0.133-0.315c0.263-0.474,0.766-0.652,1.218-0.99c-0.141-0.11-0.254-0.224-0.389-0.297
		c-0.231-0.126-0.486-0.211-0.714-0.342c-0.4-0.23-0.434-0.368-0.283-0.921c-0.1-0.254-0.472-0.37-0.391-0.733
		c0.28-0.25,0.559-0.515,0.854-0.759c0.354-0.293,0.785-0.252,1.194-0.203c0.355,0.043,0.7,0.162,1.102,0.258
		c0.153-0.525,0.702-0.591,1.096-0.864c0.588,0,1.176,0,1.764,0c0.084,0.174,0.154,0.357,0.254,0.521
		c0.234,0.384,0.266,0.766,0.065,1.176c-0.067,0.138-0.074,0.306-0.118,0.505c0.313-0.132,0.592-0.266,0.883-0.367
		c0.559-0.195,0.881,0.004,0.973,0.589c0.056,0.357,0.13,0.715,0.14,1.073c0.02,0.817-0.323,1.46-1.036,1.868
		c-0.288,0.165-0.644,0.218-0.918,0.398C320.928,724.096,320.592,723.772,320.293,724.062z M333.208,743.474
		c-0.949,0.785-1.878,1.599-3.068,2.016c-0.728,0.256-0.835,0.223-1.256-0.423c-1.286,0.598-2.425,1.449-3.637,2.176
		c-0.098,0-0.196,0-0.294,0c-0.434-0.765-0.41-1.283,0.145-2.484c-0.167,0.041-0.296,0.049-0.402,0.104
		c-0.299,0.157-0.586,0.337-0.881,0.5c-0.205,0.113-0.416,0.211-0.61,0.308c-0.333-0.355-0.333-0.672-0.174-1.042
		c0.219-0.51,0.393-1.038,0.619-1.646c-0.402-0.001-0.761-0.02-1.117,0.001c-0.334,0.02-0.623-0.077-0.898-0.247
		c-0.408-0.254-0.514-0.745-0.219-1.126c0.132-0.172,0.292-0.342,0.475-0.452c1.083-0.654,2.221-1.231,3.51-1.22
		c0.593,0.005,1.115-0.075,1.656-0.279c0.238-0.09,0.55-0.108,0.792-0.037c0.623,0.184,1.256,0.379,1.827,0.679
		c0.403,0.212,0.772,0.36,1.23,0.33c0.902-0.06,1.643,0.293,2.289,0.915C333.798,742.127,333.781,743.002,333.208,743.474z
		 M336.813,738.331c-0.48,0.27-0.988,0.503-1.504,0.696c-0.563,0.211-0.934,0.06-1.209-0.443c-0.149-0.273-0.256-0.568-0.382-0.853
		c-0.794,0.561-1.676,0.906-2.561,1.217c-0.345,0.122-0.768,0.02-1.203,0.02c-0.306-0.647-0.172-1.232,0.104-1.829
		c-0.305-0.166-0.584-0.369-0.897-0.483c-1.155-0.419-1.633-1.383-1.989-2.438c-0.087-0.261-0.012-0.519,0.239-0.712
		c0.276-0.213,0.562-0.377,0.92-0.378c0.267-0.001,0.534-0.001,0.857-0.001c-0.211-0.811-0.312-1.583-0.059-2.366
		c0.213-0.66,0.262-0.739,0.889-0.987c0.982,0.323,1.668,0.985,2.121,1.783c0.41-0.182,0.742-0.416,1.103-0.476
		c0.994-0.163,2.26,0.712,2.583,1.738c0.145,0.461,0.29,0.91-0.067,1.383c-0.16,0.212-0.146,0.557-0.208,0.842
		c-0.18,0.833,0.401,1.295,0.907,1.761c0.315,0.289,0.715,0.486,1.124,0.754C337.413,737.862,337.142,738.146,336.813,738.331z
		 M393.704,727.516c0.165-0.293,0.349-0.513,0.641-0.655c0.391-0.188,0.792-0.359,1.17-0.568c0.632-0.348,1.235-0.753,1.881-1.069
		c0.29-0.141,0.075-0.493,0.477-0.614c0.149,0.053,0.348,0.124,0.555,0.197c0.081,0.252,0.141,0.513,0.247,0.752
		c0.092,0.207,0.102,0.48,0.427,0.538c0.098,0.017,0.213,0.204,0.235,0.328c0.087,0.486,0.361,0.834,0.719,1.15
		c0.304,0.269,0.464,0.669,0.838,0.889c0.121,0.071,0.16,0.282,0.241,0.437c-0.093,0.087-0.152,0.193-0.233,0.213
		c-1.132,0.286-2.191,0.796-3.352,1.011c-1.058,0.196-2.098,0.513-3.126,0.836c-0.342,0.108-0.606,0.102-0.938-0.11
		C393.247,729.745,393.08,728.621,393.704,727.516z M405.526,734.829c-0.135,0.403-0.503,0.501-0.802,0.737
		c-1.256-0.327-2.229-0.912-2.504-2.304c-0.208,0.768-0.624,1.363-1.094,1.915c-0.295,0.346-0.668,0.626-1.009,0.931
		c-0.209,0.187-0.427,0.147-0.564-0.066c-0.23-0.359-0.419-0.745-0.637-1.142c-0.025,0.013-0.117,0.028-0.136,0.073
		c-0.497,1.18-1.491,1.79-2.594,2.277c-0.309,0.136-0.604,0.307-0.92,0.423c-0.262,0.096-0.545,0.135-0.91,0.22
		c0.038-0.193,0.096-0.298,0.065-0.354c-0.325-0.571-0.011-1.143-0.014-1.707c-0.356,0.03-0.711,0.05-1.063,0.092
		c-0.455,0.055-0.674-0.176-0.781-0.566c0.726-0.754,0.945-0.86,2.144-1.054c0.117-0.019,0.304-0.008,0.338-0.074
		c0.233-0.455,0.717-0.361,1.079-0.487c0.585-0.202,1.208-0.304,1.822-0.398c0.508-0.079,1.012-0.247,1.542-0.138
		c0.104,0.021,0.224-0.019,0.333-0.045c0.327-0.081,0.648-0.206,0.979-0.249c0.808-0.105,1.564-0.378,2.322-0.655
		c0.744-0.27,1.485-0.548,2.229-0.821c0.066-0.024,0.135-0.04,0.214-0.062c0.301,0.262,0.388,0.596,0.404,0.975
		C406.005,733.211,405.795,734.022,405.526,734.829z"/>
</g>
<g id="Layer_13">
	<path id="Figure" d="M261.585,761.798c0.448-0.369,0.874-0.772,1.354-1.093c0.218-0.146,0.578-0.241,0.813-0.166
		c0.377,0.12,0.658,0.019,0.974-0.124c0.393-0.178,0.799-0.327,1.279-0.52c0.432-1.039,0.666-2.228,0.867-3.421
		c0.214-1.272,0.379-2.552,0.546-3.831c0.13-0.989,0.222-1.983,0.345-2.973c0.264-2.121,0.605-4.227,1.331-6.249
		c0.422-1.175,1.035-2.187,2.237-2.754c0.297-0.14,0.492-0.495,0.742-0.761c-0.109-0.123-0.161-0.211-0.237-0.263
		c-0.63-0.437-1.178-0.95-1.494-1.661c-0.509-1.143-1.066-2.254-1.279-3.522c-0.289-1.722,0.067-3.342,0.513-4.97
		c0.071-0.257,0.165-0.51,0.227-0.769c0.325-1.357,1.065-2.377,2.369-2.944c0.294,0,0.588,0,0.882,0
		c0.328,0.194,0.656,0.39,0.984,0.585c-0.007,0.039-0.013,0.078-0.019,0.117c-0.199,0.01-0.411,0.068-0.594,0.02
		c-1.086-0.289-1.74,0.279-2.292,1.098c-0.63,0.934-0.793,2.026-1.002,3.088c-0.134,0.686-0.172,1.409-0.132,2.108
		c0.152,2.68,1.241,4.888,3.423,6.511c0.401,0.298,0.835,0.491,1.349,0.442c0.073-0.007,0.156-0.022,0.219,0.004
		c1.12,0.462,1.648-0.287,2.176-1.049c0.115-0.165,0.266-0.304,0.4-0.456c0.056,0.017,0.112,0.032,0.167,0.049
		c-0.012,0.188,0.031,0.401-0.043,0.56c-0.535,1.151-1.497,1.807-2.714,1.887c-0.814,0.053-1.963,1.102-2.033,1.828
		c-0.034,0.35,0.063,0.714,0.115,1.07c0.089,0.623,0.221,1.241,0.277,1.867c0.08,0.898,0.082,1.802,0.164,2.699
		c0.116,1.28,0.332,2.553,0.395,3.833c0.046,0.932,0.452,1.863,0.061,2.807c-0.032,0.078-0.003,0.193,0.025,0.282
		c0.328,1.057,0.639,2.12,1.006,3.164c0.124,0.352,0.487,0.41,0.853,0.366c1.411-0.167,2.822-0.173,4.223,0.081
		c0.362,0.066,0.685,0.251,0.812,0.652c0.088,0.275,0.211,0.54,0.285,0.818c0.433,1.651,0.91,3.293,1.262,4.961
		c0.214,1.015,0.211,2.073,0.338,3.108c0.189,1.539,0.215,3.091,0.522,4.624c0.142,0.708,0.336,1.483,0.057,2.23
		c-0.058,0.157-0.096,0.387-0.212,0.446c-0.424,0.213-0.375,0.564-0.364,0.93c0.012,0.416,0.029,0.836-0.019,1.247
		c-0.031,0.26-0.179,0.507-0.287,0.791c0.858,0.679,1.622,1.671,2.797,2.054c-0.018,1.058-0.476,1.524-1.471,1.5
		c-0.675-0.016-1.349-0.102-2.024-0.138c-0.324-0.017-0.522-0.211-0.575-0.476c-0.088-0.44-0.414-0.634-0.73-0.848
		c-0.383-0.26-0.755-0.551-1.172-0.739c-1.366-0.619-1.45-2.933-0.064-3.688c0.27-0.147,0.5-0.368,0.794-0.59
		c-0.272-0.168-0.506-0.314-0.764-0.473c0.363-0.76,0.558-1.503,0.156-2.307c-0.107-0.213-0.05-0.536-0.001-0.795
		c0.112-0.598,0.147-1.167-0.136-1.743c-0.133-0.271-0.115-0.613-0.188-0.918c-0.251-1.059-0.48-2.126-0.777-3.172
		c-0.235-0.827-0.615-1.584-0.575-2.51c0.051-1.141-0.27-1.396-1.373-1.75c-0.236-0.076-0.418-0.322-0.721-0.568
		c-1.025,0.129-1.896-0.489-2.694-1.208c-0.512-0.461-0.841-1.043-0.799-1.796c0.016-0.296-0.127-0.607-0.229-0.901
		c-0.511-1.47-0.752-2.983-0.95-4.529c-0.281-2.191-0.199-4.386-0.347-6.749c-0.187,0.992-0.365,1.817-0.494,2.649
		c-0.215,1.391-0.379,2.79-0.603,4.179c-0.138,0.856-0.367,1.697-0.516,2.552c-0.145,0.832-0.228,1.675-0.362,2.509
		c-0.092,0.57-0.227,1.132-0.341,1.697c-0.023,0.114-0.091,0.263-0.044,0.337c0.296,0.469,0.101,0.889-0.027,1.357
		c-0.13,0.474-0.364,0.715-0.827,0.764c-0.799,0.084-1.598,0.177-2.399,0.225c-0.139,0.009-0.291-0.181-0.468-0.3
		c-0.253,0.098-0.546,0.413-0.908,0.011c-0.069-0.077-0.35-0.001-0.516,0.056c-0.425,0.144-0.84,0.315-1.317,0.498
		c-0.084-0.303,0.206-0.665-0.205-0.787C261.585,761.897,261.585,761.847,261.585,761.798z M283.523,762.606
		c0.569,0.14,1.028,0.441,1.295,0.988c0.331,0.678,0.62,1.383,1.012,2.024c0.887,1.449,0.969,3.108,1.25,4.707
		c0.072,0.412,0.073,0.845,0.203,1.261c0.079,0.253,0.131,0.524,0.139,0.789c0.036,1.185,0.252,2.366,0.051,3.557
		c-0.043,0.254,0.041,0.53,0.06,0.796c0.014,0.191,0.079,0.408,0.014,0.57c-0.168,0.421-0.118,0.809,0.053,1.202
		c0.23,0.528,0.436,1.068,0.701,1.578c0.396,0.763,1.151,1.069,2.012,0.879c0.138-0.03,0.299-0.057,0.427-0.016
		c0.597,0.188,1.217,0.341,1.771,0.621c0.522,0.264,0.98,0.242,1.426-0.054c0.381-0.252,0.765-0.532,1.055-0.877
		c0.222-0.264,0.483-0.599,0.335-1.036c-0.958,0.418-3.041-0.329-3.634-1.33c-0.072-0.122,0.038-0.351,0.076-0.622
		c-0.063-0.075-0.212-0.254-0.39-0.467c0.608-0.269,0.565-0.711,0.42-1.182c-0.27-0.874-0.592-1.736-0.798-2.624
		c-0.348-1.502-0.591-3.028-0.935-4.53c-0.354-1.549-0.734-3.095-1.187-4.617c-0.193-0.648-0.213-1.473-1.065-1.752
		c-0.029-0.009-0.045-0.081-0.052-0.126c-0.094-0.616-0.581-0.933-0.996-1.301c-0.859-0.762-1.75-1.46-2.945-1.627
		c-0.362-0.051-0.934,0.089-0.987,0.375c-0.117,0.632-0.414,1.254-0.118,1.925c0.124,0.281,0.15,0.607,0.214,0.884
		C283.157,762.599,283.349,762.563,283.523,762.606z M291.496,760.926c-0.124-0.051-0.326-0.068-0.423-0.002
		c-0.544,0.371-0.798-0.057-1.09-0.369c-0.165-0.176-0.267-0.493-0.457-0.55c-0.808-0.245-1.051-0.951-1.388-1.577
		c-0.506-0.94-0.998-1.883-1.676-2.721c-0.396-0.489-0.76-1.016-1.065-1.566c-1.313-2.373-2.597-4.763-3.896-7.144
		c-0.091-0.166-0.185-0.422-0.322-0.455c-0.687-0.163-1.098-0.626-1.406-1.214c-0.471,0.13-0.657,0.346-0.456,0.805
		c0.155,0.353,0.245,0.735,0.397,1.09c0.957,2.228,1.992,4.419,3.198,6.526c0.684,1.195,2.373,3.216,2.418,3.093
		c0.907,1.463,1.827,2.683,3.051,3.908c0.319,0.319,1.319,0.917,1.414,1.016c0.77,0.801,1.907,0.793,2.811,1.293
		c0.154,0.085,0.397,0.095,0.571,0.044c0.496-0.145,0.977-0.338,1.541-0.54C293.73,761.703,292.581,761.376,291.496,760.926z
		 M274.136,733.728c0.411-0.905-0.094-1.52-0.379-2.181C273.515,732.304,273.693,732.982,274.136,733.728z M277.134,732.392
		c0.129-0.608,0.025-1.146-0.582-1.536c0.136,0.518,0.272,1.037,0.408,1.555C277.018,732.404,277.076,732.398,277.134,732.392z"/>
	<g id="Couch">
		<g>
			<path fill="#984F50" d="M271.419,737.159c-0.042-0.062-0.089-0.108-0.142-0.146c0.182,0.29,0.385,0.57,0.607,0.839
				C271.73,737.621,271.574,737.39,271.419,737.159z"/>
			<path fill="#984F50" d="M282.718,761.715c-0.004-0.01-0.007-0.019-0.011-0.029c-0.046,0.093-0.088,0.197-0.145,0.313
				c0.093,0.018,0.178,0.034,0.262,0.05C282.798,761.934,282.765,761.822,282.718,761.715z"/>
			<path fill="#984F50" d="M322.025,758.681c-0.016-1.219-0.377-2.377-0.616-3.557c-0.209-1.033-0.69-1.967-1.232-2.851
				c-0.511-0.833-1.253-1.411-2.294-1.471c-0.097-0.005-0.194-0.025-0.29-0.042c-0.022-0.004-0.04-0.024-0.013-0.007
				c-0.243-1.289-0.467-2.542-0.718-3.79c-0.128-0.634-0.255-1.277-0.471-1.883c-0.167-0.469-0.519-0.87-0.708-1.334
				c-0.355-0.872-1.077-1.43-1.673-2.1c-0.859-0.963-1.899-1.697-3.084-2.15c-0.992-0.38-1.999-0.732-3.018-1.039
				c-0.161,0.092-0.324,0.183-0.489,0.271c-0.447,0.239-0.855,0.553-1.297,0.804c-0.241,0.136-0.492,0.335-0.847,0.152
				c-0.017-0.197-0.035-0.408-0.063-0.729c-1.782,2.044-3.832,3.594-6.166,4.794c-0.149-0.51-0.314-0.951-0.403-1.408
				c-0.097-0.497-0.121-1.007-0.18-1.511c-0.056-0.483-0.115-0.966-0.179-1.494c-0.069,0.052-0.142,0.09-0.196,0.148
				c-0.935,1.001-1.962,1.895-3.097,2.665c-0.381,0.258-0.733,0.56-1.116,0.817c-0.356,0.238-0.526,0.225-0.712-0.124
				c-0.363-0.682-0.719-1.377-0.847-2.15c-0.095-0.571-0.144-1.15-0.22-1.776c-0.183,0.11-0.353,0.227-0.537,0.32
				c-0.189,0.094-0.389,0.163-0.619,0.257c-0.164-0.479-0.285-0.911-0.272-1.375c0.017-0.613-0.001-1.226,0.04-1.837
				c0.039-0.593,0.303-1.09,0.63-1.57c-0.235-0.039-0.469-0.085-0.706-0.106c-0.822-0.073-1.645-0.126-2.467-0.196
				c-0.188-0.015-0.373-0.069-0.559-0.105c-0.686,0-1.372,0-2.058,0c-0.059,0.041-0.114,0.112-0.176,0.118
				c-0.752,0.065-1.504,0.133-2.257,0.173c-1.146,0.062-2.301,0.039-3.438,0.171c-0.488,0.057-0.97,0.161-1.452,0.274
				c-0.017,0.361-0.063,0.724-0.15,1.088c-0.167,0.702-0.237,1.43-0.31,2.15c-0.006,0.058-0.019,0.11-0.035,0.158
				c0.003,0.147,0.014,0.296-0.042,0.416c-0.212,0.456-0.492,0.833-0.827,1.128c0.112,0.096,0.245,0.162,0.395,0.207
				c0.393,0.117,0.792,0.213,1.187,0.327c0.497,0.143,0.908,0.352,1.188,0.859c0.484,0.874,1.027,1.722,1.615,2.53
				c0.437,0.6,0.786,1.231,1.052,1.916c0.184,0.476,0.338,0.962,0.737,1.326c0.136,0.124,0.232,0.314,0.297,0.492
				c0.472,1.289,1.159,2.464,1.87,3.631c0.367,0.601,0.671,1.24,1.002,1.862c0.046,0.086,0.077,0.181,0.129,0.263
				c0.461,0.738,0.924,1.475,1.39,2.211c0.118,0.186,0.28,0.349,0.364,0.548c0.414,0.975,1.133,1.757,1.66,2.66
				c0.363,0.622,0.999,0.909,1.624,1.018c0.601,0.104,1.052,0.327,1.442,0.755c0.091,0.099,0.2,0.182,0.338,0.304
				c-0.189-0.885,0.125-1.149,0.961-0.915c0.272,0.077,0.57,0.072,0.856,0.08c0.928,0.025,1.856,0.035,2.785,0.056
				c0.244,0.005,0.488,0.026,0.732,0.047c0.899,0.077,1.802,0.127,2.695,0.243c1.241,0.161,2.462,0.146,3.708-0.025
				c0.884-0.121,1.803-0.038,2.702,0.021c0.822,0.054,1.637,0.199,2.459,0.572c-0.257,0.057-0.464,0.113-0.674,0.146
				c-0.239,0.037-0.486,0.032-0.722,0.082c-0.448,0.096-0.886,0.26-1.338,0.318c-0.577,0.075-1.166,0.126-1.745,0.093
				c-0.847-0.049-1.701-0.123-2.53-0.292c-0.926-0.19-1.849-0.157-2.771-0.118c-0.822,0.035-1.638,0.176-2.459,0.253
				c-0.753,0.071-1.507,0.124-2.261,0.172c-0.138,0.009-0.35,0-0.411-0.085c-0.344-0.478-0.811-0.352-1.325-0.321
				c0.135,0.163,0.23,0.302,0.349,0.415c0.201,0.19,0.267,0.401,0.173,0.633c0.129,0.092,0.255,0.192,0.379,0.299
				c-0.564,0.202-1.045,0.395-1.541,0.54c-0.174,0.051-0.416,0.041-0.571-0.044c-0.905-0.5-2.041-0.492-2.811-1.293
				c-0.022-0.023-0.093-0.072-0.191-0.138c-0.165-0.001-0.335-0.001-0.514-0.001c0.232,0.495,0.429,0.947,0.651,1.387
				c0.373,0.737,0.642,1.506,0.805,2.317c0.104,0.517,0.259,1.025,0.392,1.537c0.025,0.095,0.024,0.217,0.085,0.276
				c0.774,0.745,0.672,1.771,0.831,2.693c0.217,1.261,0.303,2.543,0.47,3.812c0.055,0.415,0.2,0.817,0.271,1.23
				c0.906-0.001,1.812,0,2.718-0.001c1.122-0.001,2.255-0.009,3.36-0.17c0.858-0.125,1.703-0.11,2.553-0.112
				c4.116-0.013,8.233-0.005,12.349-0.006c0.489-0.001,0.979-0.001,1.468-0.009c0.328-0.005,0.479,0.13,0.51,0.474
				c0.024,0.257,0.14,0.51,0.236,0.756c0.264,0.672,0.934,1.053,1.638,0.947c1.041-0.157,1.735-0.692,1.946-1.767
				c0.038-0.191,0.109-0.379,0.18-0.601c-0.409,0-0.824,0-1.267,0c0.419-0.34,0.891-0.31,1.33-0.366
				c0.175-0.022,0.335,0.067,0.379,0.281c0.275-0.037,0.539-0.13,0.756-0.339c0.124-0.12,0.24-0.321,0.238-0.483
				c-0.003-0.408-0.075-0.815-0.126-1.278c0.639-0.176,0.761-0.678,0.709-1.286c-0.06-0.706-0.141-1.414-0.138-2.121
				c0.002-0.703,0.082-1.406,0.156-2.107c0.072-0.674,0.218-1.342,0.263-2.017c0.08-1.192,0.101-2.388,0.163-3.582
				c0.013-0.256,0.093-0.51,0.142-0.765c0-0.441,0-0.882,0-1.323C322.113,758.897,322.026,758.789,322.025,758.681z
				 M305.415,767.653c-1.738,0.004-3.476,0.015-5.214-0.005c-0.629-0.007-1.257-0.119-1.886-0.131
				c-0.459-0.008-0.919,0.069-1.378,0.108c-0.012-0.045-0.024-0.09-0.036-0.136c0.357-0.042,0.714-0.121,1.071-0.122
				c2.423-0.011,4.846-0.008,7.27-0.004c0.274,0.001,0.57-0.055,0.926,0.243C305.827,767.628,305.621,767.653,305.415,767.653z
				 M309.226,756.691c-0.078,0.202-0.178,0.395-0.272,0.591c-0.028,0.058-0.07,0.108-0.11,0.17c-0.299-0.382-0.22-0.797-0.167-1.21
				c0.163-1.263,0.766-2.307,1.64-3.197c0.938-0.955,1.944-1.833,3.183-2.394c0.153-0.069,0.307-0.165,0.468-0.179
				c0.118-0.011,0.274,0.066,0.358,0.155c0.039,0.041-0.018,0.242-0.089,0.307c-0.248,0.229-0.5,0.467-0.788,0.636
				C311.411,752.762,310.068,754.518,309.226,756.691z M312.074,770.223c-0.522-0.413-0.549-0.937-0.638-1.417
				c-0.158-0.852-0.277-1.713-0.405-2.571c-0.032-0.213-0.036-0.43-0.059-0.71C311.688,766.534,312.272,769,312.074,770.223z
				 M315.244,770.099c-0.123-0.221-0.242-0.346-0.263-0.487c-0.076-0.505-0.11-1.017-0.176-1.524
				c-0.046-0.358-0.061-0.736-0.189-1.067c-0.383-0.99-0.804-1.965-1.233-2.936c-0.386-0.873-0.727-1.753-0.63-2.733
				c0.036-0.361,0.11-0.717,0.167-1.076c0.286,1.397,0.705,2.719,1.426,3.957c0.571,0.98,0.923,2.074,1.132,3.183
				C315.636,768.262,315.666,769.149,315.244,770.099z M321.123,763.969c-0.023,1.04-0.806,2.598-0.942,3.634
				c-0.104,0.791-0.261,1.576-0.404,2.362c-0.034,0.186-0.11,0.364-0.167,0.545c-0.041,0.002-0.266-0.489-0.291-0.741
				c-0.074-0.762,0.118-1.498,0.242-2.242c0.275-1.64,1.074-3.289,0.966-4.955c-0.076-1.167-0.127-2.341-0.297-3.496
				c-0.14-0.952-0.376-1.903-0.69-2.812c-0.184-0.535-0.582-1.004-0.921-1.476c-0.755-1.055-2.482-1.028-3.377-0.421
				c-0.703,0.477-1.418,0.943-1.88,1.7c-0.127,0.208-0.355,0.356-0.58,0.492c0.413-0.677,0.768-1.39,1.445-1.855
				c0.08-0.055,0.169-0.1,0.241-0.165c0.746-0.672,1.605-0.922,2.617-0.87c0.763,0.038,1.365,0.322,1.904,0.803
				c0.709,0.633,1.163,1.435,1.396,2.344c0.307,1.195,0.517,2.403,0.631,3.644C321.139,761.805,321.153,762.628,321.123,763.969z"/>
			<path fill="#984F50" d="M285.708,759.035c0.114,0.023,0.231,0.093,0.319,0.172c0.364,0.332,0.783,0.368,1.23,0.315
				c-0.704-0.834-1.318-1.702-1.924-2.679c-0.045,0.123-1.734-1.898-2.418-3.093c-1.206-2.106-2.241-4.297-3.198-6.526
				c-0.003-0.006-0.005-0.013-0.007-0.019c-0.033,0.375,0.093,1.145,0.204,1.459c0.123,0.346,0.155,1.374,0.267,1.533
				c-0.112,0.106,0.239,1.861,0.366,2.674c0.22,1.418,0.434,2.839,0.625,4.262c0.055,0.411,0.257,0.678,0.603,0.846
				c0.681,0.331,1.36,0.655,2.14,0.726C284.517,758.76,285.112,758.912,285.708,759.035z"/>
			<path fill="#984F50" d="M287.283,771.586c-0.13-0.416-0.131-0.849-0.203-1.261c-0.281-1.598-0.363-3.257-1.25-4.707
				c-0.393-0.641-0.681-1.347-1.012-2.024c-0.267-0.548-0.726-0.848-1.295-0.988c-0.173-0.043-0.366-0.007-0.59-0.007
				c-0.028-0.12-0.048-0.249-0.073-0.379c-0.057,0.011-0.113,0.022-0.171,0.033c0.262,1.161,0.579,2.313,0.763,3.485
				c0.103,0.655,0.276,1.311,0.207,2.001c-0.047,0.478,0.143,0.977,0.106,1.457c-0.143,1.893-0.126,3.789-0.124,5.684
				c1.305,0,2.611-0.001,3.916-0.001c0.005-0.836-0.11-1.67-0.135-2.505C287.414,772.11,287.362,771.839,287.283,771.586z"/>
			<path fill="#984F50" d="M279.403,772.044c0.112-0.598,0.147-1.167-0.136-1.743c-0.133-0.271-0.115-0.613-0.188-0.918
				c-0.251-1.059-0.48-2.126-0.777-3.172c-0.235-0.827-0.615-1.584-0.575-2.51c0.043-0.968-0.184-1.298-0.925-1.592
				c-0.63-0.109-1.26-0.215-1.894-0.296c-1.037-0.133-2.079-0.223-3.118-0.333c-0.531-0.056-1.062-0.114-1.594-0.23
				c0.933-0.006,1.839-0.366,2.794-0.113c0.345,0.091,0.742,0.097,1.09,0.023c0.049-0.01,0.097-0.029,0.145-0.051
				c-0.455-0.229-0.88-0.568-1.286-0.934c-0.512-0.461-0.841-1.043-0.799-1.797c0.016-0.296-0.127-0.607-0.229-0.901
				c-0.511-1.47-0.752-2.983-0.95-4.529c-0.197-1.533-0.216-3.07-0.26-4.663c-0.015,0.422-0.051,0.844-0.125,1.265
				c-0.1,0.572-0.159,1.159-0.159,1.74c0.001,1.662-0.299,3.28-0.649,4.894c-0.245,1.13-0.457,2.268-0.682,3.402
				c-0.098,0.494-0.19,0.989-0.289,1.508c0.184,0.051,0.343,0.095,0.554,0.153c-0.1,0.038-0.153,0.074-0.208,0.077
				c-0.242,0.01-0.42,0.034-0.61,0.276c-0.251,0.32-0.65,0.523-0.998,0.785c-0.027-0.056-0.048-0.105-0.066-0.153
				c-0.023,0.004-0.044,0.009-0.068,0.012c-0.799,0.084-1.598,0.177-2.399,0.225c-0.139,0.009-0.291-0.181-0.468-0.3
				c-0.253,0.098-0.546,0.413-0.908,0.011c-0.069-0.077-0.35-0.001-0.516,0.056c-0.425,0.144-0.841,0.315-1.317,0.498
				c-0.084-0.303,0.206-0.665-0.205-0.787c0-0.049,0-0.098,0-0.147c0.448-0.369,0.874-0.772,1.354-1.093
				c0.218-0.146,0.578-0.241,0.813-0.166c0.377,0.12,0.658,0.019,0.974-0.124c0.393-0.178,0.799-0.327,1.279-0.52
				c0.432-1.039,0.666-2.228,0.867-3.421c0.214-1.272,0.379-2.552,0.546-3.831c0.13-0.989,0.222-1.983,0.345-2.973
				c0.264-2.121,0.605-4.227,1.331-6.249c0.422-1.175,1.035-2.187,2.237-2.754c0.297-0.14,0.492-0.495,0.742-0.761
				c-0.109-0.123-0.161-0.211-0.237-0.263c-0.63-0.437-1.178-0.95-1.494-1.661c-0.242-0.543-0.493-1.079-0.715-1.628
				c-0.18,0.042-0.36,0.084-0.54,0.129c-1.292,0.322-2.609,0.538-3.859,1.021c-1.485,0.573-2.967,1.155-4.466,1.691
				c-1.535,0.549-2.99,1.24-4.244,2.294c-0.404,0.34-0.817,0.721-1.078,1.169c-0.561,0.963-1.024,1.983-1.533,2.976
				c-0.311,0.606-0.615,1.216-0.962,1.801c-0.144,0.244-0.433,0.379-0.485,0.714c-0.052,0.333-0.213,0.647-0.282,0.978
				c-0.068,0.327-0.091,0.665-0.112,1c-0.026,0.433-0.142,0.604-0.615,0.632c-0.366,0.022-0.647,0.161-0.92,0.376
				c-0.827,0.652-1.599,1.335-2.037,2.34c-0.417,0.957-0.902,1.884-1.077,2.926c-0.145,0.858-0.255,1.723-0.389,2.584
				c-0.032,0.206-0.095,0.406-0.145,0.61c0,0.588,0,1.176,0,1.764c0.098,0.489,0.212,0.976,0.29,1.468
				c0.176,1.101,0.302,2.209,0.509,3.303c0.141,0.744,0.27,1.473,0.175,2.237c-0.045,0.358,0.023,0.73,0.029,1.096
				c0.011,0.686-0.001,1.372,0.03,2.057c0.013,0.281,0.114,0.559,0.167,0.839c0.015,0.079-0.006,0.164,0.002,0.245
				c0.031,0.326,0.068,0.651,0.103,0.98c0.365,0,0.651,0,0.952,0c-0.018,0.216,0.013,0.392,0.298,0.419
				c0.481,0.044,0.959,0.116,1.456,0.178c0.004,0.014,0.008,0.027,0.013,0.041c0.643-0.089,1.288-0.181,1.964-0.058
				c-0.58,0.297-1.285,0.433-1.86,0.399c0.073,0.242,0.146,0.482,0.236,0.715c0.126,0.324,0.209,0.735,0.738,0.569
				c0.068-0.021,0.218,0.052,0.253,0.121c0.209,0.41,0.5,0.478,0.907,0.297c0.071-0.031,0.218,0.11,0.368,0.193
				c0.816-0.272,1.148-0.95,1.202-1.864c0.17,0.035,0.3,0.066,0.431,0.086c0.477,0.07,0.954,0.196,1.431,0.196
				c7.597,0.006,15.194,0.007,22.791,0.006c0.281-0.669,0.392-1.332,0.037-2.042C279.298,772.626,279.355,772.304,279.403,772.044z
				 M250.849,753.926c-0.709,0.568-1.112,1.355-1.401,2.188c-0.221,0.636-0.406,1.299-0.492,1.966
				c-0.167,1.295,0.021,2.559,0.53,3.772c0.373,0.889,0.833,1.745,0.966,2.722c0.143,1.052,0.413,2.083,0.272,3.17
				c-0.093,0.719-0.01,1.459-0.056,2.186c-0.022,0.354-0.158,0.7-0.243,1.05c-0.06,0.002-0.12,0.003-0.181,0.005
				c-0.355-0.615-0.482-1.289-0.4-2.001c0.067-0.58,0.227-1.155,0.244-1.734c0.017-0.577-0.071-1.161-0.152-1.736
				c-0.176-1.255-0.624-2.423-1.075-3.604c-0.618-1.621-0.768-3.314-0.156-4.992c0.257-0.704,0.516-1.42,0.887-2.066
				c0.429-0.747,1.062-1.333,1.884-1.667c0.148-0.059,0.32-0.059,0.61-0.108C251.595,753.41,251.202,753.643,250.849,753.926z
				 M260.791,762.386c-0.629,0.427-1.334,0.59-2.234,0.523c-0.136-0.322-0.003-0.506,0.327-0.517
				C259.506,762.371,260.129,762.386,260.791,762.386z M256.279,760.963c-0.032,0.796-0.174,1.59-0.305,2.379
				c-0.167,1-0.38,1.992-0.56,2.989c-0.175,0.972-0.335,1.947-0.51,2.968c-0.394-0.13-0.447-0.431-0.526-0.73
				c-0.187-0.708-0.06-1.406,0.052-2.102c0.31-1.923,0.714-3.835,0.921-5.769c0.155-1.448,0.156-2.92-0.064-4.382
				c-0.176-1.166-0.77-2.064-1.598-2.847c0.024-0.042,0.049-0.085,0.073-0.127c0.261,0.152,0.572,0.257,0.776,0.465
				c0.765,0.781,1.231,1.721,1.467,2.799C256.321,758.047,256.339,759.505,256.279,760.963z M256.031,751.033
				c-0.323-0.244-0.723-0.395-1.101-0.555c-0.239-0.102-0.501-0.147-0.788-0.461c1.341-0.089,2.378,0.333,3.261,1.058
				c1.285,1.055,2.213,2.381,2.652,4.014c0.111,0.413,0.109,0.806-0.209,1.229c-0.214-0.419-0.436-0.791-0.604-1.187
				C258.542,753.471,257.46,752.111,256.031,751.033z M257.132,770.363c-0.323-1.076-0.08-3.509,0.44-4.406
				C257.722,767.536,257.498,769.777,257.132,770.363z M266.668,767.653c-1.738,0.004-3.476,0.015-5.214-0.005
				c-0.629-0.007-1.257-0.119-1.886-0.131c-0.459-0.008-0.919,0.069-1.378,0.108c-0.012-0.045-0.024-0.09-0.036-0.136
				c0.357-0.042,0.714-0.121,1.071-0.122c2.423-0.011,4.846-0.008,7.27-0.004c0.274,0.001,0.57-0.055,0.926,0.243
				C267.079,767.628,266.874,767.653,266.668,767.653z M271.756,767.876c0.193-0.083,0.308-0.173,0.422-0.174
				c1.537-0.009,3.075-0.007,4.612-0.007C276.265,767.983,273.111,768.027,271.756,767.876z"/>
		</g>
		<path fill="#BABABA" d="M279.522,773.122c0.006,0.019,0.012,0.037,0.017,0.056C279.534,773.159,279.529,773.14,279.522,773.122z
			 M279.621,773.599c-0.002-0.02-0.004-0.04-0.006-0.06C279.617,773.559,279.619,773.579,279.621,773.599z M279.625,773.678
			c0.001,0.02,0.002,0.039,0.002,0.059C279.627,773.717,279.626,773.697,279.625,773.678z M279.564,773.262
			c0.005,0.02,0.01,0.039,0.014,0.059C279.573,773.301,279.569,773.281,279.564,773.262z M279.422,774.747
			c0.011-0.028,0.021-0.057,0.031-0.085C279.443,774.691,279.432,774.719,279.422,774.747z M287.465,773.151
			c0.042,0.576,0.095,1.152,0.092,1.729C287.56,774.303,287.507,773.727,287.465,773.151z M252.767,774.211
			c0.034-0.016,0.07-0.031,0.103-0.048c-0.675-0.122-1.32-0.031-1.964,0.058c-0.004-0.014-0.008-0.027-0.013-0.041
			c-0.064-0.008-0.127-0.016-0.19-0.024c-0.004,0.04-0.015,0.081-0.038,0.124c-0.013,0.024-0.031,0.047-0.053,0.069
			C251.323,774.262,252.028,774.121,252.767,774.211z M287.457,773.036c-0.002-0.031-0.004-0.062-0.006-0.093
			C287.453,772.974,287.455,773.005,287.457,773.036z M287.434,772.656c0.001,0.029,0.003,0.058,0.005,0.087
			C287.437,772.714,287.435,772.685,287.434,772.656z M279.595,773.401c0.004,0.02,0.007,0.04,0.01,0.06
			C279.602,773.441,279.598,773.421,279.595,773.401z M279.536,774.402c-0.007,0.025-0.014,0.051-0.022,0.076
			C279.521,774.453,279.529,774.428,279.536,774.402z M279.595,774.137c-0.004,0.024-0.009,0.047-0.014,0.071
			C279.586,774.184,279.591,774.16,279.595,774.137z M279.569,774.27c-0.005,0.025-0.012,0.049-0.018,0.074
			C279.557,774.319,279.563,774.295,279.569,774.27z M279.487,773.028c-0.006-0.016-0.012-0.031-0.018-0.047
			C279.476,772.997,279.481,773.012,279.487,773.028z M279.497,774.534c-0.009,0.026-0.017,0.053-0.026,0.079
			C279.479,774.587,279.488,774.56,279.497,774.534z M279.614,774.003c-0.002,0.021-0.006,0.042-0.009,0.063
			C279.608,774.044,279.612,774.024,279.614,774.003z M290.74,780.939c-0.129-0.041-0.289-0.014-0.427,0.016
			c-0.861,0.19-1.615-0.116-2.012-0.879c-0.265-0.51-0.471-1.05-0.701-1.578c-0.172-0.393-0.222-0.781-0.053-1.202
			c0.065-0.162,0-0.379-0.014-0.57c-0.019-0.266-0.103-0.542-0.06-0.796c0.059-0.351,0.082-0.702,0.084-1.052
			c-1.272,0-2.544,0.001-3.816,0.001c0,0.134,0,0.268,0,0.403c0,0.468-0.295,0.687-0.696,0.885c-0.107,0.4,0.013,0.747,0.294,1.104
			c0.612,0.778,1.156,1.599,1.329,2.612c0.04,0.236,0.063,0.371,0.033,0.474c0.175,0.093,0.359,0.175,0.555,0.239
			c-0.018,1.058-0.476,1.524-1.471,1.5c-0.675-0.016-1.349-0.102-2.024-0.138c-0.324-0.017-0.522-0.211-0.575-0.476
			c-0.088-0.44-0.414-0.634-0.73-0.848c-0.383-0.26-0.755-0.551-1.172-0.739c-1.366-0.619-1.45-2.933-0.064-3.688
			c0.27-0.147,0.5-0.368,0.794-0.59c-0.272-0.168-0.506-0.314-0.764-0.473c0.057-0.12,0.11-0.24,0.157-0.359
			c-0.012,0.032-0.025,0.063-0.038,0.095c-7.597,0.001-15.194,0-22.791-0.006c-0.477,0-0.954-0.125-1.431-0.196
			c-0.131-0.02-0.261-0.052-0.431-0.086c-0.053,0.914-0.386,1.591-1.202,1.864c-0.15-0.083-0.298-0.224-0.368-0.193
			c-0.407,0.18-0.698,0.112-0.907-0.297c-0.035-0.069-0.185-0.142-0.253-0.121c-0.529,0.166-0.612-0.245-0.738-0.569
			c-0.082-0.211-0.149-0.429-0.215-0.648c-0.232-0.021-0.44-0.07-0.606-0.151c-0.1,0.047-0.211,0.077-0.3,0.076
			c-0.896-0.014-1.348,0.543-1.765,1.247c0.519,0.345,0.825,0.778,0.914,1.377c0.036,0.244,0.173,0.494,0.531,0.507
			c0.461,0.017,0.918,0.117,1.379,0.149c1.577,0.112,3.156,0.21,4.734,0.312c0.38,0.024,0.776,0.122,1.136,0.048
			c0.534-0.11,1.047-0.159,1.587-0.065c0.281,0.048,0.579,0.008,0.869-0.002c1.342-0.052,2.685-0.163,4.025-0.143
			c0.888,0.014,1.737-0.069,2.596-0.281c0.966-0.236,1.94-0.445,2.961-0.247c0.469,0.091,0.972,0.034,1.457,0.002
			c0.509-0.033,1.026-0.208,1.522-0.157c1.292,0.134,2.539,0.479,3.709,1.064c0.281,0.141,0.575,0.288,0.615,0.698
			c-0.579,0.75-1.208,1.513-0.89,2.495c0.578,0.295,1.108,0.532,1.602,0.83c0.343,0.207,0.448,0.787,1.018,0.651
			c0.182,0.449,0.491,0.453,0.953,0.444c1.014-0.018,2.031,0.132,3.047,0.208c0.219,0.017,0.456,0.059,0.656-0.002
			c0.191-0.058,0.346-0.236,0.525-0.369c0.04,0.136,0.067,0.227,0.08,0.271c0.285-0.09,0.558-0.17,0.827-0.262
			c0.158-0.054,0.319-0.111,0.462-0.194c0.36-0.208,0.663-0.555,1.158-0.398c0.079,0.025,0.214-0.088,0.308-0.157
			c0.396-0.294,0.827-0.325,1.313-0.303c0.752,0.034,1.562,0.189,2.167-0.489c0.028-0.031,0.085-0.036,0.143-0.06
			c0.089,0.106,0.18,0.217,0.269,0.322c0.556-0.081,0.552-0.086,1.003-0.453c0.108-0.088,0.256-0.182,0.385-0.181
			c0.206,0.001,0.402-0.026,0.591-0.072C291.598,781.189,291.164,781.073,290.74,780.939z M248.09,772.65
			c-0.032,0.038-0.067,0.079-0.107,0.121c0.043,0.016,0.083,0.029,0.125,0.045C248.101,772.76,248.095,772.705,248.09,772.65z
			 M279.626,773.819c0,0.018,0,0.036-0.001,0.054C279.626,773.855,279.626,773.837,279.626,773.819z M317.43,776.758
			c-0.704,0.106-1.374-0.275-1.638-0.947c-0.097-0.246-0.213-0.498-0.236-0.756c-0.032-0.344-0.182-0.479-0.51-0.474
			c-0.489,0.008-0.978,0.008-1.468,0.009c-4.117,0.001-8.233-0.007-12.349,0.006c-0.85,0.002-1.696-0.013-2.553,0.112
			c-1.105,0.161-2.239,0.169-3.36,0.17c-0.877,0.001-1.755,0-2.632,0.001c0.007,0.038,0.015,0.077,0.021,0.115
			c0.117,0.739,0.191,1.485,0.306,2.224c0.027,0.173,0.117,0.445,0.232,0.477c0.15,0.042,0.281,0.106,0.401,0.182
			c0.961,0.054,1.923,0.153,2.884,0.14c1.586-0.021,3.173-0.212,4.755-0.168c1.241,0.034,2.464-0.229,3.708-0.078
			c0.914,0.111,1.843,0.106,2.767,0.124c0.586,0.011,1.221,0.218,1.651-0.288c0.291,0.184,0.534,0.435,0.816,0.492
			c0.399,0.081,0.855,0.114,1.236-0.001c1.086-0.326,2.164,0.062,3.249-0.039c0.497-0.047,1.008,0.045,1.513-0.112
			c0.298-0.092,0.638-0.18,0.934-0.127c0.758,0.135,1.189-0.288,1.599-0.798c0.107-0.132,0.209-0.267,0.316-0.398
			c0.49-0.599,0.554-0.763,0.213-1.291C319.004,776.18,318.354,776.618,317.43,776.758z"/>
	</g>
	<g id="Table">
		<path fill="#6E6E6E" d="M329.07,768.562c0-0.196,0-0.392,0-0.588c0.049-0.472,0.127-0.943,0.141-1.416
			c0.028-0.933,0.148-1.067,1.105-1.083c1.042-0.016,2.085-0.026,3.127-0.05c0.16-0.004,0.319-0.063,0.478-0.098
			c0.049,0,0.098,0,0.147,0c0.941,0.032,1.882,0.076,2.824,0.091c0.333,0.005,0.666-0.059,0.999-0.091c12.105,0,24.211,0,36.315,0
			c0,0.147,0,0.294,0,0.441c-0.05,0.169-0.142,0.337-0.144,0.507c-0.012,1.317-0.007,2.635-0.007,4.042c-1.592,0-3.118,0-4.756,0
			c0,0.768-0.003,1.448,0.001,2.128c0.006,0.997,0.006,1.994,0.035,2.99c0.009,0.292-0.041,0.453-0.304,0.654
			c-0.544,0.415-1.107,0.264-1.679,0.224c-0.241-0.017-0.48-0.081-0.72-0.086c-0.306-0.006-0.728,0.156-0.891,0.011
			c-0.216-0.192-0.239-0.609-0.324-0.934c-0.037-0.139-0.032-0.291-0.032-0.438c-0.002-1.174-0.008-2.347,0.001-3.521
			c0.005-0.654,0.04-0.635,0.721-0.659c0.443-0.016,0.953,0.063,1.393-0.431c-0.267-0.032-0.425-0.074-0.581-0.067
			c-0.8,0.039-1.599,0.132-2.399,0.133c-8.57,0.01-17.141,0.007-25.712,0.007c-0.287,0-0.574,0-0.918,0c0,0.316,0,0.556,0,0.796
			c0,1.469,0.001,2.939,0,4.408c-0.001,0.775-0.559,1.231-1.308,1.098c-0.276-0.048-0.567-0.06-0.848-0.037
			c-0.682,0.055-1.364,0.143-1.848-0.363c-0.041-1.801-0.08-3.537-0.122-5.367c0.425-0.023,0.853-0.059,1.28-0.065
			c0.243-0.004,0.43-0.026,0.43-0.439c-2.064-0.084-4.108,0.01-6.041-0.047C329.303,769.677,329.187,769.12,329.07,768.562z"/>
		<path fill="#BABABA" d="M370.621,775.43c0.137-0.369-0.067-0.596-0.284-0.786c-0.359,0.064-0.688,0.124-1.014,0.182
			c0.004,0.203,0.008,0.406,0.014,0.609c0.009,0.292-0.041,0.453-0.304,0.654c-0.544,0.415-1.107,0.264-1.679,0.224
			c-0.241-0.017-0.48-0.081-0.72-0.086c-0.306-0.006-0.728,0.156-0.891,0.011c-0.216-0.192-0.239-0.609-0.324-0.934
			c-0.037-0.139-0.032-0.291-0.032-0.438c0-0.141-0.001-0.281-0.001-0.422c-0.278,0.006-0.556,0.009-0.832,0.031
			c-0.966,0.079-1.93,0.201-2.898,0.25c-0.457,0.023-0.921-0.108-1.383-0.121c-0.827-0.023-1.656,0.001-2.484-0.019
			c-0.203-0.005-0.456-0.047-0.593-0.173c-0.251-0.232-0.515-0.235-0.814-0.216c-1.341,0.087-2.681,0.179-4.023,0.242
			c-1.119,0.052-2.241,0.062-3.362,0.096c-1.287,0.038-2.57,0.14-3.863,0.072c-1.343-0.071-2.693-0.025-4.04-0.004
			c-0.311,0.005-0.696,0.019-0.912,0.196c-0.338,0.276-0.67,0.235-1.028,0.214c-0.421-0.025-0.842-0.054-1.262-0.084
			c0,0.201,0,0.402,0,0.603c-0.001,0.775-0.559,1.231-1.308,1.098c-0.276-0.048-0.567-0.06-0.848-0.037
			c-0.682,0.055-1.364,0.143-1.848-0.363c-0.011-0.504-0.023-1.003-0.034-1.501c-1.02-0.104-2.06-0.219-2.879,0.81
			c0.58,0.196-0.09,1.083,0.602,1.155c0.042,0.218,0.022,0.409,0.107,0.505c0.339,0.383,0.813,0.471,1.297,0.477
			c1.336,0.015,2.676-0.067,3.991,0.284c0.169,0.045,0.4-0.007,0.559-0.093c0.343-0.186,0.644-0.19,1.035-0.094
			c0.559,0.137,1.161,0.433,1.735-0.067c0.136-0.119,0.422-0.088,0.639-0.089c1.605-0.007,3.211-0.003,4.817-0.003
			c0,0.035,0.001,0.069,0.001,0.104c0.135,0.085,0.272,0.244,0.406,0.241c0.385-0.009,0.766-0.108,1.151-0.126
			c1.315-0.062,2.632-0.145,3.948-0.137c0.793,0.005,1.584,0.201,2.379,0.241c0.596,0.03,1.214,0.017,1.793-0.111
			c0.359-0.079,0.663-0.358,1.076-0.159c0.12,0.057,0.289,0.019,0.436,0.012c0.995-0.047,1.989-0.115,2.984-0.142
			c2.294-0.061,4.59-0.077,6.884-0.162c1.076-0.04,2.176-0.064,3.152-0.629c0.291-0.169,0.583-0.367,0.8-0.616
			c0.068-0.079-0.111-0.369-0.169-0.565C370.586,775.523,370.605,775.471,370.621,775.43z"/>
	</g>
	<path id="Bowl" d="M348.871,763.327c0.188,0.711,0.63,1.312,0.871,2.001c5.087,0,10.173,0,15.26,0
		c0.053-0.074,0.096-0.156,0.127-0.233c0.192-0.489,0.357-0.991,0.513-1.493c0.28-0.9,0.71-1.694,1.508-2.243
		c0-0.098,0-0.196,0-0.294c-0.653-0.049-1.307-0.141-1.96-0.14c-5.476,0.011-10.952,0.042-16.428,0.06
		c-0.486,0.002-0.973-0.043-1.46-0.067c0,0.098,0,0.196,0,0.294c0.27,0.273,0.544,0.543,0.811,0.819
		C348.47,762.4,348.738,762.824,348.871,763.327z M360.854,762.586c0.016-0.275,0.039-0.55,0.069-0.934
		c0.433,0,0.897-0.022,1.357,0.012c0.16,0.012,0.359,0.124,0.455,0.254c0.164,0.222,0.035,0.408-0.189,0.534
		c-0.036,0.02-0.049,0.079-0.084,0.139c0.124,0.385,0.253,0.782,0.394,1.217c-0.607,0.184-1.224,0.308-1.938,0.051
		c0.246-0.396,0.345-0.755-0.03-1.072C360.847,762.753,360.85,762.653,360.854,762.586z"/>
	<path id="Stem" d="M353.351,722.422c-0.871-1.477-1.533-3.089-2.814-4.296l0.024,0.024c-0.318-0.48-0.553-1.06-0.976-1.411
		c-0.415-0.345-0.563-0.743-0.73-1.194c-0.228-0.62-0.501-1.224-0.758-1.833c-0.234-0.552-0.478-1.099-0.707-1.653
		c-0.238-0.572-0.465-1.15-0.71-1.76c0.376-0.254,0.851-0.543,1.288-0.881c0.299-0.232,0.518-0.174,0.751,0.059
		c0.121,0.121,0.303,0.224,0.35,0.37c0.218,0.675,0.777,1.027,1.288,1.423c0.608,0.472,0.894,1.116,1.068,1.84
		c0.087,0.36,0.231,0.706,0.402,1.215c0.361-0.808,0.492-1.463,0.483-2.18c-0.008-0.669,0.1-1.342,0.2-2.007
		c0.024-0.158,0.219-0.291,0.382-0.495c0.191,0.779,0.35,1.423,0.504,2.067c0.009,0.038-0.013,0.09-0.033,0.129
		c-0.319,0.631,0.016,1.174,0.242,1.725c0.153,0.375,0.17,0.723,0.092,1.132c-0.129,0.667-0.147,1.356-0.193,2.036
		c-0.007,0.103,0.085,0.22,0.148,0.319c0.18,0.287,0.394,0.556,0.548,0.856c0.218,0.42,0.423,0.851,0.583,1.295
		c0.31,0.864,0.624,1.717,1.297,2.384c0.096,0.096,0.151,0.248,0.191,0.384c0.168,0.56,0.529,0.927,1.076,1.114
		c0.308,0.105,0.465,0.309,0.55,0.622c0.086,0.316,0.239,0.613,0.38,0.962c0.106-0.111,0.166-0.157,0.16-0.17
		c-0.276-0.593-0.562-1.171-0.59-1.855c-0.011-0.294-0.172-0.619-0.355-0.861c-0.43-0.569-0.473-1.214-0.476-1.878
		c-0.005-1.004-0.022-2.008,0-3.012c0.009-0.456,0.03-0.936,0.179-1.358c0.103-0.288,0.393-0.596,0.677-0.72
		c0.853-0.372,1.726-0.721,2.796-0.79c0.17,1.609,0.259,3.219,0.882,4.894c0.47-1.436,0.87-2.756,1.338-4.051
		c0.312-0.863,0.708-1.697,1.092-2.533c0.191-0.415,0.499-0.782,0.648-1.208c0.161-0.462,0.478-0.682,0.896-0.883
		c0.26,0.38,0.28,0.724,0.141,1.153c-0.489,1.511-0.912,3.043-1.389,4.559c-0.515,1.634-1.079,3.252-1.589,4.888
		c-0.172,0.552-0.282,1.128-0.358,1.701c-0.093,0.7-0.111,1.409-0.18,2.113c-0.071,0.726-0.171,1.449-0.244,2.174
		c-0.034,0.34-0.021,0.684-0.05,1.025c-0.054,0.63-0.127,1.259-0.186,1.889c-0.036,0.385-0.079,0.77-0.084,1.155
		c-0.01,0.778,0.009,1.555,0.007,2.332c-0.001,0.514-0.029,1.028-0.027,1.542c0.004,1.389-0.172,2.756-0.411,4.122
		c-0.159,0.906-0.194,1.832-0.331,2.743c-0.305,2.037-0.26,4.086-0.309,6.135c-0.028,1.136-0.29,2.265-0.377,3.402
		c-0.107,1.396-0.54,2.763-0.221,4.204c0.219,0.988,0.229,2.023,0.32,3.038c0.089,0.985-0.251,2.272-0.251,2.081
		c-0.47,0.098-2.1-0.107-2.52-0.035c-0.478,0.081-1.005-0.46-0.932-0.931c0.023-0.143,0.075-0.321,0.018-0.433
		c-0.413-0.795-0.152-1.615-0.14-2.43c0.023-1.616-0.072-3.237,0.027-4.847c0.117-1.892,0.17-3.791,0.523-5.668
		c0.242-1.287,0.359-2.6,0.479-3.905c0.132-1.432,0.165-2.873,0.313-4.303c0.133-1.278,0.386-2.544,0.54-3.821
		c0.048-0.396-0.009-0.821-0.1-1.214c-0.325-1.406-1.008-2.661-1.652-3.941c-0.517-1.03-0.823-2.163-1.307-3.212
		c-0.504-1.092-1.107-2.139-1.676-3.2c-0.04-0.074-0.152-0.109-0.231-0.162L353.351,722.422z M325.247,709.016
		c-0.087,0.073-0.17,0.152-0.263,0.219c-0.292,0.212-0.686,1.239-0.534,1.543c0.291,0.581,0.555,1.201,0.965,1.693
		c0.888,1.065,1.859,2.061,2.799,3.083c0.082,0.089,0.182,0.161,0.274,0.241c0.568,0.495,1.14,0.988,1.705,1.486
		c0.927,0.818,1.521,1.892,2.22,2.889c1.281,1.827,2.601,3.628,3.911,5.436c0.469,0.647,0.962,1.276,1.433,1.921
		c0.975,1.341,1.95,2.681,2.909,4.033c0.276,0.389,0.556,0.794,0.73,1.233c0.218,0.552,0.301,1.156,0.495,1.72
		c0.259,0.751,0.612,1.471,0.849,2.227c0.453,1.446,0.76,2.942,1.292,4.355c1.049,2.788,1.608,5.704,2.377,8.563
		c0.331,1.232,0.486,2.511,0.75,3.762c0.104,0.49,0.333,0.954,0.418,1.445c0.141,0.813,0.18,1.644,0.32,2.457
		c0.171,0.994,0.246,2.035,1.01,2.816c0.124,0.127,0.285,0.265,0.447,0.295c0.294,0.054,0.604,0.012,0.903,0.045
		c0.469,0.05,0.772,0.036,1.102-0.19c0.272-0.187,0.107-0.798,0.054-1.043c-0.416-1.952-0.816-3.908-1.277-5.85
		c-0.395-1.664-0.888-3.306-1.29-4.969c-0.249-1.027-0.375-2.085-0.618-3.114c-0.488-2.064-1.159-4.073-1.947-6.042
		c-0.071-0.177-0.108-0.369-0.157-0.554c-0.278-1.045-0.495-2.111-0.848-3.13c-0.447-1.292-1.005-2.544-1.511-3.816
		c-0.07-0.176-0.188-0.371-0.163-0.54c0.1-0.674-0.087-1.302-0.252-1.934c-0.213-0.812-0.486-1.611-0.662-2.431
		c-0.145-0.683-0.181-1.39-0.276-2.086c-0.23-1.7-0.546-3.393-0.672-5.1c-0.09-1.208,0.072-2.436,0.125-3.654
		c0.004-0.095,0.015-0.214,0.072-0.278c0.39-0.436,0.473-0.998,0.604-1.527c0.199-0.807,0.525-1.556,0.945-2.26
		c0.206-0.345,0.056-0.647-0.098-0.861c-0.095-0.132-0.507-0.152-0.709-0.064c-0.317,0.138-0.723,0.352-0.832,0.634
		c-0.25,0.65-0.682,1.167-1.019,1.75c-0.592,1.028-0.828,2.188-0.861,3.352c-0.036,1.314,0.022,2.638,0.141,3.948
		c0.123,1.349,0.37,2.686,0.559,4.029c0.057,0.404,0.1,0.809,0.158,1.29c-0.446-0.521-0.824-0.961-1.203-1.401
		c-0.446-0.518-0.963-0.991-1.324-1.564c-0.555-0.88-1.052-1.789-1.727-2.597c-0.65-0.781-1.172-1.667-1.814-2.456
		c-0.66-0.811-0.954-1.777-1.322-2.718c-0.032-0.082-0.033-0.179-0.034-0.269c-0.011-0.703-0.011-1.406-0.031-2.109
		c-0.024-0.891-0.076-1.782-0.092-2.674c-0.007-0.372-0.323-0.853-0.671-0.926c-0.3-0.064-0.641,0.207-0.75,0.622
		c-0.29,1.102-0.221,2.214-0.083,3.329c0.05,0.408,0.066,0.82,0.098,1.232c-0.692-0.681-1.372-1.262-1.942-1.936
		c-0.765-0.908-1.454-1.879-2.155-2.84c-0.313-0.43-0.62-0.669-1.211-0.486c-0.31,0.096-0.785,0.281-1.025-0.23
		C325.444,709.016,325.345,709.016,325.247,709.016z M363.621,760.47c0.37-0.148,0.752-0.119,1.104-0.301
		c0.163-0.084,0.35-0.266,0.382-0.431c0.083-0.435,0.234-0.94,0.091-1.317c-0.232-0.61-0.202-1.183-0.1-1.774
		c0.134-0.78,0.219-1.589,0.497-2.321c0.809-2.128,1.911-4.12,3.024-6.104c0.885-1.578,1.955-3.015,3.24-4.285
		c0.939-0.928,1.929-1.806,2.865-2.737c1.245-1.238,2.531-2.422,4.005-3.385c0.747-0.489,1.467-1.037,2.266-1.424
		c1.009-0.489,2.099-0.808,3.126-1.263c0.499-0.221,0.959-0.25,1.48-0.154c0.596,0.109,1.21,0.2,1.813,0.179
		c0.793-0.026,1.584-0.16,2.373-0.264c0.525-0.068,1.055-0.129,1.567-0.256c1.515-0.376,3.022-0.787,4.535-1.174
		c0.673-0.172,1.358-0.3,2.028-0.485c1.014-0.28,2.088-0.33,3.055-0.798c0.144-0.07,0.335-0.092,0.495-0.071
		c0.48,0.065,0.851-0.148,1.174-0.446c0.258-0.239,0.466-0.531,0.707-0.811c-0.156-0.044-0.439-0.037-0.537-0.168
		c-0.397-0.527-1.225-0.138-1.558-0.77c-0.022-0.041-0.232-0.001-0.348,0.03c-2.005,0.538-4.01,1.078-6.014,1.624
		c-0.652,0.178-1.293,0.402-1.953,0.55c-0.564,0.127-1.145,0.184-1.721,0.257c-0.48,0.06-0.963,0.135-1.445,0.138
		c-0.485,0.003-0.97-0.101-1.455-0.108c-0.414-0.006-0.829,0.059-1.258,0.095c0.916-0.776,1.806-1.52,2.681-2.281
		c0.218-0.189,0.555-0.449,0.539-0.654c-0.031-0.417,0.279-0.488,0.464-0.684c0.114-0.122,0.267-0.21,0.412-0.3
		c0.324-0.202,0.33-0.505,0.158-0.763c-0.31-0.467-0.678-0.894-1.102-1.438c-0.306,0.316-0.569,0.553-0.787,0.824
		c-0.196,0.245-0.287,0.607-0.525,0.78c-0.954,0.694-1.727,1.621-2.857,2.096c-2.213,0.931-4.15,2.398-6.361,3.345
		c-0.395,0.169-0.735,0.464-1.104,0.695c-1.469,0.919-2.824,1.986-4.071,3.189c-0.687,0.663-1.302,1.411-2.043,2.004
		c-1.697,1.357-3.116,2.939-4.2,4.818c-0.365,0.634-0.669,1.302-1.025,1.941c-0.125,0.224-0.282,0.51-0.493,0.592
		c-0.461,0.181-0.674,0.546-0.886,0.925c-1.142,2.046-2.126,4.167-2.842,6.399c-0.311,0.969-0.484,1.983-0.72,2.976
		c-0.112,0.474-0.248,0.943-0.333,1.421c-0.169,0.954,0.233,1.62,1.067,2.087C363.229,760.47,363.425,760.47,363.621,760.47z
		 M299.959,729.599c0.214-0.027,0.431-0.043,0.642-0.085c0.564-0.112,1.121-0.294,1.691-0.345c1.463-0.128,2.822,0.419,4.185,0.811
		c0.758,0.219,1.457,0.482,2.303,0.287c-0.111,0.186-0.306,0.264-0.429,0.407c-0.526,0.608-1.049,1.222-1.535,1.862
		c-0.158,0.208-0.199,0.505-0.312,0.81c0.731-0.046,0.955-0.551,1.252-0.947c0.586-0.783,1.2-1.53,1.985-2.131
		c1.124-0.862,2.481-0.986,3.794-1.256c1.202-0.248,2.42-0.438,3.602-0.759c0.829-0.225,1.592-0.684,2.415-0.936
		c0.632-0.194,1.313-0.296,1.974-0.306c0.296-0.005,0.58,0.087,0.904-0.009c0.761-0.226,1.534-0.427,2.315-0.563
		c0.665-0.117,1.382-0.289,2.016-0.153c1.193,0.257,2.354,0.688,3.506,1.107c0.633,0.23,1.219,0.586,1.829,0.878
		c1.457,0.699,2.914,1.399,4.374,2.088c0.436,0.206,0.888,0.377,1.329,0.573c0.516,0.229,0.958,0.536,1.317,0.996
		c0.562,0.721,1.185,1.394,1.782,2.088c0.056-0.035,0.112-0.07,0.168-0.106c-0.348-0.652-0.647-1.338-1.056-1.949
		c-0.649-0.97-1.371-1.892-2.068-2.83c-0.099-0.134-0.217-0.272-0.358-0.354c-1.364-0.798-2.718-1.615-4.108-2.367
		c-1.744-0.943-3.684-1.322-5.587-1.778c-0.598-0.143-1.254-0.032-1.883-0.053c-1.15-0.038-2.265,0.574-3.433,0.181
		c-0.751,0.223-1.409-0.176-2.105-0.317c-0.596-0.121-0.907-0.525-1.061-1.078c-0.072-0.256-0.136-0.517-0.181-0.779
		c-0.15-0.894-0.518-1.152-1.435-0.99c0.013,0.045,0.012,0.11,0.042,0.131c0.158,0.111,0.351,0.185,0.478,0.321
		c0.15,0.162,0.357,0.383,0.344,0.565c-0.09,1.252,0.485,2.175,1.423,3.01c-0.875,0.256-1.699,0.531-2.541,0.733
		c-0.871,0.209-1.718,0.441-2.523,0.863c-0.809,0.424-1.672,0.748-2.525,1.08c-1.406,0.548-2.831,1.022-4.381,0.865
		c-0.165-0.016-0.337,0.059-0.505,0.06c-0.331,0.001-0.673,0.028-0.993-0.039c-1.617-0.34-3.204-0.863-4.902-0.626
		c-0.633,0.088-1.229,0.214-1.749,0.601C299.959,729.306,299.959,729.453,299.959,729.599z M361.406,760.114
		c0.07-1.124,0.126-2.857,0.151-3.982c0.026-1.1,0.368-2.161,0.246-3.292c-0.096-0.894,0.231-1.813,0.067-2.735
		c-0.024-0.135,0.047-0.285,0.072-0.429c0.12-0.713,0.248-1.425,0.357-2.14c0.079-0.528,0.079-1.074,0.209-1.588
		c0.332-1.312,0.64-2.638,1.1-3.907c0.583-1.607,1.242-3.194,1.986-4.733c0.895-1.854,1.891-3.662,2.885-5.466
		c0.843-1.529,1.848-2.96,2.597-4.55c0.61-1.293,1.395-2.503,2.06-3.771c0.18-0.342,0.401-0.868,0.263-1.13
		c-0.34-0.646-0.879-1.187-1.39-1.837c-1.298,1.626-1.887,3.543-3.089,5.225c-0.449-2.629-0.33-5.262-1.011-7.768
		c-0.532,0.092-0.672,0.435-0.708,0.811c-0.109,1.165-0.32,2.328-0.127,3.507c0.047,0.288,0.067,0.584,0.072,0.877
		c0.025,1.463,0.204,2.904,0.592,4.318c0.051,0.186,0.059,0.43-0.019,0.595c-0.206,0.435-0.453,0.854-0.718,1.257
		c-0.415,0.628-0.871,1.228-1.283,1.858c-0.166,0.254-0.24,0.566-0.392,0.83c-0.215,0.373-0.503,0.707-0.693,1.091
		c-0.4,0.805-0.759,1.63-1.128,2.45c-0.718,1.595-1.666,3.085-1.697,4.95c-0.012,0.753-0.275,1.524-0.252,2.311
		c0.006,0.192-0.059,0.385-0.077,0.579c-0.074,0.822-0.275,1.662-0.173,2.463c0.095,0.748-0.047,1.45-0.096,2.165
		c-0.06,0.891-0.309,1.769-0.1,2.674c0.043,0.186,0.016,0.391-0.003,0.586c-0.089,0.942-0.192,1.882-0.279,2.824
		c-0.05,0.535-0.084,1.071-0.115,1.607c-0.021,0.367-0.096,0.751-0.018,1.097c0.193,0.859-0.021,2.296-0.123,3.126
		c-0.055,0.447,0.07,0.34,0.593,0.47C361.253,760.234,361.392,760.33,361.406,760.114z M353.351,722.422
		c-0.299-0.15-0.597-0.255-0.656-0.687c-0.04-0.286-0.293-0.488-0.698-0.272c0.086,1.317-0.089,2.62-0.331,4.097
		c-0.374-0.828-0.667-1.487-0.969-2.143c-0.283-0.613-0.641-1.199-0.855-1.834c-0.537-1.597-1.124-3.185-1.241-4.897
		c-0.021-0.306-0.002-0.752-0.526-0.946c-0.066,0.191-0.153,0.354-0.174,0.525c-0.027,0.215,0.027,0.441-0.002,0.656
		c-0.135,1,0.069,1.969,0.267,2.936c0.136,0.663,0.389,1.314,0.433,1.98c0.048,0.744,0.213,1.445,0.51,2.104
		c0.863,1.916,1.716,3.833,2.372,5.835c0.14,0.426,0.245,0.829,0.236,1.273c-0.054,2.716-0.118,5.432-0.142,8.148
		c-0.008,0.974,0.115,1.948,0.131,2.922c0.024,1.421,0.048,2.843-0.005,4.263c-0.053,1.415,0.092,2.821,0.039,4.239
		c-0.084,2.24-0.158,4.495,0.274,6.719c0.115,0.591,0.269,2.088,0.446,2.663c0.044,0.141,0.291,0.355,0.371,0.327
		c0.379-0.134,0.778,0.169,1.075-0.087c0.155-0.133,0.165-1.866,0.15-2.121c-0.109-1.897-0.161-3.795-0.4-5.686
		c-0.174-1.374-0.151-2.775-0.174-4.165c-0.026-1.615,0.005-3.231-0.01-4.846c-0.01-1.125-0.099-2.252-0.075-3.376
		c0.046-2.123,0.155-4.243,0.223-6.365c0.044-1.358-0.102-2.717,0.007-4.074c0.057-0.7,0.193-1.396,0.229-2.096
		c0.027-0.526-0.047-1.058-0.08-1.586c-0.031-0.503-0.069-1.006-0.096-1.509c-0.006-0.115,0.056-0.239,0.034-0.347
		c-0.12-0.561-0.257-1.119-0.388-1.677L353.351,722.422z M367.901,743.315c-0.002-0.147,0.123-0.31,0.221-0.444
		c0.236-0.323,0.536-0.607,0.727-0.952c0.433-0.782,0.811-1.595,1.219-2.392c0.172-0.337,0.433-0.646,0.531-1.001
		c0.303-1.091,0.567-2.193,0.807-3.299c0.11-0.504,0.208-0.973,0.702-1.261c0.16-0.094,0.287-0.269,0.39-0.431
		c0.908-1.434,1.99-2.718,3.356-3.727c0.953-0.703,1.92-1.42,2.972-1.945c1.025-0.513,2.167-0.792,3.259-1.169
		c0.089-0.031,0.193-0.034,0.289-0.032c1.419,0.031,2.66-0.616,3.951-1.058c0.942-0.322,1.554-1.131,2.324-1.707
		c0.277-0.208,0.357-0.5,0.113-0.885c-0.41,0.246-0.784,0.505-1.185,0.705c-1.513,0.753-3.026,1.501-4.735,1.736
		c-0.562,0.078-1.105,0.288-1.789,0.474c0.625-0.492,1.123-0.937,1.674-1.299c0.288-0.188,0.339-0.407,0.293-0.672
		c-0.093-0.521-0.224-1.034-0.346-1.583c-0.428,0.05-0.715,0.242-0.927,0.561c-0.32,0.482-0.8,0.768-1.278,1.062
		c-0.411,0.253-0.881,0.457-1.202,0.798c-0.562,0.596-1.226,0.984-1.944,1.347c-1.227,0.622-2.247,1.536-3.236,2.48
		c-0.383,0.365-0.752,0.747-1.202,1.195c0-0.226-0.015-0.326,0.003-0.418c0.246-1.304,0.504-2.606,0.741-3.912
		c0.042-0.232,0.006-0.478,0.006-0.719c-0.062-0.024-0.125-0.049-0.187-0.073c-0.194,0.188-0.429,0.349-0.574,0.571
		c-0.472,0.719-0.846,1.485-1.368,2.192c-0.933,1.265-1.308,2.842-1.843,4.316c-0.403,1.112-0.677,2.27-1.017,3.405
		c-0.089,0.298-0.261,0.577-0.31,0.879c-0.17,1.049-0.279,2.109-0.459,3.156c-0.168,0.973-0.222,1.978-0.671,2.887
		c-0.291,0.589-0.235,1.167,0.024,1.793C367.628,743.829,367.91,743.76,367.901,743.315z M345.243,713.417
		c0.003,0.343,0.011,0.686-0.002,1.028c-0.049,1.25-0.107,2.499-0.16,3.732c-1.288-0.483-1.406-1.81-2.091-2.69
		c-0.671,0.292-0.806,0.519-0.651,1.103c0.061,0.232,0.124,0.483,0.263,0.67c0.723,0.98,1.366,2.003,1.776,3.155
		c0.249,0.701,0.647,1.401,0.684,2.116c0.079,1.559-0.032,3.128-0.059,4.693c-0.019,1.052-0.067,2.106-0.02,3.156
		c0.025,0.576,0.239,1.139-0.019,1.717c-0.051,0.114,0.003,0.289,0.043,0.427c0.095,0.323,0.223,0.637,0.316,0.961
		c0.306,1.061,0.601,2.126,0.903,3.189c0.104,0.366,0.195,0.738,0.33,1.092c0.11,0.286,0.339,0.536,0.406,0.828
		c0.15,0.657,0.191,1.34,0.351,1.995c0.272,1.112,0.139,2.344,0.959,3.299c0.054,0.063,0.035,0.187,0.062,0.28
		c0.245,0.86,0.485,1.723,0.747,2.578c0.048,0.159,0.194,0.287,0.294,0.43c0.047-0.019,0.094-0.038,0.141-0.057
		c-0.019-0.384,0.013-0.779-0.066-1.151c-0.18-0.846-0.437-1.678-0.623-2.523c-0.333-1.514-0.633-3.033-0.659-4.593
		c-0.008-0.485-0.099-0.968-0.106-1.453c-0.009-0.598-0.164-1.213,0.191-1.785c0.075-0.12,0.038-0.324,0.022-0.486
		c-0.073-0.723-0.181-1.444-0.232-2.169c-0.072-1.021-0.103-2.044-0.156-3.065c-0.005-0.096-0.039-0.189-0.057-0.284
		c-0.194-1.018-0.501-2.023-0.38-3.081c0.049-0.431,0.131-0.861,0.14-1.293c0.02-0.951,0.005-1.902,0.001-2.854
		c-0.001-0.121-0.013-0.243-0.03-0.362c-0.116-0.814-0.254-1.626-0.347-2.443s-0.168-1.638-0.197-2.46
		c-0.017-0.455,0.081-0.912,0.116-1.37c0.041-0.547,0.234-1.152,0.066-1.628c-0.292-0.834-0.81-1.59-1.242-2.395
		C345.319,712.171,345.236,712.776,345.243,713.417z M357.175,732.333c-0.156-0.753-0.301-1.508-0.474-2.257
		c-0.052-0.226-0.164-0.613-0.273-0.622c-0.516-0.042-0.459-0.372-0.452-0.703c0.009-0.431-0.23-0.648-0.651-0.766
		c-0.044,0.385-0.547,0.391-0.544,0.877c0.01,1.317-0.07,2.637-0.13,3.955c-0.041,0.879-0.082,1.758-0.169,2.633
		c-0.171,1.743-0.422,3.48-0.548,5.226c-0.116,1.608-0.135,3.225-0.153,4.838c-0.008,0.727,0.096,1.455,0.136,2.184
		c0.098,1.806,0.183,3.612,0.285,5.417c0.034,0.606,0.128,1.21,0.154,1.816c0.063,1.415,0.09,2.832,0.159,4.246
		c0.017,0.343-0.012,0.985,0.063,1.328c0.8-0.261,0.937,0.194,0.961-0.485c0.036-1.045,0.074-2.851,0.149-3.893
		c0.07-0.965,0.22-1.925,0.276-2.891c0.026-0.456-0.149-0.925-0.118-1.38c0.06-0.897-0.144-1.785,0.225-2.706
		c0.269-0.672,0.026-1.509,0.321-2.266c0.186-0.478,0.124-1.053,0.172-1.585c0.106-1.182,0.225-2.364,0.312-3.548
		c0.108-1.458,0.19-2.918,0.282-4.377c0.068-1.064,0.262-2.101,0.521-3.139c0.132-0.527,0.394-1.135,0.049-1.696
		c-0.078-0.127-0.282-0.178-0.428-0.263C357.257,732.294,357.216,732.313,357.175,732.333z M348.473,726.095
		c0.019,1.2-0.001,2.4,0.048,3.599c0.052,1.262,0.17,2.523,0.248,3.785c0.034,0.56,0.036,1.122,0.063,1.682
		c0.02,0.412,0.089,0.824,0.077,1.235c-0.02,0.652-0.151,1.305-0.123,1.954c0.048,1.086,0.18,2.169,0.285,3.252
		c0.03,0.31,0.078,0.62,0.146,0.924c0.131,0.583,0.201,1.201,0.458,1.726c0.143,0.292,0.271,0.547,0.273,0.866
		c0.003,0.49-0.026,0.983,0.017,1.469c0.125,1.405,0.269,2.81,0.429,4.212c0.069,0.598,0.19,1.19,0.309,1.781
		c0.019,0.092,0.176,0.237,0.233,0.222c0.12-0.032,0.251-0.135,0.313-0.244c0.054-0.093,0.023-0.237,0.023-0.359
		c0.001-0.669,0.017-1.339-0.005-2.007c-0.033-0.997-0.107-1.993-0.14-2.99c-0.059-1.785-0.078-3.57-0.161-5.353
		c-0.038-0.793,0.053-1.58,0.007-2.369c-0.032-0.559-0.13-1.116-0.129-1.673c0.002-0.604,0.112-1.206,0.127-1.811
		c0.023-0.954,0.026-1.911,0.001-2.865c-0.025-0.928,0.044-1.89-0.179-2.775c-0.413-1.642-0.774-3.327-1.79-4.799
		C348.663,725.62,348.467,725.751,348.473,726.095z M341.082,743.031c-0.698-0.254-1.197-0.533-1.605-0.942
		c-0.577-0.579-1.255-0.827-2.059-0.725c-0.913,0.115-1.835,0.191-2.735,0.373c-1.331,0.268-2.654,0.306-3.99,0.094
		c-1.194-0.19-2.393-0.222-3.619-0.137c0.19,0.413,0.461,0.561,0.886,0.538c0.748-0.042,1.45,0.123,2.069,0.59
		c0.139,0.105,0.358,0.138,0.542,0.144c0.781,0.023,1.564,0.012,2.346,0.036c0.34,0.011,0.703,0.174,1.012,0.096
		c0.863-0.216,1.723-0.391,2.611-0.49c0.43-0.048,0.796-0.074,1.188,0.111c0.824,0.391,1.658,0.762,2.566,1.176
		c0.226,0.613,0.788,1.014,1.411,1.381c0.434,0.255,0.815,0.598,1.217,0.908c0.115,0.089,0.205,0.256,0.328,0.283
		c0.697,0.151,0.917,0.734,1.188,1.268c0.175,0.346,0.301,0.718,0.485,1.059c0.166,0.309,0.272,0.689,0.773,0.811
		c0.045-0.194,0.142-0.378,0.114-0.54c-0.086-0.498-0.176-1.003-0.346-1.477c-0.333-0.934-0.716-1.849-1.09-2.768
		c-0.037-0.091-0.141-0.176-0.234-0.221c-0.681-0.326-1.317-0.693-1.693-1.396c-0.16-0.3-0.397-0.558-0.563-0.856
		c-0.554-0.994-1.261-1.903-1.532-3.049c-0.166-0.7-0.558-1.307-1.183-1.706c-0.981-0.626-1.963-1.22-3.199-1.261
		c-0.486-0.016-0.973-0.258-1.217-0.806c-0.295-0.662-0.641-1.301-0.982-1.941c-0.113-0.213-0.166-0.596-0.54-0.427
		c-0.318,0.143-0.189,0.446-0.12,0.701c0.031,0.116,0.046,0.239,0.092,0.349c0.215,0.511,0.437,1.019,0.669,1.554
		c-1.191-0.177-2.312-0.515-3.417,0.05c0.089,0.305,0.13,0.568,0.538,0.574c0.948,0.013,1.896,0.118,2.844,0.112
		c0.526-0.003,0.983,0.148,1.331,0.476c0.666,0.629,1.453,0.83,2.324,0.873c0.361,0.017,0.719,0.083,1.095,0.129
		C338.883,739.937,340.178,741.301,341.082,743.031z M366.468,728.631c0.572-0.555,0.689-1.262,0.491-1.874
		c-0.396-1.218-0.188-2.464-0.362-3.689c-0.163-1.147-0.066-2.338-0.021-3.508c0.022-0.549,0.158-1.102,0.302-1.637
		c0.148-0.548,0.373-1.074,0.557-1.611c0.022-0.066,0.016-0.148,0.004-0.219c-0.102-0.596-0.107-1.234-0.336-1.776
		c-0.321-0.756-0.3-1.449-0.022-2.181c0.194-0.511-0.067-0.915-0.284-1.334c-0.495,0.109-0.56,0.499-0.668,0.835
		c-0.497,1.542-0.984,3.086-1.469,4.631c-0.094,0.3-0.301,0.648-0.224,0.903c0.191,0.63-0.299,1.307,0.179,1.89
		c0.064,1.288,0.127,2.577,0.194,3.865c0.008,0.169,0.036,0.337,0.053,0.505c0.087,0.893,0.182,1.785,0.256,2.679
		c0.026,0.315-0.031,0.638,0.001,0.952c0.104,1.001,0.232,1.999,0.351,2.994C365.802,729.57,366.062,729.025,366.468,728.631z
		 M362.736,753.55c0.143-0.656,0.23-1.329,0.434-1.965c0.354-1.097,0.743-2.185,1.187-3.249c0.305-0.73,0.715-1.419,1.108-2.109
		c0.081-0.143,0.284-0.264,0.451-0.3c0.428-0.092,0.542-0.352,0.498-0.741c-0.022-0.193-0.052-0.386-0.057-0.579
		c-0.012-0.483-0.051-0.97-0.005-1.448c0.05-0.523,0.192-1.035,0.313-1.549c0.255-1.08,0.313-2.205,0.492-3.305
		c0.15-0.927,0.355-1.846,0.539-2.767c0.05-0.248,0.114-0.492,0.172-0.739c-0.045-0.03-0.09-0.059-0.135-0.088
		c-0.096,0.091-0.225,0.165-0.284,0.276c-0.311,0.596-0.492,1.31-0.936,1.773c-0.458,0.476-0.623,1.007-0.778,1.575
		c-0.085,0.311-0.15,0.572-0.465,0.754c-0.159,0.092-0.267,0.346-0.315,0.546c-0.257,1.08-0.459,2.176-0.738,3.251
		c-0.338,1.308-0.747,2.596-1.1,3.9c-0.2,0.74-0.392,1.487-0.511,2.243c-0.108,0.696-0.107,1.408-0.165,2.112
		c-0.077,0.939-0.165,1.878-0.253,2.879C362.657,753.889,362.661,753.89,362.736,753.55z M334.374,711.135
		c0.169,1.243,0.621,2.438,0.595,3.715c-0.005,0.223,0.14,0.455,0.237,0.674c0.533,1.192,1.066,2.384,1.615,3.569
		c0.152,0.328,0.312,0.675,0.555,0.933c0.348,0.369,0.558,0.776,0.677,1.261c0.074,0.303,0.147,0.7,0.363,0.85
		c0.343,0.239,0.422,0.541,0.524,0.882c0.036,0.121,0.171,0.213,0.242,0.297c0.533-0.087,0.689-0.386,0.621-0.838
		c-0.026-0.166-0.041-0.336-0.086-0.498c-0.434-1.595-0.736-3.206-0.653-4.87c0.028-0.562,0.013-1.126,0.016-1.689
		c0.001-0.154,0-0.309,0-0.482c-0.727,0.346-1.65,0.281-1.794,1.348c-1.171-1.817-1.555-3.836-2.343-5.76
		C334.373,710.793,334.333,710.834,334.374,711.135z M364.657,730.885c0.018-1.464-0.133-2.91-0.299-4.363
		c-0.132-1.163-0.1-2.344-0.152-3.517c-0.023-0.51-0.043-1.024-0.13-1.524c-0.027-0.154-0.272-0.272-0.418-0.406
		c-0.11,0.138-0.23,0.269-0.324,0.416c-0.034,0.053-0.007,0.143-0.007,0.217c-0.019,2.135-0.586,4.209-0.716,6.332
		c-0.041,0.677-0.07,1.355-0.125,2.031c-0.034,0.408-0.136,0.812-0.153,1.22c-0.014,0.357,0.011,0.727,0.092,1.074
		c0.071,0.306,0.099,0.576,0.07,0.905c-0.067,0.751-0.119,1.494-0.335,2.221c-0.035,0.118,0.042,0.269,0.066,0.393
		c0.363,0.073,0.581-0.06,0.65-0.366c0.25-1.121,0.777-2.118,1.313-3.119c0.129-0.241,0.104-0.566,0.169-0.974
		C364.619,731.419,364.653,731.192,364.657,730.885z M374.533,724.024c0.119,0.461,0.045,0.843-0.109,1.255
		c-0.194,0.519-0.325,1.064-0.556,1.564c-0.133,0.288-0.065,0.507,0.12,0.64c0.251,0.181,0.455-0.023,0.601-0.234
		c0.345-0.493,0.79-0.786,1.394-0.935c0.428-0.106,0.827-0.394,1.197-0.659c0.666-0.475,1.311-0.98,1.944-1.499
		c0.257-0.211,0.494-0.466,0.673-0.744c0.086-0.133,0.014-0.367,0.014-0.587c-0.861,0.314-1.621,0.591-2.4,0.873
		c0.024-0.381,0.241-0.876-0.219-0.966c-0.497-0.096-0.307-0.733-0.766-0.753c-0.087-0.003-0.176,0.039-0.244,0.056
		c-0.084-0.282-0.165-0.552-0.247-0.828C374.986,721.594,374.269,723.009,374.533,724.024z M369.361,747.797
		c-0.162,0.157-0.377,0.285-0.476,0.474c-0.495,0.951-0.995,1.902-1.425,2.883c-0.483,1.105-0.812,2.285-1.357,3.356
		c-0.559,1.098-0.635,2.216-0.535,3.385c0.041,0.472,0.153,0.937,0.195,1.409c0.028,0.314,0.184,1.153,0.462,1.15
		c0.265-0.003,0.479-0.804,0.488-1.139c0.008-0.312,0.093-0.625,0.08-0.934c-0.037-0.931,0.658-1.717,0.51-2.665
		c0.507-1.934,1-3.871,1.528-5.799c0.188-0.684,0.462-1.344,0.698-2.016C369.472,747.868,369.416,747.832,369.361,747.797z
		 M377.645,729.297c-0.43,0.36-1.052,0.327-1.428,0.848c-0.567,0.784-1.232,1.488-1.651,2.386c-0.619,1.324-1.324,2.606-1.96,3.922
		c-0.232,0.479-0.484,1.003-0.019,1.56c0.184-0.114,0.392-0.178,0.499-0.32c0.635-0.848,1.388-1.62,1.73-2.66
		c0.447-1.362,1.086-2.629,1.868-3.83c0.379-0.581,0.723-1.187,1.082-1.782C377.726,729.381,377.685,729.339,377.645,729.297z
		 M370.595,722.317c0.114-0.386,0.211-0.835,0.472-1.105c0.498-0.515,0.503-1.114,0.518-1.736c0.004-0.167-0.01-0.349-0.074-0.501
		c-0.072-0.175-0.191-0.34-0.321-0.481c-0.238-0.258-0.744-0.032-0.893-0.478c-0.007-0.022-0.093-0.034-0.136-0.024
		c-0.115,0.028-0.235,0.056-0.34,0.108c-0.894,0.439-1.214,1.161-1,2.154c0.105,0.491,0.16,0.994,0.225,1.493
		c0.039,0.304,0.026,0.617,0.1,0.911c0.016,0.06,0.333,0.011,0.473,0.085c0.107,0.055,0.154,0.225,0.246,0.375
		C370.288,722.966,370.483,722.697,370.595,722.317z M343.663,727.845c0.714-0.167,0.822-0.267,0.841-0.809
		c0.02-0.562-0.078-1.142,0.028-1.684c0.168-0.86-0.102-1.685-0.068-2.53c0.013-0.329-0.064-0.684-0.188-0.991
		c-0.298-0.735-0.645-1.45-0.98-2.17c-0.038-0.083-0.122-0.146-0.199-0.235c-0.18,0.087-0.351,0.17-0.531,0.258
		C342.937,722.449,343.299,725.143,343.663,727.845z M356.424,718.924c-0.026-0.682,0.007-1.368,0.014-2.052
		c0.007-0.713-0.287-1.176-0.906-1.42c-0.421-0.168-0.759,0.008-0.716,0.452c0.074,0.753-0.361,1.613,0.415,2.237
		c-0.009,0.975,0.761,1.679,0.904,2.603c0.021,0.138,0.077,0.298,0.173,0.388c0.075,0.071,0.236,0.05,0.293,0.059
		C356.537,720.402,356.453,719.665,356.424,718.924z M350.56,718.15c-0.177-0.148-0.354-0.296-0.525-0.438
		c-0.556,0.315-0.658,0.54-0.473,1.191c0.309,1.085,0.638,2.164,0.966,3.244c0.045,0.149,0.127,0.287,0.239,0.529
		c0.212-0.207,0.467-0.34,0.476-0.487c0.034-0.558,0.06-1.135-0.046-1.678c-0.159-0.808-0.434-1.592-0.66-2.387L350.56,718.15z
		 M381.637,721.227c0.399-0.599,0.769-1.219,1.12-1.847c0.22-0.392,0.134-0.497-0.357-0.54c-0.093-0.008-0.252,0.009-0.27-0.033
		c-0.227-0.531-0.834-0.483-1.201-0.818c-0.382,0.279-0.293,0.61-0.124,0.952c0.13,0.264,0.125,0.506,0.07,0.817
		c-0.109,0.617-0.19,1.275,0.138,1.99C381.255,721.551,381.503,721.427,381.637,721.227z M362.225,712.849
		c-0.065,0.147-0.178,0.36-0.298,0.381c-0.505,0.089-0.474,0.493-0.5,0.821c-0.041,0.53-0.032,1.067-0.003,1.598
		c0.014,0.245,0.124,0.486,0.184,0.701c0.459,0.029,0.523-0.19,0.548-0.498c0.066-0.822,0.296-1.603,0.668-2.339
		c0.141-0.279,0.313-0.544,0.425-0.834c0.057-0.146,0.01-0.333,0.01-0.535C362.734,712.241,362.409,712.433,362.225,712.849z
		 M344.749,712.278c-0.24,0.057-0.396,0.065-0.523,0.13c-0.221,0.115-0.531,0.218-0.613,0.408c-0.244,0.568-0.511,1.151-0.39,1.897
		c0.832-0.218,0.38,0.708,0.835,0.904c0.121-0.053,0.252-0.109,0.452-0.196C344.591,714.363,344.669,713.333,344.749,712.278z
		 M350.704,709.916c-0.135,0.033-0.283,0.191-0.335,0.328c-0.036,0.093,0.046,0.319,0.135,0.362
		c0.561,0.272,0.868,0.703,0.965,1.313c0.013,0.08,0.168,0.137,0.332,0.262c0.125-0.292,0.312-0.525,0.309-0.755
		c-0.008-0.549-0.106-1.097-0.174-1.702C351.497,709.788,351.093,709.823,350.704,709.916z"/>
	<g id="Room">
		<path fill="#BABABA" d="M241.396,767.975c-0.475-0.034-0.657-0.196-0.684-0.664c-0.01-0.17,0.008-0.342,0.02-0.513
			c0.089-1.268,0.172-2.537,0.274-3.804c0.024-0.3,0.114-0.595,0.174-0.892c0.049-0.004,0.098-0.007,0.147-0.011
			c0.059,0.108,0.17,0.215,0.169,0.322c-0.007,1.125-0.027,2.251-0.056,3.375c-0.013,0.482-0.055,0.963-0.09,1.553
			c0.982,0.044,1.92,0.087,2.823,0.128c0.195-1.959,0.381-3.835,0.57-5.735c-1.266-0.391-2.599-0.099-3.727-0.784
			c0.254-0.133,0.379-0.115,1.486,0.066c0.505,0.082,1.022,0.096,1.53,0.166c0.519,0.071,1.034,0.172,1.557,0.395
			c-0.161,0.084-0.323,0.167-0.513,0.266c0.007-0.011-0.017,0.009-0.015,0.027c0.19,1.811-0.035,3.603-0.257,5.409
			c0.218,0.202,0.721-0.029,0.68,0.571c-0.223,0.072-0.507,0.225-0.802,0.248c-0.559,0.044-1.125,0.033-1.687,0.01
			C242.462,768.085,241.93,768.013,241.396,767.975z M241.871,765.437c0.101,0.217,0.145,0.458,0.226,0.685
			c0.271,0.763,0.732,0.878,1.37,0.369c0.415-0.331,0.36-0.766,0.303-1.199c-0.021-0.157-0.126-0.304-0.216-0.509
			c-0.251-0.087-0.5-0.244-0.748-0.244c-0.285,0.001-0.606,0.085-0.842,0.239C241.771,764.903,241.752,765.183,241.871,765.437z
			 M243.371,764.051c0.469-0.143,0.714-0.498,0.84-0.927c0.183-0.623-0.174-1.047-0.834-1.039c-0.518,0.007-1.073,0.397-1.184,0.893
			c-0.08,0.358-0.048,0.741,0.229,1.018C242.703,764.275,243.044,764.149,243.371,764.051z"/>
		<path fill="#BABABA" d="M239.557,772.689c0.26-0.007,0.524,0.106,0.928,0.196c-0.69,0.105-1.219,0.251-1.749,0.254
			c-1.552,0.009-3.099-0.324-4.7,0.062c0.108-0.429,0.361-0.359,0.555-0.361c1.003-0.012,2.007,0.007,3.009-0.02
			C238.253,772.802,238.904,772.706,239.557,772.689z M244.7,772.821c-0.608,0.009-1.223,0.014-1.823-0.068
			c-0.89-0.123-1.471-0.109-1.988,0.167c1.723,0.067,3.446,0.133,5.169,0.193c0.056,0.002,0.115-0.076,0.303-0.209
			c-0.454-0.129-0.812-0.23-1.152-0.326C245.037,772.664,244.87,772.819,244.7,772.821z M333.813,772.926
			c-4.29-0.025-8.58-0.064-12.87-0.095c0.015,0.128,0.028,0.253,0.037,0.377c0.265,0.007,0.529,0.013,0.794,0.022
			c4.013,0.147,8.033,0.165,12.05,0.162C333.82,773.238,333.816,773.082,333.813,772.926z M399.762,772.863
			c-0.272-0.012-0.543-0.039-0.815-0.036c-8.958,0.091-17.917-0.151-26.876,0.126c-0.922,0.028-1.844,0.044-2.767,0.052
			c0,0.086,0.001,0.172,0.002,0.257c4.984,0.005,9.969,0.043,14.954-0.113c4.92-0.153,9.848-0.029,14.773-0.032
			c0.244,0,0.488-0.027,0.732-0.041C399.764,773.005,399.763,772.934,399.762,772.863z M365.383,772.999
			c-1.519-0.012-3.038-0.03-4.557-0.036c-5.505-0.022-11.011-0.072-16.516-0.087c-2.139-0.005-4.279,0.051-6.419,0.062
			c0,0.15,0,0.3,0,0.45c8.728-0.011,17.456-0.031,26.183-0.111c0.436-0.004,0.872-0.005,1.309-0.007
			C365.383,773.18,365.383,773.089,365.383,772.999z"/>
		<path fill="#BABABA" d="M337.758,727.527c0.466,0.641,0.932,1.282,1.396,1.924c0.06,0.516,0.12,1.032,0.183,1.548
			c-0.457-0.629-0.93-1.246-1.394-1.87c-0.099-0.134-0.217-0.272-0.358-0.354c-0.085-0.05-0.171-0.1-0.256-0.151
			c-0.085-0.671-0.17-1.342-0.255-2.013C337.305,726.916,337.534,727.219,337.758,727.527z M338.301,723.074
			c0.028,0.045,0.059,0.088,0.089,0.131c-0.07-0.495-0.145-0.99-0.223-1.484c-0.046-0.144-0.08-0.299-0.114-0.436
			c-0.119-0.485-0.329-0.891-0.677-1.261c-0.242-0.258-0.402-0.605-0.555-0.933c-0.215-0.463-0.426-0.928-0.636-1.393
			c0.028,0.774,0.03,1.514,0.098,2.245c0.006,0.064,0.013,0.127,0.019,0.19c0.089,0.116,0.179,0.23,0.272,0.343
			C337.248,721.285,337.745,722.194,338.301,723.074z M334.22,729.673c0.045-0.107,0.088-0.215,0.133-0.322
			c-0.454-0.217-0.909-0.435-1.363-0.653c-0.204,0.616-0.266,1.243-0.011,1.901C333.583,730.516,333.951,730.31,334.22,729.673z
			 M333.989,726.692c0.382,0.212,0.763,0.427,1.141,0.646c0.13-0.366,0.257-0.734,0.375-1.104c0.09-0.282,0.303-0.698-0.089-1.089
			C334.824,725.595,334.367,726.119,333.989,726.692z M327.749,724.604c-0.045-0.703-0.089-1.407-0.122-2.111
			c-0.076-1.609-0.121-3.221-0.182-4.909c1.033,0,2.052,0,3.066,0c-0.102-0.104-0.206-0.206-0.317-0.303
			c-0.565-0.498-1.137-0.991-1.705-1.486c-0.092-0.08-0.192-0.153-0.274-0.241c-0.183-0.199-0.367-0.396-0.551-0.594
			c-0.159,0.13-0.291,0.297-0.382,0.519c-0.175-0.217-0.312-0.387-0.443-0.548c-0.704,0.343-1.042,0.997-1.115,1.636
			c-0.121,1.062-0.05,2.152-0.006,3.228c0.062,1.514,0.199,3.026,0.258,4.54c0.003,0.081,0.005,0.162,0.008,0.244
			c0.008,0,0.016,0,0.024,0C326.588,724.596,327.19,724.506,327.749,724.604z M330.746,729.916c0.763-0.198,1.228-0.672,1.54-1.294
			c0.035-0.07,0.069-0.141,0.104-0.211c-0.098-0.047-0.195-0.094-0.293-0.14c-0.377-0.181-0.744-0.385-1.119-0.569
			c-0.039,0.086-0.078,0.171-0.117,0.257C330.581,728.581,330.672,729.225,330.746,729.916z M340.018,738.47
			c-0.063-0.831-0.123-1.664-0.187-2.549c0.288,0,0.53,0,0.772,0c0.614,0,1.229,0.001,1.843,0.002
			c-0.187-0.469-0.389-0.933-0.553-1.41c-0.172-0.5-0.257-1.031-0.427-1.53c-0.29-0.001-0.58-0.001-0.871-0.001
			c0.158,0.309,0.31,0.621,0.473,0.926c-0.056,0.036-0.112,0.071-0.168,0.106c-0.298-0.347-0.603-0.688-0.904-1.033
			c-0.138,0-0.274,0-0.406,0c-0.025-0.187-0.049-0.375-0.073-0.562c-0.135-0.162-0.269-0.326-0.399-0.493
			c-0.359-0.46-0.801-0.767-1.317-0.996c-0.071-0.031-0.143-0.062-0.214-0.092c0.064,0.683,0.122,1.373,0.187,2.106
			c-0.309,0.014-0.546,0.035-0.782,0.035c-0.372,0-0.745,0-1.117,0c0.122,0.406,0.2,0.806-0.116,1.224
			c-0.16,0.212-0.146,0.557-0.208,0.842c-0.08,0.369-0.01,0.665,0.136,0.921c0.778,0,1.556,0,2.335,0
			c0.036,0.348,0.077,0.678,0.11,1.003c0.353,0.188,0.695,0.402,1.037,0.62C339.53,737.821,339.811,738.123,340.018,738.47z
			 M341.868,716.025c-0.022,0.502-0.062,1.006-0.096,1.509c0.324-0.012,0.646-0.04,0.966-0.084c-0.046-0.063-0.09-0.126-0.137-0.189
			c-0.138-0.187-0.202-0.439-0.263-0.67c-0.155-0.584-0.02-0.811,0.651-1.103c0.397,0.511,0.605,1.171,0.96,1.73
			c0.241-0.059,0.482-0.124,0.721-0.197c0.156-0.047,0.311-0.094,0.467-0.141c0.025-0.576,0.05-1.154,0.074-1.733
			c-0.222-0.064-0.443-0.129-0.665-0.193c-0.012,0.155-0.023,0.31-0.035,0.466c-0.2,0.087-0.332,0.144-0.452,0.196
			c-0.455-0.197-0.003-1.122-0.835-0.904c-0.006-0.037-0.01-0.073-0.014-0.11c-0.252,0-0.504,0-0.756,0
			c-0.098,0.408-0.217,0.812-0.514,1.144C341.883,715.811,341.872,715.931,341.868,716.025z M333.403,715.034
			c0.001,0.09,0.002,0.187,0.034,0.269c0.304,0.777,0.561,1.57,1.012,2.281c0.562,0,1.124,0,1.683,0
			c-0.31-0.686-0.619-1.373-0.926-2.061c-0.098-0.218-0.242-0.451-0.237-0.674c0.002-0.083,0.001-0.165-0.001-0.246
			c-0.523,0-1.046,0-1.569,0C333.4,714.747,333.401,714.89,333.403,715.034z M333.366,726.351c0.073-0.162,0.146-0.324,0.217-0.487
			c0.31-0.711,0.58-1.442,0.488-2.249c-0.026-0.233-0.044-0.442-0.395-0.474c-0.321,0.357-0.663,0.737-1.006,1.117
			c0.271-0.921,0.765-1.797,0.691-2.749c-0.183-0.256-0.364-0.514-0.546-0.771c-0.078,0.022-0.163,0.045-0.265,0.074
			c0.039-0.105,0.072-0.207,0.099-0.308c-0.078-0.111-0.158-0.222-0.236-0.333c-0.275-0.391-0.533-0.794-0.802-1.189
			c-0.253,0.221-0.492,0.458-0.662,0.774c-0.653,1.218-1.353,2.412-2.041,3.611c-0.421,0.733-0.421,0.804,0.068,1.417
			c-0.002,0.034-0.004,0.068-0.006,0.102C330.48,725.24,331.983,725.625,333.366,726.351z M340.291,742.684
			c-0.014-0.157-0.029-0.313-0.04-0.471c-0.015-0.216-0.028-0.433-0.04-0.65c-0.713-1.124-1.416-2.208-1.625-3.589
			c-0.129-0.016-0.256-0.034-0.381-0.052c0.053,0.895,0.09,1.791,0.145,2.686c0.017,0.276,0.037,0.551,0.057,0.827
			c0.391,0.113,0.747,0.33,1.07,0.654C339.711,742.324,339.977,742.515,340.291,742.684z M337.34,737.9
			c-0.147,0.168-0.326,0.318-0.527,0.431c-0.05,0.028-0.102,0.054-0.152,0.082c-0.035,0.033-0.069,0.066-0.103,0.1
			c-0.203,0.209-0.375,0.449-0.556,0.679c-0.175,0.22-0.346,0.443-0.518,0.664c0.153-0.451,0.266-0.782,0.345-1.039
			c-0.172,0.074-0.345,0.146-0.52,0.211c-0.431,0.161-0.749,0.109-0.998-0.15c-0.219,0.25-0.438,0.508-0.669,0.769
			c0.309-1.15,0.309-1.15,0.168-1.657c-0.488,0.065-0.768,0.431-0.994,0.784c-0.404,0.631-0.803,1.264-1.197,1.902
			c0.591,0.114,1.108,0.422,1.575,0.872c0.117,0.113,0.21,0.237,0.281,0.367c0.402-0.038,0.804-0.096,1.206-0.177
			c0.563-0.114,1.135-0.186,1.707-0.253c0.277-0.625,0.542-1.255,0.796-1.889C337.375,739.12,337.55,738.616,337.34,737.9z
			 M347.961,716.04c0.01-0.027,0.02-0.054,0.03-0.081c-0.252-0.074-0.544-0.16-0.857-0.252c-0.001,0.013-0.003,0.027-0.004,0.04
			c-0.014,0.186-0.038,0.371-0.062,0.557C347.378,716.213,347.677,716.125,347.961,716.04z M335.92,745.71
			c0.833-0.865,1.147-1.958,1.325-3.108C336.466,743.487,335.895,744.463,335.92,745.71z M339.399,749.06
			c0.035,0.187,0.143,0.419,0.447,0.389c0.413-0.04,0.993-0.585,0.978-1.003c-0.021-0.58-0.091-1.159-0.14-1.738
			c-0.054-0.629-0.102-1.26-0.164-1.889c-0.02-0.203-0.042-0.405-0.065-0.607c-0.064-0.101-0.121-0.205-0.163-0.319
			c-0.61-0.279-1.185-0.537-1.747-0.795c0.079,0.772,0.19,1.543,0.217,2.317C338.805,746.664,339.175,747.848,339.399,749.06z
			 M350.394,750.797c-0.014-0.122-0.026-0.243-0.04-0.365c-0.34-0.127-0.7-0.23-1.051-0.235c0.234,0.872,0.473,1.742,0.692,2.617
			c0.236-0.114,0.459-0.254,0.671-0.416C350.56,751.867,350.456,751.334,350.394,750.797z M343.098,743.453
			c-0.061,0.133-0.105,0.268-0.14,0.404c0.3,0.275,0.656,0.48,1.03,0.666c0.017-0.024,0.035-0.048,0.05-0.074
			c0.249-0.412,0.48-0.835,0.693-1.265c-0.184-0.614-0.383-1.223-0.603-1.827C343.775,742.001,343.437,742.716,343.098,743.453z
			 M343.96,740.889c-0.254-0.707-0.459-1.432-0.657-2.161c-0.367,0.473-0.667,0.998-1.001,1.498c-0.503,0.751-0.556,1.493-0.218,2.3
			C342.768,742.371,343.456,741.711,343.96,740.889z M327.849,739.622c0.272,0.08,0.546,0.163,0.815,0.256
			c-0.094-0.734-0.196-1.468-0.358-2.187c-0.124-0.551-0.109-1.073-0.093-1.618c-0.511-0.488-0.804-1.15-1.041-1.854
			c-0.087-0.261-0.012-0.519,0.239-0.712c0.237-0.183,0.481-0.328,0.771-0.367c-0.052-0.517-0.103-1.009-0.125-1.502
			c-0.07-1.536-0.096-3.075-0.168-4.612c-0.007-0.152-0.016-0.304-0.024-0.456c-0.365-0.108-0.733-0.206-1.103-0.286
			c-0.233-0.05-0.477-0.058-0.726-0.043c0.034,1.296,0.058,2.593,0.099,3.888c0.023,0.731,0.043,1.47,0.163,2.188
			c0.074,0.443-0.069,0.854-0.019,1.282c0.059,0.507,0.104,1.015,0.143,1.524c0.059,0.778,0.099,1.558,0.165,2.336
			c0.065,0.762,0.13,1.525,0.215,2.285c0.084-0.026,0.169-0.054,0.254-0.086C327.295,739.57,327.607,739.551,327.849,739.622z
			 M346.54,750.182c-1.627-0.003-3.255,0.002-4.883,0c-0.776-0.001-1.561,0.081-2.301-0.266c-0.103-0.048-0.242-0.029-0.364-0.026
			c-1.981,0.049-3.962,0.099-5.942,0.154c-0.12,0.004-0.239,0.045-0.359,0.068c-1.089,0.201-2.177,0.402-3.313,0.612
			c0.099-0.213,0.263-0.403,0.259-0.589c-0.014-0.629-0.079-1.257-0.14-1.885c-0.087-0.892-0.196-1.783-0.278-2.676
			c-0.002-0.025-0.004-0.049-0.006-0.074c-0.098-0.092-0.198-0.234-0.329-0.434c-0.653,0.303-1.267,0.672-1.873,1.056
			c0.049,0.516,0.096,1.032,0.139,1.548c0.043,0.511-0.032,1.032,0.018,1.542c0.05,0.52,0.16,1.039,0.294,1.544
			c0.133,0.503,0.33,0.988,0.519,1.54c0.226-0.108,0.409-0.196,0.484-0.232c0.28,0.184,0.492,0.406,0.745,0.473
			c0.533,0.141,1.086,0.273,1.632,0.279c2.376,0.029,4.752,0.002,7.129,0.02c0.53,0.004,1.059,0.106,1.588,0.169
			c0.263,0.031,0.523,0.112,0.784,0.112c2.252,0.007,4.503,0.007,6.755,0.005C346.907,752.144,346.764,751.153,346.54,750.182z
			 M332.487,744.895c0.035,0.625,0.073,1.329,0.115,2.101c0.83-0.266,1.345-0.753,1.704-1.405c0.524-0.954,1.048-1.91,1.521-2.889
			c-0.639,0.101-1.269,0.235-1.899,0.393c-0.131,0.033-0.272,0.022-0.417-0.001c-0.072,0.142-0.172,0.272-0.303,0.38
			c-0.882,0.729-1.747,1.483-2.82,1.921c0.074,0.311,0.194,0.614,0.186,0.936C331.306,746.23,331.338,746.206,332.487,744.895z
			 M345.322,733.486c-0.049-0.169-0.107-0.335-0.164-0.501c-0.298,0.001-0.597,0.002-0.895,0.002
			c0.356,0.861,0.711,1.721,1.015,2.599c0.038,0.111,0.075,0.223,0.11,0.335c0.208-0.001,0.416,0,0.624-0.001
			C345.783,735.108,345.555,734.296,345.322,733.486z M348.079,733.38c0.056,0.584,0.136,1.165,0.195,1.749
			c0,0.004,0.001,0.008,0.001,0.012c0.183-0.132,0.362-0.273,0.54-0.418c-0.007-0.226-0.013-0.452-0.021-0.678
			C348.579,733.769,348.342,733.547,348.079,733.38z M351.274,751.848c0,0.003,0,0.007,0,0.01c0.001-0.001,0.002-0.002,0.003-0.003
			C351.276,751.853,351.275,751.851,351.274,751.848z M337.286,716.286c0.144-1.067,1.066-1.002,1.794-1.348
			c0,0.172,0.001,0.327,0,0.482c-0.003,0.563,0.012,1.127-0.016,1.689c-0.007,0.146-0.01,0.292-0.012,0.437
			c0.302,0,0.605,0,0.908-0.001c0-0.258,0.003-0.516,0.01-0.773c0.021-0.735,0.124-1.469,0.345-2.169c-1.3,0-2.601,0-3.901,0
			C336.655,715.177,336.935,715.741,337.286,716.286z"/>
	</g>
</g>
</svg>
