<?xml version="1.0" encoding="UTF-8" standalone="no"?>
<svg
   xmlns:dc="http://purl.org/dc/elements/1.1/"
   xmlns:cc="http://creativecommons.org/ns#"
   xmlns:rdf="http://www.w3.org/1999/02/22-rdf-syntax-ns#"
   xmlns:svg="http://www.w3.org/2000/svg"
   xmlns="http://www.w3.org/2000/svg"
   xmlns:xlink="http://www.w3.org/1999/xlink"
   xmlns:sodipodi="http://sodipodi.sourceforge.net/DTD/sodipodi-0.dtd"
   xmlns:inkscape="http://www.inkscape.org/namespaces/inkscape"
   version="1.1"
   id="livingroom"
   x="0px"
   y="0px"
   viewBox="0 576.3 600 90"
   enable-background="new 0 576.3 612 84.4"
   xml:space="preserve"
   inkscape:version="0.48.2 r9819"
   width="100%"
   height="100%"
   sodipodi:docname="livingroom.svg"><metadata
   id="metadata28"><rdf:RDF><cc:Work
       rdf:about=""><dc:format>image/svg+xml</dc:format><dc:type
         rdf:resource="http://purl.org/dc/dcmitype/StillImage" /></cc:Work></rdf:RDF></metadata><sodipodi:namedview
   pagecolor="#ffffff"
   bordercolor="#666666"
   borderopacity="1"
   objecttolerance="10"
   gridtolerance="10"
   guidetolerance="10"
   inkscape:pageopacity="0"
   inkscape:pageshadow="2"
   inkscape:window-width="1680"
   inkscape:window-height="1002"
   id="namedview26"
   showgrid="false"
   inkscape:snap-page="true"
   inkscape:zoom="1.6268078"
   inkscape:cx="239.93417"
   inkscape:cy="94.508902"
   inkscape:window-x="0"
   inkscape:window-y="0"
   inkscape:window-maximized="1"
   inkscape:current-layer="livingroom"
   inkscape:snap-global="false" />
<defs
   id="defs3">
	<pattern
   id="paper"
   patternUnits="userSpaceOnUse"
   width="140"
   height="140">
		<image
   sodipodi:absref="http://kijani.co/img/pattern/paper.jpg"
   xlink:href="../pattern/paper.jpg"
   id="image6"
   height="140"
   width="140" />
	</pattern>
<clipPath
   clipPathUnits="userSpaceOnUse"
   id="clipPath4516"><rect
     transform="scale(1,-1)"
     y="-675.68475"
     x="43.471928"
     height="121.27434"
     width="563.09015"
     id="rect4518"
     style="fill:#0000ff;fill-rule:evenodd;stroke:none" /></clipPath></defs>
<g
   id="g8"
   transform="matrix(1.0655487,0,0,1.0655487,-45.968629,-37.708001)"
   clip-path="url(#clipPath4516)">
	<path
   style="fill:url(#paper);filter:url(#dropshadow)"
   d="m 608,595.9 c -0.1,0 -0.1,0 -0.2,0 -0.3,0 -0.6,0 -0.8,-0.4 -0.3,-0.7 -0.7,-1.4 -1,-2.2 0,0.5 -0.1,1 -0.3,1.5 -0.5,1.5 -1,2.9 -2,4.2 -0.3,0.3 -0.6,0.7 -1.1,0.8 -0.3,-0.9 -0.6,-1.7 -0.9,-2.7 -0.2,0.7 -0.5,1.5 -0.5,2.2 0,1.1 -0.3,2.1 -0.6,3.2 -0.1,0.4 -0.4,0.7 -0.8,0.8 -0.5,0 -1.1,0 -1.5,-0.2 -1.2,-0.7 -2.5,-1.2 -3.5,-2.2 -0.2,-0.2 -0.4,-0.4 -0.6,-0.6 -0.4,0.4 -0.7,0.8 -1.1,1.1 -0.5,0.4 -1.1,0.8 -1.7,1.3 -0.5,0.4 -1.1,0.7 -1.8,0.6 -0.3,0 -0.5,0 -0.8,0.2 -1.2,1 -2.7,1.6 -4.2,1.6 -1.3,0.1 -2.4,-0.4 -3.3,-1.4 -0.4,-0.5 -0.8,-1.1 -1.2,-1.7 -0.5,0.2 -0.8,0.6 -1.2,1 -0.8,0.9 -1.6,1.8 -2.9,1.6 -0.1,0.1 -0.1,0.1 -0.2,0.2 0,0.1 -0.1,0.2 -0.1,0.3 -0.3,1 -1,1.8 -1.7,2.7 -0.9,0.9 -1.9,1.5 -3,2 -0.7,0.3 -1.5,0.3 -2.3,0.4 -0.1,0 -0.2,-0.1 -0.4,-0.2 -0.4,0.5 -0.7,1.1 -1.1,1.6 -0.5,0.5 -1,1 -1.5,1.4 -0.1,0.1 -0.4,0.1 -0.6,0.2 -0.3,-1.2 -0.7,-2.4 -1,-3.6 v 4.2 c 0,0 0,0 -0.1,0 -0.8,-0.1 -1.5,-0.3 -2.1,-0.7 -0.5,-0.3 -1,-0.7 -1.5,-1 -0.9,-0.4 -1.4,-1.1 -1.6,-2.1 -1.3,0.9 -2.8,1 -4.3,0.8 0,-0.2 0,-0.4 0,-0.6 -0.8,0 -1.4,-0.5 -2,-0.8 -0.4,0.8 -0.7,1.7 -1.2,2.4 -0.9,1.2 -1.9,2.6 -3.2,3.3 -0.4,0.2 -0.8,0.4 -1.3,0.4 0,-0.9 0,-1.8 0,-2.7 -0.5,0.6 -0.9,1.2 -1.2,1.9 -0.4,1 -0.9,1.9 -1.6,2.8 -0.3,0.3 -0.7,0.5 -1,0.5 -0.5,-0.1 -1,-0.3 -1.3,-0.7 -0.9,-1 -2,-1.9 -2.7,-3.2 -0.1,-0.3 -0.3,-0.5 -0.3,-0.7 -0.5,0.2 -0.9,0.5 -1.4,0.7 -0.7,0.2 -1.3,0.4 -2,0.7 -0.6,0.2 -1.3,0.3 -1.9,0 -0.3,-0.1 -0.5,-0.1 -0.8,0 -1.5,0.5 -3,0.7 -4.5,0.2 -0.2,0 -0.3,-0.1 -0.5,-0.2 l -0.1,0.7 c -1.2,0.3 -2.3,0.2 -3.5,-0.2 0,-0.2 0,-0.4 0,-0.6 -0.8,-0.2 -1.3,-0.7 -1.8,-1.1 -0.5,0.7 -0.9,1.6 -1.5,2.2 -1.1,1.1 -2.2,2.2 -3.7,2.8 -0.4,0.2 -0.8,0.3 -1.3,0.2 0.2,-0.9 0.3,-1.8 0.4,-2.7 -0.5,0.5 -1.1,1.1 -1.4,1.7 -0.5,1 -1.2,1.8 -2,2.7 -0.3,0.3 -0.7,0.4 -1,0.3 -0.5,-0.2 -1,-0.5 -1.2,-0.9 -0.7,-1.2 -1.7,-2.2 -2.1,-3.6 0,-0.1 0,-0.1 -0.1,-0.2 -0.2,0.1 -0.4,0.2 -0.7,0.3 -0.2,0.1 -0.4,0 -0.7,0 0,-0.2 0,-0.3 0,-0.5 -0.1,0 -0.2,0.1 -0.4,0.1 -0.7,0.2 -1.4,0.2 -2.1,0.4 -0.7,0.1 -1.3,0.1 -1.9,-0.3 -0.3,-0.2 -0.5,-0.2 -0.8,-0.1 -1.5,0.3 -3.1,0.2 -4.5,-0.5 -1.2,-0.6 -2,-1.5 -2.3,-2.7 -0.2,-0.6 -0.2,-1.3 -0.3,-2 -0.5,-0.1 -1,0.2 -1.5,0.4 -1.1,0.4 -2.2,0.9 -3.3,0.1 -0.1,0 -0.2,0.1 -0.2,0.1 -0.1,0.1 -0.2,0.1 -0.2,0.2 -0.8,0.8 -1.7,1.2 -2.7,1.5 -1.2,0.4 -2.4,0.5 -3.6,0.4 -0.8,0 -1.5,-0.4 -2.2,-0.7 -0.1,0 -0.1,-0.2 -0.2,-0.4 -0.6,0.3 -1.1,0.7 -1.7,0.9 -0.7,0.2 -1.3,0.4 -2,0.6 -0.2,0 -0.4,0 -0.7,-0.1 0.3,-1.6 0.6,-3.1 0.9,-4.6 -1,0.2 -2,0 -2.9,-0.3 -0.5,-0.2 -0.5,-0.3 -0.5,-0.9 0,-0.5 0.2,-0.9 0.3,-1.4 -0.2,0.2 -0.3,0.3 -0.4,0.4 -0.7,0.7 -1.5,1.2 -2.5,1.3 -0.3,0 -0.6,0 -0.8,-0.2 -0.7,-0.5 -1.4,-1.1 -2.2,-1.7 -0.2,0.2 -0.4,0.4 -0.6,0.6 -0.3,0.3 -0.6,0.6 -0.9,0.7 -1,0.3 -2,0.5 -2.9,0.7 -0.3,0.1 -0.7,-0.1 -1,-0.2 -0.3,-0.1 -0.5,-0.3 -0.8,-0.4 -1.1,-0.5 -2,-1.2 -2.6,-2.3 -0.1,-0.2 -0.1,-0.3 -0.2,-0.5 -1.6,0.5 -3.1,1 -4.8,0.5 -1.5,1.9 -3.6,2.2 -5.8,1.8 -0.3,-0.8 0.1,-1.3 0.6,-1.7 0.1,-0.1 0.1,-0.1 0.2,-0.2 0.3,-0.4 0.7,-0.9 1,-1.3 -1.1,0.1 -2.1,0.2 -3.1,0.2 -1.2,0 -2.3,-0.2 -3.4,-0.3 -0.1,0 -0.3,-0.1 -0.3,-0.2 0,-0.4 -0.2,-0.8 0.1,-1.2 0.3,-0.3 0.5,-0.7 0.8,-1 -0.5,0.2 -1.1,0.5 -1.4,0.9 -0.7,0.8 -1.4,1.7 -2.1,2.7 -0.3,0.5 -0.7,0.5 -1.2,0.4 -0.3,-0.9 -0.5,-1.7 -0.8,-2.7 -0.3,-0.7 -0.4,-1.5 -0.3,-2.2 0,-0.4 0.1,-0.9 0.1,-1.4 -0.2,0.1 -0.4,0.1 -0.5,0.2 -0.8,0.7 -1.2,1.7 -1.4,2.7 -0.1,0.3 -0.2,0.7 -0.2,1.1 -0.1,0.4 -0.4,0.5 -0.7,0.5 -0.3,0.1 -0.5,-0.1 -0.7,-0.4 -0.4,-0.8 -0.8,-1.5 -1.1,-2.3 -0.5,-1.1 -0.8,-2.3 -0.5,-3.5 0,-0.1 0,-0.3 -0.1,-0.5 -0.5,0.2 -0.9,0.4 -1.2,0.7 -0.6,0.4 -1.3,0.5 -2,0.6 -0.4,0 -0.7,0 -1.1,0 -0.2,0 -0.4,0.1 -0.4,0.2 -0.1,0.5 -0.6,0.6 -1,0.9 -0.8,0.6 -1.7,0.8 -2.7,0.8 -0.3,0 -0.5,0 -0.8,0 -1,0.5 -2,0.5 -3,0.1 -1.1,0.7 -2.1,1.4 -3.2,2 -0.5,0.3 -0.8,0.2 -1,-0.4 -0.2,-0.7 -0.5,-1.4 -0.7,-2.1 -0.3,0.3 -0.5,0.6 -0.7,0.9 -0.9,1.1 -1.9,2.1 -3.2,2.8 -0.5,0.3 -1,0.8 -1.6,1 -0.4,0.2 -0.7,0.7 -1.3,0.5 -0.1,-0.4 -0.2,-0.8 -0.4,-1.2 -0.2,-0.4 -0.3,-0.8 -0.5,-1.2 -0.1,0.4 -0.2,0.8 -0.3,1.2 -0.1,0.4 -0.5,0.5 -0.8,0.7 -1.3,-0.3 -2.2,-0.9 -2.5,-2.3 -0.2,0.8 -0.6,1.4 -1.1,1.9 -0.3,0.3 -0.7,0.6 -1,0.9 -0.2,0.2 -0.4,0.2 -0.6,-0.1 -0.2,-0.4 -0.4,-0.7 -0.6,-1.1 0,0 -0.1,0 -0.1,0.1 -0.5,1.2 -1.5,1.8 -2.7,2.3 -0.3,0.1 -0.6,0.3 -0.9,0.4 -0.3,0.1 -0.5,0.1 -0.9,0.2 0,-0.2 0.1,-0.3 0.1,-0.3 -0.3,-0.6 0,-1.1 0,-1.7 -0.3,0 -0.7,0 -1.1,0.1 -0.5,0.1 -0.7,-0.2 -0.8,-0.6 0.7,-0.8 0.9,-0.9 2.1,-1 0.1,0 0.3,0 0.3,-0.1 0.2,-0.5 0.7,-0.4 1.1,-0.5 0.6,-0.2 1.2,-0.3 1.8,-0.4 0.5,-0.1 1,-0.2 1.5,-0.1 0.1,0 0.2,0 0.3,0 0.3,-0.1 0.7,-0.2 1,-0.2 0.8,-0.1 1.6,-0.4 2.3,-0.7 0.6,-0.3 1.3,-0.5 1.9,-0.7 -0.7,-1.1 -1,-2.3 -0.9,-3.5 0,-0.2 0,-0.4 0,-0.6 -0.5,0.5 -1,1.1 -1.4,1.7 -0.5,0.9 -1.1,1 -1.9,0.3 -0.1,-0.1 -0.2,-0.1 -0.2,-0.2 -0.1,0 -0.1,-0.1 -0.2,-0.2 -0.8,0.3 -1.7,0.6 -2.5,0.8 -1.1,0.2 -2.1,0.5 -3.1,0.8 -0.3,0.1 -0.6,0.1 -0.9,-0.1 -0.4,-0.8 -0.5,-2 0.1,-3.2 0.2,-0.3 0.3,-0.5 0.6,-0.7 0.4,-0.2 0.8,-0.4 1.2,-0.6 0.6,-0.3 1.2,-0.8 1.9,-1.1 l 0,0 c -0.2,-0.6 -0.3,-1.3 -0.5,-2.1 -0.5,0.5 -0.8,1 -1.2,1.4 -1.1,0.8 -2.2,1.4 -3.4,2.1 -0.7,0.4 -1.5,0.6 -2.3,0.7 -0.3,0 -0.6,0 -0.8,-0.4 -0.4,-0.8 -0.9,-1.6 -1.1,-2.5 -0.3,-1.1 -0.4,-2.2 -0.6,-3.3 h -0.1 c -1.4,1.6 -3.4,2.1 -5.3,2.7 -0.2,0.1 -0.5,0 -0.6,-0.2 -0.1,-0.3 -0.2,-0.6 -0.2,-0.8 0.2,-1 0.3,-2 0.6,-3.1 0.1,-0.5 0.2,-0.9 0.4,-1.5 -0.6,0.1 -1.2,0.2 -1.7,0.2 -0.9,0 -1.7,-0.2 -2.7,-0.3 0,0.1 0,0.3 0,0.4 0.2,0.8 0.4,1.5 0.5,2.3 0.3,1.5 -0.1,2.2 -1.9,2.1 -0.9,0 -1.7,-0.5 -2.3,-1.3 -0.2,-0.3 -0.5,-0.7 -0.7,-1 -0.1,0.2 -0.1,0.3 -0.2,0.4 -0.2,0.9 -1.4,1.4 -2.2,0.6 -0.2,-0.2 -0.5,-0.5 -0.6,-0.8 -0.5,-0.9 -1,-1.9 -1,-3.1 -0.7,0.4 -1.3,0.6 -2,0.2 -0.1,-0.1 -0.2,0 -0.3,0 -0.6,0 -0.8,-0.2 -1,-0.8 -0.2,-0.7 -0.4,-1.4 -0.6,-2.2 -0.3,-1.2 -0.2,-2.4 0.6,-3.5 0.1,-0.2 0.3,-0.3 0.4,-0.5 -1.2,-0.4 -2.3,-0.7 -3,-1.8 -0.5,0.5 -0.9,1.1 -1.4,1.6 -0.8,0.8 -1.5,1.6 -2.3,2.3 -1,0.8 -2.1,1.3 -3.3,1.9 -0.8,0.4 -1.6,0.5 -2.6,0.4 -0.7,-0.1 -1.3,-0.3 -1.7,-0.9 -0.8,-1.1 -1,-2.3 -1,-3.6 0,-0.6 0.1,-1.1 0.1,-1.8 -0.2,0.1 -0.3,0.2 -0.5,0.2 -0.7,0.3 -1.4,0.6 -2.1,0.8 -0.8,0.3 -1.5,0.1 -2.2,-0.4 -0.3,-0.2 -0.6,-0.4 -0.8,-0.6 -0.4,0.3 -0.7,0.7 -1,0.8 -0.9,0.4 -1.9,0.7 -2.8,1 -0.4,0.1 -0.9,-0.3 -1,-0.7 0,-0.1 -0.1,-0.2 -0.1,-0.4 -0.5,0.7 -0.8,1.4 -1.3,2.1 -0.5,0.7 -1.1,1.2 -1.7,1.8 -0.1,0.1 -0.2,0.2 -0.3,0.3 -0.4,0.5 -0.9,1 -1.5,1.2 -0.5,0.2 -0.7,0.1 -0.9,-0.4 -0.2,-0.5 -0.2,-1 -0.3,-1.5 -0.1,-0.4 -0.1,-0.9 -0.1,-1.3 0,-0.6 -0.1,-1.1 -0.1,-1.7 -0.1,0 -0.2,0 -0.3,0 -0.8,0.1 -1.5,0 -2.2,-0.3 -0.6,-0.2 -1.1,-0.5 -1.7,-0.7 -0.9,-0.3 -1.5,-0.8 -2,-1.8 -1.2,1.1 -2.7,1.5 -4.1,1.5 0,-0.2 -0.1,-0.4 -0.2,-0.6 -0.8,0.1 -1.5,-0.2 -2.1,-0.5 -0.2,0.9 -0.3,1.8 -0.7,2.7 -0.7,1.4 -1.4,2.8 -2.7,3.8 -0.3,0.3 -0.7,0.6 -1.2,0.6 -0.2,-0.9 -0.3,-1.8 -0.4,-2.7 -0.3,0.7 -0.7,1.4 -0.8,2.1 -0.2,1.1 -0.6,2.1 -1.1,3.1 -0.2,0.4 -0.5,0.7 -0.9,0.6 -0.5,0 -1.1,-0.1 -1.4,-0.4 -1.1,-0.9 -2.3,-1.6 -3.1,-2.7 -0.2,-0.2 -0.3,-0.5 -0.5,-0.7 -0.4,0.3 -0.8,0.6 -1.2,0.9 -0.6,0.4 -1.2,0.7 -1.8,1 -0.6,0.3 -1.2,0.5 -1.9,0.3 -0.3,-0.1 -0.5,0 -0.8,0.1 -1.4,0.8 -2.8,1.2 -4.4,1 -1.3,-0.2 -2.3,-0.8 -3,-1.9 -0.4,-0.6 -0.6,-1.2 -0.9,-1.8 -0.5,0.1 -0.9,0.5 -1.3,0.8 -0.9,0.7 -1.8,1.5 -3.1,1.1 -0.1,0.1 -0.2,0.1 -0.2,0.2 -0.1,0.1 -0.1,0.2 -0.2,0.2 -0.5,1 -1.3,1.7 -2.1,2.3 -1,0.8 -2.1,1.2 -3.3,1.5 -0.7,0.2 -1.5,0.1 -2.3,0 -0.1,0 -0.2,-0.2 -0.3,-0.3 -0.5,0.5 -0.9,1 -1.4,1.4 -0.5,0.4 -1.1,0.8 -1.7,1.2 -0.2,0.1 -0.4,0.1 -0.7,0.1 -0.2,-1.6 -0.4,-3.1 -0.6,-4.7 -0.9,0.5 -1.8,0.7 -2.8,0.6 -0.5,0 -0.6,-0.1 -0.8,-0.6 -0.2,-0.4 0,-0.9 -0.2,-1.4 -0.1,0.2 -0.2,0.3 -0.3,0.5 -0.5,0.9 -1,1.7 -2,2 -0.2,0.1 -0.5,0.2 -0.8,0.1 -0.9,-0.3 -1.7,-0.6 -2.7,-1 -0.1,0.3 -0.2,0.5 -0.4,0.8 -0.2,0.3 -0.3,0.7 -0.6,1 -0.8,0.6 -1.7,1.1 -2.7,1.6 -0.3,0.2 -0.7,0.1 -1,0.1 -0.3,0 -0.6,-0.1 -0.9,-0.1 -1.2,-0.1 -2.3,-0.5 -3.1,-1.4 -0.1,-0.1 -0.2,-0.3 -0.3,-0.4 -1.3,1 -2.7,1.9 -4.4,2 -0.9,2.3 -2.8,3.2 -5,3.6 -0.6,-0.7 -0.3,-1.2 0,-1.8 0,-0.1 0.1,-0.2 0.1,-0.3 0.2,-0.5 0.4,-1 0.5,-1.5 -1,0.4 -1.9,0.9 -2.9,1.2 -1.1,0.3 -2.2,0.5 -3.4,0.7 -0.1,0 -0.3,0 -0.3,-0.1 -0.1,-0.4 -0.5,-0.7 -0.3,-1.1 0.2,-0.4 0.3,-0.8 0.5,-1.2 -0.4,0.4 -0.9,0.8 -1.1,1.3 -0.5,1 -0.9,2.1 -1.2,3.1 -0.2,0.5 -0.5,0.7 -1,0.8 -0.5,-0.7 -1,-1.5 -1.5,-2.2 -0.5,-0.6 -0.8,-1.3 -1,-2.1 -0.1,-0.4 -0.2,-0.8 -0.3,-1.4 -0.2,0.2 -0.4,0.3 -0.4,0.4 -0.5,1 -0.6,2 -0.5,3 0,0.4 0,0.7 0.1,1.1 0.1,0.4 -0.2,0.6 -0.5,0.7 -0.3,0.2 -0.5,0 -0.8,-0.2 -0.6,-0.6 -1.2,-1.2 -1.8,-1.8 -0.8,-0.9 -1.5,-1.9 -1.6,-3.2 0,-0.1 -0.1,-0.2 -0.2,-0.4 -0.4,0.4 -0.7,0.7 -1,1 -0.5,0.5 -1.1,0.9 -1.7,1.2 -0.3,0.1 -0.7,0.2 -1,0.3 -0.1,0 -0.4,0.2 -0.3,0.3 0.1,0.5 -0.4,0.7 -0.6,1.1 -0.6,0.8 -1.4,1.2 -2.2,1.6 -0.9,0.4 -1.9,0.6 -2.8,0.2 -0.5,-0.2 -0.9,-0.5 -1.4,-0.9 -0.2,0.5 -0.3,1 -0.5,1.5 -0.3,0.7 -0.4,1.5 -1.5,1.6 -1,-1.2 -2.7,-1.9 -3.2,-3.7 -0.1,0.3 -0.3,0.5 -0.4,0.7 -0.2,0.4 -0.4,0.9 -0.6,1.3 -0.3,0.8 -0.9,1.2 -1.7,1.5 -0.3,0.1 -0.7,0.2 -1.1,0.2 -0.7,0.1 -1.5,0.1 -2.2,0.1 -0.1,0 -0.2,-0.1 -0.3,-0.1 -0.4,-0.3 -1,-0.9 -1.4,-1.5 -0.9,0.2 -1.9,0.3 -2.8,0 -0.1,0 -0.2,0 -0.4,0 0,-0.1 0,-0.1 0,-0.2 -0.1,0 -0.1,-0.1 -0.2,-0.1 0.2,1.4 -0.4,2.5 -0.9,3.7 -0.2,0.3 -0.4,0.7 -0.7,0.9 -1.2,0.8 -2.4,1 -3.7,0.5 -1.1,0.7 -2.1,1.4 -3.2,2 -0.5,0.3 -0.8,0.2 -1,-0.4 -0.2,-0.7 -0.5,-1.4 -0.7,-2.1 -0.3,0.3 -0.5,0.6 -0.7,0.9 -0.9,1.1 -1.9,2.1 -3.2,2.8 -0.5,0.3 -1,0.8 -1.6,1 -0.4,0.2 -0.7,0.7 -1.3,0.5 0,-0.1 0,-0.1 0,-0.2 0,0.1 -0.1,0.1 -0.2,0.1 -0.7,0.1 -1.4,0.3 -2.2,0.4 -0.4,0.1 -0.8,0.1 -1.2,0 -0.8,-0.1 -1.5,-0.4 -2,-1 -0.3,-0.4 -0.6,-0.8 -0.9,-1.1 -0.2,-0.2 -0.3,-0.4 -0.5,-0.6 -0.1,1.9 -1.6,2.9 -2.3,4.4 -1,0.2 -1.4,-0.7 -1.8,-1.2 -0.3,-0.4 -0.6,-0.9 -0.9,-1.4 -0.4,0.4 -0.7,0.9 -1.2,1.2 -0.9,0.6 -1.8,0.6 -2.8,0.4 -0.9,-0.1 -1.8,-0.4 -2.5,-1 -0.3,-0.3 -0.8,-0.4 -0.9,-0.9 0,-0.1 -0.3,-0.2 -0.4,-0.2 -0.4,0 -0.7,0 -1.1,0 -0.7,-0.1 -1.4,-0.3 -2,-0.7 -0.3,-0.3 -0.7,-0.5 -1.2,-0.8 -0.1,0.2 -0.1,0.3 -0.1,0.5 0.2,1.3 -0.2,2.4 -0.8,3.5 -0.4,0.8 -0.9,1.5 -1.3,2.2 -0.2,0.3 -0.4,0.5 -0.7,0.4 -0.3,-0.1 -0.6,-0.2 -0.7,-0.6 0,-0.4 -0.1,-0.7 -0.2,-1.1 -0.2,-1 -0.5,-2 -1.2,-2.8 -0.1,-0.1 -0.3,-0.2 -0.5,-0.3 0,0.5 0,1 0,1.4 0,0.8 -0.1,1.5 -0.5,2.2 -0.4,0.8 -0.7,1.7 -1,2.6 -0.5,0 -0.9,-0.1 -1.2,-0.5 -0.6,-0.9 -1.2,-1.9 -1.9,-2.7 -0.3,-0.4 -0.9,-0.8 -1.4,-1 0.2,0.3 0.5,0.7 0.7,1 0.3,0.4 0,0.8 0,1.2 0,0 -0.2,0.1 -0.3,0.2 -1.2,0 -2.3,0.1 -3.5,0.1 -1,-0.1 -2,-0.3 -3.1,-0.4 0.3,0.4 0.6,0.9 0.9,1.3 0.1,0.1 0.1,0.2 0.2,0.2 0.5,0.5 0.9,1 0.5,1.7 -2.2,0.1 -4.3,-0.3 -5.7,-2.3 -1.8,0.3 -3.2,-0.3 -4.8,-0.9 -0.1,0.1 -0.1,0.3 -0.2,0.5 -0.6,1.1 -1.5,1.7 -2.7,2.1 -0.3,0.1 -0.5,0.2 -0.8,0.3 -0.3,0.1 -0.7,0.2 -1,0.1 -1,-0.3 -1.9,-0.6 -2.9,-1 -0.3,-0.1 -0.6,-0.5 -0.9,-0.8 -0.2,-0.2 -0.4,-0.4 -0.5,-0.7 -0.8,0.5 -1.5,1.1 -2.3,1.6 -0.2,0.1 -0.5,0.1 -0.8,0.1 -1,-0.1 -1.8,-0.7 -2.4,-1.5 -0.1,-0.1 -0.2,-0.2 -0.4,-0.4 0,0.5 0.2,0.9 0.2,1.4 -0.1,0.5 -0.1,0.6 -0.6,0.8 -0.9,0.3 -1.9,0.3 -2.9,0.1 0.2,1.6 0.4,3.1 0.6,4.7 -0.3,0 -0.5,0.1 -0.7,0 -0.7,-0.2 -1.3,-0.4 -2,-0.7 -0.6,-0.3 -1.1,-0.7 -1.7,-1 -0.1,0.2 -0.2,0.3 -0.3,0.3 -0.6,0.2 -1.2,0.4 -1.7,0.5 v 0.6 h -0.1 c -1,0.4 -1.9,0.1 -2.8,-0.3 -0.8,-0.3 -1.6,-0.8 -2.1,-1.5 -0.6,-0.3 -1.2,-0.7 -1.6,-1.3 -0.1,-0.1 -0.1,-0.1 -0.2,-0.2 -0.1,0 -0.1,-0.1 -0.2,-0.1 -1.2,0.7 -2.3,0.2 -3.3,-0.4 -0.3,0.6 -0.7,1.1 -1.1,1.6 -0.6,0.6 -1.2,1.2 -1.8,1.8 -0.2,0.2 -0.5,0.4 -0.8,0.2 -0.2,-0.2 -0.6,-0.3 -0.5,-0.7 0.1,-0.3 0.1,-0.7 0.1,-1.1 0.1,-1 0,-2.1 -0.5,-3 -0.1,-0.1 -0.2,-0.2 -0.4,-0.4 -0.1,0.5 -0.3,0.9 -0.4,1.4 -0.2,0.8 -0.5,1.4 -1,2 -0.6,0.7 -1,1.4 -1.6,2.2 -0.5,-0.1 -0.8,-0.3 -1,-0.8 -0.3,-1 -0.7,-2.1 -1.2,-3.1 -0.2,-0.5 -0.6,-0.9 -1.1,-1.3 0.2,0.4 0.3,0.8 0.5,1.2 0.2,0.4 -0.2,0.7 -0.3,1.1 0,0 -0.2,0.1 -0.3,0.1 -1.1,-0.2 -2.3,-0.4 -3.4,-0.8 -1,-0.3 -1.9,-0.8 -2.9,-1.2 0.2,0.5 0.3,1 0.5,1.5 0,0.1 0.1,0.2 0.1,0.3 0.3,0.6 0.6,1.1 0,1.8 -2.2,-0.4 -4.1,-1.4 -4.9,-3.6 -1.8,-0.1 -3.1,-1.1 -4.4,-2.1 -0.1,0.1 -0.2,0.3 -0.3,0.4 -0.8,0.9 -1.9,1.3 -3.1,1.4 -0.3,0 -0.6,0.1 -0.9,0.1 -0.3,0 -0.7,0 -1,-0.2 -0.9,-0.5 -1.7,-1 -2.7,-1.7 -0.3,-0.2 -0.4,-0.6 -0.6,-1 -0.1,-0.2 -0.2,-0.5 -0.4,-0.8 -0.9,0.3 -1.8,0.7 -2.7,0.9 -0.2,0.1 -0.5,0 -0.8,-0.1 -1,-0.3 -1.5,-1.2 -2,-2 -0.1,-0.1 -0.2,-0.3 -0.3,-0.5 -0.2,0.5 0,1 -0.2,1.4 -0.2,0.5 -0.2,0.6 -0.8,0.6 -1,0.1 -1.9,-0.1 -2.8,-0.6 -0.2,1.6 -0.4,3.1 -0.6,4.7 -0.3,0 -0.5,0 -0.6,-0.1 -0.6,-0.4 -1.2,-0.7 -1.7,-1.2 -0.5,-0.4 -0.9,-0.9 -1.4,-1.4 -0.2,0.1 -0.2,0.3 -0.3,0.3 -0.8,0 -1.6,0.2 -2.3,-0.1 -1.1,-0.3 -2.3,-0.8 -3.2,-1.6 -0.9,-0.7 -1.6,-1.4 -2.1,-2.4 0,-0.1 -0.1,-0.2 -0.2,-0.2 0,-0.1 -0.1,-0.1 -0.2,-0.2 -1.3,0.4 -2.2,-0.4 -3.1,-1.2 -0.4,-0.3 -0.8,-0.7 -1.3,-0.8 -0.3,0.6 -0.6,1.3 -1,1.8 -0.7,1.1 -1.7,1.7 -3.1,1.8 -1.6,0.2 -3.1,-0.2 -4.4,-1 -0.3,-0.2 -0.5,-0.2 -0.8,-0.1 -0.7,0.2 -1.3,0 -1.9,-0.3 -0.6,-0.3 -1.2,-0.7 -1.8,-1 -0.4,-0.3 -0.8,-0.6 -1.2,-0.9 -0.1,0.2 -0.3,0.4 -0.5,0.7 -0.8,1.2 -2,1.9 -3.1,2.7 -0.4,0.3 -0.9,0.4 -1.4,0.4 -0.3,0 -0.7,-0.2 -0.9,-0.6 -0.5,-1 -0.9,-2 -1.1,-3.1 -0.1,-0.7 -0.5,-1.4 -0.8,-2.1 -0.2,0.9 -0.3,1.8 -0.5,2.7 -0.5,0 -0.9,-0.3 -1.2,-0.6 -1.2,-1.1 -1.9,-2.5 -2.7,-3.8 -0.4,-0.8 -0.5,-1.7 -0.7,-2.7 -0.6,0.3 -1.3,0.6 -2.1,0.5 0,0.2 -0.1,0.4 -0.2,0.6 -1.2,0 -2.4,-0.3 -3.4,-1 l 0.4,-2.3 c -0.5,0.4 -1,0.7 -1.6,1 -0.9,0.4 -1.9,0.6 -2.8,0.2 -0.5,-0.2 -0.9,-0.5 -1.4,-0.9 -0.2,0.5 -0.3,1 -0.5,1.5 -0.3,0.7 -0.4,1.5 -1.5,1.6 -1,-1.2 -2.7,-1.9 -3.2,-3.7 -0.1,0.3 -0.3,0.5 -0.4,0.7 -0.2,0.4 -0.4,0.9 -0.6,1.3 -0.1,0.2 -0.2,0.4 -0.3,0.6 v 64.6 h 612 V 595.9 H 608 z m -287.6,6.7 c -0.4,0.3 -0.8,0.5 -1.3,0.5 -0.5,0 -1,0.1 -1.5,0.2 -0.1,0.9 -0.3,1.7 -0.7,2.5 -0.2,0.4 -0.4,0.9 -0.5,1.3 -0.1,0.5 -0.4,0.7 -0.7,0.9 -0.3,0.2 -0.5,0.2 -0.7,-0.1 -0.4,-0.4 -0.8,-0.8 -1.1,-1.3 -0.3,-0.5 -0.7,-1 -1,-1.5 -1.1,1.2 -2.3,2.1 -3.7,2.8 -0.4,0.2 -0.9,0.5 -1.3,0.8 -0.2,0.1 -0.5,0.3 -0.9,0.2 0,-0.2 0,-0.4 -0.1,-0.7 -1.8,2.1 -3.8,3.6 -6.2,4.8 -0.2,-0.5 -0.3,-1 -0.4,-1.4 -0.1,-0.5 -0.1,-1 -0.2,-1.5 -0.1,-0.5 -0.1,-1 -0.2,-1.5 -0.1,0 -0.1,0.1 -0.2,0.2 -0.9,1 -2,1.9 -3.1,2.7 -0.4,0.3 -0.7,0.6 -1.1,0.8 -0.3,0.2 -0.5,0.2 -0.7,-0.1 -0.4,-0.7 -0.7,-1.4 -0.9,-2.2 -0.1,-0.6 -0.1,-1.2 -0.2,-1.8 -0.2,0.1 -0.3,0.2 -0.5,0.3 -0.2,0.1 -0.4,0.2 -0.6,0.3 -0.2,-0.5 -0.3,-0.9 -0.3,-1.4 0,-0.6 0,-1.2 0,-1.8 0.1,-0.8 0.5,-1.4 1,-2.1 -0.7,-0.1 -1.5,0.1 -2.2,-0.2 0,-0.2 0.2,-0.5 -0.2,-0.5 0,0 0,-0.1 0,-0.2 0.6,-0.5 1.1,-1 1.7,-1.5 0.9,-0.7 1.9,-1 2.9,-1.3 0.4,-0.1 0.8,-0.1 1.2,-0.2 l 0.1,-0.1 c -0.1,-1 0.5,-1.8 1.1,-2.6 1.5,-1.6 3.4,-2.7 5.5,-3.4 0.9,-0.3 1.9,-0.6 2.9,-0.8 0.4,-0.1 0.8,-0.1 1.2,-0.1 1,0 1.9,-0.1 2.8,0.1 0.1,0 0.2,0 0.4,0 0.1,-0.5 0.3,-0.8 0.7,-1.1 0.2,-0.1 0.3,-0.3 0.4,-0.4 0.3,-0.3 0.6,-0.6 0.4,-1 0.6,-0.4 0.6,-0.4 1,0 0.5,0.5 0.9,1.1 0.8,1.9 0,0.4 0,0.8 0,1.2 0,0.3 0.4,0.7 0.7,0.6 0.5,-0.2 0.9,0 1.4,0.2 0.5,0.2 1.1,0.4 1.6,0.6 0.1,0.1 0.3,0.2 0.4,0.3 0.2,0.2 0.3,0.5 0.5,0.7 0.1,0.1 0.2,0.2 0.4,0.3 0.5,0.1 0.9,0.4 1.2,0.9 0.5,1 0.8,2 0.8,3.1 0.1,0.9 0.1,1.5 0.1,2.1 -0.2,0 -0.3,0.3 -0.7,0.5 z m 1.5,-9.3 c -0.2,0.2 -0.5,0.3 -0.8,0.4 -0.1,0 -0.2,0.1 -0.3,0.1 -1,-0.1 -2,0 -2.8,-0.7 -0.1,-0.1 -0.3,-0.2 -0.5,-0.2 -0.2,-0.1 -0.3,-0.2 -0.2,-0.4 0,-0.1 -0.1,-0.2 -0.1,-0.3 0.3,-0.5 0.8,-0.7 1.2,-1 -0.1,-0.1 -0.3,-0.2 -0.4,-0.3 -0.2,-0.1 -0.5,-0.2 -0.7,-0.3 -0.4,-0.2 -0.4,-0.4 -0.3,-0.9 -0.1,-0.3 -0.5,-0.4 -0.4,-0.7 0.3,-0.2 0.6,-0.5 0.9,-0.8 0.3,-0.3 0.8,-0.3 1.2,-0.2 0.3,0 0.7,0.2 1.1,0.3 0.2,-0.5 0.7,-0.6 1.1,-0.9 0.6,0 1.2,0 1.8,0 0.1,0.2 0.2,0.3 0.3,0.5 0.2,0.4 0.3,0.8 0.1,1.2 -0.1,0.1 -0.1,0.3 -0.1,0.5 0.3,-0.1 0.6,-0.3 0.9,-0.4 0.6,-0.2 0.9,0 1,0.6 0.1,0.3 0.1,0.7 0.1,1.1 0,0.8 -0.3,1.5 -1,1.9 -0.3,0.2 -0.6,0.2 -0.9,0.4 -0.6,0.1 -0.9,-0.2 -1.2,0.1 z m 12.9,19.4 c -0.9,0.8 -1.9,1.6 -3.1,2 -0.7,0.3 -0.8,0.2 -1.3,-0.4 -1.3,0.6 -2.4,1.4 -3.6,2.2 -0.1,0 -0.2,0 -0.3,0 -0.4,-0.8 -0.4,-1.3 0.2,-2.5 -0.2,0 -0.3,0 -0.4,0.1 -0.3,0.2 -0.6,0.3 -0.9,0.5 -0.2,0.1 -0.4,0.2 -0.6,0.3 -0.3,-0.3 -0.3,-0.7 -0.2,-1 0.2,-0.5 0.4,-1 0.6,-1.6 -0.4,0 -0.8,0 -1.1,0 -0.3,0 -0.6,-0.1 -0.9,-0.2 -0.4,-0.3 -0.5,-0.7 -0.2,-1.1 0.1,-0.2 0.3,-0.3 0.5,-0.5 1.1,-0.7 2.2,-1.2 3.5,-1.2 0.6,0 1.1,-0.1 1.7,-0.3 0.2,-0.1 0.5,-0.1 0.8,0 0.6,0.2 1.3,0.4 1.8,0.7 0.4,0.2 0.8,0.4 1.2,0.3 0.9,-0.1 1.6,0.3 2.3,0.9 0.7,0.5 0.7,1.3 0,1.8 z m 3.6,-5.1 c -0.5,0.3 -1,0.5 -1.5,0.7 -0.6,0.2 -0.9,0.1 -1.2,-0.4 -0.2,-0.3 -0.3,-0.6 -0.4,-0.9 -0.8,0.6 -1.7,0.9 -2.7,1.2 -0.3,0.1 -0.8,0 -1.2,0 -0.3,-0.7 -0.2,-1.2 0.1,-1.8 -0.3,-0.2 -0.6,-0.4 -0.9,-0.5 -1.2,-0.4 -1.6,-1.4 -2,-2.4 -0.1,-0.3 0,-0.5 0.2,-0.7 0.3,-0.2 0.6,-0.4 0.9,-0.4 0.3,0 0.5,0 0.9,0 -0.2,-0.8 -0.3,-1.6 -0.1,-2.4 0.2,-0.7 0.3,-0.7 0.9,-1 1,0.3 1.7,1 2.1,1.8 0.4,-0.2 0.7,-0.4 1.1,-0.5 1,-0.2 2.3,0.7 2.7,1.7 0.2,0.5 0.3,0.9 -0.1,1.4 -0.2,0.2 -0.2,0.6 -0.2,0.8 -0.2,0.8 0.4,1.3 0.9,1.8 0.3,0.3 0.7,0.5 1.1,0.8 0,0.3 -0.3,0.6 -0.6,0.8 z"
   id="path10"
   inkscape:connector-curvature="0" />
	
</g>
<g
   id="drawing"
   transform="matrix(1.0655487,0,0,1.0655487,-45.968629,-37.708001)">
	<path
   id="figure"
   d="m 263.2,631.1 c 0.4,-0.4 0.9,-0.8 1.4,-1.1 0.2,-0.2 0.6,-0.2 0.8,-0.2 0.4,0.1 0.7,0 1,-0.1 0.4,-0.2 0.8,-0.3 1.3,-0.5 0.4,-1 0.7,-2.2 0.9,-3.4 0.2,-1.3 0.4,-2.7 0.5,-3.8 0.1,-1 0.2,-2 0.3,-3 0.3,-2.1 0.6,-4.2 1.3,-6.2 0.4,-1.2 1,-2.2 2.2,-2.8 0.3,-0.1 0.5,-0.5 0.7,-0.8 -0.1,-0.1 -0.2,-0.2 -0.2,-0.3 -0.6,-0.4 -1.2,-1 -1.5,-1.7 -0.5,-1.1 -1.1,-2.2 -1.3,-3.5 -0.3,-1.7 0.1,-3.3 0.5,-5 0.1,-0.3 0.2,-0.5 0.2,-0.8 0.3,-1.4 1.1,-2.4 2.4,-2.9 0.3,0 0.6,0 0.9,0 0.3,0.2 0.7,0.4 1,0.6 v 0.1 c -0.2,0 -0.4,0.1 -0.6,0 -1.1,-0.3 -1.7,0.3 -2.3,1.1 -0.6,0.9 -0.8,2 -1,3.1 -0.1,0.7 -0.2,1.4 -0.1,2.1 0.2,2.7 1.2,4.9 3.4,6.5 0.4,0.3 0.8,0.5 1.4,0.4 0.1,0 0.2,0 0.2,0 1.1,0.5 1.6,-0.3 2.2,-1 0.1,-0.2 0.3,-0.3 0.4,-0.5 0.1,0 0.1,0 0.2,0 0,0.2 0,0.4 0,0.6 -0.5,1.2 -1.5,1.8 -2.7,1.9 -0.8,0.1 -2,1.1 -2,1.8 0,0.3 0.1,0.7 0.1,1.1 0.1,0.6 0.2,1.2 0.3,1.9 0.1,0.9 0.1,1.8 0.2,2.7 0.1,1.3 0.3,2.7 0.4,3.8 0,0.9 0.5,1.9 0.1,2.8 0,0.1 0,0.2 0,0.3 0.3,1.1 0.6,2.1 1,3.2 0.1,0.3 0.5,0.4 0.9,0.4 1.4,-0.2 2.8,-0.2 4.2,0.1 0.4,0.1 0.7,0.2 0.8,0.7 0.1,0.3 0.2,0.5 0.3,0.8 0.4,1.7 0.9,3.3 1.3,5 0.2,1 0.2,2.1 0.3,3.1 0.2,1.5 0.2,3.1 0.5,4.6 0.1,0.7 0.3,1.5 0.1,2.2 -0.1,0.2 -0.1,0.4 -0.2,0.4 -0.4,0.2 -0.4,0.6 -0.4,0.9 0,0.4 0,0.8 0,1.2 0,0.3 -0.2,0.5 -0.3,0.8 0.9,0.7 1.6,1.7 2.8,2.1 0,1.1 -0.5,1.5 -1.5,1.5 -0.7,0 -1.4,-0.1 -2,-0.1 -0.3,0 -0.5,-0.2 -0.6,-0.5 -0.1,-0.4 -0.4,-0.6 -0.7,-0.9 -0.4,-0.3 -0.8,-0.5 -1.2,-0.7 -1.4,-0.6 -1.4,-2.9 -0.1,-3.7 0.3,-0.2 0.5,-0.4 0.8,-0.6 -0.3,-0.2 -0.5,-0.3 -0.8,-0.5 0.4,-0.8 0.6,-1.5 0.2,-2.3 -0.1,-0.2 0,-0.5 0,-0.8 0.1,-0.6 0.2,-1.2 -0.1,-1.7 -0.1,-0.3 -0.1,-0.6 -0.2,-0.9 -0.2,-1.1 -0.5,-2.1 -0.8,-3.2 -0.2,-0.8 -0.6,-1.6 -0.6,-2.5 0,-1.1 -0.3,-1.4 -1.4,-1.7 -0.2,-0.1 -0.4,-0.3 -0.7,-0.6 -1,0.1 -1.9,-0.5 -2.7,-1.2 -0.5,-0.5 -0.8,-1 -0.8,-1.8 0,-0.3 -0.1,-0.6 -0.2,-0.9 -0.5,-1.5 -0.7,-3 -1,-4.5 -0.3,-2.2 -0.2,-4.4 -0.3,-6.7 -0.2,1 -0.4,1.8 -0.5,2.7 -0.2,1.4 -0.4,2.8 -0.6,4.2 -0.1,0.9 -0.4,1.7 -0.5,2.7 -0.2,0.8 -0.2,1.7 -0.4,2.5 -0.1,0.6 -0.2,1.1 -0.3,1.7 0,0.1 -0.1,0.3 0,0.3 0.3,0.5 0.1,0.9 0,1.4 -0.1,0.5 -0.4,0.7 -0.8,0.8 -0.8,0.1 -1.6,0.2 -2.4,0.2 -0.1,0 -0.3,-0.2 -0.5,-0.3 -0.3,0.1 -0.5,0.4 -0.9,0 -0.1,-0.1 -0.3,0 -0.5,0.1 -0.4,0.1 -0.8,0.3 -1.3,0.5 -0.1,-0.3 0.2,-0.7 -0.2,-0.8 -0.3,-0.3 -0.3,-0.3 -0.3,-0.4 z m 21.9,0.8 c 0.6,0.1 1,0.4 1.3,1 0.3,0.7 0.6,1.4 1,2 0.9,1.4 1,3.1 1.2,4.7 0.1,0.4 0.1,0.9 0.2,1.3 0.1,0.3 0.1,0.5 0.1,0.8 0,1.2 0.3,2.4 0,3.6 0,0.3 0,0.5 0.1,0.8 0,0.2 0.1,0.4 0,0.6 -0.2,0.4 -0.1,0.8 0.1,1.2 0.2,0.5 0.4,1.1 0.7,1.6 0.4,0.8 1.2,1.1 2,0.9 0.1,0 0.3,-0.1 0.4,0 0.6,0.2 1.2,0.3 1.8,0.6 0.5,0.3 1,0.2 1.4,-0.1 0.4,-0.3 0.8,-0.5 1,-0.9 0.2,-0.3 0.5,-0.6 0.3,-1 -1,0.4 -3,-0.3 -3.6,-1.3 -0.1,-0.1 0,-0.3 0.1,-0.6 -0.1,-0.1 -0.2,-0.3 -0.4,-0.5 0.6,-0.3 0.6,-0.7 0.4,-1.2 -0.3,-0.9 -0.6,-1.7 -0.8,-2.7 -0.3,-1.5 -0.6,-3 -0.9,-4.5 -0.3,-1.5 -0.7,-3.1 -1.2,-4.6 -0.2,-0.7 -0.2,-1.5 -1.1,-1.7 v -0.1 c -0.1,-0.6 -0.6,-0.9 -1,-1.3 -0.9,-0.8 -1.7,-1.5 -2.9,-1.6 -0.4,0 -0.9,0.1 -1,0.4 -0.1,0.6 -0.4,1.3 -0.1,1.9 0.1,0.3 0.2,0.6 0.2,0.9 0.4,-0.2 0.5,-0.2 0.7,-0.2 z m 8,-1.8 c -0.1,0 -0.3,-0.1 -0.4,0 -0.5,0.4 -0.8,-0.1 -1.1,-0.4 -0.2,-0.2 -0.3,-0.5 -0.5,-0.5 -0.8,-0.2 -1,-1 -1.4,-1.6 -0.5,-0.9 -1,-1.9 -1.7,-2.7 -0.4,-0.5 -0.8,-1 -1.1,-1.6 -1.3,-2.4 -2.7,-4.8 -3.9,-7.1 -0.1,-0.2 -0.2,-0.4 -0.3,-0.5 -0.7,-0.2 -1.1,-0.6 -1.4,-1.2 -0.5,0.1 -0.7,0.3 -0.5,0.8 0.2,0.3 0.2,0.7 0.4,1.1 1,2.2 2,4.4 3.2,6.5 0.7,1.2 2.4,3.2 2.4,3.1 0.9,1.5 1.8,2.7 3.1,3.9 0.3,0.3 1.3,0.9 1.4,1 0.8,0.8 1.9,0.8 2.8,1.3 0.2,0.1 0.4,0.1 0.6,0 0.5,-0.2 1,-0.3 1.5,-0.5 -0.9,-0.7 -2,-1 -3.1,-1.6 z m -17.4,-27.2 c 0.4,-0.9 -0.1,-1.5 -0.4,-2.2 -0.2,0.8 0,1.5 0.4,2.2 z m 3,-1.3 c 0.1,-0.6 0,-1.1 -0.6,-1.5 0.1,0.5 0.3,1 0.4,1.5 0.1,0 0.2,0 0.2,0 z"
   inkscape:connector-curvature="0" />
	<path
   id="couch-shadow"
   d="m 281.1,642.4 c 0,0.1 0,0.1 0,0 0,0.1 0,0.1 0,0 z m 0.1,0.4 0,0 0,0 z m 0,0.1 0,0 0,0 z m 0,-0.3 0,0 0,0 z M 281,644 c 0,-0.1 0,-0.1 0,0 0,-0.1 0,-0.1 0,0 z m 8.1,-1.5 c 0,0.6 0.1,1.2 0.1,1.7 0,-0.7 -0.1,-1.2 -0.1,-1.7 z m -34.7,0.9 0,0 c -0.6,-0.1 -1.2,0 -1.9,0.1 l 0,0 c -0.1,0 -0.1,0 -0.2,0 v 0.1 c 0,0 0,0 0,0.1 0.5,-0.2 1.2,-0.4 2.1,-0.3 z m 34.7,-1 c 0,-0.1 0,-0.1 0,0 -0.1,-0.1 -0.1,-0.1 0,0 z m -0.1,-0.4 0,0 0,0 z m -7.8,0.6 c 0,0 0,0.1 0,0 0,0.1 0,0 0,0 z m -0.1,1 c 0,0.1 0,0.1 0,0 0,0.1 0,0.1 0,0 z m 0.1,-0.2 0,0 0,0 z m 0,0.1 c 0,0 -0.1,0 0,0 l 0,0 z m -0.1,-1.1 c 0,-0.1 0,-0.1 0,0 0,-0.1 0,-0.1 0,0 z m 0,1.4 0,0 0,0 z m 0.1,-0.6 c 0,0 0,0.1 0,0 0,0.1 0,0 0,0 z m 11.1,7 c -0.1,0 -0.3,0 -0.4,0 -0.9,0.2 -1.6,-0.1 -2,-0.9 -0.3,-0.5 -0.5,-1 -0.7,-1.6 -0.2,-0.4 -0.2,-0.8 -0.1,-1.2 0.1,-0.2 0,-0.4 0,-0.6 0,-0.3 -0.1,-0.5 -0.1,-0.8 0.1,-0.3 0.1,-0.7 0.1,-1 -1.3,0 -2.5,0 -3.8,0 0,0.1 0,0.3 0,0.4 0,0.5 -0.3,0.7 -0.7,0.9 -0.1,0.4 0,0.7 0.3,1.1 0.6,0.8 1.2,1.6 1.3,2.7 0,0.2 0.1,0.4 0,0.5 0.2,0.1 0.4,0.2 0.6,0.2 0,1.1 -0.5,1.5 -1.5,1.5 -0.7,0 -1.4,-0.1 -2,-0.1 -0.3,0 -0.5,-0.2 -0.6,-0.5 -0.1,-0.4 -0.4,-0.6 -0.7,-0.9 -0.4,-0.3 -0.8,-0.5 -1.2,-0.7 -1.4,-0.6 -1.4,-2.9 -0.1,-3.7 0.3,-0.2 0.5,-0.4 0.8,-0.6 -0.3,-0.2 -0.5,-0.3 -0.8,-0.5 0.1,-0.1 0.1,-0.2 0.2,-0.4 v 0.1 c -7.7,0 -15.2,0 -22.8,0 -0.5,0 -1,-0.1 -1.4,-0.2 -0.1,0 -0.3,0 -0.4,-0.1 -0.1,0.9 -0.4,1.6 -1.2,1.9 -0.2,-0.1 -0.3,-0.2 -0.4,-0.2 -0.4,0.2 -0.7,0.1 -0.9,-0.3 0,-0.1 -0.2,-0.1 -0.3,-0.1 -0.5,0.2 -0.6,-0.2 -0.7,-0.6 -0.1,-0.2 -0.2,-0.4 -0.2,-0.7 -0.2,0 -0.4,-0.1 -0.6,-0.2 -0.1,0 -0.2,0.1 -0.3,0.1 -0.9,0 -1.4,0.5 -1.8,1.2 0.5,0.3 0.8,0.8 0.9,1.4 0,0.2 0.2,0.5 0.5,0.5 0.5,0 0.9,0.1 1.4,0.2 1.6,0.1 3.2,0.2 4.7,0.3 0.4,0 0.8,0.1 1.1,0 0.5,-0.1 1,-0.2 1.6,-0.1 0.3,0 0.6,0 0.9,0 1.3,0 2.7,-0.2 4,-0.1 0.9,0 1.7,-0.1 2.7,-0.3 1,-0.2 1.9,-0.4 3,-0.2 0.5,0.1 1,0 1.5,0 0.5,0 1,-0.2 1.5,-0.2 1.3,0.1 2.6,0.5 3.7,1.1 0.3,0.1 0.6,0.3 0.6,0.7 -0.6,0.7 -1.2,1.5 -0.9,2.5 0.6,0.3 1.1,0.5 1.6,0.8 0.3,0.2 0.5,0.8 1,0.7 0.2,0.5 0.5,0.5 1,0.4 1,0 2,0.1 3.1,0.2 0.2,0 0.5,0.1 0.7,0 0.2,-0.1 0.3,-0.2 0.5,-0.4 0,0.1 0.1,0.2 0.1,0.3 0.3,-0.1 0.6,-0.2 0.8,-0.3 0.2,-0.1 0.3,-0.1 0.5,-0.2 0.4,-0.2 0.7,-0.6 1.2,-0.4 0.1,0 0.2,-0.1 0.3,-0.2 0.4,-0.3 0.8,-0.3 1.3,-0.3 0.7,0 1.6,0.2 2.2,-0.5 0,0 0.1,0 0.1,-0.1 0.1,0.1 0.2,0.2 0.3,0.3 0.6,-0.1 0.5,-0.1 1,-0.5 0.1,-0.1 0.3,-0.2 0.4,-0.2 0.2,0 0.4,0 0.6,-0.1 -0.6,0.2 -1,0.1 -1.5,0 z m -42.6,-8.2 0,0 0,0 0,0 z m 31.5,1 c 0,0.1 0,0.1 0,0 0,0.1 0,0.1 0,0 z m 37.8,3.1 c -0.7,0.1 -1.4,-0.3 -1.6,-0.9 -0.1,-0.2 -0.2,-0.5 -0.2,-0.8 0,-0.3 -0.2,-0.5 -0.5,-0.5 -0.5,0 -1,0 -1.5,0 -4.1,0 -8.2,0 -12.4,0 -0.9,0 -1.7,0 -2.7,0.1 -1.1,0.2 -2.2,0.2 -3.4,0.2 -0.9,0 -1.7,0 -2.7,0 v 0.1 c 0.1,0.7 0.2,1.5 0.3,2.2 0,0.2 0.1,0.4 0.2,0.5 0.2,0 0.3,0.1 0.4,0.2 1,0.1 1.9,0.2 2.9,0.1 1.6,0 3.2,-0.2 4.8,-0.2 1.2,0 2.5,-0.2 3.7,-0.1 0.9,0.1 1.8,0.1 2.8,0.1 0.6,0 1.2,0.2 1.7,-0.3 0.3,0.2 0.5,0.4 0.8,0.5 0.4,0.1 0.9,0.1 1.2,0 1.1,-0.3 2.2,0.1 3.3,0 0.5,0 1,0 1.5,-0.1 0.3,-0.1 0.6,-0.2 0.9,-0.1 0.8,0.1 1.2,-0.3 1.6,-0.8 0.1,-0.1 0.2,-0.3 0.3,-0.4 0.5,-0.6 0.5,-0.8 0.2,-1.3 0.1,0.8 -0.5,1.2 -1.6,1.5 z"
   inkscape:connector-curvature="0"
   style="fill:#bababa" />
	<path
   id="couch"
   d="m 273,606.4 c 0,-0.1 -0.1,-0.1 -0.1,-0.2 0.2,0.3 0.4,0.6 0.6,0.8 -0.2,-0.2 -0.3,-0.4 -0.5,-0.6 z m 11.4,24.6 0,0 c -0.1,0.1 -0.1,0.2 -0.2,0.3 0.1,0 0.2,0 0.3,0 0,-0.1 0,-0.2 -0.1,-0.3 z m 39.2,-3.1 c 0,-1.2 -0.4,-2.4 -0.6,-3.6 -0.2,-1 -0.7,-2 -1.2,-2.9 -0.5,-0.8 -1.2,-1.4 -2.3,-1.5 -0.1,0 -0.2,0 -0.3,0 l 0,0 c -0.2,-1.3 -0.5,-2.5 -0.7,-3.8 -0.1,-0.6 -0.3,-1.3 -0.5,-1.9 -0.2,-0.5 -0.5,-0.9 -0.7,-1.3 -0.3,-0.9 -1.1,-1.4 -1.7,-2.1 -0.9,-1 -1.9,-1.7 -3.1,-2.2 -1,-0.4 -2,-0.7 -3,-1 -0.2,0.1 -0.3,0.2 -0.5,0.3 -0.4,0.2 -0.9,0.5 -1.3,0.8 -0.2,0.1 -0.5,0.3 -0.9,0.2 0,-0.2 0,-0.4 -0.1,-0.7 -1.8,2.1 -3.8,3.6 -6.2,4.8 -0.2,-0.5 -0.3,-1 -0.4,-1.4 -0.1,-0.5 -0.1,-1 -0.2,-1.5 -0.1,-0.5 -0.1,-1 -0.2,-1.5 -0.1,0 -0.1,0.1 -0.2,0.2 -0.9,1 -2,1.9 -3.1,2.7 -0.4,0.3 -0.7,0.6 -1.1,0.8 -0.3,0.2 -0.5,0.2 -0.7,-0.1 -0.4,-0.7 -0.7,-1.4 -0.9,-2.2 -0.1,-0.6 -0.1,-1.2 -0.2,-1.8 -0.2,0.1 -0.3,0.2 -0.5,0.3 -0.2,0.1 -0.4,0.2 -0.6,0.3 -0.2,-0.5 -0.3,-0.9 -0.3,-1.4 0,-0.6 0,-1.2 0,-1.8 0,-0.6 0.3,-1.1 0.6,-1.6 -0.2,0 -0.5,-0.1 -0.7,-0.1 -0.8,-0.1 -1.6,-0.1 -2.5,-0.2 -0.2,0 -0.4,-0.1 -0.6,-0.1 -0.7,0 -1.4,0 -2.1,0 -0.1,0 -0.1,0.1 -0.2,0.1 -0.7,0.1 -1.5,0.1 -2.3,0.2 -1.1,0.1 -2.3,0 -3.4,0.2 -0.5,0.1 -1,0.2 -1.5,0.3 0,0.4 -0.1,0.7 -0.2,1.1 -0.2,0.7 -0.2,1.4 -0.3,2.2 0,0.1 0,0.1 0,0.2 0,0.2 0,0.3 0,0.4 -0.2,0.5 -0.5,0.8 -0.8,1.1 0.1,0.1 0.2,0.2 0.4,0.2 0.4,0.1 0.8,0.2 1.2,0.3 0.5,0.1 0.9,0.3 1.2,0.9 0.5,0.9 1,1.7 1.6,2.5 0.4,0.6 0.8,1.2 1,1.9 0.2,0.5 0.3,1 0.7,1.3 0.1,0.1 0.2,0.3 0.3,0.5 0.5,1.3 1.2,2.5 1.9,3.6 0.4,0.6 0.7,1.2 1,1.9 0,0.1 0.1,0.2 0.1,0.3 0.5,0.7 0.9,1.5 1.4,2.2 0.1,0.2 0.3,0.3 0.4,0.5 0.4,1 1.1,1.8 1.7,2.7 0.4,0.6 1,0.9 1.6,1 0.6,0.1 1,0.3 1.4,0.8 0.1,0.1 0.2,0.2 0.3,0.3 -0.2,-0.9 0.1,-1.2 1,-0.9 0.3,0.1 0.6,0.1 0.9,0.1 0.9,0 1.9,0 2.8,0.1 0.2,0 0.5,0 0.7,0 0.9,0.1 1.8,0.1 2.7,0.2 1.2,0.2 2.5,0.2 3.7,0 0.9,-0.1 1.8,0 2.7,0 0.8,0.1 1.6,0.2 2.6,0.6 -0.3,0.1 -0.5,0.1 -0.7,0.2 -0.2,0 -0.5,0 -0.7,0.1 -0.5,0.1 -0.9,0.3 -1.3,0.3 -0.6,0.1 -1.2,0.1 -1.7,0.1 -0.9,0 -1.7,-0.1 -2.5,-0.3 -0.9,-0.2 -1.9,-0.2 -2.8,-0.1 -0.8,0 -1.6,0.2 -2.6,0.3 -0.8,0.1 -1.5,0.1 -2.3,0.2 -0.1,0 -0.3,0 -0.4,-0.1 -0.3,-0.5 -0.8,-0.3 -1.3,-0.3 0.1,0.2 0.2,0.3 0.3,0.4 0.2,0.2 0.3,0.4 0.2,0.6 0.1,0.1 0.3,0.2 0.4,0.3 -0.6,0.2 -1,0.4 -1.5,0.5 -0.2,0 -0.4,0 -0.6,0 -0.9,-0.5 -2,-0.5 -2.8,-1.3 0,0 -0.1,-0.1 -0.2,-0.1 -0.2,0 -0.3,0 -0.5,0 0.2,0.5 0.4,0.9 0.7,1.4 0.4,0.7 0.6,1.5 0.8,2.3 0.1,0.5 0.3,1 0.4,1.5 0,0.1 0,0.2 0.1,0.3 0.8,0.7 0.7,1.8 0.8,2.7 0.2,1.3 0.3,2.5 0.5,3.8 0.1,0.4 0.2,0.8 0.3,1.2 0.9,0 1.8,0 2.7,0 1.1,0 2.2,0 3.4,-0.2 0.9,-0.1 1.7,-0.1 2.7,-0.1 4.1,0 8.2,0 12.4,0 0.5,0 1,0 1.5,0 0.3,0 0.5,0.1 0.5,0.5 0,0.3 0.1,0.5 0.2,0.8 0.3,0.7 0.9,1 1.6,0.9 1,-0.2 1.7,-0.7 1.9,-1.8 0,-0.2 0.1,-0.4 0.2,-0.6 -0.4,0 -0.8,0 -1.3,0 0.4,-0.3 0.9,-0.3 1.3,-0.4 0.2,0 0.3,0.1 0.4,0.3 0.3,0 0.5,-0.1 0.8,-0.3 0.1,-0.1 0.2,-0.3 0.2,-0.5 0,-0.4 -0.1,-0.8 -0.1,-1.3 0.6,-0.2 0.8,-0.7 0.7,-1.3 -0.1,-0.7 -0.1,-1.4 -0.1,-2.1 0,-0.7 0.1,-1.4 0.2,-2.1 0.1,-0.7 0.2,-1.3 0.3,-2 0.1,-1.2 0.1,-2.4 0.2,-3.6 0,-0.3 0.1,-0.5 0.1,-0.8 0,-0.4 0,-0.9 0,-1.3 -0.1,-0.4 -0.2,-0.5 -0.2,-0.6 z M 307,637 c -1.7,0 -3.5,0 -5.2,0 -0.6,0 -1.3,-0.1 -1.9,-0.1 -0.5,0 -0.9,0.1 -1.4,0.1 v -0.1 c 0.4,0 0.7,-0.1 1.1,-0.1 2.4,0 4.8,0 7.3,0 0.3,0 0.6,-0.1 0.9,0.2 -0.4,-0.1 -0.6,0 -0.8,0 z m 3.9,-11 c -0.1,0.2 -0.2,0.4 -0.3,0.6 0,0.1 -0.1,0.1 -0.1,0.2 -0.3,-0.4 -0.2,-0.8 -0.2,-1.2 0.2,-1.3 0.8,-2.3 1.6,-3.2 0.9,-1 1.9,-1.8 3.2,-2.4 0.2,-0.1 0.3,-0.2 0.5,-0.2 0.1,0 0.3,0.1 0.4,0.2 0,0 0,0.2 -0.1,0.3 -0.2,0.2 -0.5,0.5 -0.8,0.6 -2.1,1.1 -3.4,2.8 -4.2,5.1 z m 2.8,13.4 c -0.5,-0.4 -0.5,-0.9 -0.6,-1.4 -0.2,-0.9 -0.3,-1.7 -0.4,-2.7 0,-0.2 0,-0.4 -0.1,-0.7 0.7,1.3 1.3,3.6 1.1,4.8 z m 3.2,-0.1 c -0.1,-0.2 -0.2,-0.3 -0.3,-0.5 -0.1,-0.5 -0.1,-1 -0.2,-1.5 0,-0.4 -0.1,-0.7 -0.2,-1.1 -0.4,-1 -0.8,-2 -1.2,-2.9 -0.4,-0.9 -0.7,-1.7 -0.6,-2.7 0,-0.4 0.1,-0.7 0.2,-1.1 0.3,1.4 0.7,2.7 1.4,4 0.6,1 0.9,2.1 1.1,3.2 0.1,0.8 0.2,1.7 -0.2,2.6 z m 5.8,-6.1 c 0,1 -0.8,2.7 -0.9,3.6 -0.1,0.8 -0.3,1.6 -0.4,2.4 0,0.2 -0.1,0.4 -0.2,0.5 0,0 -0.3,-0.5 -0.3,-0.7 -0.1,-0.8 0.1,-1.5 0.2,-2.2 0.3,-1.6 1.1,-3.3 1,-5 -0.1,-1.2 -0.1,-2.3 -0.3,-3.5 -0.1,-1 -0.4,-1.9 -0.7,-2.8 -0.2,-0.5 -0.6,-1 -0.9,-1.5 -0.8,-1 -2.5,-1 -3.4,-0.4 -0.7,0.5 -1.4,0.9 -1.9,1.7 -0.1,0.2 -0.3,0.3 -0.6,0.5 0.4,-0.7 0.8,-1.4 1.4,-1.9 0.1,-0.1 0.2,-0.1 0.2,-0.2 0.7,-0.7 1.6,-0.9 2.7,-0.9 0.8,0 1.4,0.3 1.9,0.8 0.7,0.6 1.2,1.4 1.4,2.3 0.3,1.2 0.5,2.4 0.6,3.6 0.2,1.6 0.2,2.4 0.2,3.7 z m -35.4,-4.9 c 0.1,0 0.2,0.1 0.3,0.2 0.4,0.3 0.8,0.4 1.2,0.3 -0.7,-0.8 -1.3,-1.7 -1.9,-2.7 0,0.1 -1.7,-1.9 -2.4,-3.1 -1.2,-2.1 -2.2,-4.3 -3.2,-6.5 l 0,0 c 0,0.4 0.1,1.1 0.2,1.5 0.1,0.3 0.2,1.4 0.3,1.5 -0.1,0.1 0.2,1.9 0.4,2.7 0.2,1.4 0.4,2.8 0.6,4.3 0.1,0.4 0.3,0.7 0.6,0.9 0.7,0.3 1.4,0.7 2.1,0.7 0.6,-0.1 1.2,0 1.8,0.2 z m 1.6,12.6 c -0.1,-0.4 -0.1,-0.9 -0.2,-1.3 -0.3,-1.6 -0.4,-3.3 -1.2,-4.7 -0.4,-0.6 -0.7,-1.4 -1,-2 -0.3,-0.5 -0.7,-0.9 -1.3,-1 -0.2,0 -0.4,0 -0.6,0 0,-0.1 0,-0.2 -0.1,-0.4 -0.1,0 -0.1,0 -0.2,0 0.3,1.2 0.6,2.3 0.8,3.5 0.1,0.7 0.3,1.3 0.2,2 0,0.5 0.1,1 0.1,1.5 -0.1,1.9 -0.1,3.8 -0.1,5.7 1.3,0 2.7,0 3.9,0 0,-0.8 -0.1,-1.7 -0.1,-2.5 -0.1,-0.3 -0.1,-0.5 -0.2,-0.8 z m -7.9,0.5 c 0.1,-0.6 0.2,-1.2 -0.1,-1.7 -0.1,-0.3 -0.1,-0.6 -0.2,-0.9 -0.2,-1.1 -0.5,-2.1 -0.8,-3.2 -0.2,-0.8 -0.6,-1.6 -0.6,-2.5 0,-1 -0.2,-1.3 -0.9,-1.6 -0.6,-0.1 -1.3,-0.2 -1.9,-0.3 -1,-0.1 -2.1,-0.2 -3.1,-0.3 -0.5,-0.1 -1.1,-0.1 -1.6,-0.2 0.9,0 1.8,-0.4 2.8,-0.1 0.3,0.1 0.7,0.1 1.1,0 0,0 0.1,0 0.2,0 -0.5,-0.2 -0.9,-0.6 -1.3,-0.9 -0.5,-0.5 -0.8,-1 -0.8,-1.8 0,-0.3 -0.1,-0.6 -0.2,-0.9 -0.5,-1.5 -0.7,-3 -1,-4.5 -0.2,-1.5 -0.2,-3.1 -0.3,-4.7 0,0.4 0,0.9 -0.1,1.3 -0.1,0.6 -0.2,1.2 -0.2,1.7 0,1.7 -0.3,3.3 -0.7,4.9 -0.2,1.1 -0.5,2.3 -0.7,3.4 -0.1,0.5 -0.2,1 -0.3,1.5 0.2,0 0.3,0.1 0.5,0.2 -0.1,0 -0.2,0.1 -0.2,0.1 -0.2,0 -0.4,0 -0.6,0.3 -0.3,0.3 -0.7,0.5 -1,0.8 0,-0.1 0,-0.1 -0.1,-0.2 0,0 0,0 -0.1,0 -0.8,0.1 -1.6,0.2 -2.4,0.2 -0.1,0 -0.3,-0.2 -0.5,-0.3 -0.3,0.1 -0.5,0.4 -0.9,0 -0.1,-0.1 -0.3,0 -0.5,0.1 -0.4,0.1 -0.8,0.3 -1.3,0.5 -0.1,-0.3 0.2,-0.7 -0.2,-0.8 0,0 0,-0.1 0,-0.2 0.4,-0.4 0.9,-0.8 1.4,-1.1 0.2,-0.2 0.6,-0.2 0.8,-0.2 0.4,0.1 0.7,0 1,-0.1 0.4,-0.2 0.8,-0.3 1.3,-0.5 0.4,-1 0.7,-2.2 0.9,-3.4 0.2,-1.3 0.4,-2.7 0.5,-3.8 0.1,-1 0.2,-2 0.3,-3 0.3,-2.1 0.6,-4.2 1.3,-6.2 0.4,-1.2 1,-2.2 2.2,-2.8 0.3,-0.1 0.5,-0.5 0.7,-0.8 -0.1,-0.1 -0.2,-0.2 -0.2,-0.3 -0.6,-0.4 -1.2,-1 -1.5,-1.7 -0.2,-0.5 -0.5,-1.1 -0.7,-1.6 -0.2,0 -0.4,0.1 -0.5,0.1 -1.3,0.3 -2.7,0.5 -3.9,1 -1.5,0.6 -3,1.2 -4.5,1.7 -1.5,0.5 -3,1.2 -4.2,2.3 -0.4,0.3 -0.8,0.7 -1.1,1.2 -0.6,1 -1,2 -1.5,3 -0.3,0.6 -0.6,1.2 -1,1.8 -0.1,0.2 -0.4,0.4 -0.5,0.7 0,0.3 -0.2,0.7 -0.3,1 -0.1,0.3 -0.1,0.7 -0.1,1 0,0.4 -0.1,0.6 -0.6,0.6 -0.4,0 -0.7,0.2 -0.9,0.4 -0.8,0.7 -1.6,1.3 -2,2.3 -0.4,1 -0.9,1.9 -1.1,2.9 -0.2,0.9 -0.3,1.7 -0.4,2.7 0,0.2 -0.1,0.4 -0.2,0.6 0,0.6 0,1.2 0,1.8 0.1,0.5 0.2,1 0.3,1.5 0.2,1.1 0.3,2.2 0.5,3.3 0.1,0.7 0.3,1.5 0.2,2.2 0,0.4 0,0.7 0,1.1 0,0.7 0,1.4 0,2.1 0,0.3 0.1,0.6 0.2,0.8 0,0.1 0,0.2 0,0.2 0,0.3 0.1,0.7 0.1,1 0.4,0 0.7,0 1,0 0,0.2 0,0.4 0.3,0.4 0.5,0 1,0.1 1.5,0.2 l 0,0 c 0.6,-0.1 1.3,-0.2 2,-0.1 -0.6,0.3 -1.3,0.4 -1.9,0.4 0.1,0.2 0.2,0.5 0.2,0.7 0.1,0.3 0.2,0.7 0.7,0.6 0.1,0 0.2,0 0.3,0.1 0.2,0.4 0.5,0.5 0.9,0.3 0.1,0 0.2,0.1 0.4,0.2 0.8,-0.3 1.2,-1 1.2,-1.9 0.2,0 0.3,0.1 0.4,0.1 0.5,0.1 1,0.2 1.4,0.2 7.6,0 15.2,0 22.8,0 0.3,-0.7 0.4,-1.3 0,-2 0.2,-0.4 0.3,-0.7 0.3,-0.9 z m -28.6,-18.3 c -0.7,0.6 -1.1,1.4 -1.4,2.2 -0.2,0.6 -0.4,1.3 -0.5,2 -0.2,1.3 0,2.7 0.5,3.8 0.4,0.9 0.8,1.7 1,2.7 0.1,1 0.4,2.1 0.3,3.2 -0.1,0.7 0,1.5 -0.1,2.2 0,0.3 -0.2,0.7 -0.2,1 -0.1,0 -0.1,0 -0.2,0 -0.3,-0.6 -0.5,-1.3 -0.4,-2 0.1,-0.6 0.2,-1.2 0.2,-1.7 0,-0.6 -0.1,-1.2 -0.2,-1.7 -0.2,-1.3 -0.6,-2.4 -1.1,-3.6 -0.6,-1.6 -0.8,-3.3 -0.2,-5 0.3,-0.7 0.5,-1.4 0.9,-2.1 0.4,-0.7 1.1,-1.3 1.9,-1.7 0.2,-0.1 0.3,-0.1 0.6,-0.1 -0.4,0.3 -0.8,0.6 -1.1,0.8 z m 10,8.6 c -0.6,0.4 -1.3,0.6 -2.2,0.5 -0.1,-0.3 0,-0.5 0.3,-0.5 0.6,0 1.2,0 1.9,0 z m -4.5,-1.5 c 0,0.8 -0.2,1.6 -0.3,2.4 -0.2,1 -0.4,2 -0.6,3 -0.2,1 -0.3,1.9 -0.5,3 -0.4,-0.1 -0.4,-0.4 -0.5,-0.7 -0.2,-0.7 -0.1,-1.4 0,-2.1 0.3,-1.9 0.7,-3.8 0.9,-5.8 0.2,-1.4 0.2,-2.9 -0.1,-4.4 -0.2,-1.2 -0.8,-2.1 -1.6,-2.8 0,0 0,-0.1 0.1,-0.1 0.3,0.2 0.6,0.3 0.8,0.5 0.8,0.8 1.2,1.7 1.5,2.8 0.3,1.3 0.3,2.7 0.3,4.2 z m -0.3,-9.9 c -0.3,-0.2 -0.7,-0.4 -1.1,-0.6 -0.2,-0.1 -0.5,-0.2 -0.8,-0.5 1.3,-0.1 2.4,0.3 3.3,1.1 1.3,1 2.2,2.4 2.7,4 0.1,0.4 0.1,0.8 -0.2,1.2 -0.2,-0.4 -0.4,-0.8 -0.6,-1.2 -0.7,-1.6 -1.8,-2.9 -3.3,-4 z m 1,19.3 c -0.3,-1.1 -0.1,-3.5 0.4,-4.4 0.3,1.7 0.1,3.8 -0.4,4.4 z m 9.7,-2.6 c -1.7,0 -3.5,0 -5.2,0 -0.6,0 -1.3,-0.1 -1.9,-0.1 -0.5,0 -0.9,0.1 -1.4,0.1 v -0.1 c 0.4,0 0.7,-0.1 1.1,-0.1 2.4,0 4.8,0 7.3,0 0.3,0 0.6,-0.1 0.9,0.2 -0.5,-0.1 -0.6,0 -0.8,0 z m 5.1,0.2 c 0.2,-0.1 0.3,-0.2 0.4,-0.2 1.5,0 3.1,0 4.6,0 -0.5,0.3 -3.7,0.3 -5,0.2 z"
   inkscape:connector-curvature="0"
   style="fill:#ae6364" />
	<path
   id="table-shadow"
   d="m 372.3,644.7 c 0.1,-0.4 -0.1,-0.6 -0.3,-0.8 -0.4,0.1 -0.7,0.1 -1,0.2 0,0.2 0,0.4 0,0.6 0,0.3 0,0.5 -0.3,0.7 -0.5,0.4 -1.1,0.3 -1.7,0.2 -0.2,0 -0.5,-0.1 -0.7,-0.1 -0.3,0 -0.7,0.2 -0.9,0 -0.2,-0.2 -0.2,-0.6 -0.3,-0.9 0,-0.1 0,-0.3 0,-0.4 0,-0.1 0,-0.3 0,-0.4 -0.3,0 -0.6,0 -0.8,0 -1,0.1 -1.9,0.2 -2.9,0.2 -0.5,0 -0.9,-0.1 -1.4,-0.1 -0.8,0 -1.7,0 -2.6,0 -0.2,0 -0.5,0 -0.6,-0.2 -0.3,-0.2 -0.5,-0.2 -0.8,-0.2 -1.3,0.1 -2.7,0.2 -4,0.2 -1.1,0 -2.2,0.1 -3.4,0.1 -1.3,0 -2.7,0.1 -3.9,0.1 -1.3,-0.1 -2.7,0 -4,0 -0.3,0 -0.7,0 -0.9,0.2 -0.3,0.3 -0.7,0.2 -1,0.2 -0.4,0 -0.8,-0.1 -1.3,-0.1 0,0.2 0,0.4 0,0.6 0,0.8 -0.6,1.2 -1.3,1.1 -0.3,0 -0.6,-0.1 -0.9,0 -0.7,0.1 -1.4,0.1 -1.9,-0.4 0,-0.5 0,-1 0,-1.5 -1,-0.1 -2.1,-0.2 -2.9,0.8 0.6,0.2 -0.1,1.1 0.6,1.2 0,0.2 0,0.4 0.1,0.5 0.3,0.4 0.8,0.5 1.3,0.5 1.3,0 2.7,-0.1 4,0.3 0.2,0 0.4,0 0.6,-0.1 0.3,-0.2 0.6,-0.2 1,-0.1 0.6,0.1 1.2,0.4 1.7,-0.1 0.1,-0.1 0.4,-0.1 0.6,-0.1 1.6,0 3.2,0 4.8,0 v 0.1 c 0.1,0.1 0.3,0.2 0.4,0.2 0.4,0 0.8,-0.1 1.2,-0.1 1.3,-0.1 2.7,-0.2 4,-0.1 0.8,0 1.6,0.2 2.4,0.2 0.6,0 1.2,0 1.8,-0.1 0.4,-0.1 0.7,-0.4 1.1,-0.2 0.1,0.1 0.3,0 0.4,0 1,0 2,-0.1 3,-0.1 2.3,-0.1 4.6,-0.1 6.9,-0.2 1.1,0 2.2,-0.1 3.1,-0.6 0.3,-0.2 0.6,-0.4 0.8,-0.6 0.2,-0.1 0,-0.4 0,-0.7 l 0,0 z"
   inkscape:connector-curvature="0"
   style="fill:#bababa" />
	<path
   id="table"
   d="m 330.8,637.8 c 0,-0.2 0,-0.4 0,-0.6 0,-0.5 0.1,-0.9 0.1,-1.4 0,-0.9 0.2,-1.1 1.1,-1.1 1,0 2.1,0 3.1,0 0.2,0 0.3,-0.1 0.5,-0.1 0,0 0.1,0 0.2,0 0.9,0 1.9,0.1 2.8,0.1 0.3,0 0.7,-0.1 1,-0.1 12.1,0 24.2,0 36.3,0 0,0.2 0,0.3 0,0.4 0,0.2 -0.1,0.3 -0.1,0.5 0,1.3 0,2.7 0,4 -1.6,0 -3.1,0 -4.8,0 0,0.8 0,1.4 0,2.1 0,1 0,2 0,3 0,0.3 0,0.5 -0.3,0.7 -0.5,0.4 -1.1,0.3 -1.7,0.2 -0.2,0 -0.5,-0.1 -0.7,-0.1 -0.3,0 -0.7,0.2 -0.9,0 -0.2,-0.2 -0.2,-0.6 -0.3,-0.9 0,-0.1 0,-0.3 0,-0.4 0,-1.2 0,-2.4 0,-3.5 0,-0.7 0,-0.6 0.7,-0.7 0.4,0 1,0.1 1.4,-0.4 -0.3,0 -0.4,-0.1 -0.6,-0.1 -0.8,0 -1.6,0.1 -2.4,0.1 -8.6,0 -17.1,0 -25.7,0 -0.3,0 -0.6,0 -0.9,0 0,0.3 0,0.6 0,0.8 0,1.5 0,2.9 0,4.4 0,0.8 -0.6,1.2 -1.3,1.1 -0.3,0 -0.6,-0.1 -0.9,0 -0.7,0.1 -1.4,0.1 -1.9,-0.4 0,-1.8 -0.1,-3.5 -0.1,-5.4 0.4,0 0.9,-0.1 1.3,-0.1 0.2,0 0.4,0 0.4,-0.4 -2.1,-0.1 -4.1,0 -6,0 -0.1,-0.6 -0.2,-1.2 -0.3,-1.7 z"
   inkscape:connector-curvature="0"
   style="fill:#6e6e6e" />
	<path
   id="bowl"
   d="m 350.6,632.5 c 0.2,0.7 0.6,1.3 0.9,2 5.1,0 10.2,0 15.3,0 0,-0.1 0.1,-0.2 0.1,-0.2 0.2,-0.5 0.3,-1 0.5,-1.5 0.3,-0.9 0.7,-1.7 1.5,-2.2 0,-0.1 0,-0.2 0,-0.3 -0.7,0 -1.3,-0.1 -2,-0.1 -5.5,0 -11,0 -16.4,0.1 -0.5,0 -1,0 -1.5,-0.1 0,0.1 0,0.2 0,0.3 0.3,0.3 0.5,0.5 0.8,0.8 0.3,0.4 0.5,0.7 0.8,1.2 z m 11.9,-0.6 c 0,-0.3 0,-0.5 0.1,-0.9 0.4,0 0.9,0 1.4,0 0.2,0 0.4,0.1 0.5,0.3 0.2,0.2 0,0.4 -0.2,0.5 0,0 0,0.1 -0.1,0.1 0.1,0.4 0.3,0.8 0.4,1.2 -0.6,0.2 -1.2,0.3 -1.9,0 0.2,-0.4 0.3,-0.8 0,-1.1 -0.2,0 -0.2,0 -0.2,-0.1 z"
   inkscape:connector-curvature="0" />
	<path
   id="stem"
   d="m 355,591.6 c -0.9,-1.5 -1.5,-3.1 -2.8,-4.3 l 0,0 c -0.3,-0.5 -0.5,-1.1 -1,-1.4 -0.4,-0.3 -0.6,-0.7 -0.7,-1.2 -0.2,-0.6 -0.5,-1.2 -0.8,-1.8 -0.2,-0.5 -0.5,-1.1 -0.7,-1.7 -0.2,-0.6 -0.5,-1.2 -0.7,-1.8 0.4,-0.3 0.9,-0.5 1.3,-0.9 0.3,-0.2 0.5,-0.2 0.7,0.1 0.1,0.1 0.3,0.2 0.3,0.4 0.2,0.7 0.8,1 1.3,1.4 0.6,0.5 0.9,1.1 1.1,1.8 0.1,0.4 0.2,0.7 0.4,1.2 0.4,-0.8 0.5,-1.5 0.5,-2.2 0,-0.7 0.1,-1.3 0.2,-2 0,-0.2 0.2,-0.3 0.4,-0.5 0.2,0.8 0.3,1.4 0.5,2.1 v 0.1 c -0.3,0.6 0,1.2 0.2,1.7 0.2,0.4 0.2,0.7 0.1,1.1 -0.1,0.7 -0.2,1.4 -0.2,2 0,0.1 0.1,0.2 0.2,0.3 0.2,0.3 0.4,0.6 0.5,0.9 0.2,0.4 0.4,0.9 0.6,1.3 0.3,0.9 0.6,1.7 1.3,2.4 0.1,0.1 0.2,0.2 0.2,0.4 0.2,0.6 0.5,0.9 1.1,1.1 0.3,0.1 0.5,0.3 0.5,0.6 0.1,0.3 0.2,0.6 0.4,1 0.1,-0.1 0.2,-0.2 0.2,-0.2 -0.3,-0.6 -0.6,-1.2 -0.6,-1.9 0,-0.3 -0.2,-0.6 -0.3,-0.9 -0.4,-0.6 -0.5,-1.2 -0.5,-1.9 0,-1 0,-2 0,-3 0,-0.5 0,-0.9 0.2,-1.4 0.1,-0.3 0.4,-0.6 0.7,-0.7 0.9,-0.4 1.7,-0.7 2.8,-0.8 0.2,1.6 0.3,3.2 0.9,4.9 0.5,-1.4 0.9,-2.8 1.3,-4.1 0.3,-0.9 0.7,-1.7 1.1,-2.6 0.2,-0.4 0.5,-0.8 0.7,-1.2 0.2,-0.5 0.5,-0.7 0.9,-0.9 0.3,0.4 0.3,0.7 0.1,1.2 -0.5,1.5 -0.9,3 -1.4,4.6 -0.5,1.6 -1.1,3.3 -1.6,4.9 -0.2,0.5 -0.3,1.1 -0.4,1.7 -0.1,0.7 -0.1,1.4 -0.2,2.1 -0.1,0.7 -0.2,1.4 -0.2,2.2 0,0.3 0,0.7 0,1 -0.1,0.6 -0.1,1.3 -0.2,1.9 0,0.4 -0.1,0.8 -0.1,1.2 0,0.8 0,1.5 0,2.3 0,0.5 0,1 0,1.5 0,1.4 -0.2,2.8 -0.4,4.1 -0.2,0.9 -0.2,1.8 -0.3,2.8 -0.3,2 -0.3,4.1 -0.3,6.1 0,1.1 -0.3,2.3 -0.4,3.4 -0.1,1.4 -0.5,2.8 -0.2,4.2 0.2,1 0.2,2 0.3,3 0.1,1 -0.3,2.3 -0.3,2.1 -0.5,0.1 -2.1,-0.1 -2.6,0 -0.5,0.1 -1,-0.5 -0.9,-0.9 0,-0.1 0.1,-0.3 0,-0.4 -0.4,-0.8 -0.2,-1.6 -0.1,-2.4 0,-1.6 -0.1,-3.2 0,-4.8 0.1,-1.9 0.2,-3.8 0.5,-5.7 0.2,-1.3 0.4,-2.7 0.5,-3.9 0.1,-1.4 0.2,-2.9 0.3,-4.3 0.1,-1.3 0.4,-2.5 0.5,-3.8 0,-0.4 0,-0.8 -0.1,-1.2 -0.3,-1.4 -1,-2.7 -1.7,-3.9 -0.5,-1 -0.8,-2.2 -1.3,-3.2 -0.5,-1.1 -1.1,-2.1 -1.8,-3.2 0.1,0.1 0,0.1 0,0 l 0,0 z m -28,-13.4 c -0.1,0.1 -0.2,0.2 -0.3,0.2 -0.3,0.2 -0.7,1.2 -0.5,1.5 0.3,0.6 0.6,1.2 1,1.7 0.9,1.1 1.9,2.1 2.8,3.1 0.1,0.1 0.2,0.2 0.3,0.2 0.6,0.5 1.1,1 1.7,1.5 0.9,0.8 1.5,1.9 2.2,2.9 1.3,1.8 2.7,3.6 3.9,5.4 0.5,0.7 1,1.3 1.4,1.9 1,1.3 1.9,2.7 2.9,4 0.3,0.4 0.6,0.8 0.7,1.2 0.2,0.5 0.3,1.2 0.5,1.7 0.3,0.7 0.6,1.5 0.9,2.2 0.5,1.4 0.8,2.9 1.3,4.4 1,2.8 1.6,5.7 2.4,8.6 0.3,1.2 0.5,2.5 0.7,3.8 0.1,0.5 0.3,1 0.4,1.4 0.1,0.8 0.2,1.6 0.3,2.5 0.2,1 0.2,2 1,2.8 0.1,0.1 0.3,0.3 0.4,0.3 0.3,0.1 0.6,0 0.9,0 0.5,0 0.8,0 1.1,-0.2 0.3,-0.2 0.1,-0.8 0.1,-1 -0.4,-1.9 -0.8,-3.9 -1.3,-5.8 -0.4,-1.7 -0.9,-3.3 -1.3,-5 -0.2,-1 -0.4,-2.1 -0.6,-3.1 -0.5,-2.1 -1.2,-4.1 -1.9,-6 -0.1,-0.2 -0.1,-0.4 -0.2,-0.5 -0.3,-1 -0.5,-2.1 -0.9,-3.1 -0.4,-1.3 -1,-2.5 -1.5,-3.8 -0.1,-0.2 -0.2,-0.4 -0.2,-0.5 0.1,-0.7 -0.1,-1.3 -0.3,-1.9 -0.2,-0.8 -0.5,-1.6 -0.7,-2.4 -0.2,-0.7 -0.2,-1.4 -0.3,-2.1 -0.2,-1.7 -0.5,-3.4 -0.7,-5.1 -0.1,-1.2 0.1,-2.4 0.1,-3.7 0,-0.1 0,-0.2 0.1,-0.3 0.4,-0.4 0.5,-1 0.6,-1.5 0.2,-0.8 0.5,-1.5 0.9,-2.3 0.2,-0.3 0.1,-0.7 -0.1,-0.9 -0.1,-0.1 -0.5,-0.2 -0.7,-0.1 -0.3,0.1 -0.7,0.3 -0.8,0.6 -0.2,0.7 -0.7,1.2 -1,1.7 -0.6,1 -0.8,2.2 -0.9,3.4 0,1.3 0,2.7 0.1,4 0.1,1.4 0.4,2.7 0.6,4 0.1,0.4 0.1,0.8 0.2,1.3 -0.4,-0.5 -0.8,-1 -1.2,-1.4 -0.4,-0.5 -1,-1 -1.3,-1.6 -0.6,-0.9 -1,-1.8 -1.7,-2.7 -0.7,-0.9 -1.2,-1.7 -1.8,-2.5 -0.7,-0.8 -1,-1.8 -1.3,-2.7 0,-0.1 0,-0.2 0,-0.3 0,-0.7 0,-1.4 0,-2.1 0,-0.9 -0.1,-1.8 -0.1,-2.7 0,-0.4 -0.3,-0.9 -0.7,-0.9 -0.3,-0.1 -0.6,0.2 -0.7,0.6 -0.3,1.1 -0.2,2.2 -0.1,3.3 0,0.4 0.1,0.8 0.1,1.2 -0.7,-0.7 -1.4,-1.3 -1.9,-1.9 -0.8,-0.9 -1.5,-1.9 -2.2,-2.8 -0.3,-0.4 -0.6,-0.7 -1.2,-0.5 -0.3,0.1 -0.8,0.3 -1,-0.2 -0.2,0.2 -0.2,0.2 -0.2,0.2 z m 38.2,51.5 c 0.4,-0.2 0.7,-0.1 1.1,-0.3 0.2,-0.1 0.3,-0.3 0.4,-0.4 0.1,-0.4 0.2,-0.9 0.1,-1.3 -0.2,-0.6 -0.2,-1.2 -0.1,-1.8 0.1,-0.8 0.2,-1.6 0.5,-2.3 0.8,-2.1 1.9,-4.1 3,-6.1 0.9,-1.6 2,-3 3.2,-4.3 0.9,-0.9 1.9,-1.8 2.9,-2.7 1.2,-1.2 2.6,-2.4 4,-3.4 0.7,-0.5 1.5,-1 2.3,-1.4 1,-0.5 2.1,-0.8 3.1,-1.3 0.5,-0.2 1,-0.2 1.5,-0.2 0.6,0.1 1.2,0.2 1.8,0.2 0.8,0 1.6,-0.2 2.4,-0.3 0.5,-0.1 1,-0.1 1.6,-0.3 1.5,-0.4 3,-0.8 4.5,-1.2 0.7,-0.2 1.4,-0.3 2,-0.5 1,-0.3 2.1,-0.3 3.1,-0.8 0.1,-0.1 0.3,-0.1 0.5,-0.1 0.5,0.1 0.9,-0.2 1.2,-0.4 0.3,-0.2 0.5,-0.5 0.7,-0.8 -0.2,0 -0.4,0 -0.5,-0.2 -0.4,-0.5 -1.2,-0.1 -1.6,-0.8 0,0 -0.2,0 -0.3,0 -2,0.5 -4,1.1 -6,1.6 -0.7,0.2 -1.3,0.4 -2,0.5 -0.6,0.1 -1.1,0.2 -1.7,0.3 -0.5,0.1 -1,0.1 -1.4,0.1 -0.5,0 -1,-0.1 -1.5,-0.1 -0.4,0 -0.8,0.1 -1.3,0.1 0.9,-0.8 1.8,-1.5 2.7,-2.3 0.2,-0.2 0.6,-0.5 0.5,-0.7 0,-0.4 0.3,-0.5 0.5,-0.7 0.1,-0.1 0.3,-0.2 0.4,-0.3 0.3,-0.2 0.3,-0.5 0.2,-0.8 -0.3,-0.5 -0.7,-0.9 -1.1,-1.4 -0.3,0.3 -0.6,0.5 -0.8,0.8 -0.2,0.2 -0.3,0.6 -0.5,0.8 -1,0.7 -1.7,1.6 -2.9,2.1 -2.2,0.9 -4.1,2.4 -6.4,3.3 -0.4,0.2 -0.7,0.5 -1.1,0.7 -1.5,0.9 -2.8,2 -4.1,3.2 -0.7,0.7 -1.3,1.4 -2,2 -1.7,1.4 -3.1,2.9 -4.2,4.8 -0.4,0.6 -0.7,1.3 -1,1.9 -0.1,0.2 -0.3,0.5 -0.5,0.6 -0.5,0.2 -0.7,0.5 -0.9,0.9 -1.1,2.1 -2.1,4.2 -2.8,6.4 -0.3,1 -0.5,2 -0.7,3 -0.1,0.5 -0.2,0.9 -0.3,1.4 -0.2,1 0.2,1.6 1.1,2.1 0,0.4 0.2,0.4 0.4,0.4 z m -63.6,-30.9 c 0.2,0 0.4,0 0.6,-0.1 0.6,-0.1 1.1,-0.3 1.7,-0.3 1.5,-0.1 2.8,0.4 4.2,0.8 0.8,0.2 1.5,0.5 2.3,0.3 -0.1,0.2 -0.3,0.3 -0.4,0.4 -0.5,0.6 -1,1.2 -1.5,1.9 -0.2,0.2 -0.2,0.5 -0.3,0.8 0.7,0 1,-0.5 1.2,-0.9 0.6,-0.8 1.2,-1.5 2,-2.1 1.1,-0.9 2.5,-1 3.8,-1.3 1.2,-0.2 2.4,-0.4 3.6,-0.8 0.8,-0.2 1.6,-0.7 2.4,-0.9 0.6,-0.2 1.3,-0.3 2,-0.3 0.3,0 0.6,0.1 0.9,0 0.8,-0.2 1.5,-0.4 2.3,-0.6 0.7,-0.1 1.4,-0.3 2,-0.2 1.2,0.3 2.4,0.7 3.5,1.1 0.6,0.2 1.2,0.6 1.8,0.9 1.5,0.7 2.9,1.4 4.4,2.1 0.4,0.2 0.9,0.4 1.3,0.6 0.5,0.2 1,0.5 1.3,1 0.6,0.7 1.2,1.4 1.8,2.1 0.1,0 0.1,-0.1 0.2,-0.1 -0.3,-0.7 -0.7,-1.3 -1.1,-1.9 -0.7,-1 -1.4,-1.9 -2.1,-2.8 -0.1,-0.1 -0.2,-0.3 -0.4,-0.3 -1.4,-0.8 -2.7,-1.6 -4.1,-2.4 -1.7,-0.9 -3.7,-1.3 -5.6,-1.8 -0.6,-0.1 -1.3,0 -1.9,0 -1.2,0 -2.3,0.6 -3.4,0.2 -0.7,0.2 -1.4,-0.2 -2.1,-0.3 -0.6,-0.1 -0.9,-0.5 -1.1,-1.1 -0.1,-0.3 -0.1,-0.5 -0.2,-0.8 -0.2,-0.9 -0.5,-1.2 -1.4,-1 v 0.1 c 0.2,0.1 0.3,0.2 0.5,0.3 0.2,0.2 0.3,0.4 0.3,0.6 -0.1,1.2 0.5,2.2 1.4,3 -0.9,0.3 -1.7,0.5 -2.5,0.7 -0.9,0.2 -1.7,0.4 -2.5,0.9 -0.8,0.5 -1.7,0.7 -2.6,1.1 -1.4,0.5 -2.8,1 -4.4,0.9 -0.2,0 -0.3,0.1 -0.5,0.1 -0.3,0 -0.7,0 -1,0 -1.6,-0.3 -3.2,-0.9 -4.9,-0.6 -0.5,0.1 -1.1,0.2 -1.5,0.7 0,-0.3 0,-0.1 0,0 z m 61.5,30.5 c 0.1,-1.1 0.1,-2.9 0.2,-4 0,-1.1 0.4,-2.2 0.2,-3.3 -0.1,-0.9 0.2,-1.8 0.1,-2.7 0,-0.1 0,-0.3 0.1,-0.4 0.1,-0.7 0.2,-1.4 0.3,-2.1 0.1,-0.5 0.1,-1.1 0.2,-1.6 0.3,-1.3 0.6,-2.7 1.1,-3.9 0.6,-1.6 1.2,-3.2 2,-4.7 0.9,-1.9 1.9,-3.7 2.9,-5.5 0.8,-1.5 1.9,-3 2.7,-4.5 0.6,-1.3 1.4,-2.5 2.1,-3.8 0.2,-0.3 0.4,-0.9 0.3,-1.1 -0.3,-0.7 -0.9,-1.2 -1.4,-1.8 -1.3,1.6 -1.9,3.5 -3.1,5.2 -0.5,-2.7 -0.3,-5.3 -1,-7.9 -0.5,0.1 -0.7,0.4 -0.7,0.8 -0.1,1.2 -0.3,2.3 -0.1,3.5 0,0.3 0.1,0.6 0.1,0.9 0,1.5 0.2,2.9 0.6,4.3 0,0.2 0.1,0.4 0,0.6 -0.2,0.4 -0.5,0.9 -0.7,1.3 -0.4,0.6 -0.9,1.2 -1.3,1.9 -0.2,0.3 -0.2,0.6 -0.4,0.8 -0.2,0.4 -0.5,0.7 -0.7,1.1 -0.4,0.8 -0.8,1.6 -1.1,2.4 -0.7,1.6 -1.7,3.1 -1.7,5 0,0.8 -0.3,1.5 -0.3,2.3 0,0.2 -0.1,0.4 -0.1,0.6 -0.1,0.8 -0.3,1.7 -0.2,2.5 0.1,0.7 0,1.4 -0.1,2.2 -0.1,0.9 -0.3,1.8 -0.1,2.7 0,0.2 0,0.4 0,0.6 -0.1,0.9 -0.2,1.9 -0.3,2.8 0,0.5 -0.1,1.1 -0.1,1.6 0,0.4 -0.1,0.7 0,1.1 0.2,0.9 0,2.3 -0.1,3.1 -0.1,0.4 0.1,0.3 0.6,0.5 -0.1,-0.4 0,-0.2 0,-0.5 z M 355,591.6 c -0.3,-0.2 -0.6,-0.3 -0.7,-0.7 0,-0.3 -0.3,-0.5 -0.7,-0.3 0.1,1.3 -0.1,2.7 -0.3,4.1 -0.4,-0.8 -0.7,-1.5 -1,-2.1 -0.3,-0.6 -0.6,-1.2 -0.9,-1.8 -0.5,-1.6 -1.1,-3.2 -1.2,-4.9 0,-0.3 0,-0.8 -0.5,-0.9 -0.1,0.2 -0.2,0.3 -0.2,0.5 0,0.2 0,0.4 0,0.7 -0.1,1 0.1,2 0.3,2.9 0.1,0.7 0.4,1.3 0.4,2 0,0.7 0.2,1.4 0.5,2.1 0.9,1.9 1.7,3.8 2.4,5.8 0.1,0.4 0.2,0.8 0.2,1.3 -0.1,2.7 -0.1,5.4 -0.1,8.1 0,1 0.1,1.9 0.1,2.9 0,1.4 0,2.8 0,4.3 0,1.4 0.1,2.8 0,4.2 -0.1,2.2 -0.2,4.5 0.3,6.7 0.1,0.6 0.3,2.1 0.4,2.7 0,0.1 0.3,0.3 0.4,0.3 0.4,-0.1 0.8,0.2 1.1,-0.1 0.2,-0.1 0.2,-1.9 0.2,-2.1 -0.1,-1.9 -0.2,-3.8 -0.4,-5.7 -0.2,-1.4 -0.2,-2.8 -0.2,-4.2 0,-1.6 0,-3.2 0,-4.8 0,-1.1 -0.1,-2.2 -0.1,-3.4 0,-2.1 0.2,-4.2 0.2,-6.4 0,-1.4 -0.1,-2.7 0,-4.1 0.1,-0.7 0.2,-1.4 0.2,-2.1 0,-0.5 0,-1.1 -0.1,-1.6 0,-0.5 -0.1,-1 -0.1,-1.5 0,-0.1 0.1,-0.2 0,-0.3 0,-0.5 -0.1,-1 -0.2,-1.6 l 0,0 z m 14.5,20.9 c 0,-0.2 0.1,-0.3 0.2,-0.4 0.2,-0.3 0.5,-0.6 0.7,-1 0.4,-0.8 0.8,-1.6 1.2,-2.4 0.2,-0.3 0.4,-0.7 0.5,-1 0.3,-1.1 0.6,-2.2 0.8,-3.3 0.1,-0.5 0.2,-1 0.7,-1.3 0.2,-0.1 0.3,-0.3 0.4,-0.4 0.9,-1.4 2,-2.7 3.4,-3.7 1,-0.7 1.9,-1.4 3,-1.9 1,-0.5 2.2,-0.8 3.3,-1.2 0.1,0 0.2,0 0.3,0 1.4,0 2.7,-0.6 4,-1.1 0.9,-0.3 1.5,-1.1 2.3,-1.7 0.3,-0.2 0.4,-0.5 0.1,-0.9 -0.4,0.2 -0.8,0.5 -1.2,0.7 -1.5,0.8 -3,1.5 -4.7,1.7 -0.6,0.1 -1.1,0.3 -1.8,0.5 0.6,-0.5 1.1,-0.9 1.7,-1.3 0.3,-0.2 0.3,-0.4 0.3,-0.7 -0.1,-0.5 -0.2,-1 -0.3,-1.6 -0.4,0 -0.7,0.2 -0.9,0.6 -0.3,0.5 -0.8,0.8 -1.3,1.1 -0.4,0.3 -0.9,0.5 -1.2,0.8 -0.6,0.6 -1.2,1 -1.9,1.4 -1.2,0.6 -2.2,1.5 -3.2,2.6 -0.4,0.4 -0.7,0.7 -1.2,1.2 0,-0.2 0,-0.3 0,-0.4 0.2,-1.3 0.5,-2.7 0.7,-3.9 0,-0.2 0,-0.5 0,-0.7 -0.1,0 -0.1,0 -0.2,-0.1 -0.2,0.2 -0.4,0.3 -0.6,0.6 -0.5,0.7 -0.9,1.5 -1.4,2.2 -0.9,1.3 -1.3,2.8 -1.8,4.3 -0.4,1.1 -0.7,2.3 -1,3.4 -0.1,0.3 -0.3,0.6 -0.3,0.9 -0.2,1 -0.3,2.1 -0.5,3.2 -0.2,1 -0.2,2 -0.7,2.9 -0.3,0.6 -0.2,1.2 0,1.8 0.4,-0.3 0.6,-0.4 0.6,-0.9 z m -22.6,-29.9 c 0,0.3 0,0.7 0,1 0,1.2 -0.1,2.5 -0.2,3.7 -1.3,-0.5 -1.4,-1.8 -2.1,-2.7 -0.7,0.3 -0.8,0.5 -0.7,1.1 0.1,0.2 0.1,0.5 0.3,0.7 0.7,1 1.4,2 1.8,3.2 0.2,0.7 0.7,1.4 0.7,2.1 0.1,1.6 0,3.1 -0.1,4.7 0,1 -0.1,2.1 0,3.2 0,0.6 0.2,1.1 0,1.7 0,0.1 0,0.3 0,0.4 0.1,0.3 0.2,0.6 0.3,1 0.3,1.1 0.6,2.1 0.9,3.2 0.1,0.4 0.2,0.7 0.3,1.1 0.1,0.3 0.3,0.5 0.4,0.8 0.2,0.7 0.2,1.3 0.3,2 0.3,1.1 0.1,2.3 1,3.3 0.1,0.1 0,0.2 0.1,0.3 0.2,0.9 0.5,1.7 0.7,2.7 0,0.2 0.2,0.3 0.3,0.4 0,0 0.1,0 0.1,-0.1 0,-0.4 0,-0.8 -0.1,-1.2 -0.2,-0.9 -0.4,-1.7 -0.6,-2.5 -0.3,-1.5 -0.6,-3 -0.7,-4.6 0,-0.5 -0.1,-1 -0.1,-1.5 0,-0.6 -0.2,-1.2 0.2,-1.8 0.1,-0.1 0,-0.3 0,-0.5 -0.1,-0.7 -0.2,-1.4 -0.2,-2.2 -0.1,-1 -0.1,-2.1 -0.2,-3.1 0,-0.1 0,-0.2 -0.1,-0.3 -0.2,-1 -0.5,-2 -0.4,-3.1 0,-0.4 0.1,-0.9 0.1,-1.3 0,-1 0,-1.9 0,-2.9 0,-0.1 0,-0.2 0,-0.4 -0.1,-0.8 -0.3,-1.6 -0.3,-2.4 0,-0.8 -0.2,-1.6 -0.2,-2.5 0,-0.5 0.1,-0.9 0.1,-1.4 0,-0.5 0.2,-1.2 0.1,-1.6 -0.3,-0.8 -0.8,-1.6 -1.2,-2.4 -0.4,0.7 -0.5,1.3 -0.5,1.9 z m 11.9,19 c -0.2,-0.8 -0.3,-1.5 -0.5,-2.3 0,-0.2 -0.2,-0.6 -0.3,-0.6 -0.5,0 -0.5,-0.4 -0.5,-0.7 0,-0.4 -0.2,-0.7 -0.7,-0.8 0,0.4 -0.5,0.4 -0.5,0.9 0,1.3 -0.1,2.7 -0.1,4 0,0.9 -0.1,1.8 -0.2,2.7 -0.2,1.7 -0.4,3.5 -0.5,5.2 -0.1,1.6 -0.1,3.2 -0.2,4.8 0,0.7 0.1,1.5 0.1,2.2 0.1,1.8 0.2,3.6 0.3,5.4 0,0.6 0.1,1.2 0.2,1.8 0.1,1.4 0.1,2.8 0.2,4.2 0,0.3 0,1 0.1,1.3 0.8,-0.3 0.9,0.2 1,-0.5 0,-1 0.1,-2.9 0.2,-3.9 0.1,-1 0.2,-1.9 0.3,-2.9 0,-0.5 -0.2,-0.9 -0.1,-1.4 0.1,-0.9 -0.1,-1.8 0.2,-2.7 0.3,-0.7 0,-1.5 0.3,-2.3 0.2,-0.5 0.1,-1 0.2,-1.6 0.1,-1.2 0.2,-2.4 0.3,-3.6 0.1,-1.5 0.2,-2.9 0.3,-4.4 0.1,-1.1 0.3,-2.1 0.5,-3.1 0.1,-0.5 0.4,-1.1 0,-1.7 -0.1,-0.1 -0.3,-0.2 -0.4,-0.3 -0.1,0.2 -0.2,0.2 -0.2,0.3 z m -8.7,-6.3 c 0,1.2 0,2.4 0,3.6 0,1.3 0.2,2.6 0.2,3.8 0,0.6 0,1.1 0.1,1.7 0,0.4 0.1,0.8 0.1,1.2 0,0.7 -0.2,1.3 -0.1,2 0,1.1 0.2,2.2 0.3,3.3 0,0.3 0.1,0.6 0.2,0.9 0.1,0.6 0.2,1.2 0.5,1.7 0.1,0.3 0.3,0.5 0.3,0.9 0,0.5 0,1 0,1.5 0.1,1.4 0.3,2.8 0.4,4.2 0.1,0.6 0.2,1.2 0.3,1.8 0,0.1 0.2,0.2 0.2,0.2 0.1,0 0.3,-0.1 0.3,-0.2 0.1,-0.1 0,-0.2 0,-0.4 0,-0.7 0,-1.3 0,-2 0,-1 -0.1,-2 -0.1,-3 -0.1,-1.8 -0.1,-3.6 -0.2,-5.3 0,-0.8 0,-1.6 0,-2.4 0,-0.6 -0.1,-1.1 -0.1,-1.7 0,-0.6 0.1,-1.2 0.1,-1.8 0,-1 0,-1.9 0,-2.9 0,-0.9 0,-1.9 -0.2,-2.8 -0.4,-1.6 -0.8,-3.3 -1.8,-4.8 -0.3,-0.1 -0.5,0.2 -0.5,0.5 z m -7.3,16.9 c -0.7,-0.3 -1.2,-0.5 -1.6,-0.9 -0.6,-0.6 -1.3,-0.8 -2.1,-0.7 -0.9,0.1 -1.8,0.2 -2.7,0.4 -1.3,0.3 -2.7,0.3 -4,0.1 -1.2,-0.2 -2.4,-0.2 -3.6,-0.1 0.2,0.4 0.5,0.6 0.9,0.5 0.7,0 1.4,0.1 2.1,0.6 0.1,0.1 0.4,0.1 0.5,0.1 0.8,0 1.6,0 2.3,0 0.3,0 0.7,0.2 1,0.1 0.9,-0.2 1.7,-0.4 2.7,-0.5 0.4,0 0.8,-0.1 1.2,0.1 0.8,0.4 1.7,0.8 2.7,1.2 0.2,0.6 0.8,1 1.4,1.4 0.4,0.3 0.8,0.6 1.2,0.9 0.1,0.1 0.2,0.3 0.3,0.3 0.7,0.2 0.9,0.7 1.2,1.3 0.2,0.3 0.3,0.7 0.5,1.1 0.2,0.3 0.3,0.7 0.8,0.8 0,-0.2 0.1,-0.4 0.1,-0.5 -0.1,-0.5 -0.2,-1 -0.3,-1.5 -0.3,-0.9 -0.7,-1.9 -1.1,-2.8 0,-0.1 -0.1,-0.2 -0.2,-0.2 -0.7,-0.3 -1.3,-0.7 -1.7,-1.4 -0.2,-0.3 -0.4,-0.6 -0.6,-0.9 -0.5,-1 -1.3,-1.9 -1.5,-3.1 -0.2,-0.7 -0.6,-1.3 -1.2,-1.7 -1,-0.6 -2,-1.2 -3.2,-1.3 -0.5,0 -1,-0.3 -1.2,-0.8 -0.3,-0.7 -0.6,-1.3 -1,-1.9 -0.1,-0.2 -0.2,-0.6 -0.5,-0.4 -0.3,0.1 -0.2,0.4 -0.1,0.7 0,0.1 0,0.2 0.1,0.3 0.2,0.5 0.4,1 0.7,1.5 -1.2,-0.2 -2.3,-0.5 -3.4,0 0.1,0.3 0.1,0.6 0.5,0.6 0.9,0 1.9,0.1 2.8,0.1 0.5,0 1,0.2 1.3,0.5 0.7,0.6 1.5,0.8 2.3,0.9 0.4,0 0.7,0.1 1.1,0.1 0.1,2.1 1.4,3.5 2.3,5.1 z m 25.4,-14.4 c 0.6,-0.6 0.7,-1.3 0.5,-1.9 -0.4,-1.2 -0.2,-2.5 -0.4,-3.7 -0.2,-1.2 -0.1,-2.3 0,-3.5 0,-0.5 0.2,-1.1 0.3,-1.6 0.2,-0.5 0.4,-1.1 0.6,-1.6 0,-0.1 0,-0.2 0,-0.2 -0.1,-0.6 -0.1,-1.2 -0.3,-1.8 -0.3,-0.8 -0.3,-1.4 0,-2.2 0.2,-0.5 -0.1,-0.9 -0.3,-1.3 -0.5,0.1 -0.6,0.5 -0.7,0.8 -0.5,1.5 -1,3.1 -1.5,4.6 -0.1,0.3 -0.3,0.7 -0.2,0.9 0.2,0.6 -0.3,1.3 0.2,1.9 0.1,1.3 0.1,2.7 0.2,3.9 0,0.2 0,0.3 0,0.5 0.1,0.9 0.2,1.8 0.3,2.7 0,0.3 0,0.6 0,1 0.1,1 0.2,2 0.3,3 0.3,-0.5 0.6,-1.1 1,-1.5 z m -3.9,25 c 0.1,-0.7 0.2,-1.3 0.4,-2 0.3,-1.1 0.7,-2.2 1.2,-3.3 0.3,-0.7 0.7,-1.4 1.1,-2.1 0.1,-0.1 0.3,-0.3 0.5,-0.3 0.4,-0.1 0.5,-0.3 0.5,-0.7 0,-0.2 0,-0.4 -0.1,-0.6 0,-0.5 0,-1 0,-1.4 0,-0.5 0.2,-1 0.3,-1.5 0.3,-1.1 0.3,-2.2 0.5,-3.3 0.2,-0.9 0.3,-1.8 0.5,-2.8 0,-0.2 0.1,-0.5 0.2,-0.7 l -0.1,-0.1 c -0.1,0.1 -0.2,0.2 -0.3,0.3 -0.3,0.6 -0.5,1.3 -0.9,1.8 -0.4,0.5 -0.6,1 -0.8,1.6 -0.1,0.3 -0.2,0.6 -0.5,0.8 -0.2,0.1 -0.3,0.3 -0.3,0.5 -0.3,1.1 -0.5,2.2 -0.7,3.3 -0.3,1.3 -0.7,2.7 -1.1,3.9 -0.2,0.7 -0.4,1.5 -0.5,2.2 -0.1,0.7 -0.1,1.4 -0.2,2.1 -0.1,0.9 -0.2,1.9 -0.3,2.9 0.6,-0.3 0.6,-0.3 0.6,-0.6 z m -28.2,-42.4 c 0.2,1.2 0.6,2.4 0.6,3.7 0,0.2 0.1,0.5 0.2,0.7 0.5,1.2 1.1,2.4 1.6,3.6 0.2,0.3 0.3,0.7 0.6,0.9 0.3,0.4 0.6,0.8 0.7,1.3 0.1,0.3 0.2,0.7 0.4,0.9 0.3,0.2 0.4,0.5 0.5,0.9 0,0.1 0.2,0.2 0.2,0.3 0.5,-0.1 0.7,-0.4 0.6,-0.8 0,-0.2 0,-0.3 -0.1,-0.5 -0.4,-1.6 -0.7,-3.2 -0.7,-4.9 0,-0.6 0,-1.1 0,-1.7 0,-0.2 0,-0.3 0,-0.5 -0.7,0.3 -1.7,0.3 -1.8,1.4 -1.2,-1.8 -1.5,-3.8 -2.3,-5.8 -0.5,0.1 -0.6,0.2 -0.5,0.5 z m 30.3,19.7 c 0,-1.5 -0.1,-2.9 -0.3,-4.4 -0.1,-1.2 -0.1,-2.3 -0.2,-3.5 0,-0.5 0,-1 -0.1,-1.5 0,-0.2 -0.3,-0.3 -0.4,-0.4 -0.1,0.1 -0.2,0.3 -0.3,0.4 0,0 0,0.1 0,0.2 0,2.1 -0.6,4.2 -0.7,6.3 0,0.7 -0.1,1.4 -0.1,2 0,0.4 -0.1,0.8 -0.2,1.2 0,0.4 0,0.7 0.1,1.1 0.1,0.3 0.1,0.6 0.1,0.9 -0.1,0.7 -0.1,1.5 -0.3,2.2 0,0.1 0,0.3 0.1,0.4 0.4,0.1 0.6,-0.1 0.7,-0.4 0.2,-1.1 0.8,-2.1 1.3,-3.1 0.1,-0.2 0.1,-0.6 0.2,-1 0,0.1 0,-0.1 0.1,-0.4 z m 9.8,-6.9 c 0.1,0.5 0,0.8 -0.1,1.3 -0.2,0.5 -0.3,1.1 -0.6,1.6 -0.1,0.3 -0.1,0.5 0.1,0.6 0.3,0.2 0.5,0 0.6,-0.2 0.3,-0.5 0.8,-0.8 1.4,-0.9 0.4,-0.1 0.8,-0.4 1.2,-0.7 0.7,-0.5 1.3,-1 1.9,-1.5 0.3,-0.2 0.5,-0.5 0.7,-0.7 0.1,-0.1 0,-0.4 0,-0.6 -0.9,0.3 -1.6,0.6 -2.4,0.9 0,-0.4 0.2,-0.9 -0.2,-1 -0.5,-0.1 -0.3,-0.7 -0.8,-0.8 -0.1,0 -0.2,0 -0.2,0.1 -0.1,-0.3 -0.2,-0.5 -0.2,-0.8 -0.9,0.3 -1.7,1.7 -1.4,2.7 z m -5.1,23.8 c -0.2,0.2 -0.4,0.3 -0.5,0.5 -0.5,1 -1,1.9 -1.4,2.9 -0.5,1.1 -0.8,2.3 -1.4,3.4 -0.6,1.1 -0.6,2.2 -0.5,3.4 0,0.5 0.2,0.9 0.2,1.4 0,0.3 0.2,1.2 0.5,1.2 0.3,0 0.5,-0.8 0.5,-1.1 0,-0.3 0.1,-0.6 0.1,-0.9 0,-0.9 0.7,-1.7 0.5,-2.7 0.5,-1.9 1,-3.9 1.5,-5.8 0.2,-0.7 0.5,-1.3 0.7,-2 -0.1,-0.2 -0.2,-0.3 -0.2,-0.3 z m 8.3,-18.5 c -0.4,0.4 -1,0.3 -1.4,0.9 -0.6,0.8 -1.2,1.5 -1.7,2.4 -0.6,1.3 -1.3,2.7 -2,3.9 -0.2,0.5 -0.5,1 0,1.6 0.2,-0.1 0.4,-0.2 0.5,-0.3 0.6,-0.9 1.4,-1.6 1.7,-2.7 0.4,-1.4 1.1,-2.7 1.9,-3.8 0.4,-0.6 0.7,-1.2 1.1,-1.8 -0.1,-0.1 -0.1,-0.1 -0.1,-0.2 z m -7.1,-7 c 0.1,-0.4 0.2,-0.8 0.5,-1.1 0.5,-0.5 0.5,-1.1 0.5,-1.7 0,-0.2 0,-0.3 -0.1,-0.5 -0.1,-0.2 -0.2,-0.3 -0.3,-0.5 -0.2,-0.3 -0.7,0 -0.9,-0.5 h -0.1 c -0.1,0 -0.2,0.1 -0.3,0.1 -0.9,0.4 -1.2,1.2 -1,2.2 0.1,0.5 0.2,1 0.2,1.5 0,0.3 0,0.6 0.1,0.9 0,0.1 0.3,0 0.5,0.1 0.1,0.1 0.2,0.2 0.2,0.4 0.4,-0.2 0.6,-0.5 0.7,-0.9 z m -27,5.6 c 0.7,-0.2 0.8,-0.3 0.8,-0.8 0,-0.6 -0.1,-1.1 0,-1.7 0.2,-0.9 -0.1,-1.7 -0.1,-2.5 0,-0.3 -0.1,-0.7 -0.2,-1 -0.3,-0.7 -0.6,-1.4 -1,-2.2 0,-0.1 -0.1,-0.2 -0.2,-0.2 -0.2,0.1 -0.3,0.2 -0.5,0.3 0.4,2.7 0.8,5.4 1.2,8.1 z m 12.8,-9 c 0,-0.7 0,-1.4 0,-2.1 0,-0.7 -0.3,-1.2 -0.9,-1.4 -0.4,-0.2 -0.8,0 -0.7,0.5 0.1,0.8 -0.4,1.6 0.4,2.2 0,1 0.8,1.7 0.9,2.7 0,0.1 0.1,0.3 0.2,0.4 0.1,0.1 0.2,0 0.3,0.1 -0.1,-1 -0.1,-1.6 -0.2,-2.4 z m -5.8,-0.7 c -0.2,-0.2 -0.3,-0.3 -0.5,-0.4 -0.6,0.3 -0.7,0.5 -0.5,1.2 0.3,1.1 0.6,2.2 1,3.3 0,0.2 0.1,0.3 0.2,0.5 0.2,-0.2 0.5,-0.3 0.5,-0.5 0,-0.6 0.1,-1.1 0,-1.7 -0.3,-0.9 -0.5,-1.7 -0.7,-2.4 l 0,0 z m 31,3 c 0.4,-0.6 0.8,-1.2 1.1,-1.9 0.2,-0.4 0.1,-0.5 -0.4,-0.5 -0.1,0 -0.3,0 -0.3,0 -0.2,-0.5 -0.8,-0.5 -1.2,-0.8 -0.4,0.3 -0.3,0.6 -0.1,1 0.1,0.3 0.1,0.5 0.1,0.8 -0.1,0.6 -0.2,1.3 0.1,2 0.4,-0.2 0.6,-0.4 0.7,-0.6 z m -19.4,-8.3 c -0.1,0.2 -0.2,0.4 -0.3,0.4 -0.5,0.1 -0.5,0.5 -0.5,0.8 0,0.5 0,1.1 0,1.6 0,0.2 0.1,0.5 0.2,0.7 0.5,0 0.5,-0.2 0.5,-0.5 0.1,-0.8 0.3,-1.6 0.7,-2.3 0.1,-0.3 0.3,-0.5 0.4,-0.8 0.1,-0.2 0,-0.3 0,-0.5 -0.6,0 -0.8,0.1 -1,0.6 z m -17.5,-0.6 c -0.2,0.1 -0.4,0.1 -0.5,0.1 -0.2,0.1 -0.5,0.2 -0.6,0.4 -0.2,0.6 -0.5,1.2 -0.4,1.9 0.8,-0.2 0.4,0.7 0.8,0.9 0.1,0 0.3,-0.1 0.5,-0.2 0.1,-1 0.2,-2 0.2,-3.1 z m 6,-2.5 c -0.1,0 -0.3,0.2 -0.3,0.3 0,0.1 0,0.3 0.1,0.4 0.6,0.3 0.9,0.7 1,1.3 0,0.1 0.2,0.1 0.3,0.3 0.1,-0.3 0.3,-0.5 0.3,-0.8 0,-0.5 -0.1,-1.1 -0.2,-1.7 -0.4,0.1 -0.8,0.1 -1.2,0.2 z"
   inkscape:connector-curvature="0" />
	<g
   id="room">
		<path
   id="outlet"
   d="m 242.9,637.3 c -0.5,0 -0.7,-0.2 -0.7,-0.7 0,-0.2 0,-0.3 0,-0.5 0.1,-1.3 0.2,-2.6 0.3,-3.8 0,-0.3 0.1,-0.6 0.2,-0.9 0,0 0.1,0 0.2,0 0.1,0.1 0.2,0.2 0.2,0.3 0,1.1 0,2.2 -0.1,3.4 0,0.5 -0.1,1 -0.1,1.5 1,0 1.9,0.1 2.8,0.1 0.2,-2 0.4,-3.8 0.6,-5.7 -1.3,-0.4 -2.7,-0.1 -3.7,-0.8 0.3,-0.1 0.4,-0.1 1.5,0.1 0.5,0.1 1,0.1 1.5,0.2 0.5,0.1 1,0.2 1.5,0.4 -0.2,0.1 -0.3,0.2 -0.5,0.3 l 0,0 c 0.2,1.8 0,3.6 -0.3,5.4 0.2,0.2 0.7,0 0.7,0.6 -0.2,0.1 -0.5,0.2 -0.8,0.2 -0.6,0 -1.1,0 -1.7,0 -0.4,-0.1 -1,-0.1 -1.6,-0.1 z m 0.6,-2.6 c 0.1,0.2 0.2,0.5 0.2,0.7 0.3,0.8 0.7,0.9 1.4,0.4 0.4,-0.3 0.4,-0.8 0.3,-1.2 0,-0.2 -0.1,-0.3 -0.2,-0.5 -0.2,-0.1 -0.5,-0.2 -0.7,-0.2 -0.3,0 -0.6,0.1 -0.8,0.2 -0.4,0 -0.5,0.3 -0.2,0.6 z m 1.5,-1.4 c 0.5,-0.1 0.7,-0.5 0.8,-0.9 0.2,-0.6 -0.2,-1 -0.8,-1 -0.5,0 -1.1,0.4 -1.2,0.9 -0.1,0.4 0,0.7 0.2,1 0.3,0.2 0.6,0.1 1,0 z"
   inkscape:connector-curvature="0"
   style="fill:#bababa" />
		<path
   id="wall-line"
   d="m 241.2,642 c 0.3,0 0.5,0.1 0.9,0.2 -0.7,0.1 -1.2,0.2 -1.7,0.3 -1.5,0 -3.1,-0.3 -4.7,0.1 0.1,-0.4 0.4,-0.4 0.6,-0.4 1,0 2,0 3,0 0.6,-0.1 1.2,-0.2 1.9,-0.2 z m 5.1,0.1 c -0.6,0 -1.2,0 -1.8,-0.1 -0.9,-0.1 -1.5,-0.1 -2,0.2 1.7,0.1 3.4,0.1 5.2,0.2 0.1,0 0.1,-0.1 0.3,-0.2 -0.5,-0.1 -0.8,-0.2 -1.2,-0.3 -0.2,0.1 -0.3,0.2 -0.5,0.2 z m 89.2,0.1 c -4.3,0 -8.6,-0.1 -13,-0.1 0,0.1 0,0.3 0,0.4 0.3,0 0.5,0 0.8,0 4,0.2 8,0.2 12,0.2 0.2,-0.1 0.2,-0.3 0.2,-0.5 z m 65.9,0 c -0.3,0 -0.5,0 -0.8,0 -9,0.1 -18,-0.2 -26.9,0.1 -0.9,0 -1.8,0 -2.8,0 0,0.1 0,0.2 0,0.3 5,0 10,0 15,-0.1 4.9,-0.2 9.8,0 14.8,0 0.2,0 0.5,0 0.7,0 0,-0.2 0,-0.3 0,-0.3 z m -34.3,0.1 c -1.5,0 -3,0 -4.6,0 -5.5,0 -11,-0.1 -16.5,-0.1 -2.1,0 -4.3,0 -6.4,0.1 0,0.2 0,0.3 0,0.5 8.7,0 17.5,0 26.2,-0.1 0.4,0 0.9,0 1.3,0 0,-0.2 0,-0.3 0,-0.4 z"
   inkscape:connector-curvature="0"
   style="fill:#bababa" />
		<path
   id="window"
   d="m 339.4,596.7 c 0.5,0.6 0.9,1.3 1.4,1.9 0.1,0.5 0.1,1 0.2,1.5 -0.5,-0.6 -0.9,-1.2 -1.4,-1.9 -0.1,-0.1 -0.2,-0.3 -0.4,-0.3 -0.1,0 -0.2,-0.1 -0.3,-0.2 -0.1,-0.7 -0.2,-1.3 -0.3,-2 0.3,0.4 0.5,0.7 0.8,1 z m 0.5,-4.4 0,0 c 0,-0.4 -0.1,-0.9 -0.1,-1.4 0,-0.1 -0.1,-0.3 -0.1,-0.4 -0.1,-0.5 -0.3,-0.9 -0.7,-1.3 -0.2,-0.3 -0.4,-0.6 -0.6,-0.9 -0.2,-0.5 -0.4,-0.9 -0.6,-1.4 0,0.8 0,1.5 0.1,2.2 0,0.1 0,0.1 0,0.2 0.1,0.1 0.2,0.2 0.3,0.3 0.7,0.9 1.1,1.8 1.7,2.7 z m -4,6.6 c 0,-0.1 0.1,-0.2 0.1,-0.3 -0.5,-0.2 -0.9,-0.4 -1.4,-0.7 -0.2,0.6 -0.3,1.2 0,1.9 0.7,-0.1 1.1,-0.3 1.3,-0.9 z m -0.2,-3 c 0.4,0.2 0.8,0.4 1.1,0.6 0.1,-0.4 0.3,-0.7 0.4,-1.1 0.1,-0.3 0.3,-0.7 -0.1,-1.1 -0.6,0.4 -1,1 -1.4,1.6 z m -6.4,-2.1 c 0,-0.7 -0.1,-1.4 -0.1,-2.1 -0.1,-1.6 -0.1,-3.2 -0.2,-4.9 1,0 2.1,0 3.1,0 -0.1,-0.1 -0.2,-0.2 -0.3,-0.3 -0.6,-0.5 -1.1,-1 -1.7,-1.5 -0.1,-0.1 -0.2,-0.2 -0.3,-0.2 -0.2,-0.2 -0.4,-0.4 -0.5,-0.6 -0.2,0.1 -0.3,0.3 -0.4,0.5 -0.2,-0.2 -0.3,-0.4 -0.4,-0.5 -0.7,0.3 -1,1 -1.1,1.6 -0.1,1.1 0,2.2 0,3.2 0.1,1.5 0.2,3 0.3,4.5 0,0.1 0,0.2 0,0.2 l 0,0 c 0.5,0.1 1.1,0 1.6,0.1 z m 3.1,5.3 c 0.8,-0.2 1.2,-0.7 1.5,-1.3 0,-0.1 0.1,-0.1 0.1,-0.2 -0.1,0 -0.2,-0.1 -0.3,-0.1 -0.4,-0.2 -0.7,-0.4 -1.1,-0.6 0,0.1 -0.1,0.2 -0.1,0.3 -0.2,0.6 -0.2,1.3 -0.1,1.9 z m 9.3,8.6 c -0.1,-0.8 -0.1,-1.7 -0.2,-2.7 0.3,0 0.5,0 0.8,0 0.6,0 1.2,0 1.8,0 -0.2,-0.5 -0.4,-0.9 -0.5,-1.4 -0.2,-0.5 -0.3,-1 -0.4,-1.5 -0.3,0 -0.6,0 -0.9,0 0.2,0.3 0.3,0.6 0.5,0.9 -0.1,0 -0.1,0.1 -0.2,0.1 -0.3,-0.3 -0.6,-0.7 -0.9,-1 -0.1,0 -0.3,0 -0.4,0 0,-0.2 0,-0.4 -0.1,-0.6 -0.1,-0.2 -0.3,-0.3 -0.4,-0.5 -0.4,-0.5 -0.8,-0.8 -1.3,-1 -0.1,0 -0.1,-0.1 -0.2,-0.1 0.1,0.7 0.1,1.4 0.2,2.1 -0.3,0 -0.5,0 -0.8,0 -0.4,0 -0.7,0 -1.1,0 0.1,0.4 0.2,0.8 -0.1,1.2 -0.2,0.2 -0.2,0.6 -0.2,0.8 -0.1,0.4 0,0.7 0.1,0.9 0.8,0 1.5,0 2.3,0 0,0.3 0.1,0.7 0.1,1 0.3,0.2 0.7,0.4 1,0.6 0.4,0.5 0.7,0.8 0.9,1.2 z m 1.8,-22.5 c 0,0.5 -0.1,1 -0.1,1.5 0.3,0 0.7,0 1,-0.1 0,-0.1 -0.1,-0.1 -0.1,-0.2 -0.1,-0.2 -0.2,-0.4 -0.3,-0.7 -0.2,-0.6 0,-0.8 0.7,-1.1 0.4,0.5 0.6,1.2 1,1.7 0.2,-0.1 0.5,-0.1 0.7,-0.2 0.2,0 0.3,-0.1 0.5,-0.1 0,-0.6 0,-1.2 0.1,-1.7 -0.2,-0.1 -0.4,-0.1 -0.7,-0.2 0,0.2 0,0.3 0,0.5 -0.2,0.1 -0.3,0.1 -0.5,0.2 -0.5,-0.2 0,-1.1 -0.8,-0.9 v -0.1 c -0.3,0 -0.5,0 -0.8,0 -0.1,0.4 -0.2,0.8 -0.5,1.1 -0.2,0.1 -0.2,0.3 -0.2,0.3 z m -8.5,-1 c 0,0.1 0,0.2 0,0.3 0.3,0.8 0.6,1.6 1,2.3 0.6,0 1.1,0 1.7,0 -0.3,-0.7 -0.6,-1.4 -0.9,-2.1 -0.1,-0.2 -0.2,-0.5 -0.2,-0.7 0,-0.1 0,-0.2 0,-0.2 -0.5,0 -1,0 -1.6,0 0,0.2 0,0.3 0,0.4 z m 0,11.4 c 0.1,-0.2 0.2,-0.3 0.2,-0.5 0.3,-0.7 0.6,-1.4 0.5,-2.2 0,-0.2 0,-0.4 -0.4,-0.5 -0.3,0.4 -0.7,0.7 -1,1.1 0.3,-0.9 0.8,-1.8 0.7,-2.8 -0.2,-0.3 -0.4,-0.5 -0.5,-0.8 -0.1,0 -0.2,0 -0.3,0.1 0,-0.1 0.1,-0.2 0.1,-0.3 -0.1,-0.1 -0.2,-0.2 -0.2,-0.3 -0.3,-0.4 -0.5,-0.8 -0.8,-1.2 -0.3,0.2 -0.5,0.5 -0.7,0.8 -0.7,1.2 -1.4,2.4 -2,3.6 -0.4,0.7 -0.4,0.8 0.1,1.4 v 0.1 c 1.5,0.4 2.9,0.7 4.3,1.5 z m 7,16.3 c 0,-0.2 0,-0.3 0,-0.5 0,-0.2 0,-0.4 0,-0.7 -0.7,-1.1 -1.4,-2.2 -1.6,-3.6 -0.1,0 -0.3,0 -0.4,0 0,0.9 0.1,1.8 0.2,2.7 0,0.3 0,0.5 0.1,0.8 0.4,0.1 0.7,0.3 1.1,0.7 0,0.2 0.3,0.4 0.6,0.6 z m -3.1,-4.8 c -0.2,0.2 -0.3,0.3 -0.5,0.4 0,0 -0.1,0.1 -0.2,0.1 l -0.1,0.1 c -0.2,0.2 -0.4,0.5 -0.6,0.7 -0.2,0.2 -0.3,0.4 -0.5,0.7 0.2,-0.5 0.3,-0.8 0.3,-1 -0.2,0.1 -0.3,0.2 -0.5,0.2 -0.4,0.2 -0.7,0.1 -1,-0.2 -0.2,0.2 -0.4,0.5 -0.7,0.8 0.3,-1.2 0.3,-1.2 0.2,-1.7 -0.5,0.1 -0.8,0.4 -1,0.8 -0.4,0.6 -0.8,1.3 -1.2,1.9 0.6,0.1 1.1,0.4 1.6,0.9 0.1,0.1 0.2,0.2 0.3,0.4 0.4,0 0.8,-0.1 1.2,-0.2 0.6,-0.1 1.1,-0.2 1.7,-0.3 0.3,-0.6 0.5,-1.3 0.8,-1.9 0.3,-0.5 0.5,-1 0.2,-1.7 z m 10.7,-21.8 c 0,-0.1 0,-0.1 0,0 -0.2,-0.2 -0.5,-0.2 -0.8,-0.3 l 0,0 c 0,0.2 0,0.4 -0.1,0.6 0.3,-0.2 0.6,-0.3 0.9,-0.3 z m -12,29.6 c 0.8,-0.9 1.1,-2 1.3,-3.1 -0.8,0.9 -1.3,1.9 -1.3,3.1 z m 3.5,3.4 c 0,0.2 0.1,0.4 0.4,0.4 0.4,0 1,-0.6 1,-1 0,-0.6 -0.1,-1.2 -0.1,-1.7 -0.1,-0.6 -0.1,-1.3 -0.2,-1.9 0,-0.2 0,-0.4 -0.1,-0.6 -0.1,-0.1 -0.1,-0.2 -0.2,-0.3 -0.6,-0.3 -1.2,-0.5 -1.7,-0.8 0.1,0.8 0.2,1.5 0.2,2.3 0.1,1.3 0.5,2.4 0.7,3.6 z m 11,1.7 c 0,-0.1 0,-0.2 0,-0.4 -0.3,-0.1 -0.7,-0.2 -1,-0.2 0.2,0.9 0.5,1.7 0.7,2.7 0.2,-0.1 0.5,-0.3 0.7,-0.4 -0.2,-0.5 -0.3,-1 -0.4,-1.7 z m -7.4,-7.3 c -0.1,0.1 -0.1,0.3 -0.1,0.4 0.3,0.3 0.7,0.5 1,0.7 0,0 0,0 0,-0.1 0.2,-0.4 0.5,-0.8 0.7,-1.3 -0.2,-0.6 -0.4,-1.2 -0.6,-1.8 -0.2,0.6 -0.7,1.3 -1,2.1 z m 1,-2.6 c -0.3,-0.7 -0.5,-1.4 -0.7,-2.2 -0.4,0.5 -0.7,1 -1,1.5 -0.5,0.7 -0.6,1.5 -0.2,2.3 0.6,-0.1 1.3,-0.8 1.9,-1.6 z m -16.3,-1.3 c 0.3,0.1 0.5,0.2 0.8,0.3 -0.1,-0.7 -0.2,-1.5 -0.4,-2.2 -0.1,-0.5 -0.1,-1.1 -0.1,-1.6 -0.5,-0.5 -0.8,-1.2 -1,-1.9 -0.1,-0.3 0,-0.5 0.2,-0.7 0.2,-0.2 0.5,-0.3 0.8,-0.4 0,-0.5 -0.1,-1 -0.1,-1.5 -0.1,-1.5 -0.1,-3.1 -0.2,-4.6 0,-0.2 0,-0.3 0,-0.5 -0.4,-0.1 -0.7,-0.2 -1.1,-0.3 -0.2,0 -0.5,-0.1 -0.7,0 0,1.3 0.1,2.7 0.1,3.9 0,0.7 0,1.5 0.2,2.2 0.1,0.4 -0.1,0.9 0,1.3 0.1,0.5 0.1,1 0.1,1.5 0.1,0.8 0.1,1.6 0.2,2.3 0.1,0.8 0.1,1.5 0.2,2.3 0.1,0 0.2,-0.1 0.3,-0.1 0.2,0 0.5,0 0.7,0 z m 18.8,10.6 c -1.6,0 -3.3,0 -4.9,0 -0.8,0 -1.6,0.1 -2.3,-0.3 -0.1,0 -0.2,0 -0.4,0 -2,0 -4,0.1 -5.9,0.2 -0.1,0 -0.2,0 -0.4,0.1 -1.1,0.2 -2.2,0.4 -3.3,0.6 0.1,-0.2 0.3,-0.4 0.3,-0.6 0,-0.6 -0.1,-1.3 -0.1,-1.9 -0.1,-0.9 -0.2,-1.8 -0.3,-2.7 0,0 0,0 0,-0.1 -0.1,-0.1 -0.2,-0.2 -0.3,-0.4 -0.7,0.3 -1.3,0.7 -1.9,1.1 0,0.5 0.1,1 0.1,1.5 0,0.5 0,1 0,1.5 0,0.5 0.2,1 0.3,1.5 0.1,0.5 0.3,1 0.5,1.5 0.2,-0.1 0.4,-0.2 0.5,-0.2 0.3,0.2 0.5,0.4 0.7,0.5 0.5,0.1 1.1,0.3 1.6,0.3 2.4,0 4.8,0 7.1,0 0.5,0 1.1,0.1 1.6,0.2 0.3,0 0.5,0.1 0.8,0.1 2.2,0 4.5,0 6.8,0 -0.2,-0.9 -0.3,-1.8 -0.5,-2.9 z m -14.1,-5.3 c 0,0.6 0.1,1.3 0.1,2.1 0.8,-0.3 1.4,-0.8 1.7,-1.4 0.5,-1 1,-1.9 1.5,-2.9 -0.6,0.1 -1.3,0.2 -1.9,0.4 -0.1,0 -0.3,0 -0.4,0 -0.1,0.1 -0.2,0.3 -0.3,0.4 -0.9,0.7 -1.7,1.5 -2.8,1.9 0.1,0.3 0.2,0.6 0.2,0.9 0.7,0.1 0.7,0 1.9,-1.4 z M 347,602.7 c 0,-0.2 -0.1,-0.3 -0.2,-0.5 -0.3,0 -0.6,0 -0.9,0 0.3,0.9 0.7,1.7 1,2.7 0,0.1 0.1,0.2 0.1,0.3 0.2,0 0.4,0 0.6,0 -0.1,-0.9 -0.4,-1.7 -0.6,-2.5 z m 2.7,-0.1 c 0.1,0.6 0.1,1.2 0.2,1.7 l 0,0 c 0.2,-0.1 0.4,-0.3 0.5,-0.4 0,-0.2 0,-0.5 0,-0.7 -0.2,-0.2 -0.5,-0.4 -0.7,-0.6 z m 3.3,18.6 0,0 0,0 0,0 z m -14.1,-35.7 c 0.1,-1.1 1.1,-1 1.8,-1.4 0,0.2 0,0.3 0,0.5 0,0.6 0,1.1 0,1.7 0,0.2 0,0.3 0,0.4 0.3,0 0.6,0 0.9,0 0,-0.3 0,-0.5 0,-0.8 0,-0.7 0.1,-1.5 0.3,-2.2 -1.3,0 -2.7,0 -3.9,0 0.3,0.6 0.5,1.3 0.9,1.8 z"
   inkscape:connector-curvature="0"
   style="fill:#bababa" />
	</g>
</g>
</svg>