<?xml version="1.0" standalone="no"?>
<!DOCTYPE svg PUBLIC "-//W3C//DTD SVG 1.1//EN" "http://www.w3.org/Graphics/SVG/1.1/DTD/svg11.dtd" >
<svg xmlns="http://www.w3.org/2000/svg">
<metadata></metadata>
<defs>
<font id="gasparitalic" horiz-adv-x="320" >
<font-face units-per-em="1000" ascent="800" descent="-200" />
<missing-glyph horiz-adv-x="260" />
<glyph unicode="&#xfb01;" horiz-adv-x="541" d="M-69 -235l11 51q45 0 77 27q26 23 41 95l99 467h-61l11 51h61l18 83q16 80 61 121q36 31 84 31q38 0 73 -14l-21 -43q-23 7 -38 7q-32 0 -53.5 -21.5t-29.5 -44t-15 -57.5l-13 -62h268l-86 -408q30 -2 57 -10l-11 -38h-122l86 405h-203l-104 -488q-9 -43 -20 -66t-35 -45 q-47 -41 -135 -41zM452 620q0 21 15 35.5t36 14.5q20 0 35 -14.5t15 -35.5t-15 -35.5t-35 -14.5q-21 0 -36 14.5t-15 35.5z" />
<glyph unicode="&#xfb02;" horiz-adv-x="545" d="M-69 -235l11 51q45 0 77 27q26 23 41 95l99 467h-61l11 51h61l18 83q9 44 20 68t34 45q45 39 115 39q60 0 128 -30l4 20h66l-134 -633q30 -2 57 -10l-11 -38h-122l130 611q-57 26 -116 26q-39 0 -70 -26q-25 -22 -40 -93l-13 -62h113l-24 -51h-100l-104 -488 q-9 -43 -20 -66t-35 -45q-47 -41 -135 -41z" />
<glyph horiz-adv-x="1000" />
<glyph horiz-adv-x="1000" />
<glyph unicode="&#xd;" horiz-adv-x="1000" />
<glyph unicode=" "  horiz-adv-x="260" />
<glyph unicode="&#x09;" horiz-adv-x="260" />
<glyph unicode="&#xa0;" horiz-adv-x="260" />
<glyph unicode="!" horiz-adv-x="322" d="M70 40q0 21 14.5 36t35.5 15t36 -15t15 -36t-15 -35.5t-36 -14.5t-35.5 14.5t-14.5 35.5zM131 204l86 466h75l-112 -466h-49z" />
<glyph unicode="&#x22;" horiz-adv-x="417" d="M95 473l79 208h100l-143 -208h-36zM262 473l80 208h100l-143 -208h-37z" />
<glyph unicode="#" horiz-adv-x="493" d="M23 -39l66 190h-66l12 53h73l69 199h-66l12 53h73l71 206h54l-72 -206h123l72 206h54l-72 -206h66l-11 -53h-73l-70 -199h66l-11 -53h-73l-67 -190h-53l66 190h-123l-66 -190h-54zM162 204h123l69 199h-123z" />
<glyph unicode="$" horiz-adv-x="484" d="M15 22l18 87l46 12q3 -27 -1 -65q37 -16 100 -16q72 0 119 39t47 103q0 66 -63 92q-12 5 -35 12.5t-38 13t-34 17.5t-30.5 26.5t-19.5 39.5t-8 58q0 70 50 118.5t125 53.5l16 77h52l-17 -77q66 -6 127 -29l-18 -88l-46 -12q-2 26 1 65q-42 15 -93 15q-57 0 -96 -33.5 t-39 -91.5t59 -81q12 -5 36 -13t39.5 -13.5t35.5 -18t32 -27.5t20.5 -40.5t8.5 -59.5q0 -83 -58.5 -136.5t-140.5 -59.5l-16 -77h-52l16 77q-75 4 -143 32z" />
<glyph unicode="%" horiz-adv-x="686" d="M10 -10l596 680h70l-596 -680h-70zM33 427q0 48 8.5 88t28.5 76.5t58 57.5t91 21q55 0 84 -27.5t29 -73.5q0 -44 -7.5 -82.5t-26.5 -77.5t-58 -61.5t-94 -22.5q-59 0 -86 28t-27 74zM92 439q0 -64 64 -64q59 0 88 53.5t29 127.5q0 64 -64 64q-41 0 -68.5 -29.5t-38 -68.5 t-10.5 -83zM354 92q0 48 8.5 88t28.5 76.5t58 57.5t91 21q56 0 84.5 -27.5t28.5 -74.5q0 -44 -7.5 -82.5t-26.5 -77t-58 -61t-94 -22.5q-58 0 -85.5 28t-27.5 74zM413 104q0 -64 65 -64q58 0 87 53.5t29 127.5q0 64 -64 64q-59 0 -88 -55.5t-29 -125.5z" />
<glyph unicode="&#x26;" horiz-adv-x="521" d="M32 100q0 53 21 130t61 117q36 36 95 44q-20 41 -20 81q0 63 48 102t119 39q56 0 135 -29l-18 -86l-43 -12q-2 27 1 65q-40 14 -74 14q-47 0 -75 -25t-28 -63q0 -18 7 -36l147 -393q30 -2 57 -10l-10 -38h-97l-11 31q-123 -41 -192 -41q-123 0 -123 110zM101 115 q0 -75 70 -75q57 0 160 32l-104 271q-37 -4 -61 -28q-29 -29 -47 -92t-18 -108z" />
<glyph unicode="'" horiz-adv-x="249" d="M95 473l79 208h100l-143 -208h-36z" />
<glyph unicode="(" horiz-adv-x="366" d="M42 -40q0 149 59.5 369.5t135.5 296.5q63 65 171 65l-10 -48q-64 0 -109 -45q-65 -65 -121 -282t-56 -354q0 -73 24.5 -111t85.5 -38l-10 -48q-99 0 -134.5 49.5t-35.5 145.5z" />
<glyph unicode=")" horiz-adv-x="366" d="M-42 -235l10 48q65 0 110 45q65 65 121 282t56 354q0 73 -24.5 111t-85.5 38l10 48q98 0 133.5 -49.5t35.5 -145.5q0 -149 -59.5 -369.5t-135.5 -297.5q-64 -64 -171 -64z" />
<glyph unicode="*" horiz-adv-x="479" d="M109 543l19 51l111 -43v119h56v-119l113 43l21 -51l-115 -40l70 -96l-44 -32l-72 101l-69 -101l-47 32l69 96z" />
<glyph unicode="+" horiz-adv-x="475" d="M22 213v55h188v188h55v-188h188v-55h-188v-188h-55v188h-188z" />
<glyph unicode="," horiz-adv-x="210" d="M-6 -118l79 207h100l-143 -207h-36z" />
<glyph unicode="-" d="M43 213l14 64h220l-14 -64h-220z" />
<glyph unicode="." horiz-adv-x="196" d="M34 40q0 21 14.5 36t35.5 15t36 -15t15 -36t-15 -35.5t-36 -14.5t-35.5 14.5t-14.5 35.5z" />
<glyph unicode="/" horiz-adv-x="524" d="M-62 -225l532 916h64l-531 -916h-65z" />
<glyph unicode="0" horiz-adv-x="508" d="M30 144q0 93 37.5 237t97.5 203q56 56 158 56q79 0 117 -33.5t38 -120.5q0 -105 -39.5 -244.5t-95.5 -195.5q-54 -56 -158 -56q-83 0 -119 35t-36 119zM97 152q0 -62 23.5 -87.5t74.5 -25.5q62 0 100 38q45 45 80.5 177t35.5 223q0 63 -23.5 88.5t-74.5 25.5 q-61 0 -100 -37q-45 -45 -80.5 -180t-35.5 -222z" />
<glyph unicode="1" horiz-adv-x="300" d="M4 38q27 8 57 10l113 534q-33 4 -57 11l11 38h122l-124 -583q30 -2 57 -10l-10 -38h-159z" />
<glyph unicode="2" horiz-adv-x="478" d="M-10 0l13 60l318 332q56 60 56 130q0 63 -76 63q-52 0 -126 -23q-10 -32 -25 -59l-40 20l17 81q117 36 191 36q124 0 124 -100q0 -111 -85 -199l-271 -280h271l-13 -61h-354z" />
<glyph unicode="3" horiz-adv-x="456" d="M-10 20l23 47q85 -27 145 -27q76 0 113 63t37 142q-1 42 -21.5 63.5t-66.5 21.5h-101l11 52h104q59 0 88.5 40t29.5 101q0 65 -81 65q-46 0 -119 -22q-10 -34 -24 -60l-40 20l17 79q121 36 186 36q125 0 125 -102q0 -61 -25.5 -111.5t-73.5 -69.5q57 -20 57 -93 q0 -116 -55.5 -195.5t-163.5 -79.5q-71 0 -165 30z" />
<glyph unicode="4" horiz-adv-x="476" d="M0 170l12 55l358 406h71l-87 -409h72l-12 -52h-71l-26 -122q30 -2 57 -10l-10 -38h-157l-10 38q27 8 57 10l26 122h-280zM77 222h214l70 327z" />
<glyph unicode="5" horiz-adv-x="461" d="M2 17l22 47q75 -24 132 -24q40 0 70 20t46 52.5t23.5 66t7.5 66.5q0 45 -19.5 65.5t-67.5 20.5h-130l63 299h286l-22 -105l-46 -12q-3 30 2 64h-169l-41 -191h86q123 0 123 -124q0 -118 -56.5 -195t-158.5 -77q-66 0 -151 27z" />
<glyph unicode="6" horiz-adv-x="490" d="M33 112q0 97 40.5 245t107.5 215q69 68 181 68q43 0 100 -12l-23 -48q-41 8 -85 8q-74 0 -122 -46q-53 -52 -94 -187q85 28 159 28q124 0 124 -123q0 -132 -59.5 -201t-177.5 -69q-72 0 -111.5 27t-39.5 95zM100 134q-2 -94 96 -94q79 0 119.5 58.5t40.5 142.5 q0 45 -21 67.5t-68 22.5q-57 0 -144 -32q-23 -100 -23 -165z" />
<glyph unicode="7" horiz-adv-x="459" d="M53 0l332 578h-238q-12 -37 -25 -60l-39 20l19 93h364l-11 -54l-331 -577h-71z" />
<glyph unicode="8" horiz-adv-x="490" d="M24 109q0 189 123 251q-36 22 -36 77q0 203 209 203q146 0 146 -100q0 -135 -92 -180q49 -22 49 -95q0 -135 -62.5 -205t-178.5 -70q-85 0 -121.5 28.5t-36.5 90.5zM91 123q0 -44 23.5 -65t77.5 -21q82 0 123 59.5t41 154.5q0 43 -23.5 62t-78.5 19q-84 0 -123.5 -58 t-39.5 -151zM173 444q0 -40 23 -51.5t70 -11.5q138 0 138 146q0 34 -21.5 50t-71.5 16q-66 0 -102 -37t-36 -112z" />
<glyph unicode="9" horiz-adv-x="468" d="M26 2l22 47q42 -7 81 -7q73 0 117 46q55 55 91 186q-83 -28 -152 -28q-120 0 -120 123q0 132 57.5 201.5t171.5 69.5q70 0 108 -27.5t38 -95.5q0 -96 -39 -244t-104 -215q-66 -68 -175 -68q-48 0 -96 12zM131 389q0 -46 19.5 -68.5t64.5 -22.5q49 0 134 32q22 95 22 165 q2 94 -89 94q-75 0 -113 -58t-38 -142z" />
<glyph unicode=":" horiz-adv-x="273" d="M34 40q0 21 14.5 36t35.5 15t36 -15t15 -36t-15 -35.5t-36 -14.5t-35.5 14.5t-14.5 35.5zM112 406q0 20 14.5 35t35.5 15t35.5 -15t14.5 -35q0 -21 -14.5 -36t-35.5 -15t-35.5 15t-14.5 36z" />
<glyph unicode=";" horiz-adv-x="273" d="M-6 -118l79 207h100l-143 -207h-36zM135 406q0 20 15 35t36 15q20 0 35 -15t15 -35q0 -21 -15 -36t-35 -15q-21 0 -36 15t-15 36z" />
<glyph unicode="&#x3c;" horiz-adv-x="534" d="M46 185v58l431 195v-58l-367 -166l367 -166v-58z" />
<glyph unicode="=" horiz-adv-x="484" d="M26 146v54h432v-54h-432zM26 290v54h432v-54h-432z" />
<glyph unicode="&#x3e;" horiz-adv-x="534" d="M57 -10v58l368 166l-368 166v58l431 -195v-58z" />
<glyph unicode="?" horiz-adv-x="418" d="M125 40q0 21 14.5 36t35.5 15t36 -15t15 -36t-15 -35.5t-36 -14.5t-35.5 14.5t-14.5 35.5zM135 579l16 77q89 25 146 25q126 0 126 -104q0 -54 -19 -118.5t-54 -100.5q-35 -35 -92 -42l-24 -112h-59l33 155q62 0 90 29q28 28 43.5 79.5t15.5 92.5q0 70 -75 70 q-35 0 -83 -11q-10 -32 -25 -60z" />
<glyph unicode="@" horiz-adv-x="647" d="M54 -10l67 317q39 176 106 244q65 63 190 63q104 0 144 -39.5t40 -122.5q0 -55 -19 -145l-55 -259q32 -2 57 -10l-10 -38h-105l4 19q-79 -29 -120 -29q-114 0 -116 112q0 38 6 78t21.5 82.5t38.5 76t59 55t81 21.5q48 0 93 -24q4 22 4 66q0 108 -133 108q-87 0 -133 -48 q-60 -60 -91 -210l-67 -317h-62zM303 114q0 -74 56 -74q38 0 110 26l58 273q-42 29 -82 29q-45 0 -79 -44t-48.5 -100t-14.5 -110z" />
<glyph unicode="A" horiz-adv-x="617" d="M-52 42q26 8 64 12l320 616h101l59 -616q38 -4 64 -12l-12 -42h-170l-11 44q18 6 57 10l-16 165h-239l-85 -165q39 -4 58 -10l-12 -44h-167zM194 276h205l-32 336z" />
<glyph unicode="B" horiz-adv-x="575" d="M-3 42q25 8 64 12l119 562q-39 4 -64 12l12 42h251q82 0 125 -26t43 -87q0 -73 -30.5 -132.5t-93.5 -68.5q88 -13 88 -127q0 -39 -10.5 -76.5t-33 -73t-65.5 -57.5t-102 -22h-292zM134 57h157q49 0 83 28t47 64t13 75q0 43 -24 67.5t-66 24.5h-155zM201 373h148 q60 0 91 51.5t31 111.5q0 77 -74 77h-145z" />
<glyph unicode="C" horiz-adv-x="553" d="M37 176q0 89 39 229t103 204q73 72 192 72q80 0 179 -34l-22 -104l-57 -15q-3 35 2 81q-56 15 -122 15q-26 0 -58.5 -13t-53.5 -34q-53 -52 -88 -180.5t-35 -211.5q0 -65 29 -101.5t84 -36.5q89 0 193 32l3 -53q-115 -36 -201 -36q-99 0 -143 47.5t-44 138.5z" />
<glyph unicode="D" horiz-adv-x="640" d="M-3 42q25 8 64 12l119 562q-39 4 -64 12l12 42h286q100 0 144.5 -46t44.5 -136q0 -106 -41 -234.5t-94 -181.5q-72 -72 -196 -72h-264zM134 57h150q74 0 121 47q49 49 85 168t36 204q0 59 -27 98t-87 39h-160z" />
<glyph unicode="E" horiz-adv-x="545" d="M-3 42q25 8 64 12l119 562q-39 4 -64 12l12 42h442l-27 -123l-57 -15q-3 38 2 81h-236l-51 -240h250l-12 -57h-250l-55 -259h244q13 41 31 75l49 -25l-23 -107h-427z" />
<glyph unicode="F" horiz-adv-x="530" d="M-3 42q25 8 64 12l119 562q-39 4 -64 12l12 42h427l-26 -123l-57 -15q-3 38 2 81h-222l-51 -240h236l-12 -57h-236l-56 -262q39 -3 69 -12l-11 -42h-183z" />
<glyph unicode="G" horiz-adv-x="578" d="M37 176q0 89 39 229t103 204q73 72 192 72q89 0 196 -40l-22 -102l-57 -15q-3 35 2 81q-66 19 -139 19q-26 0 -58.5 -13t-53.5 -34q-53 -52 -88 -180.5t-35 -211.5q0 -65 29 -101.5t84 -36.5q73 0 159 22l43 202q-31 1 -64 12l11 42h137l-62 -290q-132 -45 -229 -45 q-99 0 -143 47.5t-44 138.5z" />
<glyph unicode="H" horiz-adv-x="680" d="M-3 42q25 8 64 12l119 562q-39 4 -64 12l12 42h177l11 -42q-24 -8 -63 -12l-52 -243h294l52 243q-39 4 -64 12l11 42h178l11 -42q-26 -8 -64 -12l-119 -562q39 -4 63 -12l-11 -42h-177l-12 42q26 8 64 12l56 262h-294l-56 -262q38 -4 64 -12l-11 -42h-178z" />
<glyph unicode="I" horiz-adv-x="309" d="M-5 42q26 8 64 12l119 562q-38 4 -64 12l12 42h177l11 -42q-24 -8 -63 -12l-120 -562q39 -4 64 -12l-11 -42h-178z" />
<glyph unicode="J" horiz-adv-x="394" d="M-37 -1l26 54q32 -6 65 -6q46 0 80 34q25 25 36 78l97 457q-39 3 -69 12l11 42h183l11 -42q-25 -8 -63 -12l-97 -456q-8 -41 -18.5 -67t-34.5 -49q-54 -54 -147 -54q-41 0 -80 9z" />
<glyph unicode="K" horiz-adv-x="629" d="M-3 42q25 8 64 12l119 562q-39 4 -64 12l12 42h177l11 -42q-24 -8 -63 -12l-52 -243h103l213 243q-33 3 -57 10l11 44h177l11 -42q-32 -9 -64 -12l-235 -264l138 -298q38 -4 64 -12l-11 -42h-106l-147 316h-109l-56 -262q38 -4 64 -12l-11 -42h-178z" />
<glyph unicode="L" horiz-adv-x="494" d="M-3 42q25 8 64 12l119 562q-39 4 -64 12l12 42h177l11 -42q-25 -8 -63 -12l-119 -559h214q14 46 31 75l49 -25l-23 -107h-397z" />
<glyph unicode="M" horiz-adv-x="794" d="M-11 42q26 8 64 12l119 562q-32 3 -64 12l12 42h171l72 -476l274 476h156l12 -42q-32 -9 -64 -12l-120 -562q39 -4 64 -12l-11 -42h-169l-11 42q26 8 64 12l119 563l-281 -483h-84l-76 483l-119 -563q38 -4 63 -12l-11 -42h-169z" />
<glyph unicode="N" horiz-adv-x="717" d="M-11 42q26 8 64 12l119 562q-32 3 -64 12l12 42h174l191 -617l119 563q-39 4 -63 12l11 42h169l11 -42q-25 -8 -64 -12l-131 -616h-110l-191 617l-119 -563q38 -4 63 -12l-11 -42h-169z" />
<glyph unicode="O" horiz-adv-x="614" d="M37 168q0 98 38.5 239.5t102.5 205.5q70 68 202 68q103 0 150 -39t47 -138q0 -108 -40.5 -246.5t-100.5 -199.5q-68 -68 -203 -68q-105 0 -150.5 39.5t-45.5 138.5zM115 180q0 -74 29 -103.5t101 -29.5q85 0 134 47q53 54 86.5 183t33.5 213q0 71 -28 102.5t-103 31.5 q-85 0 -133 -48t-84 -177t-36 -219z" />
<glyph unicode="P" horiz-adv-x="549" d="M-3 42q25 8 64 12l119 562q-32 3 -64 12l12 42h268q82 0 125 -26t43 -88q0 -52 -24.5 -128.5t-56.5 -108.5q-51 -51 -173 -51h-131l-46 -214q39 -3 69 -12l-11 -42h-183zM191 325h158q44 0 73 29q22 22 42 78.5t20 103.5q0 77 -74 77h-158z" />
<glyph unicode="Q" horiz-adv-x="614" d="M37 168q0 98 38.5 239.5t102.5 205.5q70 68 202 68q103 0 150 -39t47 -138q0 -108 -40.5 -246.5t-100.5 -199.5q-35 -35 -86 -52l102 -77l-59 -59l-122 121q-12 -1 -38 -1q-105 0 -150.5 39.5t-45.5 138.5zM115 180q0 -74 29 -103.5t101 -29.5q85 0 134 47 q53 54 86.5 183t33.5 213q0 71 -28 102.5t-103 31.5q-85 0 -133 -48t-84 -177t-36 -219z" />
<glyph unicode="R" horiz-adv-x="576" d="M-3 42q25 8 64 12l119 562q-39 4 -64 12l12 42h258q82 0 125 -26t43 -88q0 -51 -23.5 -116.5t-51.5 -93.5q-38 -36 -98 -46l43 -246q39 -4 63 -12l-11 -42h-119l-48 294h-125l-51 -240q38 -4 64 -12l-11 -42h-178zM196 351h140q49 0 82 33q21 20 39 62t18 90q0 77 -73 77 h-150z" />
<glyph unicode="S" horiz-adv-x="524" d="M-23 26l21 100l57 15q4 -37 -2 -80q48 -18 123 -18q88 0 145 44t57 116q0 42 -19.5 65.5t-56.5 37.5q-15 6 -43 14.5t-46 14t-41 18.5t-37 29t-23.5 43.5t-9.5 63.5q0 82 69 137t165 55q95 0 195 -34l-22 -102l-57 -15q-3 34 2 82q-49 16 -114 16q-69 0 -116.5 -38.5 t-47.5 -102.5q0 -37 18 -57.5t52 -34.5q15 -6 43.5 -13.5t48 -13.5t43.5 -19t38.5 -29.5t25 -45.5t10.5 -67q0 -97 -78.5 -157t-186.5 -60q-114 0 -213 36z" />
<glyph unicode="T" horiz-adv-x="545" d="M68 564l23 106h496l-27 -123l-57 -15q-3 38 2 81h-142l-119 -559q38 -4 64 -12l-12 -42h-177l-11 42q25 8 63 12l119 559h-142q-12 -40 -31 -74z" />
<glyph unicode="U" horiz-adv-x="667" d="M66 120q0 7 2 27l100 469q-38 4 -64 12l12 42h177l11 -42q-25 -8 -64 -12l-95 -447q-3 -17 -3 -31q0 -91 126 -91q142 0 175 122l95 447q-38 4 -64 12l11 42h178l11 -42q-26 -8 -64 -12l-100 -469q-44 -157 -254 -157q-97 0 -143.5 35t-46.5 95z" />
<glyph unicode="V" horiz-adv-x="629" d="M59 628l11 42h174l12 -44q-25 -7 -57 -10l56 -549l290 549q-32 3 -58 10l12 44h167l11 -42q-26 -8 -64 -12l-325 -616h-102l-63 616q-38 4 -64 12z" />
<glyph unicode="W" horiz-adv-x="917" d="M59 628l11 42h168l12 -44q-25 -7 -57 -10l35 -558l234 612h102l14 -612l255 558q-32 3 -57 10l12 44h166l11 -42q-26 -8 -64 -12l-293 -616h-100l-11 605l-233 -605h-103l-38 616q-38 4 -64 12z" />
<glyph unicode="X" horiz-adv-x="655" d="M-35 42q26 8 64 12l259 292l-126 270q-39 4 -63 12l11 42h176l12 -44q-26 -7 -57 -10l105 -225l197 225q-32 3 -58 10l12 44h176l12 -42q-25 -8 -64 -12l-241 -270l136 -292q39 -4 63 -12l-11 -42h-176l-12 44q19 6 57 10l-114 247l-216 -247q39 -4 57 -10l-12 -44h-176z " />
<glyph unicode="Y" horiz-adv-x="645" d="M59 628l11 42h177l11 -44q-24 -7 -57 -10l122 -263l230 263q-31 3 -57 10l12 44h176l11 -42q-26 -8 -64 -12l-286 -322l-51 -240q39 -4 64 -12l-12 -42h-177l-11 42q24 8 63 12l51 240l-149 322q-38 4 -64 12z" />
<glyph unicode="Z" horiz-adv-x="532" d="M-27 0l13 62l472 548h-271q-13 -41 -31 -75l-49 25l24 110h428l-13 -62l-472 -548h294q13 42 31 75l49 -25l-24 -110h-451z" />
<glyph unicode="[" horiz-adv-x="353" d="M15 -225l192 906h181l-10 -50h-113l-171 -807h112l-10 -49h-181z" />
<glyph unicode="]" horiz-adv-x="353" d="M-35 -225l10 49h113l171 807h-112l10 50h181l-192 -906h-181z" />
<glyph unicode="_" horiz-adv-x="405" d="M-70 -71h475v-41h-475v41z" />
<glyph unicode="a" horiz-adv-x="482" d="M30 117q0 68 27 161.5t71 137.5q48 50 135 50q65 0 118 -35l5 25h62l-87 -408q30 -2 57 -10l-10 -38h-115l4 18q-80 -28 -136 -28q-131 0 -131 127zM99 127q0 -85 69 -85q61 0 131 24l67 316q-57 35 -97 35q-54 0 -86 -32q-37 -37 -60.5 -119.5t-23.5 -138.5z" />
<glyph unicode="b" horiz-adv-x="496" d="M52 15l131 617q-33 4 -57 11l10 38h123l-51 -240q75 25 127 25q131 0 131 -127q0 -68 -27 -162t-71 -138q-49 -49 -134 -49q-93 0 -182 25zM125 52q54 -13 102 -13q54 0 86 32q37 37 60.5 119.5t23.5 138.5q0 85 -68 85q-62 0 -132 -24z" />
<glyph unicode="c" horiz-adv-x="434" d="M30 119q0 64 23.5 154t73.5 140q54 53 145 53q69 0 148 -28l-22 -101h-44q-3 32 2 64q-51 14 -95 14q-46 0 -78 -33q-35 -35 -59 -117.5t-24 -134.5q0 -89 76 -89q71 0 160 29l3 -49q-95 -31 -168 -31q-78 0 -109.5 34t-31.5 95z" />
<glyph unicode="d" horiz-adv-x="485" d="M30 117q0 68 27 161.5t71 137.5q48 50 135 50q63 0 114 -33l42 199q-33 4 -57 11l11 38h122l-134 -633q30 -2 57 -10l-10 -38h-115l4 18q-80 -28 -136 -28q-131 0 -131 127zM99 127q0 -85 69 -85q61 0 131 24l67 316q-57 35 -97 35q-54 0 -86 -32q-37 -37 -60.5 -119.5 t-23.5 -138.5z" />
<glyph unicode="e" horiz-adv-x="449" d="M30 119q0 59 23.5 146.5t62.5 133.5q59 67 162 67q143 0 143 -132q0 -46 -19 -132h-293q-9 -40 -9 -75q0 -43 20.5 -64.5t68.5 -21.5q61 0 164 33l3 -49q-105 -35 -186 -35q-75 0 -107.5 33t-32.5 96zM120 253h227q37 162 -76 162q-62 0 -99.5 -48.5t-51.5 -113.5z" />
<glyph unicode="f" horiz-adv-x="347" d="M-69 -235l11 51q45 0 77 27q26 23 41 95l99 467h-61l11 51h61l18 83q9 44 20 68t34 45q45 39 115 39q40 0 74 -14l-23 -48q-25 10 -55 10q-32 0 -64 -26q-25 -23 -40 -95l-13 -62h113l-24 -51h-100l-104 -488q-9 -43 -20 -66t-35 -45q-47 -41 -135 -41z" />
<glyph unicode="g" horiz-adv-x="521" d="M-2 -197l23 49q87 -36 151 -36q39 0 71 32q6 6 11 13.5t8 13t6 15.5t4 15t3.5 17t3.5 16l16 77q-73 -25 -127 -25q-131 0 -131 127q0 68 27 161.5t71 137.5q48 50 135 50q64 0 118 -35l5 25h98l10 -38q-23 -8 -57 -11l-105 -496q-5 -23 -7 -32t-12 -29t-26 -36 q-49 -49 -135 -49q-73 0 -161 38zM106 127q0 -85 69 -85q61 0 131 24l67 316q-57 35 -97 35q-54 0 -86 -32q-37 -37 -60.5 -119.5t-23.5 -138.5z" />
<glyph unicode="h" horiz-adv-x="518" d="M52 0l134 632q-33 4 -57 11l10 38h123l-55 -260q107 45 175 45q39 0 62.5 -22t23.5 -58q0 -12 -3 -25l-66 -313q30 -2 57 -10l-11 -38h-122l74 348q1 5 1 13q0 21 -14 35t-36 14q-55 0 -152 -40l-78 -370h-66z" />
<glyph unicode="i" horiz-adv-x="251" d="M52 0l87 407q-34 3 -58 11l11 38h122l-86 -408q30 -2 57 -10l-10 -38h-123zM163 620q0 21 14.5 35.5t35.5 14.5t35.5 -14.5t14.5 -35.5t-14.5 -35.5t-35.5 -14.5t-35.5 14.5t-14.5 35.5z" />
<glyph unicode="j" horiz-adv-x="294" d="M-52 -235l11 51q45 0 77 27q25 22 40 95l100 469q-33 3 -57 11l10 38h123l-115 -539q-9 -43 -19.5 -66t-34.5 -45q-47 -41 -135 -41zM200 620q0 21 15 35.5t35 14.5q21 0 36 -14.5t15 -35.5t-15 -35.5t-36 -14.5q-20 0 -35 14.5t-15 35.5z" />
<glyph unicode="k" horiz-adv-x="502" d="M52 0l134 632q-33 4 -57 11l10 38h123l-91 -428h78l124 141l38 62h73l-38 -62l-137 -155l88 -191q30 -2 57 -10l-10 -38h-98l-93 202h-92l-43 -202h-66z" />
<glyph unicode="l" horiz-adv-x="252" d="M52 0l134 632q-33 4 -57 11l10 38h123l-134 -633q30 -2 57 -10l-10 -38h-123z" />
<glyph unicode="m" horiz-adv-x="749" d="M52 0l87 407q-34 3 -57 11l10 38h118l-8 -37q107 47 168 47q30 0 49 -15t25 -37q111 52 176 52q36 0 57.5 -21.5t21.5 -56.5q0 -14 -3 -27l-67 -313q32 -2 57 -10l-10 -38h-123l74 347q2 10 2 15q0 20 -12.5 34t-32.5 14q-54 0 -137 -40l-79 -370h-65l74 348q1 5 1 13 q0 21 -12 35t-32 14q-50 0 -138 -40l-78 -370h-66z" />
<glyph unicode="n" horiz-adv-x="518" d="M52 0l87 407q-34 3 -57 11l10 38h118l-8 -37q116 47 180 47q39 0 62.5 -22t23.5 -58q0 -12 -3 -25l-66 -313q30 -2 57 -10l-11 -38h-122l74 348q1 5 1 13q0 21 -14 35t-36 14q-55 0 -152 -40l-78 -370h-66z" />
<glyph unicode="o" horiz-adv-x="464" d="M30 118q0 76 26 165t70 132q51 51 156 51q86 0 119 -31t33 -96q0 -71 -25.5 -162t-70.5 -136q-51 -51 -157 -51q-75 0 -113 26.5t-38 101.5zM99 130q0 -44 20.5 -66.5t72.5 -22.5q63 0 96 33q34 34 55.5 114.5t21.5 137.5q0 47 -22 68t-71 21q-63 0 -96 -33 q-34 -34 -55.5 -114.5t-21.5 -137.5z" />
<glyph unicode="p" horiz-adv-x="510" d="M-32 -187q25 8 57 11l124 583q-32 3 -57 11l10 38h115l-4 -18q80 28 136 28q131 0 131 -127q0 -68 -27 -162t-71 -138q-49 -49 -134 -49q-64 0 -115 33l-42 -199q33 -4 57 -11l-10 -38h-160zM144 74q54 -35 97 -35q54 0 86 32q37 37 60.5 119.5t23.5 138.5q0 85 -69 85 q-61 0 -131 -24z" />
<glyph unicode="q" horiz-adv-x="482" d="M30 117q0 68 27 161.5t71 137.5q48 50 135 50q65 0 118 -35l5 25h62l-135 -632q34 -3 57 -11l-10 -38h-159l-10 38q23 8 57 11l40 191q-70 -25 -127 -25q-131 0 -131 127zM99 127q0 -85 69 -85q61 0 131 24l67 316q-57 35 -97 35q-54 0 -86 -32q-37 -37 -60.5 -119.5 t-23.5 -138.5z" />
<glyph unicode="r" horiz-adv-x="347" d="M52 0l87 407q-34 3 -57 11l10 38h118l-9 -44q91 54 164 54l-14 -68q-83 0 -156 -35l-77 -363h-66z" />
<glyph unicode="s" horiz-adv-x="427" d="M18 24l21 99h44q3 -32 -2 -65q53 -17 99 -17q47 0 79 29.5t32 70.5q0 29 -20 44.5t-49 22.5t-58 16t-49 34t-20 68q0 66 52 103t119 37q60 0 143 -29l-20 -97h-45q-2 21 2 65q-40 11 -79 11q-40 0 -72 -22t-32 -61q0 -28 20.5 -44t49.5 -23t57.5 -16.5t49 -34.5t20.5 -66 q0 -73 -50.5 -116t-120.5 -43q-71 0 -171 34z" />
<glyph unicode="t" horiz-adv-x="323" d="M72 405l11 51h61l25 115h65l-24 -115h125l-25 -51h-111l-52 -242q-1 -5 -4 -19.5t-4 -21.5t-2 -18.5t1.5 -20.5t7.5 -16q18 -25 59 -25q10 0 45 5l2 -47q-31 -10 -69 -10q-69 0 -98 42q-15 21 -16 46t8 64l56 263h-61z" />
<glyph unicode="u" horiz-adv-x="500" d="M50 70q0 12 3 25l66 312q-33 3 -57 11l10 38h123l-74 -348q-1 -4 -1 -13q0 -21 14 -35.5t36 -14.5q57 0 151 41l79 370h66l-87 -408q30 -2 57 -10l-10 -38h-119l8 37q-109 -47 -179 -47q-40 0 -63 22t-23 58z" />
<glyph unicode="v" horiz-adv-x="494" d="M46 418l10 38h106l57 -377l180 315l19 62h65l-19 -62l-225 -394h-74l-62 407q-32 3 -57 11z" />
<glyph unicode="w" horiz-adv-x="719" d="M46 418l10 38h107l39 -388l163 388h86l17 -388l167 326l15 62h58l-15 -62l-208 -394h-75l-18 393l-169 -393h-78l-42 407q-32 3 -57 11z" />
<glyph unicode="x" horiz-adv-x="486" d="M9 0l207 235l-79 172q-32 3 -57 11l10 38h97l80 -175l100 113l38 62h72l-38 -62l-141 -159l85 -187q32 -2 57 -10l-10 -38h-96l-87 188l-166 -188h-72z" />
<glyph unicode="y" horiz-adv-x="517" d="M-49 -221l23 48q26 -10 60 -10q53 0 91 57l72 126h-8l-63 407q-33 3 -57 11l10 38h106l57 -377l180 315l19 62h65l-19 -62l-310 -543q-52 -86 -154 -86q-37 0 -72 14z" />
<glyph unicode="z" horiz-adv-x="433" d="M0 0l11 54l327 348h-184q-10 -35 -25 -60h-44l24 114h318l-11 -54l-327 -348h206q10 35 25 60h44l-24 -114h-340z" />
<glyph unicode="{" horiz-adv-x="351" d="M42 -127q0 58 34.5 158t34.5 129q0 16 -12 23.5t-43 7.5l9 44q39 0 54.5 11.5t21.5 39.5q3 17 11 100.5t18 133.5q35 161 223 161l-11 -50q-128 0 -154 -126q-10 -47 -18 -137t-13 -112q-3 -17 -17 -30t-34 -13q17 0 25.5 -10t8.5 -24q0 -30 -38.5 -134.5t-38.5 -162.5 q0 -41 25 -59.5t79 -18.5l-11 -49q-154 0 -154 118z" />
<glyph unicode="|" horiz-adv-x="267" d="M106 -235v990h55v-990h-55z" />
<glyph unicode="}" horiz-adv-x="361" d="M-38 -245l10 49q65 0 101.5 33t51.5 101q10 46 18 127t13 105q3 17 17 30t34 13q-17 0 -25.5 9.5t-8.5 23.5q0 23 42 140.5t42 171.5q0 39 -25 56t-84 17l11 50q160 0 160 -115q0 -54 -38.5 -164t-38.5 -137q0 -16 12 -23t43 -7l-10 -44q-38 0 -52.5 -11.5t-20.5 -39.5 q-3 -15 -10 -81.5t-21 -130.5q-36 -173 -221 -173z" />
<glyph unicode="&#xa1;" horiz-adv-x="312" d="M20 -225l112 466h49l-86 -466h-75zM141 406q0 20 15 35t35 15q21 0 36 -15t15 -35q0 -21 -15 -36t-36 -15q-20 0 -35 15t-15 36z" />
<glyph unicode="&#xa9;" horiz-adv-x="791" d="M60 335q0 143 101 244.5t244 101.5t244.5 -101.5t101.5 -244.5t-101.5 -244t-244.5 -101t-244 101t-101 244zM115 335q0 -123 85 -209.5t205 -86.5q121 0 206 86.5t85 209.5t-85 210t-206 87q-120 0 -205 -87t-85 -210zM235 335q0 38 1.5 59.5t9.5 50.5t24 52 q37 52 125 52q62 0 140 -25v-89h-40q-7 23 -11 56q-46 13 -91 13q-35 0 -60 -25q-33 -37 -33 -144q0 -35 1 -52.5t8.5 -46t22.5 -45.5q24 -24 61 -24q61 0 137 26l12 -44q-81 -28 -147 -28q-88 0 -127 52q-16 23 -23.5 53t-8.5 49t-1 60z" />
<glyph unicode="&#xad;" d="M43 213l14 64h220l-14 -64h-220z" />
<glyph unicode="&#xae;" horiz-adv-x="791" d="M60 335q0 143 101 244.5t244 101.5t244.5 -101.5t101.5 -244.5t-101.5 -244t-244.5 -101t-244 101t-101 244zM115 335q0 -123 85 -209.5t205 -86.5q121 0 206 86.5t85 209.5t-85 210t-206 87q-120 0 -205 -87t-85 -210zM257 156q17 5 39 7v344q-17 1 -39 8l8 27h157 q62 0 94 -22.5t32 -77.5q0 -62 -16 -91t-63 -38l60 -150q22 -2 38 -7l-7 -28h-73l-71 182h-69v-147q22 -2 39 -7l-8 -28h-113zM347 349h91q55 0 55 79q0 41 -12.5 58t-42.5 17h-91v-154z" />
<glyph unicode="&#xb7;" horiz-adv-x="454" d="M172 239q0 23 16 39t39 16t39 -16t16 -39t-16 -39t-39 -16t-39 16t-16 39z" />
<glyph unicode="&#xba;" horiz-adv-x="338" d="M43 536q18 84 59 114.5t123 30.5q83 0 110.5 -31t9.5 -114q-18 -84 -58.5 -114.5t-123.5 -30.5q-82 0 -110 30t-10 115zM96 536q-12 -58 5.5 -78.5t70.5 -20.5q54 0 81 21t39 78t-5 78t-71 21t-81 -21t-39 -78z" />
<glyph unicode="&#xbf;" horiz-adv-x="398" d="M-5 -131q0 54 19 118.5t54 100.5q35 35 92 42l24 111h59l-33 -154q-62 0 -91 -29q-27 -28 -42.5 -79.5t-15.5 -92.5q0 -70 74 -70q36 0 84 11q10 33 25 59l39 -19l-17 -77q-89 -25 -146 -25q-125 0 -125 104zM192 406q0 20 15 35t35 15q21 0 36 -15t15 -35q0 -21 -15 -36 t-36 -15q-20 0 -35 15t-15 36z" />
<glyph unicode="&#xc1;" horiz-adv-x="621" d="M-50 42q26 8 64 12l320 616h101l59 -616q39 -4 64 -12l-12 -42h-170l-11 44q25 8 57 10l-16 165h-239l-85 -165q31 -2 58 -10l-12 -44h-167zM196 276h205l-32 336zM342 749l92 141h103l-143 -141h-52z" />
<glyph unicode="&#xc4;" horiz-adv-x="621" d="M-50 42q26 8 64 12l320 616h101l59 -616q39 -4 64 -12l-12 -42h-170l-11 44q25 8 57 10l-16 165h-239l-85 -165q31 -2 58 -10l-12 -44h-167zM196 276h205l-32 336zM275 799q0 19 13.5 32.5t32.5 13.5t32.5 -13.5t13.5 -32.5t-13.5 -32t-32.5 -13t-32.5 13t-13.5 32z M448 799q0 19 13.5 32.5t32.5 13.5t32.5 -13.5t13.5 -32.5t-13.5 -32t-32.5 -13t-32.5 13t-13.5 32z" />
<glyph unicode="&#xc9;" horiz-adv-x="549" d="M-1 42q25 8 64 12l119 562q-38 4 -64 12l12 42h442l-27 -123l-57 -15q-3 38 2 81h-236l-51 -240h250l-12 -57h-250l-55 -259h244q13 41 31 75l49 -25l-23 -107h-427zM315 749l93 141h102l-142 -141h-53z" />
<glyph unicode="&#xcb;" horiz-adv-x="549" d="M-1 42q25 8 64 12l119 562q-38 4 -64 12l12 42h442l-27 -123l-57 -15q-3 38 2 81h-236l-51 -240h250l-12 -57h-250l-55 -259h244q13 41 31 75l49 -25l-23 -107h-427zM249 799q0 19 13.5 32.5t32.5 13.5t32.5 -13.5t13.5 -32.5t-13.5 -32t-32.5 -13t-32.5 13t-13.5 32z M422 799q0 19 13 32.5t33 13.5q19 0 32.5 -13.5t13.5 -32.5t-13.5 -32t-32.5 -13t-32.5 13t-13.5 32z" />
<glyph unicode="&#xcd;" horiz-adv-x="313" d="M-3 42q25 8 64 12l119 562q-39 4 -64 12l12 42h177l11 -42q-24 -8 -63 -12l-120 -562q38 -4 64 -12l-11 -42h-178zM190 749l92 141h103l-143 -141h-52z" />
<glyph unicode="&#xcf;" horiz-adv-x="313" d="M-3 42q25 8 64 12l119 562q-39 4 -64 12l12 42h177l11 -42q-24 -8 -63 -12l-120 -562q38 -4 64 -12l-11 -42h-178zM119 799q0 19 13 32.5t32 13.5q20 0 33 -13.5t13 -32.5t-13.5 -32t-32.5 -13t-32 13t-13 32zM292 799q0 19 13 32.5t33 13.5q19 0 32 -13.5t13 -32.5 t-13 -32t-32 -13t-32.5 13t-13.5 32z" />
<glyph unicode="&#xd1;" horiz-adv-x="721" d="M-9 42q25 8 64 12l119 562q-32 3 -64 12l12 42h174l191 -617l119 563q-39 4 -63 12l11 42h169l11 -42q-26 -8 -64 -12l-131 -616h-110l-191 617l-119 -563q38 -4 63 -12l-11 -42h-169zM306 771q39 73 87 73q32 0 69 -24.5t67 -24.5q24 0 47 41l31 -14q-41 -77 -88 -77 q-37 0 -75 25t-61 25q-25 0 -48 -37z" />
<glyph unicode="&#xd3;" horiz-adv-x="618" d="M39 168q0 98 38.5 239.5t102.5 205.5q70 68 202 68q103 0 150 -39t47 -138q0 -108 -40.5 -246.5t-100.5 -199.5q-68 -68 -203 -68q-105 0 -150.5 39.5t-45.5 138.5zM117 180q0 -74 29 -103.5t101 -29.5q85 0 134 47q53 54 86.5 183t33.5 213q0 71 -28 102.5t-103 31.5 q-85 0 -133 -48t-84 -177t-36 -219zM346 749l92 141h103l-143 -141h-52z" />
<glyph unicode="&#xd6;" horiz-adv-x="618" d="M39 168q0 98 38.5 239.5t102.5 205.5q70 68 202 68q103 0 150 -39t47 -138q0 -108 -40.5 -246.5t-100.5 -199.5q-68 -68 -203 -68q-105 0 -150.5 39.5t-45.5 138.5zM117 180q0 -74 29 -103.5t101 -29.5q85 0 134 47q53 54 86.5 183t33.5 213q0 71 -28 102.5t-103 31.5 q-85 0 -133 -48t-84 -177t-36 -219zM277 800q0 20 13.5 33t32.5 13t32 -13.5t13 -32.5t-13 -32t-32 -13t-32.5 13t-13.5 32zM450 800q0 20 13 33t33 13q19 0 32.5 -13.5t13.5 -32.5t-13.5 -32t-32.5 -13t-32.5 13t-13.5 32z" />
<glyph unicode="&#xda;" horiz-adv-x="672" d="M71 147l100 469q-38 4 -64 12l12 42h177l11 -42q-25 -8 -64 -12l-95 -447q-13 -62 21.5 -92t101.5 -30q143 0 175 122l95 447q-38 4 -64 12l11 42h178l11 -42q-26 -8 -64 -12l-100 -469q-44 -157 -254 -157q-108 0 -153.5 43t-34.5 114zM356 749l92 141h103l-143 -141 h-52z" />
<glyph unicode="&#xdc;" horiz-adv-x="672" d="M71 147l100 469q-38 4 -64 12l12 42h177l11 -42q-25 -8 -64 -12l-95 -447q-13 -62 21.5 -92t101.5 -30q143 0 175 122l95 447q-38 4 -64 12l11 42h178l11 -42q-26 -8 -64 -12l-100 -469q-44 -157 -254 -157q-108 0 -153.5 43t-34.5 114zM288 799q0 19 13 32.5t33 13.5 q19 0 32.5 -13.5t13.5 -32.5t-13.5 -32t-32.5 -13t-32.5 13t-13.5 32zM461 799q0 19 13.5 32.5t32.5 13.5t32.5 -13.5t13.5 -32.5t-13.5 -32t-32.5 -13t-32.5 13t-13.5 32z" />
<glyph unicode="&#xdd;" horiz-adv-x="649" d="M61 628l11 42h177l11 -44q-24 -7 -57 -10l122 -263l230 263q-31 3 -57 10l12 44h176l11 -42q-26 -8 -64 -12l-286 -322l-51 -240q39 -4 64 -12l-12 -42h-177l-11 42q24 8 63 12l51 240l-149 322q-39 4 -64 12zM343 749l92 141h103l-143 -141h-52z" />
<glyph unicode="&#xe1;" horiz-adv-x="486" d="M32 117q0 68 27 161.5t71 137.5q48 50 135 50q65 0 118 -35l5 25h62l-87 -408q30 -2 57 -10l-10 -38h-115l4 18q-80 -28 -136 -28q-131 0 -131 127zM101 127q0 -85 69 -85q61 0 131 24l67 316q-57 35 -97 35q-54 0 -86 -32q-37 -37 -60.5 -119.5t-23.5 -138.5zM243 540 l92 141h103l-143 -141h-52z" />
<glyph unicode="&#xe4;" horiz-adv-x="486" d="M32 117q0 68 27 161.5t71 137.5q48 50 135 50q65 0 118 -35l5 25h62l-87 -408q30 -2 57 -10l-10 -38h-115l4 18q-80 -28 -136 -28q-131 0 -131 127zM101 127q0 -85 69 -85q61 0 131 24l67 316q-57 35 -97 35q-54 0 -86 -32q-37 -37 -60.5 -119.5t-23.5 -138.5zM184 591 q0 19 13.5 32t32.5 13t32 -13t13 -32t-13 -32.5t-32 -13.5q-20 0 -33 13.5t-13 32.5zM357 591q0 19 13.5 32t32.5 13t32.5 -13t13.5 -32t-13.5 -32.5t-32.5 -13.5t-32.5 13.5t-13.5 32.5z" />
<glyph unicode="&#xe9;" horiz-adv-x="453" d="M32 119q0 59 23.5 146.5t62.5 133.5q59 67 162 67q143 0 143 -132q0 -46 -19 -132h-293q-9 -40 -9 -75q0 -43 20.5 -64.5t68.5 -21.5q61 0 164 33l3 -49q-105 -35 -186 -35q-75 0 -107.5 33t-32.5 96zM122 253h227q37 162 -76 162q-62 0 -99.5 -48.5t-51.5 -113.5z M243 540l92 141h102l-142 -141h-52z" />
<glyph unicode="&#xeb;" horiz-adv-x="453" d="M32 119q0 59 23.5 146.5t62.5 133.5q59 67 162 67q143 0 143 -132q0 -46 -19 -132h-293q-9 -40 -9 -75q0 -43 20.5 -64.5t68.5 -21.5q61 0 164 33l3 -49q-105 -35 -186 -35q-75 0 -107.5 33t-32.5 96zM122 253h227q37 162 -76 162q-62 0 -99.5 -48.5t-51.5 -113.5z M169 591q0 19 13.5 32t32.5 13t32.5 -13t13.5 -32t-13.5 -32.5t-32.5 -13.5t-32.5 13.5t-13.5 32.5zM342 591q0 19 13.5 32t32.5 13t32.5 -13t13.5 -32t-13 -32.5t-33 -13.5q-19 0 -32.5 13.5t-13.5 32.5z" />
<glyph unicode="&#xed;" horiz-adv-x="254" d="M54 0l87 407q-34 3 -58 11l11 38h122l-86 -408q30 -2 57 -10l-10 -38h-123zM129 540l92 141h103l-143 -141h-52z" />
<glyph unicode="&#xef;" horiz-adv-x="257" d="M55 0l87 407q-34 3 -58 11l11 38h122l-86 -408q30 -2 57 -10l-10 -38h-123zM63 591q0 19 13.5 32t32.5 13t32.5 -13t13.5 -32t-13.5 -32.5t-32.5 -13.5t-32.5 13.5t-13.5 32.5zM237 591q0 19 13 32t32 13t32.5 -13t13.5 -32t-13 -32.5t-33 -13.5q-19 0 -32 13.5t-13 32.5 z" />
<glyph unicode="&#xf1;" horiz-adv-x="522" d="M54 0l87 407q-34 3 -57 11l10 38h118l-8 -37q116 47 180 47q39 0 62.5 -22t23.5 -58q0 -12 -3 -25l-66 -313q30 -2 57 -10l-11 -38h-122l74 348q1 4 1 12q0 21 -14 35.5t-36 14.5q-55 0 -152 -40l-78 -370h-66zM185 563q39 73 87 73q32 0 69 -25t67 -25q25 0 47 42 l31 -14q-40 -78 -88 -78q-37 0 -75 25t-61 25q-27 0 -48 -37z" />
<glyph unicode="&#xf3;" horiz-adv-x="468" d="M32 118q0 76 26 165t70 132q51 51 156 51q86 0 119 -31t33 -96q0 -71 -25.5 -162t-70.5 -136q-51 -51 -157 -51q-75 0 -113 26.5t-38 101.5zM102 130q0 -44 20 -66.5t72 -22.5q62 0 95 33q34 34 55.5 114.5t21.5 137.5q0 47 -21.5 68t-70.5 21q-62 0 -95 -33 q-34 -34 -55.5 -114.5t-21.5 -137.5zM235 540l92 141h103l-143 -141h-52z" />
<glyph unicode="&#xf6;" horiz-adv-x="468" d="M32 118q0 76 26 165t70 132q51 51 156 51q86 0 119 -31t33 -96q0 -71 -25.5 -162t-70.5 -136q-51 -51 -157 -51q-75 0 -113 26.5t-38 101.5zM102 130q0 -44 20 -66.5t72 -22.5q62 0 95 33q34 34 55.5 114.5t21.5 137.5q0 47 -21.5 68t-70.5 21q-62 0 -95 -33 q-34 -34 -55.5 -114.5t-21.5 -137.5zM174 591q0 19 13.5 32t32.5 13t32.5 -13t13.5 -32t-13.5 -32.5t-32.5 -13.5t-32.5 13.5t-13.5 32.5zM347 591q0 19 13.5 32t32.5 13t32.5 -13t13.5 -32t-13.5 -32.5t-32.5 -13.5t-32.5 13.5t-13.5 32.5z" />
<glyph unicode="&#xfa;" horiz-adv-x="504" d="M52 70q0 12 3 25l66 312q-33 3 -57 11l10 38h123l-74 -348q-1 -4 -1 -13q0 -21 14 -35.5t36 -14.5q57 0 151 41l79 370h66l-87 -408q30 -2 57 -10l-10 -38h-119l8 37q-109 -47 -179 -47q-40 0 -63 22t-23 58zM248 540l92 141h103l-143 -141h-52z" />
<glyph unicode="&#xfc;" horiz-adv-x="504" d="M52 70q0 12 3 25l66 312q-33 3 -57 11l10 38h123l-74 -348q-1 -4 -1 -13q0 -21 14 -35.5t36 -14.5q57 0 151 41l79 370h66l-87 -408q30 -2 57 -10l-10 -38h-119l8 37q-109 -47 -179 -47q-40 0 -63 22t-23 58zM187 591q0 19 13.5 32t32.5 13t32.5 -13t13.5 -32 t-13.5 -32.5t-32.5 -13.5t-32.5 13.5t-13.5 32.5zM361 591q0 19 13 32t32 13t32.5 -13t13.5 -32t-13 -32.5t-33 -13.5q-19 0 -32 13.5t-13 32.5z" />
<glyph unicode="&#xfd;" horiz-adv-x="521" d="M-47 -221l23 48q26 -10 60 -10q53 0 91 57l72 126h-8l-63 407q-33 3 -57 11l10 38h106l57 -377l180 315l19 62h65l-19 -62l-310 -543q-52 -86 -154 -86q-37 0 -72 14zM258 540l92 141h103l-143 -141h-52z" />
<glyph unicode="&#xff;" horiz-adv-x="521" d="M-47 -221l23 48q26 -10 60 -10q53 0 91 57l72 126h-8l-63 407q-33 3 -57 11l10 38h106l57 -377l180 315l19 62h65l-19 -62l-310 -543q-52 -86 -154 -86q-37 0 -72 14zM206 591q0 19 13 32t32 13t32.5 -13t13.5 -32t-13.5 -32.5t-32.5 -13.5t-32 13.5t-13 32.5zM379 591 q0 19 13 32t32 13t32.5 -13t13.5 -32t-13 -32.5t-33 -13.5q-19 0 -32 13.5t-13 32.5z" />
<glyph unicode="&#x178;" horiz-adv-x="649" d="M61 628l11 42h177l11 -44q-24 -7 -57 -10l122 -263l230 263q-31 3 -57 10l12 44h176l11 -42q-26 -8 -64 -12l-286 -322l-51 -240q39 -4 64 -12l-12 -42h-177l-11 42q24 8 63 12l51 240l-149 322q-39 4 -64 12zM274 799q0 19 13.5 32.5t32.5 13.5t32.5 -13.5t13.5 -32.5 t-13.5 -32t-32.5 -13t-32.5 13t-13.5 32zM447 799q0 19 13.5 32.5t32.5 13.5t32.5 -13.5t13.5 -32.5t-13.5 -32t-32.5 -13t-32.5 13t-13.5 32z" />
<glyph unicode="&#x2000;" horiz-adv-x="445" />
<glyph unicode="&#x2001;" horiz-adv-x="890" />
<glyph unicode="&#x2002;" horiz-adv-x="445" />
<glyph unicode="&#x2003;" horiz-adv-x="890" />
<glyph unicode="&#x2004;" horiz-adv-x="296" />
<glyph unicode="&#x2005;" horiz-adv-x="222" />
<glyph unicode="&#x2006;" horiz-adv-x="148" />
<glyph unicode="&#x2007;" horiz-adv-x="148" />
<glyph unicode="&#x2008;" horiz-adv-x="111" />
<glyph unicode="&#x2009;" horiz-adv-x="178" />
<glyph unicode="&#x200a;" horiz-adv-x="49" />
<glyph unicode="&#x2010;" d="M43 213l14 64h220l-14 -64h-220z" />
<glyph unicode="&#x2011;" d="M43 213l14 64h220l-14 -64h-220z" />
<glyph unicode="&#x2012;" d="M43 213l14 64h220l-14 -64h-220z" />
<glyph unicode="&#x2013;" d="M43 213l14 64h220l-14 -64h-220z" />
<glyph unicode="&#x2014;" horiz-adv-x="1086" d="M43 213l60 64h940l-60 -64h-940z" />
<glyph unicode="&#x2018;" horiz-adv-x="249" d="M95 473l79 208h100l-143 -208h-36z" />
<glyph unicode="&#x2019;" horiz-adv-x="249" d="M95 473l79 208h100l-143 -208h-36z" />
<glyph unicode="&#x201c;" horiz-adv-x="417" d="M95 473l79 208h100l-143 -208h-36zM262 473l80 208h100l-143 -208h-37z" />
<glyph unicode="&#x201d;" horiz-adv-x="417" d="M95 473l79 208h100l-143 -208h-36zM262 473l80 208h100l-143 -208h-37z" />
<glyph unicode="&#x202f;" horiz-adv-x="178" />
<glyph unicode="&#x205f;" horiz-adv-x="222" />
<glyph unicode="&#x20ac;" horiz-adv-x="539" d="M40 221l11 50h357l-11 -50h-234q-3 -22 -3 -44q0 -136 116 -136q68 0 139 16q13 37 25 60l38 -19l-16 -78q-108 -30 -187 -30q-95 0 -139.5 43t-44.5 130q0 25 5 58h-56zM64 336l11 50h56q66 227 276 227q84 0 174 -30l-18 -87l-44 -11q-3 28 2 65q-56 12 -126 12 q-69 0 -120.5 -48.5t-74.5 -127.5h232l-10 -50h-358z" />
<glyph unicode="&#x25fc;" horiz-adv-x="455" d="M0 0v455h455v-455h-455z" />
</font>
</defs>
</svg>
