<?xml version="1.0" encoding="utf-8"?>
<!-- Generator: Adobe Illustrator 17.1.0, SVG Export Plug-In . SVG Version: 6.00 Build 0)  -->
<!DOCTYPE svg PUBLIC "-//W3C//DTD SVG 1.1//EN" "http://www.w3.org/Graphics/SVG/1.1/DTD/svg11.dtd">
<svg version="1.1" id="Layer_1" xmlns="http://www.w3.org/2000/svg" xmlns:xlink="http://www.w3.org/1999/xlink" x="0px" y="0px"
	 viewBox="0 102 612 690" enable-background="new 0 102 612 690" xml:space="preserve">
<g id="tree" opacity="0.5">
	<path id="canopy" fill="#FFFFFF" d="M285.4,155.3c0.3,0.1,0.6,0.5,0.8,0.8c0.4,0.5,0.9,1,1.5,1.4c0.4,0.4,0.9,0.5,1.5,0.5
		c0.4,0,0.9-0.1,1.3-0.4l3-1.8l0.6-0.4c0.4,1,1.3,1.5,2.3,1.5c0.3,0,0.4,0,0.6-0.1c1.2-0.4,2.1-0.5,2.7-0.5c0.6,0,0.9,0.1,1.8,0.9
		c0.4,0.4,1,0.6,1.5,0.6c0.1,0,0.3,0,0.4,0c0.4-0.1,0.6-0.1,1-0.1c0.6-0.1,1.3-0.3,2.1-0.4c0.4,0,0.8-0.1,1.3-0.1
		c0.9,0,1.5,0.1,1.9,0.5c0.8,0.6,1.7,0.8,2.2,0.9h0.1c2.1,0.4,4.1,0.8,5.8,1.8c0.1,0,0.1,0.1,0.1,0.1c0.1,1.3,0.8,2.4,2.1,3.2
		c0.1,0.1,0.3,0.3,0.4,0.4l0.1,0.1c1,1,2.6,1.7,4.1,1.7c0.8,0,1.5-0.1,2.2-0.4c1.2-0.5,1.9-1.3,2.3-2.3c1.4,0.3,2.7,0.4,4.1,0.6
		c0.4,0.1,0.9,0.1,1.4,0.1c0.3,0,0.5,0,0.8-0.1c1.3-0.1,3-0.8,3.2-2.8c0.1,0,0.1,0.1,0.3,0.1l0.1,0.1c0.6,0.1,1.3,0.4,2.2,0.4
		c0.8,0,1.5-0.1,2.2-0.5c1,0.3,2.1,0.4,3.1,0.6c0.4,0.1,0.8,0.3,1.3,0.4c2.1,0.5,3.9,1,5.3,2.1c0.8,0.6,1.7,1,2.6,1.3
		c2.7,0.6,5.1,1.4,7.6,2.2l0.4,0.1c0.8,0.3,1.5,0.5,1.8,0.8c1.5,1.8,3.5,3.2,5.7,4.4c0.4,0.1,0.6,0.4,1,0.6c1.4,0.8,2.7,1.4,3.9,2.2
		c1.5,1,3.2,2.4,4.8,3.6c0.8,0.6,1.4,1,2.2,1.7l0.1,0.1c1.2,0.8,2.7,2.1,4.6,2.1c0.1,0,0.3,0,0.4,0c0.1,0,0.1,0,0.4,0
		c0.6,0,1.3,0.1,2.2,0.5c0.4,0.1,0.9,0.3,1.3,0.3c0.4,0.1,0.8,0.1,1.3,0.1c1.2,0,1.9-0.4,2.4-1c0.6,0.1,1.2,0.3,1.7,0.4
		c3,1.2,6.2,2.6,10.3,4.4c1.5,0.6,3,1.4,4.5,2.2l0.8,0.4c3.5,1.8,6.9,3.6,10.2,5.3c0.9,0.5,1.8,1,2.7,1.5c1.3,0.8,2.7,1.4,4.1,2.2
		c1.7,0.8,3.6,1.8,5.8,2.8c1.3,0.6,2.7,1.3,4,1.8l0.4,0.1c0.4,0.1,0.8,0.4,1.3,0.5c0.5,0.1,1,0.4,1.4,0.6c0.5,0.3,1,0.5,1.5,0.8
		c1,0.6,2.2,1.2,3.5,1.5c2.7,0.9,5,2.7,7.5,4.5c0.4,0.3,0.6,0.4,0.9,0.6c0.5,0.4,1,0.9,1.5,1.5c0.4,0.4,0.6,0.6,1,1
		c0.1,0.1,0.3,0.3,0.4,0.4c0.4,0.4,0.9,0.8,1.4,1.3c1.9,1.4,3.2,2.6,4.1,3.9c0.8,1,1.5,1.8,2.3,2.3c1,0.8,2.2,1.8,3,3.1
		c0.1,0.3,0.4,0.5,0.5,0.8c0.8,1.3,1.8,2.7,3,3.9c0.8,0.8,1.3,1.7,2.1,2.7c0.4,0.5,0.6,1,1,1.5c1.3,1.7,2.8,3.2,4.5,4.5
		c0.3,0.1,0.5,0.4,0.8,0.6c0.8,0.6,1.5,1,2.1,1.7l0.3,0.3c1,1,1.8,1.9,2.1,3c0.4,1.7,1.3,2.7,2.1,3.5c1,0.9,1.7,2.1,2.2,3.2l0.1,0.4
		c0.5,1.3,1,2.7,1.8,4c0.4,0.9,0.9,1.8,1.3,2.7c0.4,0.8,0.8,1.5,1.3,2.4c0.4,0.8,0.8,1.7,1.2,2.4c0.4,0.9,0.8,1.9,1.3,3
		c0.3,0.6,0.6,1,0.9,1.4c0.1,0.1,0.4,0.4,0.4,0.5l0.3,0.6c0.5,1.2,0.9,2.2,1,3.2c0.3,2.4,1,4.6,2.8,6.9c0.4,0.4,0.6,0.8,0.8,1.3
		c1.4,2.4,1.8,5,1,7.8c-0.1,0.8,0.1,1.8,0.6,2.3c0.5,0.4,0.8,1,1,1.9v2.1c-0.4,0.8-0.5,1.9,0,3.2v0.3c-0.1,0.3-0.1,0.6-0.4,0.8
		c-0.4,1-0.6,1.9-1,2.7c-0.6,1.3-0.8,2.4-0.8,3.7c0,1.3,0,2.7,0,3.9v0.4c0,1.2-0.4,1.4-0.8,1.7c-0.5,0.4-0.9,0.6-1.3,0.9
		c-0.1,0.1-0.3,0.1-0.4,0.3c-0.9,0.8-1.2,2.1-0.6,3c0.1,0.3,0.3,0.4,0.4,0.6c0.1,0.4,0.4,0.6,0.4,0.8c1,2.2,1.4,4,0.9,5.8
		c-0.1,0.6-0.1,1.2-0.1,1.5v0.1c0,0.3,0,0.6,0.1,0.8c0,0.6,0.1,1,0.1,1.7c0,0.1,0,0.4-0.3,0.4c-0.4,0.4-0.8,0.6-1.2,1
		c-0.1,0.1-0.4,0.4-0.6,0.5c-0.8,0.8-1,1.9-0.6,3c0.1,0.3,0.1,0.4,0.1,0.4s-0.1,0.1-0.5,0.5c-0.1,0.1-0.4,0.3-0.6,0.4
		c-0.8,0.5-1.8,1.2-2.4,2.3s-0.5,2.3-0.4,3.3c0,0.3,0,0.6,0,0.8c0,0.1-0.1,0.3-0.1,0.4c-2.8,0.1-3.9,2.2-4.4,3.2
		c-0.6,1.2-1.3,2.3-2.1,3.6c-0.4,0.5-0.8,0.8-1.3,0.8c-1.4,0.1-2.4,0.6-3.1,1c-0.1,0.1-0.8,0.4-1,0.4h-0.1c-0.4-0.1-0.8-0.3-1.3-0.3
		c-0.6,0-1.3,0.1-1.7,0.4c-0.8,0.4-1.4,0.4-2.1,0.4c-0.4,0-0.6,0-0.9-0.1c-0.3-0.1-0.4-0.1-0.6-0.1c-0.4,0-0.9,0.1-1.3,0.4
		c-0.6,0.4-1,0.9-1.2,1.5c-0.1,0.6-0.5,1-1.7,1.8c-0.1,0.1-0.1,0.1-0.1,0.1c-0.3,0-0.8-0.1-1.3-0.4c-0.3-0.1-0.4-0.1-0.6-0.3
		c-0.3-0.1-0.5-0.1-0.8-0.1c-0.4,0-0.9,0.1-1.3,0.4c-0.6,0.4-1,0.9-1.2,1.7c-0.1,0.4-0.1,0.8-0.3,1.3c-0.1,0.9-0.4,1.8-0.6,2.7
		c-0.1,0.3-0.1,0.4-0.4,0.4h-0.1c-0.1,0-0.4,0-0.5,0c-0.3,0-0.6,0-0.8,0c-0.4,0-0.6,0.1-1,0.1l-0.3-0.4l-0.4-0.6
		c-0.4-0.6-1-0.9-1.8-1c-0.1,0-0.1,0-0.3,0c-0.6,0-1.2,0.3-1.7,0.6c-0.1,0.1-0.4,0.3-0.5,0.4c-0.3-0.1-0.5-0.4-0.8-0.5
		c-0.3-0.1-0.6-0.4-0.8-0.6c-0.4-0.3-0.9-0.4-1.4-0.4c-0.1,0-0.4,0-0.5,0.1c-0.6,0.1-1.3,0.5-1.5,1c-0.3,0.4-0.4,0.6-0.6,1
		c-0.4,0.6-0.9,1.4-1.4,2.1c-1.7,2.2-4,3.6-6.4,5.3c-0.3-0.6-0.8-1.3-1.7-1.7c-0.4-0.1-0.8-0.3-1-0.3c-0.6,0-1.2,0.3-1.7,0.6
		c-0.4,0.4-0.8,0.6-1.2,1c-0.8,0.8-1.8,1.5-2.7,2.3c-0.9,0.8-1.9,1.4-2.8,2.1l-0.1-0.3c-0.3-0.6-0.8-1.2-1.3-1.5
		c-0.4-0.1-0.6-0.3-1-0.3s-0.6,0.1-1,0.1c-1.3,0.6-2.4,1.3-3.5,1.9c-0.1,0.1-0.4,0.1-0.5,0.4c-0.1-0.1-0.1-0.1-0.3-0.3
		c-0.1-0.1-0.1-0.1-0.1-0.1l0.1-0.1c0.1-0.1,0.1-0.3,0.3-0.4c0-0.1,0.1-0.1,0.1-0.1c2.1-2.7,2.2-5.8,2.2-7.8c0-0.6-0.1-1-0.3-1.4
		c0-0.1-0.1-0.1-0.1-0.4c-0.3-1-1-1.8-2.1-1.9c-0.1,0-0.3,0-0.4,0c-0.9,0-1.8,0.5-2.2,1.3c-0.3,0.5-0.5,0.9-0.8,1.3
		c-0.4,0.9-0.9,1.8-1.3,2.4c-0.8,1.2-1.8,2.2-2.7,3.2c-0.3,0.3-0.5,0.6-0.8,0.8c-0.4-0.4-0.8-0.6-1.3-0.6c-0.1,0-0.4-0.1-0.5-0.1
		c-0.6,0-1.2,0.1-1.5,0.6l-0.1,0.1c-0.1,0.1-0.4,0.3-0.5,0.4c-0.6,0.6-1.3,1.2-2.1,1.8c-1.5,1.3-3.1,2.7-4.6,3.9
		c-1,0.8-2.3,1.5-3.6,1.8c-1.8,0.4-3.6,0.8-5.3,1.3c0.9-1.4,1.7-3.2,1.5-5.4c0-0.9-0.5-1.7-1.3-2.2c-0.4-0.1-0.8-0.4-1.2-0.4
		s-0.9,0.1-1.3,0.4c-0.1,0.1-0.4,0.1-0.5,0.3c-0.4,0.1-0.6,0.4-1,0.6c-0.8,0.6-1.7,1-2.4,1.7c-1,0.8-2.2,1.5-3.2,2.2l-0.4-0.8
		c-0.3-0.8-0.9-1.3-1.8-1.5c-0.3-0.1-0.4-0.1-0.6-0.1c-0.6,0-1.2,0.3-1.7,0.6l-0.6,0.5c-0.1,0.1-0.1,0.1-0.1,0.1
		c-0.5-0.6-0.9-1.4-1.4-2.1l-0.5-0.8c-0.4-0.6-1-1-1.8-1c-0.1,0-0.3,0-0.4,0c-0.6,0-1.2,0.1-1.5,0.6c-0.3,0.1-0.4,0.4-0.6,0.6
		c-0.4,0.4-0.6,0.6-1,0.8c-1.8,1-3,1.9-4.4,1.9c-0.4,0-0.6,0-0.9-0.1c-0.4-0.1-0.6-0.1-1-0.1s-0.8,0.1-1.2,0.1
		c-0.1,0-0.1,0.1-0.4,0.1l-0.4-1.7c-0.1-0.9-0.8-1.7-1.7-1.9c-0.3-0.1-0.5-0.1-0.8-0.1c-0.6,0-1.3,0.3-1.7,0.6
		c-3,2.7-6.4,4.1-10.3,5.5c0.3-0.6,0.4-1.3,0.6-1.9c0.6-1.8,1.2-4.2,0.3-6.9c-0.1-0.4-0.4-0.8-0.5-1c0-0.1-0.1-0.1-0.1-0.3
		c-0.4-0.8-1-1.3-1.8-1.4c-0.1,0-0.4,0-0.4,0c-0.6,0-1.3,0.3-1.8,0.8l-0.4,0.4l-3.1-1.4l-4-1.8c-0.4-0.1-0.6-0.3-1-0.3
		c-0.6,0-1.2,0.1-1.5,0.6c-0.8,0.6-1,1.5-0.8,2.4c0.1,0.5,0.3,1,0.4,1.5c0.1,0.5,0.3,1,0.4,1.5c-1-0.4-1.8-0.8-2.6-1
		c-1-0.5-1.5-1.2-2.1-2.1c-0.6-1.7-1.3-3.5-1.4-5c-0.1-0.8-0.3-1.5-0.4-2.3c-0.1-0.4-0.1-0.6-0.1-0.9c-0.1-0.9-0.8-1.7-1.7-1.9
		c-0.3-0.1-0.5-0.1-0.8-0.1c-0.6,0-1.3,0.3-1.8,0.6c-0.6,0.6-1.3,1.3-1.8,1.8c-1.3,1.3-2.6,2.6-3.9,3.6c-1.2,1-2.2,1.8-3.3,2.6
		c-0.1-0.4-0.1-0.6-0.1-1c-0.1-0.6-0.1-1.2-0.3-1.8c-0.1-1-0.9-1.8-1.9-2.1c-0.1-0.1-0.4-0.1-0.6-0.1c-0.8,0-1.5,0.4-2.1,1
		c-1,1.5-2.2,3-3.3,4.4c-0.1-1-0.3-2.1-0.4-3.2c-0.1-0.5-0.1-1-0.1-1.5c-0.1-0.8-0.6-1.5-1.3-1.9c-0.4-0.1-0.8-0.3-1.2-0.3
		c-0.4,0-0.8,0.1-1.2,0.4L309,356c-0.1,0.1-0.4,0.1-0.5,0.3c-0.4,0.1-0.6,0.4-0.9,0.4c-0.5,0-0.8-0.6-1-0.9c0,0,0-0.1-0.1-0.1
		c-0.1-0.6-0.6-1.9-2.2-2.6c-0.4-0.1-0.6-0.1-0.9-0.1c-1,0-1.9,0.6-2.3,1.5c-0.1,0.4-0.4,0.9-0.6,1.3c-0.3,0.6-0.6,1.3-0.8,2.1
		c-0.3-0.3-0.4-0.5-0.6-0.8c-1.7-2.1-3.2-3.9-4.6-6c-1.4-2.3-2.7-4.8-4.1-7.2c-0.6-1-1.2-2.2-1.8-3.2c-0.4-0.8-1.3-1.3-2.2-1.3
		c-0.1,0-0.3,0-0.4,0h-0.1h-0.1c-1.3,0.3-2.2,1.4-2.1,2.7v0.3c-0.3-0.1-0.5-0.4-0.6-0.5c-1.9-1.3-4-2.6-6.4-3.6
		c-0.3-0.1-0.6-0.1-0.9-0.1c-0.5,0-1,0.1-1.4,0.4c-0.4,0.3-0.6,0.6-0.9,1c-1-1.5-1.9-3.3-2.6-5c-0.4-1-1.3-1.7-2.3-1.7l0,0
		c-1,0-2.1,0.8-2.3,1.8c-0.4,0.9-0.4,1.8-0.4,2.4c-0.1,2.2-0.9,4.4-1.5,6.6c-0.3,0.6-0.4,1.3-0.6,2.1c-0.9,3-1.9,5.5-3.2,7.7
		c-0.4,0.6-0.6,1.3-0.6,2.1c-0.1,0.4-0.1,0.5-0.4,0.8c-0.3,0.3-0.5,0.5-0.8,0.8c-0.1,0.1-0.3,0.3-0.4,0.4c-0.6,0.8-0.8,2.1-0.4,3
		c0.4,0.6,0.9,1,1.5,1.2c0,0.1-0.1,0.3-0.1,0.4c-0.1,0.4-0.4,0.6-0.5,0.9c-0.4,0.8-0.8,1.7-1.3,2.4c-1.2,1.8-2.4,3.6-3.6,5.3
		c-0.5-0.6-0.8-1.2-1-1.9c-0.4-1-1.3-1.7-2.3-1.8c0,0,0,0-0.1,0c-1,0-2.1,0.6-2.3,1.5c-0.6,1.5-0.8,3-0.8,4.5
		c-1.3-1.4-2.4-3.1-3.3-4.9c-0.4-0.8-1.2-1.3-2.1-1.4c-0.1,0-0.1,0-0.1,0c-0.8,0-1.5,0.4-2.1,1c-0.3,0.4-0.6,0.8-0.8,1.3
		c-0.5,0.8-1,1.5-1.5,2.2l-0.1,0.1c0-0.1-0.1-0.1-0.1-0.1c-0.1-0.4-0.3-0.8-0.4-1.3c-0.1-0.3-0.1-0.5-0.3-0.8
		c-0.3-0.8-0.8-1.3-1.5-1.5c-0.3-0.1-0.6-0.1-0.8-0.1c-0.5,0-0.9,0.1-1.3,0.4c-0.6,0.4-1.2,0.8-1.8,1.3c-0.8,0.6-1.4,1-2.1,1.3
		c-0.1-1.2-0.4-2.1-0.6-3c-0.1-0.5-0.4-0.9-0.4-1.3c-0.1-0.9-0.8-1.7-1.7-1.9c-0.3-0.1-0.6-0.1-0.8-0.1c-0.6,0-1.3,0.3-1.7,0.6
		c-0.5,0.5-0.9,0.9-1.3,1.4c-0.1,0.1-0.1,0.1-0.1,0.3l-0.4-0.5c-0.5-0.6-1.2-0.9-1.9-0.9c-0.1,0-0.3,0-0.4,0
		c-0.8,0.1-1.5,0.6-1.9,1.5c-0.1,0.3-0.3,0.5-0.4,0.8c0,0.1-0.1,0.1-0.1,0.1c-0.4-0.4-0.9-0.8-1.3-1.3c-1-1-2.2-1.5-3.5-1.5
		c-0.9,0-1.8,0.3-2.8,0.8c-0.9,0.6-1.4,1.5-1.2,2.7l0.1,0.8c0.1,0.6,0.3,1.3,0.4,1.9c0.1,0.5,0.1,1,0.4,1.5c0.1,0.8,0.4,1.5,0.4,2.3
		h-0.1c-0.6,0-1.2,0.1-1.5,0.6c-0.4,0.4-0.8,0.8-0.8,1.3c-0.1,0-0.4,0-0.6,0h-0.1c-1.3,0-2.2,0.9-2.4,2.2v0.1c0,0.1-0.1,0.5-0.1,0.8
		c-0.1,0.6-0.1,0.8-0.1,0.8s0,0-0.1,0.1c-0.9,0.4-1.3,1.3-1.7,1.7l-0.1,0.1c-0.1,0.4-0.4,0.6-0.4,0.8c-0.1,0.1-0.1,0.3-0.1,0.4
		c-0.4,0.4-0.6,0.6-0.6,0.6c-0.1,0-0.1-0.1-0.3-0.1c-0.4-0.4-0.8-0.4-1-0.5c-0.3-0.1-0.5-0.1-0.8-0.1c-0.6,0-1.2,0.1-1.5,0.6
		c-0.3,0.3-0.5,0.4-0.8,0.6c-0.4,0.4-0.8,0.8-1.2,1c-0.4,0.3-0.6,0.4-0.8,0.4c-0.1,0-0.1,0-0.4-0.1c-0.8-0.5-1.5-0.8-2.4-0.8
		c-0.3,0-0.4,0-0.6,0c-1,0.1-2.2,0.1-3.5,0.1h-0.1c-0.1,0-0.3,0-0.4,0l0,0c-0.3-0.6-0.6-1-1.2-1.5c-0.4-0.4-1.7-1.5-3.5-1.5
		c-0.6,0-1.2,0.1-1.8,0.4c-0.1,0.1-0.5,0.1-0.8,0.1c-0.1,0-0.3,0-0.4,0c-2.4-0.4-4.4-0.8-6-1.7c-1-0.5-1.9-0.8-2.7-0.8
		c-0.1,0-0.1,0-0.3,0c-0.1,0-0.1,0-0.3,0c-1.2,0-2.1-0.4-3-1.4c-1.2-1.3-2.6-2.2-4.4-2.4c-0.5-0.1-1-0.4-1.5-0.8
		c-1.3-1-2.2-2.4-2.8-3.7c-0.9-2.2-2.6-3.5-4.8-3.9c-0.1,0-0.4-0.1-0.5-0.1c-0.6,0-1.2,0.1-1.5,0.6c-0.1-0.1-0.3-0.1-0.4-0.3
		l-0.1-0.1l-0.1-0.1c-1.3-1-2.4-2.2-3.3-3.6c-0.4-0.5-0.8-1.2-1.7-1.5c-1.2-0.6-2.2-1.2-3.5-1.8c-0.6-0.3-1-0.6-1.7-0.8
		c-0.1,0-0.1-0.1-0.1-0.1c-0.9-1-2.1-1.3-2.7-1.4c-0.1,0-0.1,0-0.3-0.1c-1.7-0.4-2.8-1.2-3.7-2.3c-0.4-0.5-0.8-0.8-1-1
		c-0.1-0.1-0.1-0.1-0.3-0.1c-0.1-0.1-0.4-0.4-0.5-0.4c-0.1-0.1-0.4-0.4-0.5-0.4c-0.4-0.6-0.8-1.3-1.3-2.1c-0.1-0.3-0.4-0.6-0.5-0.8
		l-0.1-0.1c-0.4-0.6-1.2-1.9-2.7-2.4c0-0.1-0.1-0.1-0.1-0.1c-0.1-0.1-0.3-0.4-0.4-0.8l-0.1-0.3c-0.6-1.2-1.2-2.4-1.8-3.6l-0.8-1.5
		c-0.4-0.8-1.3-1.4-2.2-1.4c-0.1,0-0.4,0-0.4,0.1c-0.1-0.1-0.1-0.3-0.3-0.5c-0.4-0.8-0.6-1.4-0.9-2.1c-0.3-0.6-0.4-1.3-0.6-2.1
		c-0.1-0.4-0.3-0.6-0.4-1c-0.3-0.8-0.8-1.3-1.5-1.5c-0.3-0.1-0.5-0.1-0.8-0.1c-0.5,0-1,0.1-1.4,0.4c-0.4-0.9-0.6-1.9-1-3
		c-0.3-0.6-0.4-1.3-0.6-2.1c-0.1-0.5-0.4-0.8-0.6-1l-0.1-0.1c-0.5-0.8-1.3-1.2-2.2-1.2c-0.1,0-0.4,0-0.6,0.1c-0.1,0-0.1,0-0.1,0.1
		c-0.3-0.4-0.6-0.6-1-0.9c-1-0.6-1.5-1.3-1.9-2.3c-0.6-1.7-1-3.1-0.9-4.5v-0.1c0-1,0.1-2.7-1.2-4.1v-0.1c-0.1-0.1-0.1-0.4-0.1-0.6
		c-0.5-1.5-0.5-3.3,0-5.5c0.1-0.8,0.4-1.9-0.1-3.2c-0.3-0.6-0.4-1.4-0.4-2.1s0.1-1.4,0.3-2.2c0.1-0.6,0.3-1.3,0.3-2.1
		c0.1-1-0.1-2.1-0.3-2.7c-0.1-0.4-0.1-0.6-0.3-0.9c-0.1-0.5-0.3-0.9-0.1-1.2l0.4-1.8c0.1-0.8,0.3-1.5,0.4-2.3c0.1-0.6,0.4-2.2-1-3.7
		c-0.1-0.1-0.1-0.4-0.3-0.6c-0.1-0.3-0.3-0.6-0.4-0.9c-0.1-0.1-0.1-0.4-0.4-0.6v-1c0.1-0.3,0.3-0.5,0.4-0.8c0.4-1.5,1.3-2.8,2.2-4.4
		c0.3-0.4,0.4-0.8,0.6-1c0.6-1,1.2-2.1,1.8-3l0.6-0.9c0.9-1.5,1.2-3.1,0.6-4.6c-0.4-1.2-0.4-2.3,0-3.3c0.1-0.4,0.1-0.6,0.4-0.9
		c0.5-1.3,0.9-2.6,1.5-3.7c0.5-1,1.2-2.2,1.8-3.3c0.4-0.5,0.6-1,0.9-1.5c0.4-0.6,0.4-1.3,0.3-1.9l-0.1-0.3c-0.1-0.3-0.1-0.5-0.3-0.8
		c-0.5-1.4-0.1-2.2,0.1-2.7c0.8-1.5,1.7-3,2.7-4.2c0.9-1.3,2.1-2.6,3.6-4.2c1.2-1.2,2.3-2.2,3.5-3.2c0.5-0.4,1-0.8,1.7-1.5
		c0.1-0.3,0.4-0.5,0.6-0.8c0.5-0.6,0.9-1.3,1.4-1.8c1.4-1.4,3-2.8,4.5-4.1l0.4-0.4c1.5-1.4,3.2-3,5-4.2c0.8-0.6,1.8-1.7,2.2-3.5
		c0.5-2.2,1.7-4.2,3.5-6l0.1,0.1c0.4,0.8,1.3,1.3,2.2,1.3l0,0c0.9,0,1.8-0.5,2.2-1.3c0.1-0.1,0.1-0.4,0.3-0.4
		c0.1-0.4,0.4-0.6,0.6-1.2c0.6-1.5,1.9-2.7,3.2-3.6c0.1-0.1,0.1-0.1,0.4-0.3c0,0,0,0,0.1,0c0.1,0,0.4,0.1,0.6,0.1c0.1,0,0.1,0,0.3,0
		c0.9,0,1.8-0.5,2.2-1.3l0.3-0.4c0.1-0.4,0.4-0.6,0.6-1c1.7-3,3.9-5.5,6.7-7.7c0.3-0.1,0.5-0.4,0.8-0.5c0.5,0.5,1,0.8,1.8,0.8l0,0
		c0.8,0,1.4-0.4,1.9-0.9c0.1-0.1,0.1-0.1,0.1-0.1c0.1-0.1,0.4-0.4,0.5-0.6v-0.1c0.1-0.3,0.4-0.6,0.6-1c1-2.4,3.2-4.4,5.7-6.3
		c0.5-0.4,0.9-0.6,1-0.6c0.1,0,0.4,0.1,0.4,0.3c0.5,0.4,1,0.6,1.5,0.6c0.6,0,1.3-0.3,1.8-0.6c0.5-0.5,0.9-0.9,1.4-1.3
		c1-1,1.9-1.9,3-2.7c2.2-2.1,5-3.5,8.6-4.8c0.4-0.1,0.6-0.1,0.8-0.1c0.4,0.4,1,0.6,1.7,0.6c0.1,0,0.3,0,0.4,0
		c0.8-0.1,1.4-0.5,1.8-1.2l0.1-0.3c0.1-0.1,0.1-0.3,0.3-0.4c1.7-2.7,3.2-4.6,5-5.9l0.1-0.1c0.8-0.5,1.2-0.8,1.5-0.8
		c0.8,0,1.3-0.3,1.8-0.4c0.1-0.1,0.4-0.1,0.4-0.1c0.5-0.1,1-0.1,1.5-0.3c0.4-0.1,0.9-0.1,1.3-0.1h0.1c0.5-0.1,1.4-0.3,2.2-0.9
		c0.6-0.6,1.5-1,3-1.5c0.4-0.1,0.6-0.1,0.8-0.1l0,0c0.5,0.4,1,0.6,1.7,0.6c0.5,0,1-0.1,1.4-0.4c0.1,0,0.1-0.1,0.1-0.1
		c0.1-0.1,0.5-0.4,0.8-0.6c1-0.9,2.2-1.5,3.6-2.1c0.8-0.3,1.4-0.6,1.8-1l0.1-0.1c0.5-0.4,0.9-0.6,1.4-1c0.8-0.5,1.5-1,2.2-1.5
		c0.6-0.4,1.4-0.8,2.2-1.2h0.1c0.6,0.3,1,0.4,1.8,0.4c0.9,0,1.7-0.3,2.2-0.6c0.8-0.4,1.7-0.6,2.6-1c0.3-0.1,0.5-0.1,0.8-0.3
		c0.4,0.4,0.9,0.5,1.5,0.5c0.4,0,0.8-0.1,1-0.3c0.1-0.1,0.1-0.1,0.3-0.1c0.3-0.1,0.5-0.3,0.8-0.4c1.2-0.8,2.6-1.3,4.1-1.3
		c3.1-0.1,6.3-0.6,10-1.4c0.3-0.1,0.6-0.1,0.8-0.1c0.6-0.1,1.3-0.4,1.9-0.4c0.3,0,0.4,0,0.6,0.1c0.3,0.1,0.6,0.1,0.8,0.1
		c0.6,0,1.3-0.3,1.5-0.4c0.1,0,0.1,0,0.1-0.1c0.4-0.1,0.6-0.3,0.8-0.4l0,0c1.8-0.1,3.5-0.8,4.8-1.3c0.4-0.1,0.6-0.3,0.9-0.4
		c0.4-0.1,0.8-0.3,1.3-0.3s1,0.1,1.5,0.4c1.5,0.8,3.1,1.3,4.9,1.3c0.8,0,1.8-0.1,2.7-0.3c0.6-0.1,1.3-0.3,1.8-0.4l0.1-0.1
		c1.3-0.4,2.7-0.6,4.1-1L285.4,155.3 M295.5,151.7c-2.2,1.3-4.1,2.4-6.3,3.9c-1.3-0.9-2.1-2.4-3.6-2.8c-2.1,0.5-3.9,1-5.8,1.5
		c-0.6,0.1-1.3,0.4-1.9,0.4c-0.8,0.1-1.5,0.3-2.2,0.3c-1.3,0-2.4-0.3-3.6-0.9c-0.8-0.5-1.8-0.8-2.7-0.8c-0.8,0-1.5,0.1-2.2,0.4
		c-1.8,0.6-3.3,1.5-5.3,1.5c-0.4,0-0.8,0.4-1.3,0.5c-0.4,0.1-0.6,0.3-1,0.3c-0.1,0-0.1,0-0.1,0c-0.4-0.1-0.9-0.1-1.3-0.1
		c-1,0-2.2,0.4-3.2,0.5c-3.2,0.6-6.4,1.2-9.8,1.3c-1.9,0.1-3.9,0.6-5.4,1.8c-0.1,0.1-0.4,0.3-0.8,0.4c-0.4-0.5-0.6-0.6-1-0.6
		c-0.3,0-0.5,0.1-0.8,0.1c-1.3,0.5-2.6,1-3.9,1.5c-0.4,0.1-0.8,0.4-1.3,0.4c-0.4,0-0.6-0.1-1-0.4c-0.3-0.1-0.5-0.3-0.6-0.3
		c-0.3,0-0.5,0.1-0.8,0.1c-1,0.5-2.1,0.9-3,1.5c-1.3,0.8-2.4,1.7-3.6,2.4c-0.4,0.4-0.9,0.6-1.4,0.8c-1.7,0.6-3.2,1.4-4.5,2.6
		c-0.1,0.1-0.4,0.3-0.6,0.4c-0.5-0.5-1-0.6-1.7-0.6c-0.5,0-1,0.1-1.5,0.4c-1.4,0.5-2.7,1-3.9,2.1c-0.3,0.1-0.6,0.3-0.9,0.4
		c-1,0.1-1.9,0.3-3,0.4c-0.6,0.1-1.3,0.4-1.9,0.4c-1.3,0-2.2,0.6-3.1,1.3c-2.4,1.8-4.1,4.1-5.7,6.6c-0.1,0.1-0.1,0.4-0.4,0.6
		c-0.5-0.4-1-0.6-1.5-0.6c-0.6,0-1,0.1-1.7,0.4c-3.5,1.3-6.7,2.8-9.5,5.3c-1.5,1.3-3,2.7-4.4,4.1c-0.6-0.6-1.3-0.8-2.1-0.8
		c-0.9,0-1.8,0.5-2.7,1.2c-2.4,2.1-5,4.1-6.3,7.2c-0.1,0.3-0.3,0.5-0.4,0.8c-0.1,0.1-0.1,0.3-0.4,0.4c-0.3-0.3-0.4-0.5-0.5-0.6
		c-0.3-0.4-0.5-0.4-0.8-0.4c-0.1,0-0.4,0.1-0.5,0.1c-0.8,0.4-1.7,0.8-2.3,1.3c-3,2.3-5.5,5.1-7.3,8.6c-0.3,0.5-0.5,0.9-0.8,1.4
		c-0.4,0-0.8-0.1-1-0.1c-0.1,0-0.1,0-0.4,0c-0.5,0.1-0.9,0.4-1.3,0.6c-1.8,1.3-3.3,2.7-4.1,4.8c-0.1,0.4-0.4,0.8-0.6,1.3
		c-0.3-0.4-0.4-0.6-0.5-0.9c-0.4-0.6-0.6-1-1.2-1c-0.3,0-0.5,0.1-0.9,0.3c-0.5,0.1-1,0.5-1.3,0.9c-2.2,2.1-3.6,4.5-4.2,7.5
		c-0.1,0.8-0.6,1.4-1.3,2.1c-1.8,1.4-3.5,2.8-5,4.4c-1.8,1.5-3.5,3-5,4.6c-0.8,0.8-1.5,1.9-2.2,3c-0.4,0.4-0.8,0.8-1.2,1
		c-1.3,1-2.6,2.2-3.7,3.5c-1.3,1.4-2.7,3-3.9,4.5c-1,1.4-1.9,3-2.8,4.6c-0.8,1.5-0.8,3.2-0.4,4.8c0.1,0.4,0.1,0.6,0.3,0.9
		c-1,1.8-2.1,3.5-2.8,5.1c-0.8,1.5-1.3,3.2-1.8,4.9c-0.6,1.7-0.5,3.3,0,5c0.4,1,0.1,1.8-0.4,2.4c-0.8,1.3-1.7,2.6-2.4,3.9
		c-1.2,1.9-2.4,3.9-3.2,6c-0.1,0.3-0.4,0.4-0.5,0.6c0,0.6,0,1.4,0,2.1c0.1,0.4,0.4,0.6,0.6,0.9c0.4,0.6,0.5,1.5,1,2.1
		c0.5,0.6,0.5,1,0.4,1.5c-0.3,1.3-0.5,2.7-0.8,4.1c-0.1,1,0.3,2.1,0.4,3.1c0.1,0.6,0.3,1.3,0.3,2.1c-0.1,1.5-0.5,3-0.6,4.4
		c0,1,0.1,2.1,0.6,3c0.3,0.6,0.1,1,0.1,1.7c-0.6,2.3-0.8,4.6,0,6.9c0.1,0.5,0.3,1,0.5,1.3c0.8,0.8,0.6,1.8,0.6,2.8
		c-0.1,1.9,0.4,3.6,1,5.4c0.6,1.5,1.5,2.7,3,3.6c0.6,0.4,1,1.2,1.5,1.9c0.1,0.1,0.1,0.1,0.3,0.1c0.4,0,0.8-0.6,1.3-0.8
		c0.1,0.3,0.4,0.4,0.4,0.6c0.6,1.8,1.2,3.6,1.9,5.3c0.4,0.8,0.8,1.5,1.8,2.1c0.6-0.4,1.2-0.8,1.8-1.3c0.4,1,0.6,2.2,1,3.2
		c0.4,0.8,0.6,1.5,1,2.2c0.5,1,1.2,1.8,2.4,1.8c0.1,0,0.4,0,0.6-0.1c0.8,1.8,1.7,3.5,2.4,5c0.3,0.5,0.5,1,0.8,1.4
		c0.4,0.4,0.6,0.9,1,0.9c1,0.1,1.3,0.8,1.7,1.5c0.6,1,1.2,2.1,1.9,3c0.4,0.5,0.9,0.8,1.4,1.3c0.4,0.3,0.8,0.5,1,0.8
		c1.3,1.8,3.1,2.7,5.1,3.2c0.6,0.1,1.3,0.1,1.8,0.9c0.1,0.3,0.5,0.4,0.8,0.5c1.7,0.8,3.3,1.7,5,2.6c0.3,0.1,0.5,0.4,0.6,0.8
		c1,1.5,2.3,3,3.9,4.1c0.1,0.1,0.3,0.1,0.4,0.3c0.6,0.5,1.3,0.8,2.1,0.8c0.5,0,1-0.1,1.4-0.6c1.5,0.3,2.3,1,3,2.4
		c0.8,1.8,2.1,3.3,3.5,4.6c0.8,0.6,1.8,1.2,2.7,1.4c1.2,0.1,2.2,0.8,3,1.7c1.3,1.5,3,2.3,4.9,2.3c0.1,0,0.3,0,0.4,0h0.1
		c0.5,0,1,0.3,1.5,0.5c2.2,1.2,4.5,1.5,6.8,2.1c0.3,0,0.4,0.1,0.6,0.1c0.6,0,1.2-0.1,1.7-0.3c0.4-0.1,0.6-0.1,0.9-0.1
		c0.6,0,1.3,0.4,1.8,0.8c0.3,0.1,0.4,0.4,0.5,0.6c0.5,1.2,1.5,1.5,2.6,1.5h0.1c1.3,0,2.4-0.1,3.7-0.1c0.1,0,0.3,0,0.4,0
		c0.4,0,0.6,0.1,1,0.4c0.6,0.4,1.3,0.6,1.9,0.6c0.8,0,1.5-0.4,2.2-0.8c0.8-0.5,1.4-1,2.2-1.8c0.1,0,0.3,0.1,0.4,0.1
		c0.6,0.4,1.2,0.6,1.7,0.6c0.8,0,1.5-0.6,2.6-1.5c0.4-0.4,0.5-0.9,0.8-1.4c0.1-0.4,0.4-0.8,0.8-0.9c1.2-0.6,1.5-1.7,1.5-2.8
		c0-0.3,0.1-0.6,0.1-0.8h0.1c0.4,0,0.8,0,1.2,0c0.4,0,0.6,0,0.9-0.1c0.6-0.3,1-0.9,0.9-1.8c0.4,0.1,0.6,0.3,0.8,0.3
		c0.1,0,0.3,0,0.4,0c1,0,1.8-0.6,1.5-1.8c-0.1-1.8-0.6-3.5-1-5.3c-0.1-0.9-0.4-1.9-0.6-2.8c0.6-0.4,1-0.5,1.5-0.5
		c0.6,0,1.2,0.3,1.7,0.8c0.8,0.8,1.5,1.5,2.4,2.2c0.4,0.4,0.8,0.5,1.2,0.5c0.5,0,1-0.4,1.3-1c0.4-0.6,0.6-1.3,0.9-2.1
		c0.6,0.8,1.3,1.5,1.8,2.2c1.8-0.3,2.4-1.9,3.7-3c0.3,1.7,1.3,3,1,4.6c-0.1,0.6,0.3,1.3,0.5,2.1c0.1,0,0.4,0,0.6,0
		c2.7,0,4.4-2.1,6.6-3.3c0.3,0.8,0.4,1.5,0.6,2.2c0.4,0.8,0.8,1.8,1.2,2.4c0.1,0.3,0.4,0.4,0.6,0.4s0.4-0.1,0.5-0.3
		c0.8-0.6,1.5-1.3,2.1-2.1c0.8-1,1.5-2.2,2.4-3.5c1.8,3.9,4.5,6.7,7.8,9c0.3-0.1,0.6-0.4,1.2-0.8c-0.3-0.8-0.4-1.8-0.6-2.6
		c-0.5-1.8-0.4-3.5,0.4-5.4c0.6,2.2,2.1,3.3,3.5,4.8c0.5-0.4,1-0.8,1.4-1.2c1.5-2.1,3-4.1,4.4-6.3c0.8-1,1.3-2.3,1.9-3.6
		c0.4-0.9,0.4-1.8,0.1-2.7c-0.1-0.6-0.4-1.2-1.3-1.2c-0.1,0-0.4,0-0.5,0.1c0.4-0.5,0.8-0.8,1-1.2c0.6-0.6,0.9-1.3,1-2.1
		c0.1-0.4,0.1-0.9,0.4-1.3c1.5-2.6,2.6-5.4,3.5-8.2c0.9-3,2.1-5.9,2.3-9c0.1-0.6,0.1-1.3,0.4-1.9c1.3,3.6,3.3,6.7,6,9.5
		c0.4-0.3,0.8-0.5,1.2-0.8c0-1.2,0-2.2,0-3.5c3.6,1.4,6.4,3.9,9.6,5.5c0.4-0.4,0.8-0.6,1.3-0.8c-0.1-1.2-0.3-2.4-0.4-3.6
		c0.1,0,0.1,0,0.1,0c2.1,3.5,3.7,7.2,5.9,10.5c2.2,3.5,5,6.3,7.5,9.4c1.2-0.4,1.5-1,1.8-1.9c0.5-1.5,1.2-3,1.8-4.4
		c0.8,0.4,0.8,0.9,1,1.3c0.6,1.5,1.9,2.4,3.3,2.4c0.8,0,1.5-0.3,2.2-0.8c0.1-0.1,0.3-0.1,0.4-0.3c0.1,1.7,0.4,3.2,0.5,4.9
		c0.3,1.5,0.5,3.1,0.8,5c2.7-2.7,4.9-5.3,7.1-8.4c0.4,2.2,0.4,4.4,1.3,6.4c2.4-1.3,4.5-3,6.6-4.6c2.1-1.8,3.9-3.6,5.8-5.7
		c0.1,1,0.4,2.1,0.6,3c0.3,2.1,0.9,3.9,1.5,5.8c0.6,1.5,1.8,2.7,3.2,3.3c1.4,0.6,3,1.3,4.4,1.8c0.3,0.1,0.5,0.1,0.8,0.1
		c1,0,1.5-0.8,1.3-2.1c-0.4-1.5-0.8-3.2-1.2-4.8c3,1.3,5.8,2.7,8.6,4c0.5-0.5,1-1,1.7-1.5c0.1,0.4,0.4,0.6,0.5,1
		c0.6,1.8,0.4,3.6-0.3,5.4c-0.4,1.3-0.9,2.7-1.3,4.1c-0.1,0.1-0.1,0.4,0,0.6c0.1,0.5,0.3,1,0.4,1.7c5.1-1.9,10.4-3.5,14.7-7.3
		c0.4,1.5,0.6,3,0.8,4.4c1-0.4,2.1-0.6,3-0.9c0.1-0.1,0.4-0.1,0.5-0.1s0.3,0,0.4,0.1c0.5,0.1,1,0.1,1.5,0.1c2.2,0,4-1.2,5.8-2.3
		c0.6-0.4,1.3-1,1.8-1.5c0.6,1,1.3,2.1,1.9,3c0.3,0.4,0.4,0.6,0.8,0.9c0.4,0.5,0.8,0.8,1.2,0.8c0.4,0,0.6-0.1,1-0.6
		c0.4-0.4,0.8-0.8,1.5-1.3c0.4,1.2,0.8,2.2,1.2,3.2c0.1,0,0.3,0.1,0.4,0.1c0.6,0,1.3-0.4,1.8-0.8c2.2-1.4,4.2-3,6.4-4.4
		c0.4-0.3,0.8-0.5,1.3-0.8c0.1,2.7-1.4,4.5-3,6.3c0.1,0.8,0.4,1.3,0.5,2.2c0.6,0,1.2,0,1.8-0.1c2.4-0.6,4.9-1.2,7.5-1.8
		c1.8-0.4,3.3-1.2,4.6-2.2c2.2-1.8,4.5-3.7,6.7-5.7c0.3-0.1,0.4-0.4,0.6-0.5c0.4,0.8,0.6,1.4,1,2.2c1.5-0.6,2.2-2.1,3.2-3.1
		c1-1,2.1-2.2,3-3.5c0.8-1.2,1.4-2.6,2.2-4c0.1,0.4,0.3,0.8,0.3,1.2c0,2.2-0.4,4.5-1.8,6.3c-0.1,0.1-0.3,0.4-0.4,0.6
		c-0.4,0.6-1,1.2-1.3,1.8c-0.1,0.6,0.1,1.3,0.3,2.1c0.4-0.1,0.8-0.4,1.3-0.4c0.6,0.6,0.6,0.6,0.9,2.1c2.2-0.9,3.9-2.4,6-3.5
		c0.1,0.4,0.3,0.6,0.4,1c0.4,0.8,0.6,1,1.3,1c0.1,0,0.1,0,0.1,0c0.5,0,1-0.1,1.4-0.4c1.3-0.8,2.4-1.5,3.5-2.4c1.4-1,2.7-2.3,4-3.5
		c0.8,0.4,0.6,0.9,0.6,1.3c0.3,0.8,0.6,1.3,1.2,1.3c0.3,0,0.6-0.1,1-0.4c3-1.9,6.2-3.7,8.4-6.6c0.8-1,1.5-2.2,2.2-3.2
		c0.8,0.6,1.5,1.3,2.4,1.5c0.1,0.1,0.4,0.1,0.6,0.1c0.8,0,1.5-0.6,2.2-1.2c0.6,0.9,1.3,1.8,2.1,3c0.6-0.4,1-0.8,1.5-1.2
		c0.5,0,0.9,0.1,1.3,0.1c0.3,0,0.5,0,0.8-0.1c1.2-0.4,1.9-1.2,2.2-2.4c0.3-1.3,0.5-2.4,0.8-3.9c0.9,0.3,1.8,0.6,2.7,0.6
		c0.5,0,1-0.1,1.5-0.5c1.2-0.8,2.3-1.8,2.7-3.2c0.5,0.1,1,0.1,1.5,0.1c1,0,1.9-0.3,3-0.6c0.3-0.1,0.5-0.1,0.8-0.1
		c0.1,0,0.3,0,0.4,0.1c0.4,0.1,0.6,0.1,1,0.1c0.8,0,1.4-0.4,2.2-0.6c0.6-0.4,1.3-0.6,2.2-0.8c1.3-0.1,2.4-0.8,3.2-2.1
		c0.8-1.3,1.5-2.4,2.2-3.7c0.5-1,1-1.8,2.4-1.8c1.3-0.1,2.3-1.4,2.4-2.7c0-1-0.3-2.2,0.1-3.1c0.4-0.9,1.5-1.3,2.2-1.8
		c1.3-1,1.8-2.2,1.2-3.9c0.6-0.6,1.3-1,1.8-1.5c0.6-0.6,1-1.4,1-2.4c0-0.8-0.1-1.7-0.1-2.4c0-0.3-0.1-0.5,0-0.8c0.8-2.7-0.1-5-1-7.5
		c-0.3-0.5-0.5-1-0.8-1.5c0.4-0.4,0.8-0.8,1.3-1c1.4-0.8,1.9-2.2,1.9-3.7c0-1.5,0-3,0-4.5c0-1,0.3-1.8,0.6-2.7
		c0.6-1.3,1-2.7,1.5-4.1c0-0.4,0-0.8,0-1.2c-0.4-0.6-0.5-1.4,0-2.1c0-1,0-2.1,0-3c-0.4-1.3-0.8-2.4-1.8-3.5c0.8-3.5,0.4-6.7-1.3-9.6
		c-0.3-0.5-0.6-1-0.9-1.5c-1.3-1.8-2.2-3.5-2.3-5.8c-0.1-1.5-0.8-3.1-1.4-4.5c-0.4-0.8-1-1.3-1.4-2.1c-0.9-1.8-1.5-3.6-2.4-5.4
		c-0.8-1.7-1.8-3.3-2.6-5c-0.6-1.4-1.3-2.8-1.8-4.2c-0.6-1.5-1.5-3-2.8-4.1c-0.6-0.6-1-1.2-1.3-2.1c-0.4-1.8-1.8-3.1-3-4.4
		c-0.9-1-2.1-1.8-3.2-2.6c-1.5-1-2.8-2.4-4-4c-1-1.5-2.1-3-3.2-4.4c-1.2-1.3-2.2-2.8-3.1-4.4c-0.9-1.4-2.2-2.6-3.5-3.6
		c-0.6-0.6-1.3-1.2-1.9-1.9c-1.3-1.8-3-3.2-4.8-4.5c-0.6-0.4-1-0.9-1.5-1.4c-0.9-0.9-1.8-1.9-2.8-2.7c-2.8-2.1-5.5-4.2-9-5.5
		c-1.7-0.6-3.2-1.5-4.9-2.3c-0.9-0.4-1.8-0.8-2.7-1.2c-1.4-0.6-3-1.3-4.4-1.9c-1.9-0.9-3.9-1.8-5.8-2.8c-2.3-1.2-4.6-2.4-6.8-3.6
		c-3.5-1.8-6.7-3.6-10.2-5.3c-1.8-0.9-3.6-1.9-5.5-2.7c-3.5-1.5-6.9-3.1-10.4-4.5c-1.2-0.5-2.4-0.6-3.6-0.9c-0.6,1-0.8,1.3-1.4,1.3
		c-0.3,0-0.5,0-0.9-0.1c-0.3,0-0.5-0.1-0.8-0.1c-1-0.4-1.9-0.6-3-0.6c-0.1,0-0.4,0-0.5,0s-0.1,0-0.3,0c-1.2,0-2.2-0.8-3.2-1.5
		c-2.3-1.8-4.6-3.6-6.9-5.3c-1.5-1.2-3.5-2.1-5.1-3c-1.9-1-3.6-2.3-5-3.9c-0.8-0.9-2.1-1.3-3.2-1.7c-2.6-0.9-5.1-1.7-7.8-2.3
		c-0.6-0.1-1.3-0.5-1.8-0.8c-2.2-1.5-4.9-2.1-7.3-2.7c-1.2-0.4-2.4-0.6-3.6-0.8c-0.1,0-0.4-0.1-0.5-0.1c-0.1,0-0.4,0-0.4,0.1
		c-0.5,0.4-0.9,0.5-1.4,0.5c-0.6,0-1.2-0.1-1.8-0.4c-0.6-0.1-1.3-0.4-1.7-0.5c-0.6,0.5-1.2,0.9-1.8,1.4c0,0.1,0.1,0.3,0.1,0.4
		c0.1,1-0.1,1.3-1,1.4c-0.1,0-0.3,0-0.4,0c-0.4,0-0.6-0.1-1-0.1c-2.7-0.4-5.3-0.9-8.1-1.3c0.4,0.4,0.6,0.8,1,1.2
		c0.6,0.8,0.4,1.5-0.6,2.1c-0.4,0.1-0.8,0.3-1.2,0.3c-0.8,0-1.8-0.4-2.3-0.9c-0.4-0.4-0.6-0.6-1-0.9c-0.6-0.4-0.8-0.9-0.8-1.5
		c0-1-0.6-1.5-1.4-1.9c-2.1-1.2-4.4-1.8-6.6-2.2c-0.4-0.1-0.9-0.1-1.3-0.4c-1-0.9-2.2-1.2-3.5-1.2c-0.5,0-1,0-1.4,0.1
		c-1,0.1-2.2,0.4-3.2,0.5c-1.2-0.9-2.1-1.4-3.5-1.4c-0.8,0-1.9,0.1-3.3,0.6C296.1,153.8,295.8,152.9,295.5,151.7L295.5,151.7z"/>
	<path id="trunk" fill="#FFFFFF" d="M280.9,351.4l2.5,4.7l3.8,9l-0.9-6.7l0.2-1.8h1.2c0.1,0,0.2,0,0.3,0l0.8,1.7l0.8,4.6l1.2-3.6
		c0.1,0.7,0.2,1.4,0.2,2.1c0.3,4.8,0.9,8.7,2,12.2c0.6,2.4,1.1,4.8,1.6,7.3c0.3,1.6,0.6,3.2,1,4.8l0,0l0,0c0.1,0.5,0.3,1,0.4,1.5
		c0.4,1.4,0.7,2.8,1,4.2c0.4,2.6,0.6,5.3,0.9,7.9c0,0.4,0,1,0.5,1.6c0.2,0.3,0.5,0.7,0.7,1.1c0.3,0.4,0.5,0.9,0.8,1.3l0.1,0.1
		l0.1,0.1c0.3,0.3,0.7,0.5,1.1,0.7l0.2,0.1l0.3,0c0.1,0,0.3,0,0.4,0.1c0.5,0.1,1,0.2,1.5,0.2c0.4,0,0.8-0.1,1.1-0.2
		c1-0.2,2.2-0.8,2.9-1.6c1.9-1.8,3.6-3.6,5.9-6.1c2.2-2.4,4.3-5.3,6.6-9c1.8-2.8,3.7-5.5,5.6-8.4c0.8-1.1,1.5-2.2,2.3-3.4
		c0.5-0.7,0.9-1.4,1.3-2c0.1-0.2,0.3-0.5,0.4-0.7c0.1-0.2,0.3-0.5,0.4-0.7c0.3,0,0.6-0.1,0.9-0.2l0,0l0.1,0.1l0.5,0.5v2.5l0.9-0.9
		v1.4l0.3-0.3l2-1.2l1,1l0.2-0.2v0.3l2.2-1.3l0.2-0.1c0,0,0,0,0,0l0,0.1l0,0.1c-0.2,0.8-0.7,1.5-1.3,2.2c-0.4,0.5-0.8,1-1.1,1.6
		c-0.1,0.1-0.2,0.3-0.4,0.5c-0.4,0.5-0.9,1.1-1.1,1.8c-0.1,0.4-0.5,0.8-0.9,1.3c-0.4,0.5-0.9,1.1-1.2,1.8c-0.5,1.1-1.2,2-1.9,3
		c-0.5,0.7-1.1,1.5-1.6,2.4c-1.1,1.9-2.3,3.7-3.4,5.5c-0.1,0.1-0.1,0.2-0.2,0.2c-0.2,0.3-0.5,0.7-0.7,1.2c-0.5,1.3-1,2.6-1.6,4
		c-1,2.2-1.9,4.4-2.5,6.9l0,0l0,0c-0.1,0.4-0.3,0.9-0.6,1.4c-1.2,2-1.9,4.1-2.4,6.2c-0.1,0.1-0.1,0.3-0.2,0.4
		c-0.1,0.1-0.1,0.2-0.2,0.3c-0.4,0.8-0.8,1.6-1.1,2.5c-0.7,1.7-1.5,3.4-2.6,5.3c-1.1,2-1.5,3.9-1.2,5.8c0.2,1.7,0.8,3.1,1.5,4.2l0,0
		l0,0l0.5,0.9l0.6,1l1.9,3.1l1.2-3.4c0.5-1.5,1.6-2.5,2.9-3.7c0.2-0.2,0.4-0.3,0.6-0.5c0.8-0.7,1.6-1.3,2.5-2
		c0.9-0.7,1.8-1.4,2.7-2.1c0.9-0.8,1.8-1.6,2.6-2.6c2.4-2.4,4.8-4.8,6.8-7.6c0.1-0.1,0.1-0.2,0.2-0.2c0.5-0.5,1.3-1.5,1.2-2.8
		c0.1-0.1,0.2-0.3,0.3-0.4c0.3-0.6,0.6-1.2,1-1.8c0.3-0.5,0.5-1,0.8-1.5c0.7-0.3,1.4-0.9,1.8-2.4l0,0l0,0c0.9-4.1,1.3-7.4,1.3-10.6
		c0.1-2.9,0.1-5.7,0.1-8.5c0-0.1,0-0.1,0-0.2c0.2-0.3,0.4-0.6,0.4-0.9l1.9,7v-8.7l0.2-0.3l0.1,0.2l0.1-0.4l1.1-1.6
		c0,0.6,0.1,1.2,0.1,1.8l0.9,11.5l-0.6,2.9l3.3-2c2.6-1.6,4.7-3.2,6.6-5.1l0,0l0,0c0.7-0.8,1.7-1.7,2.6-2.5c1.9-1.5,3.9-2.9,5.9-4.3
		c0.6-0.4,1.4-0.7,2.6-1c1.9-0.3,3.4-1.2,4.6-2.6c0.5-0.5,1-1.1,1.5-1.7c0.3-0.4,0.6-0.7,0.9-1l-0.2,1l3.1-1.9l0,0
		c0.4,0.2,0.8,0.2,1.2,0.2c0.1,0,0.2,0,0.3,0c-0.4,0.7-0.9,1.2-1.4,1.7l0,0l0,0c-0.5,0.5-0.9,0.9-1.1,1.4c-0.6,1.4-1.8,2.2-3.6,3.1
		c-1.4,0.7-2.7,1.3-3.9,1.7l-0.1,0l-0.1,0c-1.3,0.6-2.5,1.5-3.3,2.7c-0.1,0.1-0.3,0.3-0.4,0.4c-0.7,0.8-1.4,1.6-2.2,2.2l0,0l0,0
		c-1.7,1.3-3.5,2.5-5.3,3.7c-0.7,0.5-1.4,1-2.2,1.5c-0.6,0.4-1.2,0.9-1.7,1.4c-0.6,0.5-1.2,1-1.8,1.4l0,0l0,0
		c-2,1.3-3.7,3.1-5.2,5.4c-0.3,0.5-0.7,1-0.9,1.8l0,0.1l0,0.1c-0.6,4.3-2.9,7.9-5.3,11.1c-0.4,0.5-0.7,0.9-0.9,1.4
		c0,0,0,0.1-0.1,0.1c-0.1,0.2-0.3,0.4-0.5,0.6c-0.2,0.3-0.5,0.5-0.7,0.8c-0.9,1-1.7,2-2.6,2.8l-0.1,0.1l0,0.1
		c-1.4,1.7-2.9,3.4-4.4,5.2c-1.3,1.5-2.6,3-3.9,4.6l-0.1,0.2l-0.1,0.1l0,0c-1.7,1-2.7,2.5-3.6,3.9c-0.1,0.2-0.3,0.5-0.4,0.7
		c-1,1.4-2,2.7-3.1,3.9l0,0l0,0c-0.2,0.3-0.4,0.6-0.6,0.8c-0.3,0.5-0.5,0.8-0.7,0.8l-0.8,0.3l-0.3,0.8c-0.1,0.2-0.1,0.4-0.2,0.6
		c-0.2,0.6-0.5,1.3-0.5,2.1c-0.1,1.4-0.2,2.7-0.5,4c-0.4,1.9-0.7,3.7-0.8,5.6c-0.1,2.7,0.1,5.6,0.7,8.8c0.7,3.6,1.2,7.3,1.7,10.9
		l0.1,0.7c0.2,1,0.2,2.1,0.3,3.2c0,0.6,0.1,1.1,0.1,1.7c0,0.3,0.1,0.6,0.1,0.8c0,0.1,0,0.2,0,0.3v0.1l0,0.1c0,0.3,0.1,0.6,0.1,0.9
		c0.2,1.3,0.4,2.7,0.3,3.8l0,0l0,0c-0.1,3.5,0.1,7,0.8,10.3c0.3,1.4,0.7,2.6,1.1,3.8l0,0l0,0c0.7,1.8,2.1,2.9,3.3,3.7
		c0.8,0.6,1.7,1.2,3,1.7c0.7,0.3,1.8,0.7,3,1.1c0.5,0.2,1.1,0.4,1.8,0.6l-0.2,0.1c-0.1,0-0.4,0-0.7,0c-0.5,0-1.1,0-1.5-0.1
		c-0.9-0.3-1.8-0.4-2.9-0.4c-0.5,0-1,0-1.6,0.1c-0.5,0-1,0.1-1.5,0.1c-1.3,0.1-2.6,0.2-3.8,0.2c-1.4,0-2.5-0.1-3.6-0.4l-0.1,0
		l-0.1,0c-0.2,0-0.6-0.2-0.9-0.4c-0.2-0.1-0.5-0.2-0.7-0.3l0,0l0,0l-0.1,0c-0.3-0.1-0.7-0.2-1.1-0.2c-0.2,0-0.4,0-0.6,0.1
		c-1.3,0.1-2.5,0.4-3.6,0.7c-0.6,0.1-1,0.3-1.3,0.5c-0.2-0.1-0.5-0.2-0.7-0.3c-0.2-0.1-0.4-0.1-0.6-0.1l-0.4-0.7h-0.7
		c-0.2-0.1-0.4-0.1-0.8-0.1h-0.1l-0.1,0c-1.7,0.2-3.5,0.5-5.2,0.6l-0.1,0l-0.1,0c-0.1,0-0.1,0-0.2,0c-0.2,0-0.5,0-0.8-0.1
		c-0.4,0-0.8-0.1-1.2-0.1c-0.7,0-1.4,0-2.2,0.1c-1.9,0.2-3.8,0.5-5.6,0.7c-0.2-0.1-0.4-0.3-0.7-0.4c-0.1-0.1-0.1-0.3-0.2-0.4
		l-0.7-1.1l-1.3,0.5c-1,0.4-2,0.7-2.8,1l0,0l0,0c-0.4,0.1-0.8,0.2-1.2,0.3c-0.3,0.1-0.6,0.1-0.9,0.2h0h-1.2l-0.4,1.1
		c-0.1,0.3-0.4,0.5-0.6,0.6l-0.1-0.5l-1.1,0.2c0.1-0.1,0.2-0.2,0.3-0.3l0.2-0.1c0.6-0.5,1.3-1.1,1.9-1.6c0.9-0.8,1.7-1.6,2.7-2.3
		c0.3-0.2,0.7-0.5,1-0.7c1.3-0.9,2.4-1.8,3.9-2.3l0,0l0,0c1.3-0.6,2.3-1.7,3-2.5l0,0l0,0c0.2-0.2,0.3-0.4,0.5-0.6
		c0.7-0.9,1.4-1.8,1.9-3c0.7-1.6,1.4-3.3,1.7-5.1l0.1-0.8c0.6-3.9,1.2-7.6,1.6-11.4c0.2-2,0.3-4.4,0.1-6.9c0-1.3-0.1-2.6-0.1-3.8
		c-0.1-1.7-0.2-3.3-0.1-5c0.1-2-0.1-3.8-0.3-5.7c-0.1-1-0.2-2.1-0.2-3.2c0-0.3-0.1-0.6-0.1-0.8c0-0.1,0-0.2,0-0.2v-0.1l0-0.1
		c-0.8-4.5-1.5-9.2-2.2-13.9c-0.1-0.8-0.3-1.5-0.5-2.2c-0.1-0.4-0.2-0.8-0.3-1.2l0,0l0,0l-1.5-5.8l0,0l0,0c-0.7-2.2-1.7-3.7-3.2-5
		c-0.6-0.6-1.2-1.2-1.7-1.8c-1.2-1.7-2.8-3.1-4.3-4.3c-0.3-0.3-0.7-0.5-1-0.8c-1.9-1.6-4.1-2.6-6.1-3.4l-0.4-0.2
		c-0.8-0.4-1.6-0.8-2.4-1.1c-0.8-0.4-1.6-0.7-2.3-1.1c-1-0.5-2.1-1-3.2-1.5c-0.2-0.1-0.4-0.2-0.6-0.3c-1.8-1-3.7-2-5.5-3
		c-0.4-0.3-0.9-0.7-1.3-1.3l-0.1-0.1l-0.1-0.1c-0.3-0.4-0.6-0.8-0.9-1.3c-0.2-0.4-0.5-0.8-0.8-1.2c-0.4-0.6-1-1-1.6-1.2l-0.2-0.1
		l-0.2,0c-0.8-0.2-1.1-0.5-1.3-0.8c-1.5-2.5-4-3.4-6.1-4.1l-0.4-0.1c-0.8-0.3-1.6-0.4-2.3-0.5c-0.3,0-0.7-0.1-1-0.2
		c-0.4-0.1-0.7-0.2-1-0.2c-0.9-0.3-1.8-0.5-2.7-0.5c-0.8,0-1.7,0.1-2.5,0.4l0,0l0,0c0,0,0,0-0.1,0c-0.2,0-0.6-0.1-0.9-0.1l-0.3-0.1
		l-0.1,0l-0.1,0c-2-0.2-3.9-0.5-5.3-1.5c-1.6-1.3-3.2-2.5-4.7-3.7c-1.1-0.8-1.9-1.8-3-3.4c-1.9-3.3-3.3-6.1-4.2-8.8
		c0.5-0.4,0.9-1.1,0.7-2.2l0,0v-0.3l-0.1-0.3c-0.1-0.3-0.2-0.6-0.3-0.9l1.5,2.5l0.5-1.1c0.9,3.3,2.4,6.3,4.7,9.4
		c0.9,1.2,2,2.3,3.1,3.3c0.4,0.4,0.8,0.8,1.2,1.2c0.3,0.3,1.1,0.8,1.9,0.8c0.2,0,0.4,0,0.6-0.1c0.5-0.1,1-0.1,1.6-0.1
		c0.8,0,1.6,0.1,2.5,0.2c0.9,0.1,1.8,0.2,2.8,0.2c0.3,0,0.9,0,1.5-0.3l1.1-0.5l-0.1-1.2c-0.2-1.4-0.9-2.5-1.5-3.2
		c-1.4-2.1-2.6-4.3-3.5-6.3l0-0.3l4.1,6.6l-0.1-0.6c2,2.6,4.3,4.8,6.9,7l0.1,0.1c0.3,0.3,1,1,2.1,1c0.2,0,0.3,0,0.5,0
		c0.1,0,0.1,0.1,0.2,0.1c0.1,0.1,0.2,0.1,0.3,0.2c1.5,1.2,3.1,2.1,4.6,3c0.9,0.5,1.8,1,2.6,1.5l0,0l0.1,0c0.9,0.5,1.9,1,2.8,1.5
		c0.9,0.5,1.8,0.9,2.7,1.4c1.3,0.7,2.7,1.7,4.3,3.1l0.1,0.1l0.1,0c1.3,0.8,2.7,1.5,4.2,2.1c1.3,0.5,2.6,1.1,3.6,1.7l0.1,0.1l0.1,0
		c0.1,0,0.3,0.2,0.5,0.2c0.1,0.1,0.2,0.1,0.3,0.2l0.1,0l0.1,0c0.2,0.1,0.4,0.2,0.7,0.2c0.3,0.1,0.6,0.2,0.8,0.3l0.1,0l0.1,0
		c2.1,1.3,4.4,2.1,6.8,3l0.5,0.2l3.1,1.1l-0.9-3.1c-0.6-2-1.2-3.9-1.8-5.8c-0.2-0.7-0.5-1.4-0.7-2.1c-0.1-0.2-0.1-0.4-0.2-0.5
		c-0.2-0.7-0.4-1.4-0.4-1.9v-0.1l0-0.1c-0.3-2.2-1.2-4.1-2-6c-0.2-0.4-0.4-0.8-0.5-1.2c-0.1-0.4-0.3-0.7-0.5-1c0,0,0,0,0,0
		c-0.4-1.8-1.1-3.6-2.3-5.5c-1.1-1.9-2.5-3.9-4.8-5c-0.3-0.2-0.6-0.4-0.9-0.7c-0.2-0.1-0.3-0.3-0.5-0.4l0,0l0,0
		c-1-0.7-2-1.5-2.9-2.2c-0.2-0.1-0.4-0.2-0.5-0.3c-1.2-1.7-2.8-2.7-4.4-3.6h1.1l-0.9-0.7l1.5,0.2l-2.7-2.7v-1.3h0.2h1.8l2.4,1.3V371
		c4.3,2.5,8.1,5.4,11.6,8.3l3.4,2.8l-0.7-4.4c-0.4-2.6-0.6-5.2-0.8-7.8c-0.1-1.3-0.2-2.7-0.3-4.1c-0.1-2.2-0.6-4.3-1.1-6.3
		c-0.1-0.4-0.2-0.7-0.2-1.1C281.8,356.2,281.3,353.8,280.9,351.4 M279.4,344.1c-0.4,0.1-0.8,0.3-1.2,0.4c0,0.6,0,1.2,0.1,1.8
		c0.6,4.2,1.4,8.5,2.2,12.6c0.5,2.3,1.2,4.8,1.3,7.2c0.4,3.9,0.5,7.8,1.2,12c-4.9-4-9.8-7.7-15.6-10.4c0.5,0.5,0.9,0.9,1.3,1.3
		c0,0-0.1,0-0.1,0.1c-1.2-0.6-2.6-1.2-3.9-1.8c0,0-0.1,0-0.1,0.1c0.5,0.5,0.9,0.9,1.5,1.5c-0.8,0-1.3,0-1.8,0c0,0.1-0.1,0.4-0.1,0.5
		c-0.6-0.3-1.2-0.5-1.8-0.6c-0.1,0.1-0.1,0.3-0.3,0.4c0.4,0.3,0.8,0.5,1.2,0.9c0,0.1-0.1,0.3-0.1,0.4c-0.4-0.3-0.8-0.3-1.2-0.4
		c-0.1,0.1-0.1,0.3-0.3,0.4c0.6,0.5,1.3,1,1.9,1.7c-0.8-0.1-1.4-0.1-2.4-0.3c0.8,0.6,1.3,1,1.9,1.5c-0.8,0-1.3,0-1.8,0
		c0.8,0.8,1.7,1.2,2.4,1.8c2.2,1.5,4.8,2.4,6.3,4.8c0.1,0.1,0.5,0.3,0.6,0.4c0.9,0.6,1.9,1.4,3,2.2c0.6,0.5,1,0.9,1.7,1.3
		c1.9,0.9,3.1,2.6,4.1,4.4c1,1.7,1.8,3.3,2.2,5.3c0.1,0.3,0.4,0.6,0.5,1c0.9,2.2,2.1,4.5,2.4,6.9c0,1,0.4,2.1,0.6,3
		c0.8,2.4,1.7,5,2.4,7.8c-2.6-0.9-4.9-1.7-6.9-3c-0.5-0.4-1.2-0.5-1.8-0.8c-0.3-0.1-0.6-0.4-1-0.5c-1.2-0.6-2.6-1.3-3.9-1.8
		c-1.4-0.5-2.7-1.2-3.9-1.9c-1.4-1.2-3-2.3-4.5-3.2c-1.8-1-3.7-1.9-5.5-3c-2.3-1.5-5-2.6-7.2-4.5c-0.5-0.2-1-0.7-1.4-0.7
		c0,0-0.1,0-0.1,0c-0.2,0.1-0.3,0.1-0.5,0.1c-0.4,0-0.7-0.3-1-0.6c-3.2-2.8-6.3-5.7-8.5-9.5c-1-1.8-1.5-3.6-2.4-5.4
		c-0.1-0.3-0.3-0.5-0.4-0.8c0,0,0,0.1-0.1,0.1c0.1,0.6,0.3,1.4,0.4,2.2c-0.6-1-2.1-1.4-2.3-2.8c-0.1,1.2-0.3,2.2-0.4,3.6
		c-0.5-1.3-0.9-2.3-1.3-3.2c-0.1,0-0.3,0.1-0.4,0.1c0.3,1,0.5,2.1,0.9,3.1c1.3,2.8,2.7,5.7,4.5,8.4c0.5,0.6,1,1.4,1.2,2.4
		c-0.3,0.1-0.5,0.1-0.8,0.1c-1.7,0-3.5-0.3-5.2-0.3c-0.7,0-1.4,0.1-2.1,0.2c0,0-0.1,0-0.1,0c-0.2,0-0.6-0.2-0.7-0.3
		c-1.4-1.4-3-2.7-4.1-4.2c-2.1-2.8-3.6-5.8-4.5-9.3c-0.1-0.8-0.3-1.5-0.8-2.2c-0.5-0.6-0.8-1.4-1.2-2.2c-0.1-0.4-0.4-0.6-0.6-1.2
		c-0.1,1.3,0.8,2.4,0.3,3.7c-1-1.7-1.3-3.6-2.8-4.9c0.3,0.9,0.4,1.8,0.4,2.4s0.8,1.4-0.1,2.2c-0.5-0.8-0.9-1.5-1.3-2.3
		c-0.1,0-0.1,0.1-0.3,0.1c0.3,0.6,0.4,1.4,0.6,2.2c0.3,1,0.6,2.1,1,3.1c0,0.4,0.3,0.8-0.4,1c-0.3-0.6-0.5-1.3-0.9-2.1
		c-0.1,0.4-0.3,0.4-0.3,0.5c0.1,0.4,0.3,0.9,0.4,1.4c1,3.9,2.8,7.5,4.9,10.9c1,1.5,2.1,2.8,3.5,3.9c1.5,1.2,3.1,2.3,4.6,3.6
		c1.8,1.4,4,1.7,6.2,1.9c0.4,0.1,1,0.2,1.5,0.2c0.2,0,0.5,0,0.7-0.1c0.7-0.2,1.3-0.3,2-0.3c0.8,0,1.6,0.2,2.4,0.5
		c0.3,0,0.5,0,0.8,0.1c1.2,0.3,2.2,0.3,3.2,0.6c2.2,0.8,4.4,1.4,5.7,3.6c0.5,0.8,1.3,1.3,2.3,1.5c0.3,0.1,0.8,0.4,0.9,0.6
		c0.6,0.9,1.2,1.9,1.8,2.7c0.5,0.8,1.2,1.4,1.8,1.8c1.9,1.2,3.9,2.2,5.8,3.2c0.1,0,0.1,0,0.3,0.1c1.2,0.5,2.3,1,3.3,1.5
		c1.5,0.8,3.2,1.4,4.8,2.2c2.1,0.9,4.2,1.8,6,3.3c1.8,1.5,3.7,3,5,4.9c0.6,0.8,1.3,1.4,1.9,2.1c1.4,1.2,2.2,2.6,2.7,4.2
		c0.5,1.9,1,3.9,1.5,5.8c0.3,1.2,0.6,2.2,0.8,3.2c0.6,4.8,1.4,9.4,2.2,14c0,0.4,0.1,0.6,0.1,1c0.1,3,0.6,5.8,0.5,8.7
		c-0.1,3.1,0.3,5.9,0.3,8.9c0.1,2.2,0.1,4.5-0.1,6.7c-0.4,4.1-1,8.1-1.7,12.2c-0.3,1.7-0.9,3.2-1.5,4.8c-0.5,1.2-1.4,2.2-2.2,3.2
		c-0.6,0.8-1.4,1.7-2.3,2.1c-2.1,0.8-3.6,2.1-5.3,3.2c-1.7,1.3-3.1,2.7-4.6,4c-0.5,0.4-0.9,0.8-1.5,0.8c-0.2,0-0.4,0-0.6-0.1
		c-0.1,0-0.2-0.1-0.4-0.1c-0.3,0-0.6,0.1-0.9,0.2c-1.4,0.1-2.4,1.2-3.5,1.9v-0.1c-0.2,0.3-0.1,0.7,0.3,0.7c0.1,0,0.2,0,0.3-0.1
		c0,0.3,1.9,0.4,3.8,0.4c1,0,2.1-0.1,2.8-0.2c0,0.2,0.4,0.3,0.9,0.3c0.9,0,2.2-0.4,2.7-1.7c0,0,0.1,0,0.3,0c0.9-0.3,1.7-0.4,2.4-0.6
		c0.9-0.3,1.9-0.6,3-1c0.3,0.4,0.3,0.9,0.9,1c0.4,0.1,0.6,0.7,1.1,0.7c0.1,0,0.1,0,0.2,0c1.9-0.3,4-0.5,6-0.8
		c0.6-0.1,1.3-0.1,1.9-0.1c0.6,0,1.3,0.2,2,0.2c0.2,0,0.3,0,0.5,0c1.7-0.1,3.5-0.4,5.3-0.6c0.3,0,0.3,0.1,0.4,0.1
		c0.1,0.3,0.1,0.4,0.3,0.8c0.3,0,0.6-0.1,0.9-0.1c0.1,0,0.3,0,0.4,0.1c0.5,0.1,0.9,0.4,1.3,0.5c0.5-0.1,0.9-0.6,1.5-0.8
		c1.2-0.3,2.3-0.5,3.6-0.6c0.1,0,0.2-0.1,0.3-0.1c0.2,0,0.4,0.1,0.7,0.2c0.6,0.3,1.3,0.6,1.9,0.8c1.4,0.4,2.7,0.5,4,0.5
		c1.8,0,3.6-0.2,5.5-0.4c0.5,0,1-0.1,1.5-0.1c0.8,0,1.7,0.1,2.5,0.3c0.6,0.1,1.3,0.1,1.9,0.1c0.5,0,0.9,0,1.3-0.1
		c0.3,0,5.4-0.1,5.8-0.1c-1.3-2.3-8.1-3.7-10.3-4.8c-0.9-0.4-1.9-0.9-2.7-1.5c-1.2-0.8-2.2-1.7-2.7-3c-0.4-1.2-0.8-2.3-1-3.6
		c-0.6-3.2-0.9-6.6-0.8-9.9c0.1-1.7-0.3-3.5-0.5-5.1c0-0.4-0.1-0.8-0.1-1.2c-0.1-1.7-0.1-3.3-0.4-5c-0.5-3.9-1-7.8-1.8-11.7
		c-0.5-2.8-0.8-5.7-0.6-8.4c0.1-1.8,0.4-3.6,0.8-5.4c0.3-1.4,0.4-2.8,0.5-4.2c0-0.6,0.4-1.4,0.6-2.2c1-0.4,1.4-1.4,2.1-2.2
		c1.2-1.3,2.2-2.7,3.2-4.1c1-1.5,1.9-3.2,3.5-4.1c0.3-0.1,0.5-0.4,0.6-0.6c2.8-3.3,5.7-6.6,8.4-9.8c0.9-0.9,1.8-1.9,2.7-3
		c0.4-0.5,0.9-1,1.3-1.5c0.3-0.5,0.4-0.9,0.8-1.3c2.7-3.6,5-7.3,5.7-12c0.1-0.5,0.4-0.9,0.6-1.3c1.3-1.9,2.8-3.6,4.8-4.9
		c1.3-0.8,2.3-1.9,3.6-2.8c2.4-1.7,5-3.3,7.5-5.1c1.2-0.8,2.1-1.9,3-3c0.6-0.9,1.5-1.7,2.7-2.2c1.4-0.5,2.8-1.2,4.1-1.8
		c1.8-0.9,3.5-1.9,4.4-3.9c0.1-0.3,0.5-0.6,0.8-0.9c1.3-1.2,2.2-2.7,2.8-4.4c0.3-0.4,0.3-0.9,0.4-1.3c-0.1,0-0.1,0-0.3-0.1
		c-0.3,0.3-0.5,0.5-0.9,0.8c-0.1,0-0.1-0.3-0.3-0.4c-0.5,0.3-1.1,0.8-1.8,0.8c-0.2,0-0.4,0-0.6-0.1c0-0.1,0-0.4,0.1-0.8
		c-0.5,0.3-0.8,0.4-1.4,0.8c0.1-0.6,0.1-0.9,0.3-1.3c-0.8,0.6-1.3,1-1.9,1.4c-0.2-0.2-0.3-0.2-0.5-0.2c-0.4,0-0.5,0.6-0.8,0.9
		c-1,1-1.9,2.2-3,3.2c-1,1.2-2.3,1.8-3.7,2.1c-1.2,0.3-2.3,0.6-3.2,1.3c-2.1,1.4-4.1,2.8-6,4.4c-1,0.9-2.1,1.8-2.8,2.7
		c-1.9,1.9-4,3.5-6.3,4.9c0.1-0.6,0.3-1.2,0.3-1.7c0-0.5-0.1-1.2-0.1-1.8s0-1,0-1.7c0-0.6-0.1-1.4-0.1-2.2c0.1-2.6,0.1-5.1,0.3-7.8
		c0-0.4-0.1-0.6-0.1-1c-0.1,0-0.1,0-0.3,0c-0.3,1.5-0.5,3.2-0.9,5.1c-0.3-3.3-0.5-6.6-0.8-9.6c-0.8,1.9-0.5,4.1-1.8,6
		c-0.3-3,0.3-5.8-0.4-8.5c-0.3,1.5-0.4,3.2-0.6,5c-0.3-0.8-0.5-1.2-0.6-1.8c-0.8,0.9-0.5,1.8-0.6,2.6c0,0.8,0,1.7,0,2.4
		c-0.5-1.9,0-4-0.9-5.8c-0.4,0.8-0.6,1.4-0.8,2.1c-0.3,3-0.5,5.8-0.1,8.7c0,0.1,0,0.6-0.1,0.8c-0.6,0.3-0.4,0.9-0.4,1.3
		c0,2.8,0,5.7-0.1,8.5c0,3.5-0.5,6.8-1.3,10.3c-0.2,0.8-0.6,1.3-1.1,1.3c-0.1,0-0.1,0-0.2,0c-0.8,1.5-1.5,2.8-2.2,4.1
		c-0.1,0.3-0.6,0.6-0.5,0.9c0.3,1-0.5,1.7-1,2.3c-1.9,2.7-4.4,5.1-6.7,7.5c-0.8,0.9-1.5,1.7-2.4,2.4c-1.7,1.4-3.6,2.7-5.3,4.1
		c-1.5,1.4-3.2,2.7-4,4.9c-0.4-0.6-0.8-1.3-1.2-1.9c-0.6-1.2-1.2-2.3-1.3-3.6c-0.3-1.8,0.3-3.3,1-4.8c1-1.8,1.9-3.6,2.7-5.5
		c0.3-0.8,0.6-1.5,1-2.3c0.1-0.3,0.4-0.6,0.5-1c0.4-2.1,1.2-4,2.2-5.8c0.4-0.6,0.6-1.3,0.8-1.9c0.9-3.7,2.8-7.1,4.1-10.7
		c0.1-0.4,0.4-0.6,0.6-1c1.2-1.8,2.3-3.6,3.5-5.5c1.2-1.9,2.6-3.5,3.6-5.5c0.5-1.2,1.8-2.1,2.2-3.3c0.1-0.6,0.9-1.3,1.3-1.9
		c0.8-1.4,2.2-2.6,2.6-4.4c0.3-0.8,0.3-1.7,0.4-2.6c-0.1-0.2-0.3-0.3-0.4-0.3c-0.3,0-0.7,0.3-1,0.4c0.1-0.4,0.1-0.6,0.3-1
		c-0.5,0.5-0.9,0.9-1.5,1.3c0-0.4,0-0.6,0.1-1.2c-0.8,0.8-1.3,1.3-1.9,1.8l-0.1-0.1c0.4-0.5,0.6-1.2,1-1.9c-0.8,0.5-1.2,0.9-1.8,1.3
		c0.1-0.6,0.3-1,0.4-1.4c-0.4,0.3-0.8,0.5-1.2,0.9c0-0.6,0-0.9,0.1-1.4c-0.4,0.3-0.6,0.5-1,0.9c0-0.5,0-0.8,0.1-1.2
		c-0.1-0.1-0.3-0.1-0.4-0.3c-0.3,0.4-0.5,0.9-0.8,1.3c0,0,0,0-0.1-0.1c0.1-0.4,0.3-0.6,0.4-1c-0.3-0.3-0.5-0.5-0.6-0.8
		c-0.8,0.4-1,1.4-2.1,1.5c0.4-0.6,0.8-1,1-1.5s1.2-0.5,0.8-1.5c-0.5,0.4-1,0.6-1.3,1c-0.6,1.2-1.4,2.3-2.2,3.6
		c-0.5,0.9-0.9,1.8-1.5,2.6c-2.7,4-5.4,7.8-8,11.8c-1.9,3.1-4,6-6.4,8.7c-1.9,2.2-3.7,4.1-5.8,6c-0.5,0.5-1.4,1-2.2,1.2
		c-0.2,0.1-0.4,0.1-0.7,0.1c-0.5,0-1.1-0.1-1.7-0.2c-0.3-0.1-0.5-0.3-0.6-0.4c-0.5-0.8-1-1.7-1.5-2.4c-0.1-0.1-0.1-0.4-0.1-0.6
		c-0.3-2.7-0.5-5.4-0.9-8.1c-0.4-2.1-0.9-3.9-1.4-5.9c-0.9-4.1-1.5-8.2-2.6-12.2c-1.2-3.9-1.7-7.8-1.9-11.8
		c-0.1-1.7-0.4-3.3-0.6-5.1c0-0.9-0.1-1.9-0.8-3c0,1.5,0,2.7,0,3.9c0,0,0,0-0.1,0c-0.3-0.8-0.5-1.3-0.6-2.1
		c-0.1,0.4-0.3,0.5-0.4,0.9c-0.1-0.8-0.4-1.2-0.5-1.8c0,0,0,0-0.1,0c0,0.5,0,0.9-0.1,1.5c-0.8-1.5-0.6-3.2-1.7-4.8
		c0.1,1.5,0.3,2.7,0.4,4c-0.1,0-0.3,0.1-0.4,0.1c-0.6-2.3-1-4.6-1.7-6.9c0,0.1,0,0.1-0.1,0.1c-0.1,0.9-0.3,1.9-0.4,3
		c-0.4-1.2-0.6-2.3-0.9-3.5c-0.1,0-0.1,0-0.3-0.1c0,0.5,0,0.9-0.1,1.3c-0.3-0.6-0.1-1.4-1-1.9c0.3,2.1,0.4,4,0.6,5.9
		c-1-2.4-1.2-5.1-2.2-7.6c-0.3,0.1-0.3,0.1-0.4,0.1c0.3,1.4,0.5,3.1,0.8,4.6C281.1,348.1,281.2,345.6,279.4,344.1L279.4,344.1z"/>
</g>
<g id="name">
	<path id="i_1_" fill="#FFFFFF" d="M599.9,543h-12.7c-8.5,0-12.7,4.4-12.7,12.7v160.8c0,8.5,4.2,12.5,12.7,12.5h12.7
		c8.4,0,12.1-4,12.1-12.5V555.7C612,547.3,608.3,543,599.9,543z"/>
	<path id="n" fill="#FFFFFF" d="M423.3,716.7V602c0-20.2,5.7-35.7,17.1-46.4c11.4-10.8,26.4-16.2,44.6-16.2
		c18.4,0,33.3,5.4,44.7,16.2s17.2,26.4,17.2,46.4v114.7c0,8.5-4.2,12.7-12.7,12.7h-12.7c-8.4,0-12.6-4.2-12.6-12.7V604.3
		c0-19.5-8-29.3-23.9-29.3c-15.7,0-23.7,9.8-23.7,29.3v112.4c0,8.5-4.2,12.7-12.7,12.7H436C427.6,729.3,423.3,725.2,423.3,716.7z"/>
	<path id="a" fill="#FFFFFF" d="M276.3,677.1v-0.6c0-17.9,5.4-31.6,16.2-41.5s26.1-14.8,45.8-14.8h23.7v-15.8
		c0-19.5-7.8-29.3-23.7-29.3c-6.4,0-11.4,1.8-14.9,5.3c-3.5,3.6-5.3,8-5.3,13.5c0,7.2-3.7,10.9-11.1,10.9h-14.5
		c-8.4,0-12.6-4.2-12.6-12.7c0-15.3,5.3-27.9,15.9-37.8c10.7-9.9,24.8-14.8,42.4-14.8c18.4,0,33.3,5.4,44.6,16.2
		c11.4,10.8,17.1,26.2,17.1,46.4v68.8c0,20.2-5.7,35.7-17.1,46.4c-11.4,10.7-26.4,16.2-44.6,16.2c-18.3,0-33.2-5-44.6-15
		C282,708.2,276.3,694.4,276.3,677.1z M320.9,654.7c-4.4,4-6.6,10-6.6,18.4c0,8.2,2.2,14.4,6.6,18.4c4.4,4,10.2,6,17.4,6
		c15.7,0,23.7-9.8,23.7-29.3v-19.5h-23.7C331.1,648.8,325.4,650.7,320.9,654.7z"/>
	<path id="j" fill="#FFFFFF" d="M241.5,543h-12.7c-8.5,0-12.6,4.4-12.6,12.7V741c0,9.1-3.9,13.6-11.3,13.6c-2.6,0-5.9-0.5-10-1.4
		c-3.5-0.8-6.4,0-8.4,2.3s-3.1,5.9-3.1,10.3v10.2c0,4,0.9,6.9,2.6,8.7c1.7,1.8,4.6,3.1,8.7,4c4.5,0.9,9.4,1.4,14.8,1.4
		c13.5,0,24.2-3.9,32.3-11.4c8.1-7.6,12.1-19.9,12.1-36.9v-186C253.8,547.3,249.8,543,241.5,543z"/>
	<path id="i" fill="#FFFFFF" d="M174.7,543H162c-8.5,0-13,4.4-13,12.7v160.8c0,8.5,4.5,12.5,13,12.5h12.7c8.4,0,12.7-4,12.7-12.5
		V555.7C187.5,547.3,183.1,543,174.7,543z"/>
	<path id="k" fill="#FFFFFF" d="M0,716.7V490.9c0-8.5,4.2-12.7,12.7-12.7h12.7c8.4,0,12.6,4.2,12.6,12.7v128.6l45.4-66.9
		c2.3-3.3,4.8-5.8,7.2-7.2c2.6-1.4,6-2.2,10.3-2.2h18c4.2,0,7.1,1.7,8.2,4.9c1.3,3.2,0.6,6.4-1.9,9.3l-47.6,60.9l49.5,97.1
		c1.8,3.3,2.1,6.4,0.5,9.4c-1.5,3-4.2,4.4-8.4,4.4h-16.5c-4.5,0-8-0.8-10.3-2.2c-2.3-1.4-4.4-3.9-6-7.3l-33.4-69.8l-15.3,19.8v46.7
		c0,8.5-4.2,12.7-12.6,12.7H12.5C4.2,729.3,0,725.2,0,716.7z"/>
</g>
<g id="logo">
	<path id="hand-1" fill="#FFFFFF" d="M525.6,234c15.7,8.5,25.8,54.1,31.2,69.6c10.3,29.3,14.1,44.2,0.8,72.3
		c-12.7,26.7-27.3,61.2-49.5,81.6c-26.5,24.3-72.3,36.3-105.9,46.3c-31.4,9.4-79.1,9.5-77.4-33.8c1.8-47.4,54.8-69.6,95.5-75.3
		c16.1-2.3,26-5.3,39.6-15c7.5-5.3,30.5-29.8,37.5-13.9c7.6,16.8-8.7,39-20.4,49.4c-5.4,4.9-45.8,35-50.3,30.6
		c12.6,12.3,52.3-19.8,60.2-29.6c13.5-17.1,23.1-40.2,33.3-59.5c10.2-19.3,2.3-37.7-2.8-58.1C516.3,293.4,505.7,223.2,525.6,234
		C533.3,238.1,518,229.9,525.6,234z"/>
	<path id="hand-2" fill="#FFFFFF" d="M86.5,234c-15.7,8.5-25.8,54.1-31.2,69.6c-10.3,29.3-14.1,44.2-0.8,72.3
		c12.7,26.7,27.3,61.2,49.5,81.6c26.5,24.3,72.3,36.3,105.9,46.3c31.4,9.4,79.1,9.5,77.4-33.8c-1.8-47.4-54.8-69.6-95.5-75.3
		c-16.1-2.3-26-5.3-39.6-15c-7.5-5.3-30.5-29.8-37.5-13.9c-7.6,16.8,8.7,39,20.4,49.4c5.4,4.9,45.8,35,50.3,30.6
		c-12.6,12.3-52.3-19.8-60.2-29.6c-13.5-17.1-23.1-40.2-33.3-59.5c-10.2-19.3-2.3-37.7,2.8-58.1C95.9,293.4,106.5,223.2,86.5,234
		C78.9,238.1,94.2,229.9,86.5,234z"/>
	<path id="hand-3" fill="#FFFFFF" d="M98.1,205c-4.6-9.3,55.7-53.9,62.7-58.6c26.6-18.1,53.9-24.4,85.8-32.5
		c72-18.3,157.2-2.4,219.5,43.6c30.6,22.6,59.8,44,21.9,74.2c-32.7,25.8-92.8,10.5-120-18c-10.5-11.2-95.7-27.6-92.7-35.6
		c14.3-37.9,86.3-22.8,116.6-5.1c2.2,1.3,3.5-3.1,5.1-1.7c-47.3-37.4-128.3-27.8-183.2-12.7C197.1,162.9,112.1,233.2,98.1,205
		C94.2,197.1,102,212.8,98.1,205z"/>
</g>
</svg>
