<?xml version="1.0" encoding="utf-8"?>
<!-- Generator: Adobe Illustrator 17.1.0, SVG Export Plug-In . SVG Version: 6.00 Build 0)  -->
<!DOCTYPE svg PUBLIC "-//W3C//DTD SVG 1.1//EN" "http://www.w3.org/Graphics/SVG/1.1/DTD/svg11.dtd">
<svg version="1.1" id="Layer_1" xmlns="http://www.w3.org/2000/svg" xmlns:xlink="http://www.w3.org/1999/xlink" x="0px" y="0px"
	 viewBox="-306 450.2 612 683.6" enable-background="new -306 450.2 612 683.6" xml:space="preserve">
<g id="name">
	<path id="i_1_" fill="#FFFFFF" d="M293.9,886.7h-12.7c-8.5,0-12.7,4.4-12.7,12.7v160.9c0,8.5,4.2,12.5,12.7,12.5h12.7
		c8.4,0,12.1-4,12.1-12.5V899.4C306,891.1,302.3,886.7,293.9,886.7z"/>
	<path id="n" fill="#FFFFFF" d="M117.3,1060.4V945.7c0-20.2,5.7-35.7,17.1-46.4c11.4-10.8,26.4-16.2,44.6-16.2
		c18.4,0,33.3,5.4,44.7,16.2s17.2,26.4,17.2,46.4v114.7c0,8.5-4.2,12.7-12.7,12.7h-12.7c-8.4,0-12.6-4.2-12.6-12.7V948
		c0-19.5-8-29.3-23.9-29.3c-15.7,0-23.7,9.8-23.7,29.3v112.4c0,8.5-4.2,12.7-12.7,12.7H130C121.6,1073,117.3,1068.9,117.3,1060.4z"
		/>
	<path id="a" fill="#FFFFFF" d="M-29.7,1020.8v-0.6c0-17.9,5.4-31.6,16.2-41.5s26.1-14.8,45.8-14.8H56v-15.8
		c0-19.5-7.8-29.3-23.7-29.3c-6.4,0-11.4,1.8-14.9,5.3c-3.5,3.6-5.3,8-5.3,13.5c0,7.2-3.7,10.9-11.1,10.9h-14.5
		c-8.4,0-12.6-4.2-12.6-12.7c0-15.3,5.3-27.9,15.9-37.8c10.7-9.9,24.8-14.8,42.4-14.8c18.4,0,33.3,5.4,44.6,16.2
		c11.4,10.8,17.1,26.2,17.1,46.4v68.8c0,20.2-5.7,35.7-17.1,46.4c-11.4,10.7-26.4,16.2-44.6,16.2c-18.3,0-33.2-5-44.6-15
		C-24,1051.9-29.7,1038.1-29.7,1020.8z M14.9,998.4c-4.4,4-6.6,10-6.6,18.4c0,8.2,2.2,14.4,6.6,18.4s10.2,6,17.4,6
		c15.7,0,23.7-9.8,23.7-29.3v-19.5H32.3C25.1,992.5,19.4,994.4,14.9,998.4z"/>
	<path id="j" fill="#FFFFFF" d="M-64.5,886.7h-12.7c-8.5,0-12.6,4.4-12.6,12.7v185.3c0,9.1-3.9,13.6-11.3,13.6
		c-2.6,0-5.9-0.5-10-1.4c-3.5-0.8-6.4,0-8.4,2.3c-1.9,2.3-3.1,5.9-3.1,10.3v10.2c0,4,0.9,6.9,2.6,8.7c1.7,1.8,4.6,3.1,8.7,4
		c4.5,0.9,9.4,1.4,14.8,1.4c13.5,0,24.2-3.9,32.3-11.4c8.1-7.6,12.1-19.9,12.1-36.9v-186C-52.2,891.1-56.2,886.7-64.5,886.7z"/>
	<path id="i" fill="#FFFFFF" d="M-131.3,886.7H-144c-8.5,0-13,4.4-13,12.7v160.9c0,8.5,4.5,12.5,13,12.5h12.7
		c8.4,0,12.7-4,12.7-12.5V899.4C-118.5,891.1-122.9,886.7-131.3,886.7z"/>
	<path id="k" fill="#FFFFFF" d="M-306,1060.4V834.6c0-8.5,4.2-12.7,12.7-12.7h12.7c8.4,0,12.6,4.2,12.6,12.7v128.6l45.4-66.9
		c2.3-3.3,4.8-5.8,7.2-7.2c2.6-1.4,6-2.2,10.3-2.2h18c4.2,0,7.1,1.7,8.2,4.9c1.3,3.2,0.6,6.4-1.9,9.3l-47.6,60.9l49.5,97.1
		c1.8,3.3,2.1,6.4,0.5,9.4c-1.5,3-4.2,4.4-8.4,4.4h-16.5c-4.5,0-8-0.8-10.3-2.2s-4.4-3.9-6-7.3l-33.4-69.8l-15.2,19.7v46.7
		c0,8.5-4.2,12.7-12.6,12.7h-12.7C-301.8,1073-306,1068.9-306,1060.4z"/>
</g>
<g id="logo">
	<path id="hand-1" fill="#FFFFFF" d="M219.6,577.7c15.7,8.5,25.8,54.1,31.2,69.6c10.3,29.3,14.1,44.2,0.8,72.3
		c-12.7,26.7-27.3,61.2-49.5,81.6c-26.5,24.3-72.3,36.3-105.9,46.3c-31.4,9.4-79.1,9.5-77.4-33.8c1.8-47.4,54.8-69.6,95.5-75.3
		c16.1-2.3,26-5.3,39.6-15c7.5-5.3,30.5-29.8,37.5-13.9c7.6,16.8-8.7,39-20.4,49.4c-5.4,4.9-45.8,35-50.3,30.6
		c12.6,12.3,52.3-19.8,60.2-29.6c13.5-17.1,23.1-40.2,33.3-59.5c10.2-19.3,2.3-37.7-2.8-58.1C210.3,637.1,199.7,566.9,219.6,577.7
		C227.3,581.8,212,573.6,219.6,577.7z"/>
	<path id="hand-2" fill="#FFFFFF" d="M-219.5,577.7c-15.7,8.5-25.8,54.1-31.2,69.6c-10.3,29.3-14.1,44.2-0.8,72.3
		c12.7,26.7,27.3,61.2,49.5,81.6c26.5,24.3,72.3,36.3,105.9,46.3c31.4,9.4,79.1,9.5,77.4-33.8c-1.8-47.4-54.8-69.6-95.5-75.3
		c-16.1-2.3-26-5.3-39.6-15c-7.5-5.3-30.5-29.8-37.5-13.9c-7.6,16.8,8.7,39,20.4,49.4c5.4,4.9,45.8,35,50.3,30.6
		c-12.6,12.3-52.3-19.8-60.2-29.6c-13.5-17.1-23.1-40.2-33.3-59.5s-2.3-37.7,2.8-58.1C-210.1,637.1-199.5,566.9-219.5,577.7
		C-227.1,581.8-211.8,573.6-219.5,577.7z"/>
	<path id="hand-3" fill="#FFFFFF" d="M-207.9,548.7c-4.6-9.3,55.7-53.9,62.7-58.6c26.6-18.1,53.9-24.4,85.8-32.5
		c72-18.3,157.2-2.4,219.5,43.6c30.6,22.6,59.8,44,21.9,74.2c-32.7,25.8-92.8,10.5-120-18c-10.5-11.2-95.7-27.6-92.7-35.6
		c14.3-37.9,86.3-22.8,116.6-5.1c2.2,1.3,3.5-3.1,5.1-1.7c-47.3-37.4-128.3-27.8-183.2-12.7C-108.9,506.6-193.9,577-207.9,548.7
		C-211.8,540.8-204,556.5-207.9,548.7z"/>
</g>
</svg>
