<?xml version="1.0" encoding="utf-8"?>
<!-- Generator: Adobe Illustrator 17.1.0, SVG Export Plug-In . SVG Version: 6.00 Build 0)  -->
<!DOCTYPE svg PUBLIC "-//W3C//DTD SVG 1.1//EN" "http://www.w3.org/Graphics/SVG/1.1/DTD/svg11.dtd">
<svg version="1.1" id="Layer_1" xmlns="http://www.w3.org/2000/svg" xmlns:xlink="http://www.w3.org/1999/xlink" x="0px" y="0px"
	 viewBox="67.8 129.7 476 531.9" enable-background="new 67.8 129.7 476 531.9" xml:space="preserve">
<g id="name">
	<path id="i_1_" fill="#FFFFFF" d="M534.4,469.3h-9.9c-6.6,0-9.9,3.4-9.9,9.9v125.1c0,6.6,3.3,9.7,9.9,9.7h9.9
		c6.5,0,9.4-3.1,9.4-9.7V479.2C543.8,472.7,540.9,469.3,534.4,469.3z"/>
	<path id="n" fill="#FFFFFF" d="M397,604.4v-89.2c0-15.7,4.4-27.8,13.3-36.1c8.9-8.4,20.5-12.6,34.7-12.6c14.3,0,25.9,4.2,34.8,12.6
		c8.9,8.4,13.4,20.5,13.4,36.1v89.2c0,6.6-3.3,9.9-9.9,9.9h-9.9c-6.5,0-9.8-3.3-9.8-9.9V517c0-15.2-6.2-22.8-18.6-22.8
		c-12.2,0-18.4,7.6-18.4,22.8v87.4c0,6.6-3.3,9.9-9.9,9.9h-9.8C400.4,614.2,397,611,397,604.4z"/>
	<path id="a" fill="#FFFFFF" d="M282.7,573.6v-0.5c0-13.9,4.2-24.6,12.6-32.3c8.4-7.7,20.3-11.5,35.6-11.5h18.4V517
		c0-15.2-6.1-22.8-18.4-22.8c-5,0-8.9,1.4-11.6,4.1c-2.7,2.8-4.1,6.2-4.1,10.5c0,5.6-2.9,8.5-8.6,8.5h-11.3c-6.5,0-9.8-3.3-9.8-9.9
		c0-11.9,4.1-21.7,12.4-29.4s19.3-11.5,33-11.5c14.3,0,25.9,4.2,34.7,12.6c8.9,8.4,13.3,20.4,13.3,36.1v53.5
		c0,15.7-4.4,27.8-13.3,36.1s-20.5,12.6-34.7,12.6c-14.2,0-25.8-3.9-34.7-11.7C287.1,597.8,282.7,587.1,282.7,573.6z M317.4,556.2
		c-3.4,3.1-5.1,7.8-5.1,14.3c0,6.4,1.7,11.2,5.1,14.3c3.4,3.1,7.9,4.7,13.5,4.7c12.2,0,18.4-7.6,18.4-22.8v-15.2h-18.4
		C325.3,551.6,320.9,553.1,317.4,556.2z"/>
	<path id="j" fill="#FFFFFF" d="M255.6,469.3h-9.9c-6.6,0-9.8,3.4-9.8,9.9v144.1c0,7.1-3,10.6-8.8,10.6c-2,0-4.6-0.4-7.8-1.1
		c-2.7-0.6-5,0-6.5,1.8c-1.5,1.8-2.4,4.6-2.4,8v7.9c0,3.1,0.7,5.4,2,6.8c1.3,1.4,3.6,2.4,6.8,3.1c3.5,0.7,7.3,1.1,11.5,1.1
		c10.5,0,18.8-3,25.1-8.9c6.3-5.9,9.4-15.5,9.4-28.7V479.2C265.2,472.7,262.1,469.3,255.6,469.3z"/>
	<path id="i" fill="#FFFFFF" d="M203.7,469.3h-9.9c-6.6,0-10.1,3.4-10.1,9.9v125.1c0,6.6,3.5,9.7,10.1,9.7h9.9
		c6.5,0,9.9-3.1,9.9-9.7V479.2C213.6,472.7,210.2,469.3,203.7,469.3z"/>
	<path id="k" fill="#FFFFFF" d="M67.8,604.4V428.8c0-6.6,3.3-9.9,9.9-9.9h9.9c6.5,0,9.8,3.3,9.8,9.9v100l35.3-52
		c1.8-2.6,3.7-4.5,5.6-5.6c2-1.1,4.7-1.7,8-1.7h14c3.3,0,5.5,1.3,6.4,3.8c1,2.5,0.5,5-1.5,7.2l-37,47.4l38.5,75.5
		c1.4,2.6,1.6,5,0.4,7.3s-3.3,3.4-6.5,3.4h-12.8c-3.5,0-6.2-0.6-8-1.7c-1.8-1.1-3.4-3-4.7-5.7l-26-54.3l-11.9,15.4v36.3
		c0,6.6-3.3,9.9-9.8,9.9h-9.9C71.1,614.2,67.8,611,67.8,604.4z"/>
</g>
<g id="logo">
	<path id="hand-1" fill="#FFFFFF" d="M476.6,229c12.2,6.6,20.1,42.1,24.3,54.1c8,22.8,11,34.4,0.6,56.2
		c-9.9,20.8-21.2,47.6-38.5,63.5c-20.6,18.9-56.2,28.2-82.4,36c-24.4,7.3-61.5,7.4-60.2-26.3c1.4-36.9,42.6-54.1,74.3-58.6
		c12.5-1.8,20.2-4.1,30.8-11.7c5.8-4.1,23.7-23.2,29.2-10.8c5.9,13.1-6.8,30.3-15.9,38.4c-4.2,3.8-35.6,27.2-39.1,23.8
		c9.8,9.6,40.7-15.4,46.8-23c10.5-13.3,18-31.3,25.9-46.3c7.9-15,1.8-29.3-2.2-45.2C469.4,275.2,461.1,220.6,476.6,229
		C482.6,232.2,470.7,225.8,476.6,229z"/>
	<path id="hand-2" fill="#FFFFFF" d="M135.1,229c-12.2,6.6-20.1,42.1-24.3,54.1c-8,22.8-11,34.4-0.6,56.2
		c9.9,20.8,21.2,47.6,38.5,63.5c20.6,18.9,56.2,28.2,82.4,36c24.4,7.3,61.5,7.4,60.2-26.3c-1.4-36.9-42.6-54.1-74.3-58.6
		c-12.5-1.8-20.2-4.1-30.8-11.7c-5.8-4.1-23.7-23.2-29.2-10.8c-5.9,13.1,6.8,30.3,15.9,38.4c4.2,3.8,35.6,27.2,39.1,23.8
		c-9.8,9.6-40.7-15.4-46.8-23c-10.5-13.3-18-31.3-25.9-46.3c-7.9-15-1.8-29.3,2.2-45.2C142.4,275.2,150.6,220.6,135.1,229
		C129.2,232.2,141.1,225.8,135.1,229z"/>
	<path id="hand-3" fill="#FFFFFF" d="M144.1,206.4c-3.6-7.2,43.3-41.9,48.8-45.6c20.7-14.1,41.9-19,66.7-25.3
		c56-14.2,122.3-1.9,170.7,33.9c23.8,17.6,46.5,34.2,17,57.7c-25.4,20.1-72.2,8.2-93.3-14c-8.2-8.7-74.4-21.5-72.1-27.7
		c11.1-29.5,67.1-17.7,90.7-4c1.7,1,2.7-2.4,4-1.3c-36.8-29.1-99.8-21.6-142.5-9.9C221.1,173.7,155,228.4,144.1,206.4
		C141.1,200.3,147.1,212.5,144.1,206.4z"/>
</g>
</svg>
