<?xml version="1.0" encoding="utf-8"?>
<!-- Generator: Adobe Illustrator 17.1.0, SVG Export Plug-In . SVG Version: 6.00 Build 0)  -->
<!DOCTYPE svg PUBLIC "-//W3C//DTD SVG 1.1//EN" "http://www.w3.org/Graphics/SVG/1.1/DTD/svg11.dtd">
<svg version="1.1" id="Layer_1" xmlns="http://www.w3.org/2000/svg" xmlns:xlink="http://www.w3.org/1999/xlink" x="0px" y="0px"
	 viewBox="67.8 129.7 476 531.9" enable-background="new 67.8 129.7 476 531.9" xml:space="preserve">
<g id="tree">
	<path id="canopy" fill="#FFFFFF" d="M289.8,167.8c0.2,0.1,0.5,0.4,0.6,0.6c0.3,0.4,0.7,0.8,1.2,1.1c0.3,0.3,0.7,0.4,1.2,0.4
		c0.3,0,0.7-0.1,1-0.3l2.3-1.4l0.5-0.3c0.3,0.8,1,1.2,1.8,1.2c0.2,0,0.3,0,0.5-0.1c0.9-0.3,1.6-0.4,2.1-0.4c0.5,0,0.7,0.1,1.4,0.7
		c0.3,0.3,0.8,0.5,1.2,0.5c0.1,0,0.2,0,0.3,0c0.3-0.1,0.5-0.1,0.8-0.1c0.5-0.1,1-0.2,1.6-0.3c0.3,0,0.6-0.1,1-0.1
		c0.7,0,1.2,0.1,1.5,0.4c0.6,0.5,1.3,0.6,1.7,0.7h0.1c1.6,0.3,3.2,0.6,4.5,1.4c0.1,0,0.1,0.1,0.1,0.1c0.1,1,0.6,1.9,1.6,2.5
		c0.1,0.1,0.2,0.2,0.3,0.3l0.1,0.1c0.8,0.8,2,1.3,3.2,1.3c0.6,0,1.2-0.1,1.7-0.3c0.9-0.4,1.5-1,1.8-1.8c1.1,0.2,2.1,0.3,3.2,0.5
		c0.3,0.1,0.7,0.1,1.1,0.1c0.2,0,0.4,0,0.6-0.1c1-0.1,2.3-0.6,2.5-2.2c0.1,0,0.1,0.1,0.2,0.1l0.1,0.1c0.5,0.1,1,0.3,1.7,0.3
		c0.6,0,1.2-0.1,1.7-0.4c0.8,0.2,1.6,0.3,2.4,0.5c0.3,0.1,0.6,0.2,1,0.3c1.6,0.4,3,0.8,4.1,1.6c0.6,0.5,1.3,0.8,2,1
		c2.1,0.5,4,1.1,5.9,1.7l0.3,0.1c0.6,0.2,1.2,0.4,1.4,0.6c1.2,1.4,2.7,2.5,4.4,3.4c0.3,0.1,0.5,0.3,0.8,0.5c1.1,0.6,2.1,1.1,3,1.7
		c1.2,0.8,2.5,1.9,3.7,2.8c0.6,0.5,1.1,0.8,1.7,1.3l0.1,0.1c0.9,0.6,2.1,1.6,3.6,1.6c0.1,0,0.2,0,0.3,0c0.1,0,0.1,0,0.3,0
		c0.5,0,1,0.1,1.7,0.4c0.3,0.1,0.7,0.2,1,0.2c0.3,0.1,0.6,0.1,1,0.1c0.9,0,1.5-0.3,1.9-0.8c0.5,0.1,0.9,0.2,1.3,0.3
		c2.3,0.9,4.8,2,8,3.4c1.2,0.5,2.3,1.1,3.5,1.7l0.6,0.3c2.7,1.4,5.4,2.8,7.9,4.1c0.7,0.4,1.4,0.8,2.1,1.2c1,0.6,2.1,1.1,3.2,1.7
		c1.3,0.6,2.8,1.4,4.5,2.2c1,0.5,2.1,1,3.1,1.4l0.3,0.1c0.3,0.1,0.6,0.3,1,0.4c0.4,0.1,0.8,0.3,1.1,0.5c0.4,0.2,0.8,0.4,1.2,0.6
		c0.8,0.5,1.7,0.9,2.7,1.2c2.1,0.7,3.9,2.1,5.8,3.5c0.3,0.2,0.5,0.3,0.7,0.5c0.4,0.3,0.8,0.7,1.2,1.2c0.3,0.3,0.5,0.5,0.8,0.8
		c0.1,0.1,0.2,0.2,0.3,0.3c0.3,0.3,0.7,0.6,1.1,1c1.5,1.1,2.5,2,3.2,3c0.6,0.8,1.2,1.4,1.8,1.8c0.8,0.6,1.7,1.4,2.3,2.4
		c0.1,0.2,0.3,0.4,0.4,0.6c0.6,1,1.4,2.1,2.3,3c0.6,0.6,1,1.3,1.6,2.1c0.3,0.4,0.5,0.8,0.8,1.2c1,1.3,2.2,2.5,3.5,3.5
		c0.2,0.1,0.4,0.3,0.6,0.5c0.6,0.5,1.2,0.8,1.6,1.3l0.2,0.2c0.8,0.8,1.4,1.5,1.6,2.3c0.3,1.3,1,2.1,1.6,2.7c0.8,0.7,1.3,1.6,1.7,2.5
		l0.1,0.3c0.4,1,0.8,2.1,1.4,3.1c0.3,0.7,0.7,1.4,1,2.1c0.3,0.6,0.6,1.2,1,1.9c0.3,0.6,0.6,1.3,0.9,1.9c0.3,0.7,0.6,1.5,1,2.3
		c0.2,0.5,0.5,0.8,0.7,1.1c0.1,0.1,0.3,0.3,0.3,0.4l0.2,0.5c0.4,0.9,0.7,1.7,0.8,2.5c0.2,1.9,0.8,3.6,2.2,5.4c0.3,0.3,0.5,0.6,0.6,1
		c1.1,1.9,1.4,3.9,0.8,6.1c-0.1,0.6,0.1,1.4,0.5,1.8c0.4,0.3,0.6,0.8,0.8,1.5v1.6c-0.3,0.6-0.4,1.5,0,2.5v0.2
		c-0.1,0.2-0.1,0.5-0.3,0.6c-0.3,0.8-0.5,1.5-0.8,2.1c-0.5,1-0.6,1.9-0.6,2.9c0,1,0,2.1,0,3v0.3c0,0.9-0.3,1.1-0.6,1.3
		c-0.4,0.3-0.7,0.5-1,0.7c-0.1,0.1-0.2,0.1-0.3,0.2c-0.7,0.6-0.9,1.6-0.5,2.3c0.1,0.2,0.2,0.3,0.3,0.5c0.1,0.3,0.3,0.5,0.3,0.6
		c0.8,1.7,1.1,3.1,0.7,4.5c-0.1,0.5-0.1,0.9-0.1,1.2v0.1c0,0.2,0,0.5,0.1,0.6c0,0.5,0.1,0.8,0.1,1.3c0,0.1,0,0.3-0.2,0.3
		c-0.3,0.3-0.6,0.5-0.9,0.8c-0.1,0.1-0.3,0.3-0.5,0.4c-0.6,0.6-0.8,1.5-0.5,2.3c0.1,0.2,0.1,0.3,0.1,0.3s-0.1,0.1-0.4,0.4
		c-0.1,0.1-0.3,0.2-0.5,0.3c-0.6,0.4-1.4,0.9-1.9,1.8c-0.5,0.9-0.4,1.8-0.3,2.6c0,0.2,0,0.5,0,0.6s-0.1,0.2-0.1,0.3
		c-2.2,0.1-3,1.7-3.4,2.5c-0.5,0.9-1,1.8-1.6,2.8c-0.3,0.4-0.6,0.6-1,0.6c-1.1,0.1-1.9,0.5-2.4,0.8c-0.1,0.1-0.6,0.3-0.8,0.3h-0.1
		c-0.3-0.1-0.6-0.2-1-0.2c-0.5,0-1,0.1-1.3,0.3c-0.6,0.3-1.1,0.3-1.6,0.3c-0.3,0-0.5,0-0.7-0.1c-0.2-0.1-0.3-0.1-0.5-0.1
		c-0.3,0-0.7,0.1-1,0.3c-0.5,0.3-0.8,0.7-0.9,1.2c-0.1,0.5-0.4,0.8-1.3,1.4c-0.1,0.1-0.1,0.1-0.1,0.1c-0.2,0-0.6-0.1-1-0.3
		c-0.2-0.1-0.3-0.1-0.5-0.2s-0.4-0.1-0.6-0.1c-0.3,0-0.7,0.1-1,0.3c-0.5,0.3-0.8,0.7-0.9,1.3c-0.1,0.3-0.1,0.6-0.2,1
		c-0.1,0.7-0.3,1.4-0.5,2.1c-0.1,0.2-0.1,0.3-0.3,0.3h-0.1c-0.1,0-0.3,0-0.4,0c-0.2,0-0.5,0-0.6,0c-0.3,0-0.5,0.1-0.8,0.1l-0.2-0.3
		l-0.3-0.5c-0.3-0.5-0.8-0.7-1.4-0.8c-0.1,0-0.1,0-0.2,0c-0.5,0-0.9,0.2-1.3,0.5c-0.1,0.1-0.3,0.2-0.4,0.3c-0.2-0.1-0.4-0.3-0.6-0.4
		c-0.2-0.1-0.5-0.3-0.6-0.5c-0.3-0.2-0.7-0.3-1.1-0.3c-0.1,0-0.3,0-0.4,0.1c-0.5,0.1-1,0.4-1.2,0.8c-0.2,0.3-0.3,0.5-0.5,0.8
		c-0.3,0.5-0.7,1.1-1.1,1.6c-1.3,1.7-3.1,2.8-5,4.1c-0.2-0.5-0.6-1-1.3-1.3c-0.3-0.1-0.6-0.2-0.8-0.2c-0.5,0-0.9,0.2-1.3,0.5
		c-0.3,0.3-0.6,0.5-0.9,0.8c-0.6,0.6-1.4,1.2-2.1,1.8c-0.7,0.6-1.5,1.1-2.2,1.6l-0.1-0.2c-0.2-0.5-0.6-0.9-1-1.2
		c-0.3-0.1-0.5-0.2-0.8-0.2s-0.5,0.1-0.8,0.1c-1,0.5-1.9,1-2.7,1.5c-0.1,0.1-0.3,0.1-0.4,0.3c-0.1-0.1-0.1-0.1-0.2-0.2
		c-0.1-0.1-0.1-0.1-0.1-0.1l0.1-0.1c0.1-0.1,0.1-0.2,0.2-0.3c0-0.1,0.1-0.1,0.1-0.1c1.6-2.1,1.7-4.5,1.7-6.1c0-0.5-0.1-0.8-0.2-1.1
		c0-0.1-0.1-0.1-0.1-0.3c-0.2-0.8-0.8-1.4-1.6-1.5c-0.1,0-0.2,0-0.3,0c-0.7,0-1.4,0.4-1.7,1c-0.2,0.4-0.4,0.7-0.6,1
		c-0.3,0.7-0.7,1.4-1,1.9c-0.6,0.9-1.4,1.7-2.1,2.5c-0.2,0.2-0.4,0.5-0.6,0.6c-0.3-0.3-0.6-0.5-1-0.5c-0.1,0-0.3-0.1-0.4-0.1
		c-0.5,0-0.9,0.1-1.2,0.5l-0.1,0.1c-0.1,0.1-0.3,0.2-0.4,0.3c-0.5,0.5-1,0.9-1.6,1.4c-1.2,1-2.4,2.1-3.6,3c-0.8,0.6-1.8,1.2-2.8,1.4
		c-1.4,0.3-2.8,0.6-4.1,1c0.7-1.1,1.3-2.5,1.2-4.2c0-0.7-0.4-1.3-1-1.7c-0.3-0.1-0.6-0.3-0.9-0.3c-0.3,0-0.7,0.1-1,0.3
		c-0.1,0.1-0.3,0.1-0.4,0.2c-0.3,0.1-0.5,0.3-0.8,0.5c-0.6,0.5-1.3,0.8-1.9,1.3c-0.8,0.6-1.7,1.2-2.5,1.7l-0.3-0.6
		c-0.2-0.6-0.7-1-1.4-1.2c-0.2-0.1-0.3-0.1-0.5-0.1c-0.5,0-0.9,0.2-1.3,0.5l-0.5,0.4c-0.1,0.1-0.1,0.1-0.1,0.1
		c-0.4-0.5-0.7-1.1-1.1-1.6l-0.4-0.6c-0.3-0.5-0.8-0.8-1.4-0.8c-0.1,0-0.2,0-0.3,0c-0.5,0-0.9,0.1-1.2,0.5c-0.2,0.1-0.3,0.3-0.5,0.5
		c-0.3,0.3-0.5,0.5-0.8,0.6c-1.4,0.8-2.3,1.5-3.4,1.5c-0.3,0-0.5,0-0.7-0.1c-0.3-0.1-0.5-0.1-0.8-0.1c-0.3,0-0.6,0.1-0.9,0.1
		c-0.1,0-0.1,0.1-0.3,0.1l-0.3-1.3c-0.1-0.7-0.6-1.3-1.3-1.5c-0.2-0.1-0.4-0.1-0.6-0.1c-0.5,0-1,0.2-1.3,0.5c-2.3,2.1-5,3.2-8,4.3
		c0.2-0.5,0.3-1,0.5-1.5c0.5-1.4,0.9-3.3,0.2-5.4c-0.1-0.3-0.3-0.6-0.4-0.8c0-0.1-0.1-0.1-0.1-0.2c-0.3-0.6-0.8-1-1.4-1.1
		c-0.1,0-0.3,0-0.3,0c-0.5,0-1,0.2-1.4,0.6l-0.3,0.3l-2.4-1.1l-3.1-1.4c-0.3-0.1-0.5-0.2-0.8-0.2c-0.5,0-0.9,0.1-1.2,0.5
		c-0.6,0.5-0.8,1.2-0.6,1.9c0.1,0.4,0.2,0.8,0.3,1.2c0.1,0.4,0.2,0.8,0.3,1.2c-0.8-0.3-1.4-0.6-2-0.8c-0.8-0.4-1.2-0.9-1.6-1.6
		c-0.5-1.3-1-2.7-1.1-3.9c-0.1-0.6-0.2-1.2-0.3-1.8c-0.1-0.3-0.1-0.5-0.1-0.7c-0.1-0.7-0.6-1.3-1.3-1.5c-0.2-0.1-0.4-0.1-0.6-0.1
		c-0.5,0-1,0.2-1.4,0.5c-0.5,0.5-1,1-1.4,1.4c-1,1-2,2-3,2.8c-0.9,0.8-1.7,1.4-2.6,2c-0.1-0.3-0.1-0.5-0.1-0.8
		c-0.1-0.5-0.1-0.9-0.2-1.4c-0.1-0.8-0.7-1.4-1.5-1.6c-0.1-0.1-0.3-0.1-0.5-0.1c-0.6,0-1.2,0.3-1.6,0.8c-0.8,1.2-1.7,2.3-2.6,3.4
		c-0.1-0.8-0.2-1.6-0.3-2.5c-0.1-0.4-0.1-0.8-0.1-1.2c-0.1-0.6-0.5-1.2-1-1.5c-0.3-0.1-0.6-0.2-0.9-0.2c-0.3,0-0.6,0.1-0.9,0.3
		l-0.1,0.1c-0.1,0.1-0.3,0.1-0.4,0.2c-0.3,0.1-0.5,0.3-0.7,0.3c-0.4,0-0.6-0.5-0.8-0.7c0,0,0-0.1-0.1-0.1c-0.1-0.5-0.5-1.5-1.7-2
		c-0.3-0.1-0.5-0.1-0.7-0.1c-0.8,0-1.5,0.5-1.8,1.2c-0.1,0.3-0.3,0.7-0.5,1c-0.2,0.5-0.5,1-0.6,1.6c-0.2-0.2-0.3-0.4-0.5-0.6
		c-1.3-1.6-2.5-3-3.6-4.7c-1.1-1.8-2.1-3.7-3.2-5.6c-0.5-0.8-0.9-1.7-1.4-2.5c-0.3-0.6-1-1-1.7-1c-0.1,0-0.2,0-0.3,0h-0.1h-0.1
		c-1,0.2-1.7,1.1-1.6,2.1v0.2c-0.2-0.1-0.4-0.3-0.5-0.4c-1.5-1-3.1-2-5-2.8c-0.2-0.1-0.5-0.1-0.7-0.1c-0.4,0-0.8,0.1-1.1,0.3
		c-0.3,0.2-0.5,0.5-0.7,0.8c-0.8-1.2-1.5-2.6-2-3.9c-0.3-0.8-1-1.3-1.8-1.3l0,0c-0.8,0-1.6,0.6-1.8,1.4c-0.3,0.7-0.3,1.4-0.3,1.9
		c-0.1,1.7-0.7,3.4-1.2,5.1c-0.2,0.5-0.3,1-0.5,1.6c-0.7,2.3-1.5,4.3-2.5,6c-0.3,0.5-0.5,1-0.5,1.6c-0.1,0.3-0.1,0.4-0.3,0.6
		s-0.4,0.4-0.6,0.6c-0.1,0.1-0.2,0.2-0.3,0.3c-0.5,0.6-0.6,1.6-0.3,2.3c0.3,0.5,0.7,0.8,1.2,0.9c0,0.1-0.1,0.2-0.1,0.3
		c-0.1,0.3-0.3,0.5-0.4,0.7c-0.3,0.6-0.6,1.3-1,1.9c-0.9,1.4-1.9,2.8-2.8,4.1c-0.4-0.5-0.6-0.9-0.8-1.5c-0.3-0.8-1-1.3-1.8-1.4
		c0,0,0,0-0.1,0c-0.8,0-1.6,0.5-1.8,1.2c-0.5,1.2-0.6,2.3-0.6,3.5c-1-1.1-1.9-2.4-2.6-3.8c-0.3-0.6-0.9-1-1.6-1.1
		c-0.1,0-0.1,0-0.1,0c-0.6,0-1.2,0.3-1.6,0.8c-0.2,0.3-0.5,0.6-0.6,1c-0.4,0.6-0.8,1.2-1.2,1.7l-0.1,0.1c0-0.1-0.1-0.1-0.1-0.1
		c-0.1-0.3-0.2-0.6-0.3-1c-0.1-0.2-0.1-0.4-0.2-0.6c-0.2-0.6-0.6-1-1.2-1.2c-0.2-0.1-0.5-0.1-0.6-0.1c-0.4,0-0.7,0.1-1,0.3
		c-0.5,0.3-0.9,0.6-1.4,1c-0.6,0.5-1.1,0.8-1.6,1c-0.1-0.9-0.3-1.6-0.5-2.3c-0.1-0.4-0.3-0.7-0.3-1c-0.1-0.7-0.6-1.3-1.3-1.5
		c-0.2-0.1-0.5-0.1-0.6-0.1c-0.5,0-1,0.2-1.3,0.5c-0.4,0.4-0.7,0.7-1,1.1c-0.1,0.1-0.1,0.1-0.1,0.2l-0.3-0.4
		c-0.4-0.5-0.9-0.7-1.5-0.7c-0.1,0-0.2,0-0.3,0c-0.6,0.1-1.2,0.5-1.5,1.2c-0.1,0.2-0.2,0.4-0.3,0.6c0,0.1-0.1,0.1-0.1,0.1
		c-0.3-0.3-0.7-0.6-1-1c-0.8-0.8-1.7-1.2-2.7-1.2c-0.7,0-1.4,0.2-2.2,0.6c-0.7,0.5-1.1,1.2-0.9,2.1l0.1,0.6c0.1,0.5,0.2,1,0.3,1.5
		c0.1,0.4,0.1,0.8,0.3,1.2c0.1,0.6,0.3,1.2,0.3,1.8h-0.1c-0.5,0-0.9,0.1-1.2,0.5c-0.3,0.3-0.6,0.6-0.6,1c-0.1,0-0.3,0-0.5,0h-0.1
		c-1,0-1.7,0.7-1.9,1.7v0.1c0,0.1-0.1,0.4-0.1,0.6c-0.1,0.5-0.1,0.6-0.1,0.6s0,0-0.1,0.1c-0.7,0.3-1,1-1.3,1.3l-0.1,0.1
		c-0.1,0.3-0.3,0.5-0.3,0.6c-0.1,0.1-0.1,0.2-0.1,0.3c-0.3,0.3-0.5,0.5-0.5,0.5c-0.1,0-0.1-0.1-0.2-0.1c-0.3-0.3-0.6-0.3-0.8-0.4
		c-0.2-0.1-0.4-0.1-0.6-0.1c-0.5,0-0.9,0.1-1.2,0.5c-0.2,0.2-0.4,0.3-0.6,0.5c-0.3,0.3-0.6,0.6-0.9,0.8c-0.3,0.2-0.5,0.3-0.6,0.3
		c-0.1,0-0.1,0-0.3-0.1c-0.6-0.4-1.2-0.6-1.9-0.6c-0.2,0-0.3,0-0.5,0c-0.8,0.1-1.7,0.1-2.7,0.1h-0.1c-0.1,0-0.2,0-0.3,0l0,0
		c-0.2-0.5-0.5-0.8-0.9-1.2c-0.3-0.3-1.3-1.2-2.7-1.2c-0.5,0-0.9,0.1-1.4,0.3c-0.1,0.1-0.4,0.1-0.6,0.1c-0.1,0-0.2,0-0.3,0
		c-1.9-0.3-3.4-0.6-4.7-1.3c-0.8-0.4-1.5-0.6-2.1-0.6c-0.1,0-0.1,0-0.2,0s-0.1,0-0.2,0c-0.9,0-1.6-0.3-2.3-1.1c-0.9-1-2-1.7-3.4-1.9
		c-0.4-0.1-0.8-0.3-1.2-0.6c-1-0.8-1.7-1.9-2.2-2.9c-0.7-1.7-2-2.7-3.7-3c-0.1,0-0.3-0.1-0.4-0.1c-0.5,0-0.9,0.1-1.2,0.5
		c-0.1-0.1-0.2-0.1-0.3-0.2l-0.1-0.1l-0.1-0.1c-1-0.8-1.9-1.7-2.6-2.8c-0.3-0.4-0.6-0.9-1.3-1.2c-0.9-0.5-1.7-0.9-2.7-1.4
		c-0.5-0.2-0.8-0.5-1.3-0.6c-0.1,0-0.1-0.1-0.1-0.1c-0.7-0.8-1.6-1-2.1-1.1c-0.1,0-0.1,0-0.2-0.1c-1.3-0.3-2.2-0.9-2.9-1.8
		c-0.3-0.4-0.6-0.6-0.8-0.8c-0.1-0.1-0.1-0.1-0.2-0.1c-0.1-0.1-0.3-0.3-0.4-0.3c-0.1-0.1-0.3-0.3-0.4-0.3c-0.3-0.5-0.6-1-1-1.6
		c-0.1-0.2-0.3-0.5-0.4-0.6l-0.1-0.1c-0.3-0.5-0.9-1.5-2.1-1.9c0-0.1-0.1-0.1-0.1-0.1c-0.1-0.1-0.2-0.3-0.3-0.6l-0.1-0.2
		c-0.5-0.9-0.9-1.9-1.4-2.8l-0.6-1.2c-0.3-0.6-1-1.1-1.7-1.1c-0.1,0-0.3,0-0.3,0.1c-0.1-0.1-0.1-0.2-0.2-0.4
		c-0.3-0.6-0.5-1.1-0.7-1.6c-0.2-0.5-0.3-1-0.5-1.6c-0.1-0.3-0.2-0.5-0.3-0.8c-0.2-0.6-0.6-1-1.2-1.2c-0.2-0.1-0.4-0.1-0.6-0.1
		c-0.4,0-0.8,0.1-1.1,0.3c-0.3-0.7-0.5-1.5-0.8-2.3c-0.2-0.5-0.3-1-0.5-1.6c-0.1-0.4-0.3-0.6-0.5-0.8l-0.1-0.1
		c-0.4-0.6-1-0.9-1.7-0.9c-0.1,0-0.3,0-0.5,0.1c-0.1,0-0.1,0-0.1,0.1c-0.2-0.3-0.5-0.5-0.8-0.7c-0.8-0.5-1.2-1-1.5-1.8
		c-0.5-1.3-0.8-2.4-0.7-3.5v-0.1c0-0.8,0.1-2.1-0.9-3.2v-0.1c-0.1-0.1-0.1-0.3-0.1-0.5c-0.4-1.2-0.4-2.6,0-4.3
		c0.1-0.6,0.3-1.5-0.1-2.5c-0.2-0.5-0.3-1.1-0.3-1.6c0-0.5,0.1-1.1,0.2-1.7c0.1-0.5,0.2-1,0.2-1.6c0.1-0.8-0.1-1.6-0.2-2.1
		c-0.1-0.3-0.1-0.5-0.2-0.7c-0.1-0.4-0.2-0.7-0.1-0.9l0.3-1.4c0.1-0.6,0.2-1.2,0.3-1.8c0.1-0.5,0.3-1.7-0.8-2.9
		c-0.1-0.1-0.1-0.3-0.2-0.5c-0.1-0.2-0.2-0.5-0.3-0.7c-0.1-0.1-0.1-0.3-0.3-0.5v-0.8c0.1-0.2,0.2-0.4,0.3-0.6c0.3-1.2,1-2.2,1.7-3.4
		c0.2-0.3,0.3-0.6,0.5-0.8c0.5-0.8,0.9-1.6,1.4-2.3l0.5-0.7c0.7-1.2,0.9-2.4,0.5-3.6c-0.3-0.9-0.3-1.8,0-2.6
		c0.1-0.3,0.1-0.5,0.3-0.7c0.4-1,0.7-2,1.2-2.9c0.4-0.8,0.9-1.7,1.4-2.6c0.3-0.4,0.5-0.8,0.7-1.2c0.3-0.5,0.3-1,0.2-1.5l-0.1-0.2
		c-0.1-0.2-0.1-0.4-0.2-0.6c-0.4-1.1-0.1-1.7,0.1-2.1c0.6-1.2,1.3-2.3,2.1-3.3c0.7-1,1.6-2,2.8-3.3c0.9-0.9,1.8-1.7,2.7-2.5
		c0.4-0.3,0.8-0.6,1.3-1.2c0.1-0.2,0.3-0.4,0.5-0.6c0.4-0.5,0.7-1,1.1-1.4c1.1-1.1,2.3-2.2,3.5-3.2l0.3-0.3c1.2-1.1,2.5-2.3,3.9-3.3
		c0.6-0.5,1.4-1.3,1.7-2.7c0.4-1.7,1.3-3.3,2.7-4.7l0.1,0.1c0.3,0.6,1,1,1.7,1l0,0c0.7,0,1.4-0.4,1.7-1c0.1-0.1,0.1-0.3,0.2-0.3
		c0.1-0.3,0.3-0.5,0.5-0.9c0.5-1.2,1.5-2.1,2.5-2.8c0.1-0.1,0.1-0.1,0.3-0.2c0,0,0,0,0.1,0c0.1,0,0.3,0.1,0.5,0.1c0.1,0,0.1,0,0.2,0
		c0.7,0,1.4-0.4,1.7-1l0.2-0.3c0.1-0.3,0.3-0.5,0.5-0.8c1.3-2.3,3-4.3,5.2-6c0.2-0.1,0.4-0.3,0.6-0.4c0.4,0.4,0.8,0.6,1.4,0.6l0,0
		c0.6,0,1.1-0.3,1.5-0.7c0.1-0.1,0.1-0.1,0.1-0.1c0.1-0.1,0.3-0.3,0.4-0.5v-0.1c0.1-0.2,0.3-0.5,0.5-0.8c0.8-1.9,2.5-3.4,4.4-4.9
		c0.4-0.3,0.7-0.5,0.8-0.5c0.1,0,0.3,0.1,0.3,0.2c0.4,0.3,0.8,0.5,1.2,0.5c0.5,0,1-0.2,1.4-0.5c0.4-0.4,0.7-0.7,1.1-1
		c0.8-0.8,1.5-1.5,2.3-2.1c1.7-1.6,3.9-2.7,6.7-3.7c0.3-0.1,0.5-0.1,0.6-0.1c0.3,0.3,0.8,0.5,1.3,0.5c0.1,0,0.2,0,0.3,0
		c0.6-0.1,1.1-0.4,1.4-0.9l0.1-0.2c0.1-0.1,0.1-0.2,0.2-0.3c1.3-2.1,2.5-3.6,3.9-4.6l0.1-0.1c0.6-0.4,0.9-0.6,1.2-0.6
		c0.6,0,1-0.2,1.4-0.3c0.1-0.1,0.3-0.1,0.3-0.1c0.4-0.1,0.8-0.1,1.2-0.2c0.3-0.1,0.7-0.1,1-0.1h0.1c0.4-0.1,1.1-0.2,1.7-0.7
		c0.5-0.5,1.2-0.8,2.3-1.2c0.3-0.1,0.5-0.1,0.6-0.1l0,0c0.4,0.3,0.8,0.5,1.3,0.5c0.4,0,0.8-0.1,1.1-0.3c0.1,0,0.1-0.1,0.1-0.1
		c0.1-0.1,0.4-0.3,0.6-0.5c0.8-0.7,1.7-1.2,2.8-1.6c0.6-0.2,1.1-0.5,1.4-0.8l0.1-0.1c0.4-0.3,0.7-0.5,1.1-0.8
		c0.6-0.4,1.2-0.8,1.7-1.2c0.5-0.3,1.1-0.6,1.7-0.9h0.1c0.5,0.2,0.8,0.3,1.4,0.3c0.7,0,1.3-0.2,1.7-0.5c0.6-0.3,1.3-0.5,2-0.8
		c0.2-0.1,0.4-0.1,0.6-0.2c0.3,0.3,0.7,0.4,1.2,0.4c0.3,0,0.6-0.1,0.8-0.2c0.1-0.1,0.1-0.1,0.2-0.1c0.2-0.1,0.4-0.2,0.6-0.3
		c0.9-0.6,2-1,3.2-1c2.4-0.1,4.9-0.5,7.8-1.1c0.2-0.1,0.5-0.1,0.6-0.1c0.5-0.1,1-0.3,1.5-0.3c0.2,0,0.3,0,0.5,0.1s0.5,0.1,0.6,0.1
		c0.5,0,1-0.2,1.2-0.3c0.1,0,0.1,0,0.1-0.1c0.3-0.1,0.5-0.2,0.6-0.3l0,0c1.4-0.1,2.7-0.6,3.7-1c0.3-0.1,0.5-0.2,0.7-0.3
		c0.3-0.1,0.6-0.2,1-0.2c0.4,0,0.8,0.1,1.2,0.3c1.2,0.6,2.4,1,3.8,1c0.6,0,1.4-0.1,2.1-0.2c0.5-0.1,1-0.2,1.4-0.3l0.1-0.1
		c1-0.3,2.1-0.5,3.2-0.8L289.8,167.8 M297.6,165c-1.7,1-3.2,1.9-4.9,3c-1-0.7-1.6-1.9-2.8-2.2c-1.6,0.4-3,0.8-4.5,1.2
		c-0.5,0.1-1,0.3-1.5,0.3c-0.6,0.1-1.2,0.2-1.7,0.2c-1,0-1.9-0.2-2.8-0.7c-0.6-0.4-1.4-0.6-2.1-0.6c-0.6,0-1.2,0.1-1.7,0.3
		c-1.4,0.5-2.6,1.2-4.1,1.2c-0.3,0-0.6,0.3-1,0.4c-0.3,0.1-0.5,0.2-0.8,0.2c-0.1,0-0.1,0-0.1,0c-0.3-0.1-0.7-0.1-1-0.1
		c-0.8,0-1.7,0.3-2.5,0.4c-2.5,0.5-5,0.9-7.6,1c-1.5,0.1-3,0.5-4.2,1.4c-0.1,0.1-0.3,0.2-0.6,0.3c-0.3-0.4-0.5-0.5-0.8-0.5
		c-0.2,0-0.4,0.1-0.6,0.1c-1,0.4-2,0.8-3,1.2c-0.3,0.1-0.6,0.3-1,0.3c-0.3,0-0.5-0.1-0.8-0.3c-0.2-0.1-0.4-0.2-0.5-0.2
		c-0.2,0-0.4,0.1-0.6,0.1c-0.8,0.4-1.6,0.7-2.3,1.2c-1,0.6-1.9,1.3-2.8,1.9c-0.3,0.3-0.7,0.5-1.1,0.6c-1.3,0.5-2.5,1.1-3.5,2
		c-0.1,0.1-0.3,0.2-0.5,0.3c-0.4-0.4-0.8-0.5-1.3-0.5c-0.4,0-0.8,0.1-1.2,0.3c-1.1,0.4-2.1,0.8-3,1.6c-0.2,0.1-0.5,0.2-0.7,0.3
		c-0.8,0.1-1.5,0.2-2.3,0.3c-0.5,0.1-1,0.3-1.5,0.3c-1,0-1.7,0.5-2.4,1c-1.9,1.4-3.2,3.2-4.4,5.1c-0.1,0.1-0.1,0.3-0.3,0.5
		c-0.4-0.3-0.8-0.5-1.2-0.5c-0.5,0-0.8,0.1-1.3,0.3c-2.7,1-5.2,2.2-7.4,4.1c-1.2,1-2.3,2.1-3.4,3.2c-0.5-0.5-1-0.6-1.6-0.6
		c-0.7,0-1.4,0.4-2.1,0.9c-1.9,1.6-3.9,3.2-4.9,5.6c-0.1,0.2-0.2,0.4-0.3,0.6c-0.1,0.1-0.1,0.2-0.3,0.3c-0.2-0.2-0.3-0.4-0.4-0.5
		c-0.2-0.3-0.4-0.3-0.6-0.3c-0.1,0-0.3,0.1-0.4,0.1c-0.6,0.3-1.3,0.6-1.8,1c-2.3,1.8-4.3,4-5.7,6.7c-0.2,0.4-0.4,0.7-0.6,1.1
		c-0.3,0-0.6-0.1-0.8-0.1c-0.1,0-0.1,0-0.3,0c-0.4,0.1-0.7,0.3-1,0.5c-1.4,1-2.6,2.1-3.2,3.7c-0.1,0.3-0.3,0.6-0.5,1
		c-0.2-0.3-0.3-0.5-0.4-0.7c-0.3-0.5-0.5-0.8-0.9-0.8c-0.2,0-0.4,0.1-0.7,0.2c-0.4,0.1-0.8,0.4-1,0.7c-1.7,1.6-2.8,3.5-3.3,5.8
		c-0.1,0.6-0.5,1.1-1,1.6c-1.4,1.1-2.7,2.2-3.9,3.4c-1.4,1.2-2.7,2.3-3.9,3.6c-0.6,0.6-1.2,1.5-1.7,2.3c-0.3,0.3-0.6,0.6-0.9,0.8
		c-1,0.8-2,1.7-2.9,2.7c-1,1.1-2.1,2.3-3,3.5c-0.8,1.1-1.5,2.3-2.2,3.6c-0.6,1.2-0.6,2.5-0.3,3.7c0.1,0.3,0.1,0.5,0.2,0.7
		c-0.8,1.4-1.6,2.7-2.2,4c-0.6,1.2-1,2.5-1.4,3.8c-0.5,1.3-0.4,2.6,0,3.9c0.3,0.8,0.1,1.4-0.3,1.9c-0.6,1-1.3,2-1.9,3
		c-0.9,1.5-1.9,3-2.5,4.7c-0.1,0.2-0.3,0.3-0.4,0.5c0,0.5,0,1.1,0,1.6c0.1,0.3,0.3,0.5,0.5,0.7c0.3,0.5,0.4,1.2,0.8,1.6
		c0.4,0.5,0.4,0.8,0.3,1.2c-0.2,1-0.4,2.1-0.6,3.2c-0.1,0.8,0.2,1.6,0.3,2.4c0.1,0.5,0.2,1,0.2,1.6c-0.1,1.2-0.4,2.3-0.5,3.4
		c0,0.8,0.1,1.6,0.5,2.3c0.2,0.5,0.1,0.8,0.1,1.3c-0.5,1.8-0.6,3.6,0,5.4c0.1,0.4,0.2,0.8,0.4,1c0.6,0.6,0.5,1.4,0.5,2.2
		c-0.1,1.5,0.3,2.8,0.8,4.2c0.5,1.2,1.2,2.1,2.3,2.8c0.5,0.3,0.8,0.9,1.2,1.5c0.1,0.1,0.1,0.1,0.2,0.1c0.3,0,0.6-0.5,1-0.6
		c0.1,0.2,0.3,0.3,0.3,0.5c0.5,1.4,0.9,2.8,1.5,4.1c0.3,0.6,0.6,1.2,1.4,1.6c0.5-0.3,0.9-0.6,1.4-1c0.3,0.8,0.5,1.7,0.8,2.5
		c0.3,0.6,0.5,1.2,0.8,1.7c0.4,0.8,0.9,1.4,1.9,1.4c0.1,0,0.3,0,0.5-0.1c0.6,1.4,1.3,2.7,1.9,3.9c0.2,0.4,0.4,0.8,0.6,1.1
		c0.3,0.3,0.5,0.7,0.8,0.7c0.8,0.1,1,0.6,1.3,1.2c0.5,0.8,0.9,1.6,1.5,2.3c0.3,0.4,0.7,0.6,1.1,1c0.3,0.2,0.6,0.4,0.8,0.6
		c1,1.4,2.4,2.1,4,2.5c0.5,0.1,1,0.1,1.4,0.7c0.1,0.2,0.4,0.3,0.6,0.4c1.3,0.6,2.6,1.3,3.9,2c0.2,0.1,0.4,0.3,0.5,0.6
		c0.8,1.2,1.8,2.3,3,3.2c0.1,0.1,0.2,0.1,0.3,0.2c0.5,0.4,1,0.6,1.6,0.6c0.4,0,0.8-0.1,1.1-0.5c1.2,0.2,1.8,0.8,2.3,1.9
		c0.6,1.4,1.6,2.6,2.7,3.6c0.6,0.5,1.4,0.9,2.1,1.1c0.9,0.1,1.7,0.6,2.3,1.3c1,1.2,2.3,1.8,3.8,1.8c0.1,0,0.2,0,0.3,0h0.1
		c0.4,0,0.8,0.2,1.2,0.4c1.7,0.9,3.5,1.2,5.3,1.6c0.2,0,0.3,0.1,0.5,0.1c0.5,0,0.9-0.1,1.3-0.2c0.3-0.1,0.5-0.1,0.7-0.1
		c0.5,0,1,0.3,1.4,0.6c0.2,0.1,0.3,0.3,0.4,0.5c0.4,0.9,1.2,1.2,2,1.2h0.1c1,0,1.9-0.1,2.9-0.1c0.1,0,0.2,0,0.3,0
		c0.3,0,0.5,0.1,0.8,0.3c0.5,0.3,1,0.5,1.5,0.5c0.6,0,1.2-0.3,1.7-0.6c0.6-0.4,1.1-0.8,1.7-1.4c0.1,0,0.2,0.1,0.3,0.1
		c0.5,0.3,0.9,0.5,1.3,0.5c0.6,0,1.2-0.5,2-1.2c0.3-0.3,0.4-0.7,0.6-1.1c0.1-0.3,0.3-0.6,0.6-0.7c0.9-0.5,1.2-1.3,1.2-2.2
		c0-0.2,0.1-0.5,0.1-0.6h0.1c0.3,0,0.6,0,0.9,0c0.3,0,0.5,0,0.7-0.1c0.5-0.2,0.8-0.7,0.7-1.4c0.3,0.1,0.5,0.2,0.6,0.2
		c0.1,0,0.2,0,0.3,0c0.8,0,1.4-0.5,1.2-1.4c-0.1-1.4-0.5-2.7-0.8-4.1c-0.1-0.7-0.3-1.5-0.5-2.2c0.5-0.3,0.8-0.4,1.2-0.4
		c0.5,0,0.9,0.2,1.3,0.6c0.6,0.6,1.2,1.2,1.9,1.7c0.3,0.3,0.6,0.4,0.9,0.4c0.4,0,0.8-0.3,1-0.8c0.3-0.5,0.5-1,0.7-1.6
		c0.5,0.6,1,1.2,1.4,1.7c1.4-0.2,1.9-1.5,2.9-2.3c0.2,1.3,1,2.3,0.8,3.6c-0.1,0.5,0.2,1,0.4,1.6c0.1,0,0.3,0,0.5,0
		c2.1,0,3.4-1.6,5.1-2.6c0.2,0.6,0.3,1.2,0.5,1.7c0.3,0.6,0.6,1.4,0.9,1.9c0.1,0.2,0.3,0.3,0.5,0.3s0.3-0.1,0.4-0.2
		c0.6-0.5,1.2-1,1.6-1.6c0.6-0.8,1.2-1.7,1.9-2.7c1.4,3,3.5,5.2,6.1,7c0.2-0.1,0.5-0.3,0.9-0.6c-0.2-0.6-0.3-1.4-0.5-2
		c-0.4-1.4-0.3-2.7,0.3-4.2c0.5,1.7,1.6,2.6,2.7,3.7c0.4-0.3,0.8-0.6,1.1-0.9c1.2-1.6,2.3-3.2,3.4-4.9c0.6-0.8,1-1.8,1.5-2.8
		c0.3-0.7,0.3-1.4,0.1-2.1c-0.1-0.5-0.3-0.9-1-0.9c-0.1,0-0.3,0-0.4,0.1c0.3-0.4,0.6-0.6,0.8-0.9c0.5-0.5,0.7-1,0.8-1.6
		c0.1-0.3,0.1-0.7,0.3-1c1.2-2,2-4.2,2.7-6.4c0.7-2.3,1.6-4.6,1.8-7c0.1-0.5,0.1-1,0.3-1.5c1,2.8,2.6,5.2,4.7,7.4
		c0.3-0.2,0.6-0.4,0.9-0.6c0-0.9,0-1.7,0-2.7c2.8,1.1,5,3,7.5,4.3c0.3-0.3,0.6-0.5,1-0.6c-0.1-0.9-0.2-1.9-0.3-2.8
		c0.1,0,0.1,0,0.1,0c1.6,2.7,2.9,5.6,4.6,8.2c1.7,2.7,3.9,4.9,5.8,7.3c0.9-0.3,1.2-0.8,1.4-1.5c0.4-1.2,0.9-2.3,1.4-3.4
		c0.6,0.3,0.6,0.7,0.8,1c0.5,1.2,1.5,1.9,2.6,1.9c0.6,0,1.2-0.2,1.7-0.6c0.1-0.1,0.2-0.1,0.3-0.2c0.1,1.3,0.3,2.5,0.4,3.8
		c0.2,1.2,0.4,2.4,0.6,3.9c2.1-2.1,3.8-4.1,5.5-6.5c0.3,1.7,0.3,3.4,1,5c1.9-1,3.5-2.3,5.1-3.6c1.6-1.4,3-2.8,4.5-4.4
		c0.1,0.8,0.3,1.6,0.5,2.3c0.2,1.6,0.7,3,1.2,4.5c0.5,1.2,1.4,2.1,2.5,2.6c1.1,0.5,2.3,1,3.4,1.4c0.2,0.1,0.4,0.1,0.6,0.1
		c0.8,0,1.2-0.6,1-1.6c-0.3-1.2-0.6-2.5-0.9-3.7c2.3,1,4.5,2.1,6.7,3.1c0.4-0.4,0.8-0.8,1.3-1.2c0.1,0.3,0.3,0.5,0.4,0.8
		c0.5,1.4,0.3,2.8-0.2,4.2c-0.3,1-0.7,2.1-1,3.2c-0.1,0.1-0.1,0.3,0,0.5c0.1,0.4,0.2,0.8,0.3,1.3c4-1.5,8.1-2.7,11.4-5.7
		c0.3,1.2,0.5,2.3,0.6,3.4c0.8-0.3,1.6-0.5,2.3-0.7c0.1-0.1,0.3-0.1,0.4-0.1c0.1,0,0.2,0,0.3,0.1c0.4,0.1,0.8,0.1,1.2,0.1
		c1.7,0,3.1-0.9,4.5-1.8c0.5-0.3,1-0.8,1.4-1.2c0.5,0.8,1,1.6,1.5,2.3c0.2,0.3,0.3,0.5,0.6,0.7c0.3,0.4,0.6,0.6,0.9,0.6
		c0.3,0,0.5-0.1,0.8-0.5c0.3-0.3,0.6-0.6,1.2-1c0.3,0.9,0.6,1.7,0.9,2.5c0.1,0,0.2,0.1,0.3,0.1c0.5,0,1-0.3,1.4-0.6
		c1.7-1.1,3.3-2.3,5-3.4c0.3-0.2,0.6-0.4,1-0.6c0.1,2.1-1.1,3.5-2.3,4.9c0.1,0.6,0.3,1,0.4,1.7c0.5,0,0.9,0,1.4-0.1
		c1.9-0.5,3.8-0.9,5.8-1.4c1.4-0.3,2.6-0.9,3.6-1.7c1.7-1.4,3.5-2.9,5.2-4.4c0.2-0.1,0.3-0.3,0.5-0.4c0.3,0.6,0.5,1.1,0.8,1.7
		c1.2-0.5,1.7-1.6,2.5-2.4c0.8-0.8,1.6-1.7,2.3-2.7c0.6-0.9,1.1-2,1.7-3.1c0.1,0.3,0.2,0.6,0.2,0.9c0,1.7-0.3,3.5-1.4,4.9
		c-0.1,0.1-0.2,0.3-0.3,0.5c-0.3,0.5-0.8,0.9-1,1.4c-0.1,0.5,0.1,1,0.2,1.6c0.3-0.1,0.6-0.3,1-0.3c0.5,0.5,0.5,0.5,0.7,1.6
		c1.7-0.7,3-1.9,4.7-2.7c0.1,0.3,0.2,0.5,0.3,0.8c0.3,0.6,0.5,0.8,1,0.8c0.1,0,0.1,0,0.1,0c0.4,0,0.8-0.1,1.1-0.3
		c1-0.6,1.9-1.2,2.7-1.9c1.1-0.8,2.1-1.8,3.1-2.7c0.6,0.3,0.5,0.7,0.5,1c0.2,0.6,0.5,1,0.9,1c0.2,0,0.5-0.1,0.8-0.3
		c2.3-1.5,4.8-2.9,6.5-5.1c0.6-0.8,1.2-1.7,1.7-2.5c0.6,0.5,1.2,1,1.9,1.2c0.1,0.1,0.3,0.1,0.5,0.1c0.6,0,1.2-0.5,1.7-0.9
		c0.5,0.7,1,1.4,1.6,2.3c0.5-0.3,0.8-0.6,1.2-0.9c0.4,0,0.7,0.1,1,0.1c0.2,0,0.4,0,0.6-0.1c0.9-0.3,1.5-0.9,1.7-1.9s0.4-1.9,0.6-3
		c0.7,0.2,1.4,0.5,2.1,0.5c0.4,0,0.8-0.1,1.2-0.4c0.9-0.6,1.8-1.4,2.1-2.5c0.4,0.1,0.8,0.1,1.2,0.1c0.8,0,1.5-0.2,2.3-0.5
		c0.2-0.1,0.4-0.1,0.6-0.1c0.1,0,0.2,0,0.3,0.1c0.3,0.1,0.5,0.1,0.8,0.1c0.6,0,1.1-0.3,1.7-0.5c0.5-0.3,1-0.5,1.7-0.6
		c1-0.1,1.9-0.6,2.5-1.6c0.6-1,1.2-1.9,1.7-2.9c0.4-0.8,0.8-1.4,1.9-1.4c1-0.1,1.8-1.1,1.9-2.1c0-0.8-0.2-1.7,0.1-2.4s1.2-1,1.7-1.4
		c1-0.8,1.4-1.7,0.9-3c0.5-0.5,1-0.8,1.4-1.2c0.5-0.5,0.8-1.1,0.8-1.9c0-0.6-0.1-1.3-0.1-1.9c0-0.2-0.1-0.4,0-0.6
		c0.6-2.1-0.1-3.9-0.8-5.8c-0.2-0.4-0.4-0.8-0.6-1.2c0.3-0.3,0.6-0.6,1-0.8c1.1-0.6,1.5-1.7,1.5-2.9c0-1.2,0-2.3,0-3.5
		c0-0.8,0.2-1.4,0.5-2.1c0.5-1,0.8-2.1,1.2-3.2c0-0.3,0-0.6,0-0.9c-0.3-0.5-0.4-1.1,0-1.6c0-0.8,0-1.6,0-2.3c-0.3-1-0.6-1.9-1.4-2.7
		c0.6-2.7,0.3-5.2-1-7.5c-0.2-0.4-0.5-0.8-0.7-1.2c-1-1.4-1.7-2.7-1.8-4.5c-0.1-1.2-0.6-2.4-1.1-3.5c-0.3-0.6-0.8-1-1.1-1.6
		c-0.7-1.4-1.2-2.8-1.9-4.2c-0.6-1.3-1.4-2.6-2-3.9c-0.5-1.1-1-2.2-1.4-3.3c-0.5-1.2-1.2-2.3-2.2-3.2c-0.5-0.5-0.8-0.9-1-1.6
		c-0.3-1.4-1.4-2.4-2.3-3.4c-0.7-0.8-1.6-1.4-2.5-2c-1.2-0.8-2.2-1.9-3.1-3.1c-0.8-1.2-1.6-2.3-2.5-3.4c-0.9-1-1.7-2.2-2.4-3.4
		c-0.7-1.1-1.7-2-2.7-2.8c-0.5-0.5-1-0.9-1.5-1.5c-1-1.4-2.3-2.5-3.7-3.5c-0.5-0.3-0.8-0.7-1.2-1.1c-0.7-0.7-1.4-1.5-2.2-2.1
		c-2.2-1.6-4.3-3.3-7-4.3c-1.3-0.5-2.5-1.2-3.8-1.8c-0.7-0.3-1.4-0.6-2.1-0.9c-1.1-0.5-2.3-1-3.4-1.5c-1.5-0.7-3-1.4-4.5-2.2
		c-1.8-0.9-3.6-1.9-5.3-2.8c-2.7-1.4-5.2-2.8-7.9-4.1c-1.4-0.7-2.8-1.5-4.3-2.1c-2.7-1.2-5.4-2.4-8.1-3.5c-0.9-0.4-1.9-0.5-2.8-0.7
		c-0.5,0.8-0.6,1-1.1,1c-0.2,0-0.4,0-0.7-0.1c-0.2,0-0.4-0.1-0.6-0.1c-0.8-0.3-1.5-0.5-2.3-0.5c-0.1,0-0.3,0-0.4,0
		c-0.1,0-0.1,0-0.2,0c-0.9,0-1.7-0.6-2.5-1.2c-1.8-1.4-3.6-2.8-5.4-4.1c-1.2-0.9-2.7-1.6-4-2.3c-1.5-0.8-2.8-1.8-3.9-3
		c-0.6-0.7-1.6-1-2.5-1.3c-2-0.7-4-1.3-6.1-1.8c-0.5-0.1-1-0.4-1.4-0.6c-1.7-1.2-3.8-1.6-5.7-2.1c-0.9-0.3-1.9-0.5-2.8-0.6
		c-0.1,0-0.3-0.1-0.4-0.1c-0.1,0-0.3,0-0.3,0.1c-0.4,0.3-0.7,0.4-1.1,0.4c-0.5,0-0.9-0.1-1.4-0.3c-0.5-0.1-1-0.3-1.3-0.4
		c-0.5,0.4-0.9,0.7-1.4,1.1c0,0.1,0.1,0.2,0.1,0.3c0.1,0.8-0.1,1-0.8,1.1c-0.1,0-0.2,0-0.3,0c-0.3,0-0.5-0.1-0.8-0.1
		c-2.1-0.3-4.1-0.7-6.3-1c0.3,0.3,0.5,0.6,0.8,0.9c0.5,0.6,0.3,1.2-0.5,1.6c-0.3,0.1-0.6,0.2-0.9,0.2c-0.6,0-1.4-0.3-1.8-0.7
		c-0.3-0.3-0.5-0.5-0.8-0.7c-0.5-0.3-0.6-0.7-0.6-1.2c0-0.8-0.5-1.2-1.1-1.5c-1.6-0.9-3.4-1.4-5.1-1.7c-0.3-0.1-0.7-0.1-1-0.3
		c-0.8-0.7-1.7-0.9-2.7-0.9c-0.4,0-0.8,0-1.1,0.1c-0.8,0.1-1.7,0.3-2.5,0.4c-0.9-0.7-1.6-1.1-2.7-1.1c-0.6,0-1.5,0.1-2.6,0.5
		C298.1,166.6,297.9,165.9,297.6,165L297.6,165z"/>
	<path id="trunk" fill="#FFFFFF" d="M283.9,446.2c-1.7,0.3-5.2,0.1-5.2-0.2c-0.4,0.2-0.6-0.2-0.4-0.5v0.1c0.8-0.6,1.6-1.4,2.7-1.5
		c0.3-0.1,0.7-0.2,1-0.1c0.7,0.3,1.1-0.1,1.6-0.5c1.2-1,2.3-2.1,3.6-3.1c1.3-0.9,2.5-1.9,4.1-2.5c0.7-0.3,1.3-1,1.8-1.6
		c0.6-0.8,1.3-1.6,1.7-2.5c0.5-1.2,1-2.4,1.2-3.7c0.5-3.2,1-6.3,1.3-9.5c0.2-1.7,0.2-3.5,0.1-5.2c0-2.3-0.3-4.5-0.2-6.9
		c0.1-2.3-0.3-4.5-0.4-6.8c0-0.3-0.1-0.5-0.1-0.8c-0.6-3.6-1.2-7.2-1.7-10.9c-0.1-0.8-0.4-1.6-0.6-2.5c-0.4-1.5-0.8-3-1.2-4.5
		c-0.4-1.3-1-2.4-2.1-3.3c-0.5-0.5-1-1-1.5-1.6c-1-1.5-2.5-2.6-3.9-3.8c-1.4-1.2-3.1-1.9-4.7-2.6c-1.2-0.6-2.5-1.1-3.7-1.7
		c-0.8-0.4-1.7-0.8-2.6-1.2c-0.1-0.1-0.1-0.1-0.2-0.1c-1.5-0.8-3-1.6-4.5-2.5c-0.5-0.3-1-0.8-1.4-1.4c-0.5-0.6-0.9-1.4-1.4-2.1
		c-0.1-0.2-0.5-0.4-0.7-0.5c-0.8-0.2-1.4-0.6-1.8-1.2c-1-1.7-2.7-2.2-4.4-2.8c-0.8-0.3-1.6-0.3-2.5-0.5c-0.2-0.1-0.4-0.1-0.6-0.1
		c-1.1-0.4-2.2-0.5-3.4-0.1c-0.5,0.2-1.2,0-1.7-0.1c-1.7-0.2-3.4-0.4-4.8-1.5c-1.2-1-2.4-1.9-3.6-2.8c-1.1-0.8-1.9-1.8-2.7-3
		c-1.6-2.7-3-5.5-3.8-8.5c-0.1-0.4-0.2-0.8-0.3-1.1c0-0.1,0.1-0.1,0.2-0.4c0.3,0.6,0.5,1.1,0.7,1.6c0.5-0.2,0.3-0.5,0.3-0.8
		c-0.3-0.8-0.6-1.6-0.8-2.4c-0.2-0.6-0.3-1.2-0.5-1.7c0.1,0,0.1-0.1,0.2-0.1c0.3,0.6,0.6,1.2,1,1.8c0.7-0.6,0.1-1.2,0.1-1.7
		s-0.1-1.2-0.3-1.9c1.2,1,1.4,2.5,2.2,3.8c0.4-1-0.3-1.9-0.2-2.9c0.2,0.4,0.4,0.6,0.5,0.9c0.3,0.6,0.5,1.2,0.9,1.7
		c0.4,0.5,0.5,1.1,0.6,1.7c0.7,2.7,1.9,5,3.5,7.2c0.9,1.2,2.1,2.2,3.2,3.3c0.1,0.1,0.5,0.3,0.6,0.2c1.9-0.4,3.8,0.1,5.7,0.1
		c0.2,0,0.4,0,0.6-0.1c-0.1-0.8-0.5-1.4-0.9-1.9c-1.4-2.1-2.5-4.3-3.5-6.5c-0.3-0.8-0.5-1.6-0.7-2.4c0.1,0,0.2-0.1,0.3-0.1
		c0.3,0.7,0.6,1.5,1,2.5c0.1-1.1,0.2-1.9,0.3-2.8c0.2,1.1,1.3,1.4,1.8,2.2c-0.1-0.6-0.2-1.2-0.3-1.7c0.1,0,0.1-0.1,0.1-0.1
		c0.1,0.2,0.2,0.4,0.3,0.6c0.7,1.4,1.1,2.8,1.9,4.2c1.7,3,4.1,5.2,6.6,7.4c0.3,0.3,0.5,0.6,1.1,0.4c0.3-0.1,0.8,0.3,1.2,0.5
		c1.7,1.5,3.8,2.3,5.6,3.5c1.4,0.8,2.9,1.5,4.3,2.3c1.2,0.7,2.4,1.6,3.5,2.5c0.9,0.6,1.9,1.1,3,1.5c1,0.4,2.1,0.9,3,1.4
		c0.3,0.1,0.6,0.3,0.8,0.4c0.5,0.2,1,0.3,1.4,0.6c1.6,1,3.4,1.6,5.4,2.3c-0.6-2.2-1.3-4.2-1.9-6.1c-0.2-0.7-0.5-1.5-0.5-2.3
		c-0.3-1.9-1.2-3.7-1.9-5.4c-0.1-0.3-0.3-0.6-0.4-0.8c-0.3-1.5-0.9-2.8-1.7-4.1c-0.8-1.4-1.7-2.7-3.2-3.4c-0.5-0.3-0.8-0.6-1.3-1
		c-0.8-0.6-1.6-1.2-2.3-1.7c-0.1-0.1-0.4-0.2-0.5-0.3c-1.2-1.8-3.2-2.5-4.9-3.7c-0.6-0.5-1.3-0.8-1.9-1.4c0.4,0,0.8,0,1.4,0
		c-0.5-0.4-0.9-0.7-1.5-1.2c0.8,0.1,1.3,0.1,1.9,0.2c-0.5-0.5-1-0.9-1.5-1.3c0.1-0.1,0.1-0.2,0.2-0.3c0.3,0.1,0.6,0.1,0.9,0.3
		c0-0.1,0.1-0.2,0.1-0.3c-0.3-0.3-0.6-0.5-0.9-0.7c0.1-0.1,0.1-0.2,0.2-0.3c0.5,0.1,0.9,0.3,1.4,0.5c0-0.1,0.1-0.3,0.1-0.4
		c0.4,0,0.8,0,1.4,0c-0.5-0.5-0.8-0.8-1.2-1.2c0-0.1,0.1-0.1,0.1-0.1c1,0.5,2.1,0.9,3,1.4c0-0.1,0.1-0.1,0.1-0.1
		c-0.3-0.3-0.6-0.6-1-1c4.5,2.1,8.3,5,12.1,8.1c-0.5-3.2-0.6-6.3-0.9-9.3c-0.1-1.9-0.6-3.8-1-5.6c-0.6-3.2-1.2-6.5-1.7-9.8
		c-0.1-0.5-0.1-0.9-0.1-1.4c0.3-0.1,0.6-0.2,0.9-0.3c1.4,1.2,1.3,3.1,2.1,4.6c-0.2-1.2-0.4-2.5-0.6-3.6c0.1,0,0.1,0,0.3-0.1
		c0.8,1.9,0.9,4,1.7,5.9c-0.2-1.5-0.3-3-0.5-4.6c0.7,0.4,0.6,1,0.8,1.5c0.1-0.3,0.1-0.6,0.1-1c0.1,0.1,0.1,0.1,0.2,0.1
		c0.2,0.9,0.4,1.8,0.7,2.7c0.1-0.8,0.2-1.6,0.3-2.3c0.1,0,0.1,0,0.1-0.1c0.5,1.8,0.8,3.6,1.3,5.4c0.1,0,0.2-0.1,0.3-0.1
		c-0.1-1-0.2-1.9-0.3-3.1c0.8,1.2,0.7,2.5,1.3,3.7c0.1-0.5,0.1-0.8,0.1-1.2c0.1,0,0.1,0,0.1,0c0.1,0.5,0.3,0.8,0.4,1.4
		c0.1-0.3,0.2-0.4,0.3-0.7c0.1,0.6,0.3,1,0.5,1.6c0.1,0,0.1,0,0.1,0c0-0.9,0-1.8,0-3c0.5,0.8,0.6,1.6,0.6,2.3c0.2,1.4,0.4,2.7,0.5,4
		c0.2,3.1,0.6,6.2,1.5,9.2c0.8,3.1,1.3,6.3,2,9.5c0.4,1.6,0.8,3,1.1,4.6c0.3,2.1,0.5,4.2,0.7,6.3c0,0.2,0,0.4,0.1,0.5
		c0.4,0.6,0.8,1.3,1.2,1.9c0.1,0.1,0.3,0.2,0.5,0.3c0.6,0.1,1.3,0.3,1.8,0.1c0.6-0.1,1.3-0.5,1.7-0.9c1.6-1.5,3-3,4.5-4.7
		c1.9-2.1,3.5-4.4,5-6.8c2-3.1,4.1-6.1,6.2-9.2c0.5-0.6,0.8-1.3,1.2-2c0.6-1,1.2-1.9,1.7-2.8c0.2-0.3,0.6-0.5,1-0.8
		c0.3,0.8-0.4,0.8-0.6,1.2s-0.5,0.7-0.8,1.2c0.8-0.1,1-0.9,1.6-1.2c0.1,0.2,0.3,0.4,0.5,0.6c-0.1,0.3-0.2,0.5-0.3,0.8
		c0.1,0.1,0.1,0.1,0.1,0.1c0.2-0.3,0.4-0.7,0.6-1c0.1,0.1,0.2,0.1,0.3,0.2c-0.1,0.3-0.1,0.5-0.1,0.9c0.3-0.3,0.5-0.5,0.8-0.7
		c-0.1,0.4-0.1,0.6-0.1,1.1c0.3-0.3,0.6-0.5,0.9-0.7c-0.1,0.3-0.2,0.6-0.3,1.1c0.5-0.3,0.8-0.6,1.4-1c-0.3,0.6-0.5,1.1-0.8,1.5
		l0.1,0.1c0.5-0.4,0.9-0.8,1.5-1.4c-0.1,0.4-0.1,0.6-0.1,0.9c0.5-0.3,0.8-0.6,1.2-1c-0.1,0.3-0.1,0.5-0.2,0.8
		c0.4-0.1,0.8-0.6,1.1-0.1c-0.1,0.7-0.1,1.4-0.3,2c-0.3,1.4-1.4,2.3-2,3.4c-0.3,0.5-0.9,1-1,1.5c-0.3,1-1.3,1.7-1.7,2.6
		c-0.8,1.6-1.9,2.8-2.8,4.3s-1.8,2.9-2.7,4.3c-0.2,0.3-0.4,0.5-0.5,0.8c-1,2.8-2.5,5.4-3.2,8.3c-0.1,0.5-0.3,1-0.6,1.5
		c-0.8,1.4-1.4,2.9-1.7,4.5c-0.1,0.3-0.3,0.6-0.4,0.8c-0.3,0.6-0.6,1.2-0.8,1.8c-0.6,1.5-1.3,2.9-2.1,4.3c-0.6,1.1-1,2.3-0.8,3.7
		c0.1,1,0.5,1.9,1,2.8c0.3,0.5,0.6,1,0.9,1.5c0.6-1.7,1.9-2.7,3.1-3.8c1.3-1.1,2.8-2.1,4.1-3.2c0.7-0.6,1.3-1.2,1.9-1.9
		c1.8-1.8,3.7-3.7,5.2-5.8c0.4-0.5,1-1,0.8-1.8c-0.1-0.2,0.3-0.5,0.4-0.7c0.5-1,1.1-2,1.7-3.2c0.5,0.1,0.8-0.3,1-1
		c0.6-2.7,1-5.3,1-8c0.1-2.2,0.1-4.4,0.1-6.6c0-0.3-0.2-0.8,0.3-1c0.1-0.1,0.1-0.5,0.1-0.6c-0.3-2.3-0.1-4.5,0.1-6.8
		c0.1-0.5,0.3-1,0.6-1.6c0.7,1.4,0.3,3,0.7,4.5c0-0.6,0-1.3,0-1.9c0.1-0.6-0.1-1.3,0.5-2c0.1,0.5,0.3,0.8,0.5,1.4
		c0.2-1.4,0.3-2.7,0.5-3.9c0.5,2.1,0.1,4.3,0.3,6.6c1-1.5,0.8-3.2,1.4-4.7c0.2,2.4,0.4,4.9,0.6,7.5c0.3-1.5,0.5-2.8,0.7-4
		c0.1,0,0.1,0,0.2,0c0,0.3,0.1,0.5,0.1,0.8c-0.1,2.1-0.1,4.1-0.2,6.1c0,0.6,0.1,1.2,0.1,1.7c0,0.5,0,0.8,0,1.3c0,0.5,0.1,1,0.1,1.4
		c0,0.4-0.1,0.8-0.2,1.3c1.8-1.1,3.4-2.3,4.9-3.8c0.6-0.7,1.4-1.4,2.2-2.1c1.5-1.2,3.1-2.3,4.7-3.4c0.7-0.5,1.6-0.8,2.5-1
		c1.1-0.2,2.1-0.7,2.9-1.6c0.8-0.8,1.5-1.7,2.3-2.5c0.3-0.3,0.4-1,1-0.5c0.5-0.3,0.9-0.6,1.5-1.1c-0.1,0.3-0.1,0.5-0.2,1
		c0.5-0.3,0.7-0.4,1.1-0.6c-0.1,0.3-0.1,0.5-0.1,0.6c0.8,0.3,1.4-0.2,1.9-0.5c0.1,0.1,0.1,0.3,0.2,0.3c0.3-0.2,0.5-0.4,0.7-0.6
		c0.1,0.1,0.1,0.1,0.2,0.1c-0.1,0.3-0.1,0.7-0.3,1c-0.5,1.3-1.2,2.5-2.2,3.4c-0.2,0.2-0.5,0.5-0.6,0.7c-0.7,1.5-2,2.3-3.4,3
		c-1,0.5-2.1,1-3.2,1.4c-0.9,0.4-1.6,1-2.1,1.7c-0.7,0.8-1.4,1.7-2.3,2.3c-1.9,1.4-3.9,2.7-5.8,4c-1,0.7-1.8,1.6-2.8,2.2
		c-1.5,1-2.7,2.3-3.7,3.8c-0.2,0.3-0.4,0.6-0.5,1c-0.5,3.6-2.3,6.5-4.4,9.3c-0.3,0.3-0.4,0.6-0.6,1c-0.3,0.4-0.7,0.8-1,1.2
		c-0.7,0.8-1.4,1.6-2.1,2.3c-2.1,2.5-4.3,5-6.5,7.6c-0.1,0.2-0.3,0.4-0.5,0.5c-1.2,0.7-1.9,2-2.7,3.2c-0.8,1.1-1.6,2.2-2.5,3.2
		c-0.5,0.6-0.8,1.4-1.6,1.7c-0.2,0.6-0.5,1.2-0.5,1.7c-0.1,1.1-0.2,2.2-0.4,3.3c-0.3,1.4-0.5,2.8-0.6,4.2c-0.1,2.1,0.1,4.3,0.5,6.5
		c0.6,3,1,6.1,1.4,9.1c0.2,1.3,0.2,2.6,0.3,3.9c0,0.3,0.1,0.6,0.1,0.9c0.2,1.3,0.5,2.7,0.4,4c-0.1,2.6,0.1,5.2,0.6,7.7
		c0.2,1,0.5,1.9,0.8,2.8c0.4,1,1.2,1.7,2.1,2.3c0.6,0.5,1.4,0.9,2.1,1.2c1.7,0.8,7,1.9,8,3.7c-0.3,0-4.3,0.1-4.5,0.1
		c-0.3,0.1-0.6,0.1-1,0.1c-0.5,0-1,0-1.5-0.1c-1-0.3-2-0.3-3.1-0.2c-2.5,0.2-4.9,0.6-7.4-0.1c-0.5-0.1-1-0.4-1.5-0.6
		c-0.3-0.1-0.5-0.2-0.8-0.1c-1,0.1-1.9,0.3-2.8,0.5c-0.5,0.1-0.8,0.5-1.2,0.6c-0.3-0.1-0.6-0.3-1-0.4c-0.3-0.1-0.7,0-1,0
		c-0.1-0.3-0.1-0.4-0.2-0.6c-0.1,0-0.1-0.1-0.3-0.1c-1.4,0.2-2.8,0.4-4.1,0.5c-0.6,0.1-1.3-0.1-1.9-0.1c-0.5,0-1,0-1.5,0.1
		c-1.6,0.2-3.2,0.4-4.7,0.6c-0.5,0.1-0.7-0.4-1-0.5c-0.5-0.1-0.5-0.5-0.7-0.8c-0.8,0.3-1.6,0.6-2.3,0.8c-0.6,0.2-1.2,0.3-1.9,0.5
		c-0.1,0-0.2,0-0.2,0C286.1,446.7,284,446.6,283.9,446.2z"/>
</g>
<g id="name">
	<path id="i_1_" fill="#FFFFFF" d="M534.4,469.3h-9.9c-6.6,0-9.9,3.4-9.9,9.9v125.1c0,6.6,3.3,9.7,9.9,9.7h9.9
		c6.5,0,9.4-3.1,9.4-9.7V479.2C543.8,472.7,540.9,469.3,534.4,469.3z"/>
	<path id="n" fill="#FFFFFF" d="M397,604.4v-89.2c0-15.7,4.4-27.8,13.3-36.1c8.9-8.4,20.5-12.6,34.7-12.6c14.3,0,25.9,4.2,34.8,12.6
		c8.9,8.4,13.4,20.5,13.4,36.1v89.2c0,6.6-3.3,9.9-9.9,9.9h-9.9c-6.5,0-9.8-3.3-9.8-9.9V517c0-15.2-6.2-22.8-18.6-22.8
		c-12.2,0-18.4,7.6-18.4,22.8v87.4c0,6.6-3.3,9.9-9.9,9.9h-9.8C400.4,614.2,397,611,397,604.4z"/>
	<path id="a" fill="#FFFFFF" d="M282.7,573.6v-0.5c0-13.9,4.2-24.6,12.6-32.3c8.4-7.7,20.3-11.5,35.6-11.5h18.4V517
		c0-15.2-6.1-22.8-18.4-22.8c-5,0-8.9,1.4-11.6,4.1c-2.7,2.8-4.1,6.2-4.1,10.5c0,5.6-2.9,8.5-8.6,8.5h-11.3c-6.5,0-9.8-3.3-9.8-9.9
		c0-11.9,4.1-21.7,12.4-29.4s19.3-11.5,33-11.5c14.3,0,25.9,4.2,34.7,12.6c8.9,8.4,13.3,20.4,13.3,36.1v53.5
		c0,15.7-4.4,27.8-13.3,36.1s-20.5,12.6-34.7,12.6c-14.2,0-25.8-3.9-34.7-11.7C287.1,597.8,282.7,587.1,282.7,573.6z M317.4,556.2
		c-3.4,3.1-5.1,7.8-5.1,14.3c0,6.4,1.7,11.2,5.1,14.3c3.4,3.1,7.9,4.7,13.5,4.7c12.2,0,18.4-7.6,18.4-22.8v-15.2h-18.4
		C325.3,551.6,320.9,553.1,317.4,556.2z"/>
	<path id="j" fill="#FFFFFF" d="M255.6,469.3h-9.9c-6.6,0-9.8,3.4-9.8,9.9v144.1c0,7.1-3,10.6-8.8,10.6c-2,0-4.6-0.4-7.8-1.1
		c-2.7-0.6-5,0-6.5,1.8c-1.5,1.8-2.4,4.6-2.4,8v7.9c0,3.1,0.7,5.4,2,6.8c1.3,1.4,3.6,2.4,6.8,3.1c3.5,0.7,7.3,1.1,11.5,1.1
		c10.5,0,18.8-3,25.1-8.9c6.3-5.9,9.4-15.5,9.4-28.7V479.2C265.2,472.7,262.1,469.3,255.6,469.3z"/>
	<path id="i" fill="#FFFFFF" d="M203.7,469.3h-9.9c-6.6,0-10.1,3.4-10.1,9.9v125.1c0,6.6,3.5,9.7,10.1,9.7h9.9
		c6.5,0,9.9-3.1,9.9-9.7V479.2C213.6,472.7,210.2,469.3,203.7,469.3z"/>
	<path id="k" fill="#FFFFFF" d="M67.8,604.4V428.8c0-6.6,3.3-9.9,9.9-9.9h9.9c6.5,0,9.8,3.3,9.8,9.9v100l35.3-52
		c1.8-2.6,3.7-4.5,5.6-5.6c2-1.1,4.7-1.7,8-1.7h14c3.3,0,5.5,1.3,6.4,3.8c1,2.5,0.5,5-1.5,7.2l-37,47.4l38.5,75.5
		c1.4,2.6,1.6,5,0.4,7.3s-3.3,3.4-6.5,3.4h-12.8c-3.5,0-6.2-0.6-8-1.7c-1.8-1.1-3.4-3-4.7-5.7l-26-54.3l-11.9,15.4v36.3
		c0,6.6-3.3,9.9-9.8,9.9h-9.9C71.1,614.2,67.8,611,67.8,604.4z"/>
</g>
<g id="logo">
	<path id="hand-1" fill="#FFFFFF" d="M476.6,229c12.2,6.6,20.1,42.1,24.3,54.1c8,22.8,11,34.4,0.6,56.2
		c-9.9,20.8-21.2,47.6-38.5,63.5c-20.6,18.9-56.2,28.2-82.4,36c-24.4,7.3-61.5,7.4-60.2-26.3c1.4-36.9,42.6-54.1,74.3-58.6
		c12.5-1.8,20.2-4.1,30.8-11.7c5.8-4.1,23.7-23.2,29.2-10.8c5.9,13.1-6.8,30.3-15.9,38.4c-4.2,3.8-35.6,27.2-39.1,23.8
		c9.8,9.6,40.7-15.4,46.8-23c10.5-13.3,18-31.3,25.9-46.3c7.9-15,1.8-29.3-2.2-45.2C469.4,275.2,461.1,220.6,476.6,229
		C482.6,232.2,470.7,225.8,476.6,229z"/>
	<path id="hand-2" fill="#FFFFFF" d="M135.1,229c-12.2,6.6-20.1,42.1-24.3,54.1c-8,22.8-11,34.4-0.6,56.2
		c9.9,20.8,21.2,47.6,38.5,63.5c20.6,18.9,56.2,28.2,82.4,36c24.4,7.3,61.5,7.4,60.2-26.3c-1.4-36.9-42.6-54.1-74.3-58.6
		c-12.5-1.8-20.2-4.1-30.8-11.7c-5.8-4.1-23.7-23.2-29.2-10.8c-5.9,13.1,6.8,30.3,15.9,38.4c4.2,3.8,35.6,27.2,39.1,23.8
		c-9.8,9.6-40.7-15.4-46.8-23c-10.5-13.3-18-31.3-25.9-46.3c-7.9-15-1.8-29.3,2.2-45.2C142.4,275.2,150.6,220.6,135.1,229
		C129.2,232.2,141.1,225.8,135.1,229z"/>
	<path id="hand-3" fill="#FFFFFF" d="M144.1,206.4c-3.6-7.2,43.3-41.9,48.8-45.6c20.7-14.1,41.9-19,66.7-25.3
		c56-14.2,122.3-1.9,170.7,33.9c23.8,17.6,46.5,34.2,17,57.7c-25.4,20.1-72.2,8.2-93.3-14c-8.2-8.7-74.4-21.5-72.1-27.7
		c11.1-29.5,67.1-17.7,90.7-4c1.7,1,2.7-2.4,4-1.3c-36.8-29.1-99.8-21.6-142.5-9.9C221.1,173.7,155,228.4,144.1,206.4
		C141.1,200.3,147.1,212.5,144.1,206.4z"/>
</g>
</svg>
